<?xml version="1.0" encoding="utf-8" standalone="no"?>
<!DOCTYPE svg PUBLIC "-//W3C//DTD SVG 1.1//EN"
  "http://www.w3.org/Graphics/SVG/1.1/DTD/svg11.dtd">
<!-- Created with matplotlib (https://matplotlib.org/) -->
<svg height="366.492344pt" version="1.1" viewBox="0 0 551.40375 366.492344" width="551.40375pt" xmlns="http://www.w3.org/2000/svg" xmlns:xlink="http://www.w3.org/1999/xlink">
 <defs>
  <style type="text/css">
*{stroke-linecap:butt;stroke-linejoin:round;}
  </style>
 </defs>
 <g id="figure_1">
  <g id="patch_1">
   <path d="M 0 366.492344 
L 551.40375 366.492344 
L 551.40375 0 
L 0 0 
z
" style="fill:#ffffff;"/>
  </g>
  <g id="axes_1">
   <g id="patch_2">
    <path d="M 60.30875 295.93125 
L 506.70875 295.93125 
L 506.70875 24.13125 
L 60.30875 24.13125 
z
" style="fill:#ffffff;"/>
   </g>
   <g id="matplotlib.axis_1">
    <g id="xtick_1">
     <g id="line2d_1">
      <path clip-path="url(#pd359e39492)" d="M 80.599659 295.93125 
L 80.599659 24.13125 
" style="fill:none;stroke:#cccccc;stroke-linecap:round;"/>
     </g>
     <g id="text_1">
      <!-- Mar 04 -->
      <defs>
       <path d="M 9.8125 72.90625 
L 24.515625 72.90625 
L 43.109375 23.296875 
L 61.8125 72.90625 
L 76.515625 72.90625 
L 76.515625 0 
L 66.890625 0 
L 66.890625 64.015625 
L 48.09375 14.015625 
L 38.1875 14.015625 
L 19.390625 64.015625 
L 19.390625 0 
L 9.8125 0 
z
" id="DejaVuSans-77"/>
       <path d="M 34.28125 27.484375 
Q 23.390625 27.484375 19.1875 25 
Q 14.984375 22.515625 14.984375 16.5 
Q 14.984375 11.71875 18.140625 8.90625 
Q 21.296875 6.109375 26.703125 6.109375 
Q 34.1875 6.109375 38.703125 11.40625 
Q 43.21875 16.703125 43.21875 25.484375 
L 43.21875 27.484375 
z
M 52.203125 31.203125 
L 52.203125 0 
L 43.21875 0 
L 43.21875 8.296875 
Q 40.140625 3.328125 35.546875 0.953125 
Q 30.953125 -1.421875 24.3125 -1.421875 
Q 15.921875 -1.421875 10.953125 3.296875 
Q 6 8.015625 6 15.921875 
Q 6 25.140625 12.171875 29.828125 
Q 18.359375 34.515625 30.609375 34.515625 
L 43.21875 34.515625 
L 43.21875 35.40625 
Q 43.21875 41.609375 39.140625 45 
Q 35.0625 48.390625 27.6875 48.390625 
Q 23 48.390625 18.546875 47.265625 
Q 14.109375 46.140625 10.015625 43.890625 
L 10.015625 52.203125 
Q 14.9375 54.109375 19.578125 55.046875 
Q 24.21875 56 28.609375 56 
Q 40.484375 56 46.34375 49.84375 
Q 52.203125 43.703125 52.203125 31.203125 
z
" id="DejaVuSans-97"/>
       <path d="M 41.109375 46.296875 
Q 39.59375 47.171875 37.8125 47.578125 
Q 36.03125 48 33.890625 48 
Q 26.265625 48 22.1875 43.046875 
Q 18.109375 38.09375 18.109375 28.8125 
L 18.109375 0 
L 9.078125 0 
L 9.078125 54.6875 
L 18.109375 54.6875 
L 18.109375 46.1875 
Q 20.953125 51.171875 25.484375 53.578125 
Q 30.03125 56 36.53125 56 
Q 37.453125 56 38.578125 55.875 
Q 39.703125 55.765625 41.0625 55.515625 
z
" id="DejaVuSans-114"/>
       <path id="DejaVuSans-32"/>
       <path d="M 31.78125 66.40625 
Q 24.171875 66.40625 20.328125 58.90625 
Q 16.5 51.421875 16.5 36.375 
Q 16.5 21.390625 20.328125 13.890625 
Q 24.171875 6.390625 31.78125 6.390625 
Q 39.453125 6.390625 43.28125 13.890625 
Q 47.125 21.390625 47.125 36.375 
Q 47.125 51.421875 43.28125 58.90625 
Q 39.453125 66.40625 31.78125 66.40625 
z
M 31.78125 74.21875 
Q 44.046875 74.21875 50.515625 64.515625 
Q 56.984375 54.828125 56.984375 36.375 
Q 56.984375 17.96875 50.515625 8.265625 
Q 44.046875 -1.421875 31.78125 -1.421875 
Q 19.53125 -1.421875 13.0625 8.265625 
Q 6.59375 17.96875 6.59375 36.375 
Q 6.59375 54.828125 13.0625 64.515625 
Q 19.53125 74.21875 31.78125 74.21875 
z
" id="DejaVuSans-48"/>
       <path d="M 37.796875 64.3125 
L 12.890625 25.390625 
L 37.796875 25.390625 
z
M 35.203125 72.90625 
L 47.609375 72.90625 
L 47.609375 25.390625 
L 58.015625 25.390625 
L 58.015625 17.1875 
L 47.609375 17.1875 
L 47.609375 0 
L 37.796875 0 
L 37.796875 17.1875 
L 4.890625 17.1875 
L 4.890625 26.703125 
z
" id="DejaVuSans-52"/>
      </defs>
      <g style="fill:#262626;" transform="translate(83.634972 343.678594)rotate(-90)scale(0.11 -0.11)">
       <use xlink:href="#DejaVuSans-77"/>
       <use x="86.279297" xlink:href="#DejaVuSans-97"/>
       <use x="147.558594" xlink:href="#DejaVuSans-114"/>
       <use x="188.671875" xlink:href="#DejaVuSans-32"/>
       <use x="220.458984" xlink:href="#DejaVuSans-48"/>
       <use x="284.082031" xlink:href="#DejaVuSans-52"/>
      </g>
     </g>
    </g>
    <g id="xtick_2">
     <g id="line2d_2">
      <path clip-path="url(#pd359e39492)" d="M 111.816442 295.93125 
L 111.816442 24.13125 
" style="fill:none;stroke:#cccccc;stroke-linecap:round;"/>
     </g>
     <g id="text_2">
      <!-- Mar 05 -->
      <defs>
       <path d="M 10.796875 72.90625 
L 49.515625 72.90625 
L 49.515625 64.59375 
L 19.828125 64.59375 
L 19.828125 46.734375 
Q 21.96875 47.46875 24.109375 47.828125 
Q 26.265625 48.1875 28.421875 48.1875 
Q 40.625 48.1875 47.75 41.5 
Q 54.890625 34.8125 54.890625 23.390625 
Q 54.890625 11.625 47.5625 5.09375 
Q 40.234375 -1.421875 26.90625 -1.421875 
Q 22.3125 -1.421875 17.546875 -0.640625 
Q 12.796875 0.140625 7.71875 1.703125 
L 7.71875 11.625 
Q 12.109375 9.234375 16.796875 8.0625 
Q 21.484375 6.890625 26.703125 6.890625 
Q 35.15625 6.890625 40.078125 11.328125 
Q 45.015625 15.765625 45.015625 23.390625 
Q 45.015625 31 40.078125 35.4375 
Q 35.15625 39.890625 26.703125 39.890625 
Q 22.75 39.890625 18.8125 39.015625 
Q 14.890625 38.140625 10.796875 36.28125 
z
" id="DejaVuSans-53"/>
      </defs>
      <g style="fill:#262626;" transform="translate(114.851755 343.678594)rotate(-90)scale(0.11 -0.11)">
       <use xlink:href="#DejaVuSans-77"/>
       <use x="86.279297" xlink:href="#DejaVuSans-97"/>
       <use x="147.558594" xlink:href="#DejaVuSans-114"/>
       <use x="188.671875" xlink:href="#DejaVuSans-32"/>
       <use x="220.458984" xlink:href="#DejaVuSans-48"/>
       <use x="284.082031" xlink:href="#DejaVuSans-53"/>
      </g>
     </g>
    </g>
    <g id="xtick_3">
     <g id="line2d_3">
      <path clip-path="url(#pd359e39492)" d="M 143.033226 295.93125 
L 143.033226 24.13125 
" style="fill:none;stroke:#cccccc;stroke-linecap:round;"/>
     </g>
     <g id="text_3">
      <!-- Mar 06 -->
      <defs>
       <path d="M 33.015625 40.375 
Q 26.375 40.375 22.484375 35.828125 
Q 18.609375 31.296875 18.609375 23.390625 
Q 18.609375 15.53125 22.484375 10.953125 
Q 26.375 6.390625 33.015625 6.390625 
Q 39.65625 6.390625 43.53125 10.953125 
Q 47.40625 15.53125 47.40625 23.390625 
Q 47.40625 31.296875 43.53125 35.828125 
Q 39.65625 40.375 33.015625 40.375 
z
M 52.59375 71.296875 
L 52.59375 62.3125 
Q 48.875 64.0625 45.09375 64.984375 
Q 41.3125 65.921875 37.59375 65.921875 
Q 27.828125 65.921875 22.671875 59.328125 
Q 17.53125 52.734375 16.796875 39.40625 
Q 19.671875 43.65625 24.015625 45.921875 
Q 28.375 48.1875 33.59375 48.1875 
Q 44.578125 48.1875 50.953125 41.515625 
Q 57.328125 34.859375 57.328125 23.390625 
Q 57.328125 12.15625 50.6875 5.359375 
Q 44.046875 -1.421875 33.015625 -1.421875 
Q 20.359375 -1.421875 13.671875 8.265625 
Q 6.984375 17.96875 6.984375 36.375 
Q 6.984375 53.65625 15.1875 63.9375 
Q 23.390625 74.21875 37.203125 74.21875 
Q 40.921875 74.21875 44.703125 73.484375 
Q 48.484375 72.75 52.59375 71.296875 
z
" id="DejaVuSans-54"/>
      </defs>
      <g style="fill:#262626;" transform="translate(146.068538 343.678594)rotate(-90)scale(0.11 -0.11)">
       <use xlink:href="#DejaVuSans-77"/>
       <use x="86.279297" xlink:href="#DejaVuSans-97"/>
       <use x="147.558594" xlink:href="#DejaVuSans-114"/>
       <use x="188.671875" xlink:href="#DejaVuSans-32"/>
       <use x="220.458984" xlink:href="#DejaVuSans-48"/>
       <use x="284.082031" xlink:href="#DejaVuSans-54"/>
      </g>
     </g>
    </g>
    <g id="xtick_4">
     <g id="line2d_4">
      <path clip-path="url(#pd359e39492)" d="M 174.250009 295.93125 
L 174.250009 24.13125 
" style="fill:none;stroke:#cccccc;stroke-linecap:round;"/>
     </g>
     <g id="text_4">
      <!-- Mar 07 -->
      <defs>
       <path d="M 8.203125 72.90625 
L 55.078125 72.90625 
L 55.078125 68.703125 
L 28.609375 0 
L 18.3125 0 
L 43.21875 64.59375 
L 8.203125 64.59375 
z
" id="DejaVuSans-55"/>
      </defs>
      <g style="fill:#262626;" transform="translate(177.285321 343.678594)rotate(-90)scale(0.11 -0.11)">
       <use xlink:href="#DejaVuSans-77"/>
       <use x="86.279297" xlink:href="#DejaVuSans-97"/>
       <use x="147.558594" xlink:href="#DejaVuSans-114"/>
       <use x="188.671875" xlink:href="#DejaVuSans-32"/>
       <use x="220.458984" xlink:href="#DejaVuSans-48"/>
       <use x="284.082031" xlink:href="#DejaVuSans-55"/>
      </g>
     </g>
    </g>
    <g id="xtick_5">
     <g id="line2d_5">
      <path clip-path="url(#pd359e39492)" d="M 205.466792 295.93125 
L 205.466792 24.13125 
" style="fill:none;stroke:#cccccc;stroke-linecap:round;"/>
     </g>
     <g id="text_5">
      <!-- Mar 08 -->
      <defs>
       <path d="M 31.78125 34.625 
Q 24.75 34.625 20.71875 30.859375 
Q 16.703125 27.09375 16.703125 20.515625 
Q 16.703125 13.921875 20.71875 10.15625 
Q 24.75 6.390625 31.78125 6.390625 
Q 38.8125 6.390625 42.859375 10.171875 
Q 46.921875 13.96875 46.921875 20.515625 
Q 46.921875 27.09375 42.890625 30.859375 
Q 38.875 34.625 31.78125 34.625 
z
M 21.921875 38.8125 
Q 15.578125 40.375 12.03125 44.71875 
Q 8.5 49.078125 8.5 55.328125 
Q 8.5 64.0625 14.71875 69.140625 
Q 20.953125 74.21875 31.78125 74.21875 
Q 42.671875 74.21875 48.875 69.140625 
Q 55.078125 64.0625 55.078125 55.328125 
Q 55.078125 49.078125 51.53125 44.71875 
Q 48 40.375 41.703125 38.8125 
Q 48.828125 37.15625 52.796875 32.3125 
Q 56.78125 27.484375 56.78125 20.515625 
Q 56.78125 9.90625 50.3125 4.234375 
Q 43.84375 -1.421875 31.78125 -1.421875 
Q 19.734375 -1.421875 13.25 4.234375 
Q 6.78125 9.90625 6.78125 20.515625 
Q 6.78125 27.484375 10.78125 32.3125 
Q 14.796875 37.15625 21.921875 38.8125 
z
M 18.3125 54.390625 
Q 18.3125 48.734375 21.84375 45.5625 
Q 25.390625 42.390625 31.78125 42.390625 
Q 38.140625 42.390625 41.71875 45.5625 
Q 45.3125 48.734375 45.3125 54.390625 
Q 45.3125 60.0625 41.71875 63.234375 
Q 38.140625 66.40625 31.78125 66.40625 
Q 25.390625 66.40625 21.84375 63.234375 
Q 18.3125 60.0625 18.3125 54.390625 
z
" id="DejaVuSans-56"/>
      </defs>
      <g style="fill:#262626;" transform="translate(208.502104 343.678594)rotate(-90)scale(0.11 -0.11)">
       <use xlink:href="#DejaVuSans-77"/>
       <use x="86.279297" xlink:href="#DejaVuSans-97"/>
       <use x="147.558594" xlink:href="#DejaVuSans-114"/>
       <use x="188.671875" xlink:href="#DejaVuSans-32"/>
       <use x="220.458984" xlink:href="#DejaVuSans-48"/>
       <use x="284.082031" xlink:href="#DejaVuSans-56"/>
      </g>
     </g>
    </g>
    <g id="xtick_6">
     <g id="line2d_6">
      <path clip-path="url(#pd359e39492)" d="M 236.683575 295.93125 
L 236.683575 24.13125 
" style="fill:none;stroke:#cccccc;stroke-linecap:round;"/>
     </g>
     <g id="text_6">
      <!-- Mar 09 -->
      <defs>
       <path d="M 10.984375 1.515625 
L 10.984375 10.5 
Q 14.703125 8.734375 18.5 7.8125 
Q 22.3125 6.890625 25.984375 6.890625 
Q 35.75 6.890625 40.890625 13.453125 
Q 46.046875 20.015625 46.78125 33.40625 
Q 43.953125 29.203125 39.59375 26.953125 
Q 35.25 24.703125 29.984375 24.703125 
Q 19.046875 24.703125 12.671875 31.3125 
Q 6.296875 37.9375 6.296875 49.421875 
Q 6.296875 60.640625 12.9375 67.421875 
Q 19.578125 74.21875 30.609375 74.21875 
Q 43.265625 74.21875 49.921875 64.515625 
Q 56.59375 54.828125 56.59375 36.375 
Q 56.59375 19.140625 48.40625 8.859375 
Q 40.234375 -1.421875 26.421875 -1.421875 
Q 22.703125 -1.421875 18.890625 -0.6875 
Q 15.09375 0.046875 10.984375 1.515625 
z
M 30.609375 32.421875 
Q 37.25 32.421875 41.125 36.953125 
Q 45.015625 41.5 45.015625 49.421875 
Q 45.015625 57.28125 41.125 61.84375 
Q 37.25 66.40625 30.609375 66.40625 
Q 23.96875 66.40625 20.09375 61.84375 
Q 16.21875 57.28125 16.21875 49.421875 
Q 16.21875 41.5 20.09375 36.953125 
Q 23.96875 32.421875 30.609375 32.421875 
z
" id="DejaVuSans-57"/>
      </defs>
      <g style="fill:#262626;" transform="translate(239.718888 343.678594)rotate(-90)scale(0.11 -0.11)">
       <use xlink:href="#DejaVuSans-77"/>
       <use x="86.279297" xlink:href="#DejaVuSans-97"/>
       <use x="147.558594" xlink:href="#DejaVuSans-114"/>
       <use x="188.671875" xlink:href="#DejaVuSans-32"/>
       <use x="220.458984" xlink:href="#DejaVuSans-48"/>
       <use x="284.082031" xlink:href="#DejaVuSans-57"/>
      </g>
     </g>
    </g>
    <g id="xtick_7">
     <g id="line2d_7">
      <path clip-path="url(#pd359e39492)" d="M 267.900358 295.93125 
L 267.900358 24.13125 
" style="fill:none;stroke:#cccccc;stroke-linecap:round;"/>
     </g>
     <g id="text_7">
      <!-- Mar 10 -->
      <defs>
       <path d="M 12.40625 8.296875 
L 28.515625 8.296875 
L 28.515625 63.921875 
L 10.984375 60.40625 
L 10.984375 69.390625 
L 28.421875 72.90625 
L 38.28125 72.90625 
L 38.28125 8.296875 
L 54.390625 8.296875 
L 54.390625 0 
L 12.40625 0 
z
" id="DejaVuSans-49"/>
      </defs>
      <g style="fill:#262626;" transform="translate(270.935671 343.678594)rotate(-90)scale(0.11 -0.11)">
       <use xlink:href="#DejaVuSans-77"/>
       <use x="86.279297" xlink:href="#DejaVuSans-97"/>
       <use x="147.558594" xlink:href="#DejaVuSans-114"/>
       <use x="188.671875" xlink:href="#DejaVuSans-32"/>
       <use x="220.458984" xlink:href="#DejaVuSans-49"/>
       <use x="284.082031" xlink:href="#DejaVuSans-48"/>
      </g>
     </g>
    </g>
    <g id="xtick_8">
     <g id="line2d_8">
      <path clip-path="url(#pd359e39492)" d="M 299.117142 295.93125 
L 299.117142 24.13125 
" style="fill:none;stroke:#cccccc;stroke-linecap:round;"/>
     </g>
     <g id="text_8">
      <!-- Mar 11 -->
      <g style="fill:#262626;" transform="translate(302.152454 343.678594)rotate(-90)scale(0.11 -0.11)">
       <use xlink:href="#DejaVuSans-77"/>
       <use x="86.279297" xlink:href="#DejaVuSans-97"/>
       <use x="147.558594" xlink:href="#DejaVuSans-114"/>
       <use x="188.671875" xlink:href="#DejaVuSans-32"/>
       <use x="220.458984" xlink:href="#DejaVuSans-49"/>
       <use x="284.082031" xlink:href="#DejaVuSans-49"/>
      </g>
     </g>
    </g>
    <g id="xtick_9">
     <g id="line2d_9">
      <path clip-path="url(#pd359e39492)" d="M 330.333925 295.93125 
L 330.333925 24.13125 
" style="fill:none;stroke:#cccccc;stroke-linecap:round;"/>
     </g>
     <g id="text_9">
      <!-- Mar 12 -->
      <defs>
       <path d="M 19.1875 8.296875 
L 53.609375 8.296875 
L 53.609375 0 
L 7.328125 0 
L 7.328125 8.296875 
Q 12.9375 14.109375 22.625 23.890625 
Q 32.328125 33.6875 34.8125 36.53125 
Q 39.546875 41.84375 41.421875 45.53125 
Q 43.3125 49.21875 43.3125 52.78125 
Q 43.3125 58.59375 39.234375 62.25 
Q 35.15625 65.921875 28.609375 65.921875 
Q 23.96875 65.921875 18.8125 64.3125 
Q 13.671875 62.703125 7.8125 59.421875 
L 7.8125 69.390625 
Q 13.765625 71.78125 18.9375 73 
Q 24.125 74.21875 28.421875 74.21875 
Q 39.75 74.21875 46.484375 68.546875 
Q 53.21875 62.890625 53.21875 53.421875 
Q 53.21875 48.921875 51.53125 44.890625 
Q 49.859375 40.875 45.40625 35.40625 
Q 44.1875 33.984375 37.640625 27.21875 
Q 31.109375 20.453125 19.1875 8.296875 
z
" id="DejaVuSans-50"/>
      </defs>
      <g style="fill:#262626;" transform="translate(333.369237 343.678594)rotate(-90)scale(0.11 -0.11)">
       <use xlink:href="#DejaVuSans-77"/>
       <use x="86.279297" xlink:href="#DejaVuSans-97"/>
       <use x="147.558594" xlink:href="#DejaVuSans-114"/>
       <use x="188.671875" xlink:href="#DejaVuSans-32"/>
       <use x="220.458984" xlink:href="#DejaVuSans-49"/>
       <use x="284.082031" xlink:href="#DejaVuSans-50"/>
      </g>
     </g>
    </g>
    <g id="xtick_10">
     <g id="line2d_10">
      <path clip-path="url(#pd359e39492)" d="M 361.550708 295.93125 
L 361.550708 24.13125 
" style="fill:none;stroke:#cccccc;stroke-linecap:round;"/>
     </g>
     <g id="text_10">
      <!-- Mar 13 -->
      <defs>
       <path d="M 40.578125 39.3125 
Q 47.65625 37.796875 51.625 33 
Q 55.609375 28.21875 55.609375 21.1875 
Q 55.609375 10.40625 48.1875 4.484375 
Q 40.765625 -1.421875 27.09375 -1.421875 
Q 22.515625 -1.421875 17.65625 -0.515625 
Q 12.796875 0.390625 7.625 2.203125 
L 7.625 11.71875 
Q 11.71875 9.328125 16.59375 8.109375 
Q 21.484375 6.890625 26.8125 6.890625 
Q 36.078125 6.890625 40.9375 10.546875 
Q 45.796875 14.203125 45.796875 21.1875 
Q 45.796875 27.640625 41.28125 31.265625 
Q 36.765625 34.90625 28.71875 34.90625 
L 20.21875 34.90625 
L 20.21875 43.015625 
L 29.109375 43.015625 
Q 36.375 43.015625 40.234375 45.921875 
Q 44.09375 48.828125 44.09375 54.296875 
Q 44.09375 59.90625 40.109375 62.90625 
Q 36.140625 65.921875 28.71875 65.921875 
Q 24.65625 65.921875 20.015625 65.03125 
Q 15.375 64.15625 9.8125 62.3125 
L 9.8125 71.09375 
Q 15.4375 72.65625 20.34375 73.4375 
Q 25.25 74.21875 29.59375 74.21875 
Q 40.828125 74.21875 47.359375 69.109375 
Q 53.90625 64.015625 53.90625 55.328125 
Q 53.90625 49.265625 50.4375 45.09375 
Q 46.96875 40.921875 40.578125 39.3125 
z
" id="DejaVuSans-51"/>
      </defs>
      <g style="fill:#262626;" transform="translate(364.586021 343.678594)rotate(-90)scale(0.11 -0.11)">
       <use xlink:href="#DejaVuSans-77"/>
       <use x="86.279297" xlink:href="#DejaVuSans-97"/>
       <use x="147.558594" xlink:href="#DejaVuSans-114"/>
       <use x="188.671875" xlink:href="#DejaVuSans-32"/>
       <use x="220.458984" xlink:href="#DejaVuSans-49"/>
       <use x="284.082031" xlink:href="#DejaVuSans-51"/>
      </g>
     </g>
    </g>
    <g id="xtick_11">
     <g id="line2d_11">
      <path clip-path="url(#pd359e39492)" d="M 392.767491 295.93125 
L 392.767491 24.13125 
" style="fill:none;stroke:#cccccc;stroke-linecap:round;"/>
     </g>
     <g id="text_11">
      <!-- Mar 14 -->
      <g style="fill:#262626;" transform="translate(395.802804 343.678594)rotate(-90)scale(0.11 -0.11)">
       <use xlink:href="#DejaVuSans-77"/>
       <use x="86.279297" xlink:href="#DejaVuSans-97"/>
       <use x="147.558594" xlink:href="#DejaVuSans-114"/>
       <use x="188.671875" xlink:href="#DejaVuSans-32"/>
       <use x="220.458984" xlink:href="#DejaVuSans-49"/>
       <use x="284.082031" xlink:href="#DejaVuSans-52"/>
      </g>
     </g>
    </g>
    <g id="xtick_12">
     <g id="line2d_12">
      <path clip-path="url(#pd359e39492)" d="M 423.984274 295.93125 
L 423.984274 24.13125 
" style="fill:none;stroke:#cccccc;stroke-linecap:round;"/>
     </g>
     <g id="text_12">
      <!-- Mar 15 -->
      <g style="fill:#262626;" transform="translate(427.019587 343.678594)rotate(-90)scale(0.11 -0.11)">
       <use xlink:href="#DejaVuSans-77"/>
       <use x="86.279297" xlink:href="#DejaVuSans-97"/>
       <use x="147.558594" xlink:href="#DejaVuSans-114"/>
       <use x="188.671875" xlink:href="#DejaVuSans-32"/>
       <use x="220.458984" xlink:href="#DejaVuSans-49"/>
       <use x="284.082031" xlink:href="#DejaVuSans-53"/>
      </g>
     </g>
    </g>
    <g id="xtick_13">
     <g id="line2d_13">
      <path clip-path="url(#pd359e39492)" d="M 455.201058 295.93125 
L 455.201058 24.13125 
" style="fill:none;stroke:#cccccc;stroke-linecap:round;"/>
     </g>
     <g id="text_13">
      <!-- Mar 16 -->
      <g style="fill:#262626;" transform="translate(458.23637 343.678594)rotate(-90)scale(0.11 -0.11)">
       <use xlink:href="#DejaVuSans-77"/>
       <use x="86.279297" xlink:href="#DejaVuSans-97"/>
       <use x="147.558594" xlink:href="#DejaVuSans-114"/>
       <use x="188.671875" xlink:href="#DejaVuSans-32"/>
       <use x="220.458984" xlink:href="#DejaVuSans-49"/>
       <use x="284.082031" xlink:href="#DejaVuSans-54"/>
      </g>
     </g>
    </g>
    <g id="xtick_14">
     <g id="line2d_14">
      <path clip-path="url(#pd359e39492)" d="M 486.417841 295.93125 
L 486.417841 24.13125 
" style="fill:none;stroke:#cccccc;stroke-linecap:round;"/>
     </g>
     <g id="text_14">
      <!-- Mar 17 -->
      <g style="fill:#262626;" transform="translate(489.453153 343.678594)rotate(-90)scale(0.11 -0.11)">
       <use xlink:href="#DejaVuSans-77"/>
       <use x="86.279297" xlink:href="#DejaVuSans-97"/>
       <use x="147.558594" xlink:href="#DejaVuSans-114"/>
       <use x="188.671875" xlink:href="#DejaVuSans-32"/>
       <use x="220.458984" xlink:href="#DejaVuSans-49"/>
       <use x="284.082031" xlink:href="#DejaVuSans-55"/>
      </g>
     </g>
    </g>
    <g id="text_15">
     <!-- Datum -->
     <defs>
      <path d="M 19.671875 64.796875 
L 19.671875 8.109375 
L 31.59375 8.109375 
Q 46.6875 8.109375 53.6875 14.9375 
Q 60.6875 21.78125 60.6875 36.53125 
Q 60.6875 51.171875 53.6875 57.984375 
Q 46.6875 64.796875 31.59375 64.796875 
z
M 9.8125 72.90625 
L 30.078125 72.90625 
Q 51.265625 72.90625 61.171875 64.09375 
Q 71.09375 55.28125 71.09375 36.53125 
Q 71.09375 17.671875 61.125 8.828125 
Q 51.171875 0 30.078125 0 
L 9.8125 0 
z
" id="DejaVuSans-68"/>
      <path d="M 18.3125 70.21875 
L 18.3125 54.6875 
L 36.8125 54.6875 
L 36.8125 47.703125 
L 18.3125 47.703125 
L 18.3125 18.015625 
Q 18.3125 11.328125 20.140625 9.421875 
Q 21.96875 7.515625 27.59375 7.515625 
L 36.8125 7.515625 
L 36.8125 0 
L 27.59375 0 
Q 17.1875 0 13.234375 3.875 
Q 9.28125 7.765625 9.28125 18.015625 
L 9.28125 47.703125 
L 2.6875 47.703125 
L 2.6875 54.6875 
L 9.28125 54.6875 
L 9.28125 70.21875 
z
" id="DejaVuSans-116"/>
      <path d="M 8.5 21.578125 
L 8.5 54.6875 
L 17.484375 54.6875 
L 17.484375 21.921875 
Q 17.484375 14.15625 20.5 10.265625 
Q 23.53125 6.390625 29.59375 6.390625 
Q 36.859375 6.390625 41.078125 11.03125 
Q 45.3125 15.671875 45.3125 23.6875 
L 45.3125 54.6875 
L 54.296875 54.6875 
L 54.296875 0 
L 45.3125 0 
L 45.3125 8.40625 
Q 42.046875 3.421875 37.71875 1 
Q 33.40625 -1.421875 27.6875 -1.421875 
Q 18.265625 -1.421875 13.375 4.4375 
Q 8.5 10.296875 8.5 21.578125 
z
M 31.109375 56 
z
" id="DejaVuSans-117"/>
      <path d="M 52 44.1875 
Q 55.375 50.25 60.0625 53.125 
Q 64.75 56 71.09375 56 
Q 79.640625 56 84.28125 50.015625 
Q 88.921875 44.046875 88.921875 33.015625 
L 88.921875 0 
L 79.890625 0 
L 79.890625 32.71875 
Q 79.890625 40.578125 77.09375 44.375 
Q 74.3125 48.1875 68.609375 48.1875 
Q 61.625 48.1875 57.5625 43.546875 
Q 53.515625 38.921875 53.515625 30.90625 
L 53.515625 0 
L 44.484375 0 
L 44.484375 32.71875 
Q 44.484375 40.625 41.703125 44.40625 
Q 38.921875 48.1875 33.109375 48.1875 
Q 26.21875 48.1875 22.15625 43.53125 
Q 18.109375 38.875 18.109375 30.90625 
L 18.109375 0 
L 9.078125 0 
L 9.078125 54.6875 
L 18.109375 54.6875 
L 18.109375 46.1875 
Q 21.1875 51.21875 25.484375 53.609375 
Q 29.78125 56 35.6875 56 
Q 41.65625 56 45.828125 52.96875 
Q 50 49.953125 52 44.1875 
z
" id="DejaVuSans-109"/>
     </defs>
     <g style="fill:#262626;" transform="translate(263.212812 356.796719)scale(0.12 -0.12)">
      <use xlink:href="#DejaVuSans-68"/>
      <use x="77.001953" xlink:href="#DejaVuSans-97"/>
      <use x="138.28125" xlink:href="#DejaVuSans-116"/>
      <use x="177.490234" xlink:href="#DejaVuSans-117"/>
      <use x="240.869141" xlink:href="#DejaVuSans-109"/>
     </g>
    </g>
   </g>
   <g id="matplotlib.axis_2">
    <g id="ytick_1">
     <g id="line2d_15">
      <path clip-path="url(#pd359e39492)" d="M 60.30875 283.576705 
L 506.70875 283.576705 
" style="fill:none;stroke:#cccccc;stroke-linecap:round;"/>
     </g>
     <g id="text_16">
      <!-- 0 -->
      <g style="fill:#262626;" transform="translate(43.81 287.755845)scale(0.11 -0.11)">
       <use xlink:href="#DejaVuSans-48"/>
      </g>
     </g>
     <g id="text_17">
      <!-- 0 -->
      <g style="fill:#262626;" transform="translate(516.20875 287.755845)scale(0.11 -0.11)">
       <use xlink:href="#DejaVuSans-48"/>
      </g>
     </g>
    </g>
    <g id="ytick_2">
     <g id="line2d_16">
      <path clip-path="url(#pd359e39492)" d="M 60.30875 246.475967 
L 506.70875 246.475967 
" style="fill:none;stroke:#cccccc;stroke-linecap:round;"/>
     </g>
     <g id="text_18">
      <!-- 200 -->
      <g style="fill:#262626;" transform="translate(29.8125 250.655108)scale(0.11 -0.11)">
       <use xlink:href="#DejaVuSans-50"/>
       <use x="63.623047" xlink:href="#DejaVuSans-48"/>
       <use x="127.246094" xlink:href="#DejaVuSans-48"/>
      </g>
     </g>
     <g id="text_19">
      <!-- 200 -->
      <g style="fill:#262626;" transform="translate(516.20875 250.655108)scale(0.11 -0.11)">
       <use xlink:href="#DejaVuSans-50"/>
       <use x="63.623047" xlink:href="#DejaVuSans-48"/>
       <use x="127.246094" xlink:href="#DejaVuSans-48"/>
      </g>
     </g>
    </g>
    <g id="ytick_3">
     <g id="line2d_17">
      <path clip-path="url(#pd359e39492)" d="M 60.30875 209.37523 
L 506.70875 209.37523 
" style="fill:none;stroke:#cccccc;stroke-linecap:round;"/>
     </g>
     <g id="text_20">
      <!-- 400 -->
      <g style="fill:#262626;" transform="translate(29.8125 213.554371)scale(0.11 -0.11)">
       <use xlink:href="#DejaVuSans-52"/>
       <use x="63.623047" xlink:href="#DejaVuSans-48"/>
       <use x="127.246094" xlink:href="#DejaVuSans-48"/>
      </g>
     </g>
     <g id="text_21">
      <!-- 400 -->
      <g style="fill:#262626;" transform="translate(516.20875 213.554371)scale(0.11 -0.11)">
       <use xlink:href="#DejaVuSans-52"/>
       <use x="63.623047" xlink:href="#DejaVuSans-48"/>
       <use x="127.246094" xlink:href="#DejaVuSans-48"/>
      </g>
     </g>
    </g>
    <g id="ytick_4">
     <g id="line2d_18">
      <path clip-path="url(#pd359e39492)" d="M 60.30875 172.274493 
L 506.70875 172.274493 
" style="fill:none;stroke:#cccccc;stroke-linecap:round;"/>
     </g>
     <g id="text_22">
      <!-- 600 -->
      <g style="fill:#262626;" transform="translate(29.8125 176.453634)scale(0.11 -0.11)">
       <use xlink:href="#DejaVuSans-54"/>
       <use x="63.623047" xlink:href="#DejaVuSans-48"/>
       <use x="127.246094" xlink:href="#DejaVuSans-48"/>
      </g>
     </g>
     <g id="text_23">
      <!-- 600 -->
      <g style="fill:#262626;" transform="translate(516.20875 176.453634)scale(0.11 -0.11)">
       <use xlink:href="#DejaVuSans-54"/>
       <use x="63.623047" xlink:href="#DejaVuSans-48"/>
       <use x="127.246094" xlink:href="#DejaVuSans-48"/>
      </g>
     </g>
    </g>
    <g id="ytick_5">
     <g id="line2d_19">
      <path clip-path="url(#pd359e39492)" d="M 60.30875 135.173756 
L 506.70875 135.173756 
" style="fill:none;stroke:#cccccc;stroke-linecap:round;"/>
     </g>
     <g id="text_24">
      <!-- 800 -->
      <g style="fill:#262626;" transform="translate(29.8125 139.352897)scale(0.11 -0.11)">
       <use xlink:href="#DejaVuSans-56"/>
       <use x="63.623047" xlink:href="#DejaVuSans-48"/>
       <use x="127.246094" xlink:href="#DejaVuSans-48"/>
      </g>
     </g>
     <g id="text_25">
      <!-- 800 -->
      <g style="fill:#262626;" transform="translate(516.20875 139.352897)scale(0.11 -0.11)">
       <use xlink:href="#DejaVuSans-56"/>
       <use x="63.623047" xlink:href="#DejaVuSans-48"/>
       <use x="127.246094" xlink:href="#DejaVuSans-48"/>
      </g>
     </g>
    </g>
    <g id="ytick_6">
     <g id="line2d_20">
      <path clip-path="url(#pd359e39492)" d="M 60.30875 98.073019 
L 506.70875 98.073019 
" style="fill:none;stroke:#cccccc;stroke-linecap:round;"/>
     </g>
     <g id="text_26">
      <!-- 1000 -->
      <g style="fill:#262626;" transform="translate(22.81375 102.25216)scale(0.11 -0.11)">
       <use xlink:href="#DejaVuSans-49"/>
       <use x="63.623047" xlink:href="#DejaVuSans-48"/>
       <use x="127.246094" xlink:href="#DejaVuSans-48"/>
       <use x="190.869141" xlink:href="#DejaVuSans-48"/>
      </g>
     </g>
     <g id="text_27">
      <!-- 1000 -->
      <g style="fill:#262626;" transform="translate(516.20875 102.25216)scale(0.11 -0.11)">
       <use xlink:href="#DejaVuSans-49"/>
       <use x="63.623047" xlink:href="#DejaVuSans-48"/>
       <use x="127.246094" xlink:href="#DejaVuSans-48"/>
       <use x="190.869141" xlink:href="#DejaVuSans-48"/>
      </g>
     </g>
    </g>
    <g id="ytick_7">
     <g id="line2d_21">
      <path clip-path="url(#pd359e39492)" d="M 60.30875 60.972282 
L 506.70875 60.972282 
" style="fill:none;stroke:#cccccc;stroke-linecap:round;"/>
     </g>
     <g id="text_28">
      <!-- 1200 -->
      <g style="fill:#262626;" transform="translate(22.81375 65.151423)scale(0.11 -0.11)">
       <use xlink:href="#DejaVuSans-49"/>
       <use x="63.623047" xlink:href="#DejaVuSans-50"/>
       <use x="127.246094" xlink:href="#DejaVuSans-48"/>
       <use x="190.869141" xlink:href="#DejaVuSans-48"/>
      </g>
     </g>
     <g id="text_29">
      <!-- 1200 -->
      <g style="fill:#262626;" transform="translate(516.20875 65.151423)scale(0.11 -0.11)">
       <use xlink:href="#DejaVuSans-49"/>
       <use x="63.623047" xlink:href="#DejaVuSans-50"/>
       <use x="127.246094" xlink:href="#DejaVuSans-48"/>
       <use x="190.869141" xlink:href="#DejaVuSans-48"/>
      </g>
     </g>
    </g>
    <g id="text_30">
     <!-- Fälle -->
     <defs>
      <path d="M 9.8125 72.90625 
L 51.703125 72.90625 
L 51.703125 64.59375 
L 19.671875 64.59375 
L 19.671875 43.109375 
L 48.578125 43.109375 
L 48.578125 34.8125 
L 19.671875 34.8125 
L 19.671875 0 
L 9.8125 0 
z
" id="DejaVuSans-70"/>
      <path d="M 34.28125 27.484375 
Q 23.390625 27.484375 19.1875 25 
Q 14.984375 22.515625 14.984375 16.5 
Q 14.984375 11.71875 18.140625 8.90625 
Q 21.296875 6.109375 26.703125 6.109375 
Q 34.1875 6.109375 38.703125 11.40625 
Q 43.21875 16.703125 43.21875 25.484375 
L 43.21875 27.484375 
z
M 52.203125 31.203125 
L 52.203125 0 
L 43.21875 0 
L 43.21875 8.296875 
Q 40.140625 3.328125 35.546875 0.953125 
Q 30.953125 -1.421875 24.3125 -1.421875 
Q 15.921875 -1.421875 10.953125 3.296875 
Q 6 8.015625 6 15.921875 
Q 6 25.140625 12.171875 29.828125 
Q 18.359375 34.515625 30.609375 34.515625 
L 43.21875 34.515625 
L 43.21875 35.40625 
Q 43.21875 41.609375 39.140625 45 
Q 35.0625 48.390625 27.6875 48.390625 
Q 23 48.390625 18.546875 47.265625 
Q 14.109375 46.140625 10.015625 43.890625 
L 10.015625 52.203125 
Q 14.9375 54.109375 19.578125 55.046875 
Q 24.21875 56 28.609375 56 
Q 40.484375 56 46.34375 49.84375 
Q 52.203125 43.703125 52.203125 31.203125 
z
M 33.59375 75.78125 
L 43.5 75.78125 
L 43.5 65.921875 
L 33.59375 65.921875 
z
M 14.5 75.78125 
L 24.40625 75.78125 
L 24.40625 65.921875 
L 14.5 65.921875 
z
" id="DejaVuSans-228"/>
      <path d="M 9.421875 75.984375 
L 18.40625 75.984375 
L 18.40625 0 
L 9.421875 0 
z
" id="DejaVuSans-108"/>
      <path d="M 56.203125 29.59375 
L 56.203125 25.203125 
L 14.890625 25.203125 
Q 15.484375 15.921875 20.484375 11.0625 
Q 25.484375 6.203125 34.421875 6.203125 
Q 39.59375 6.203125 44.453125 7.46875 
Q 49.3125 8.734375 54.109375 11.28125 
L 54.109375 2.78125 
Q 49.265625 0.734375 44.1875 -0.34375 
Q 39.109375 -1.421875 33.890625 -1.421875 
Q 20.796875 -1.421875 13.15625 6.1875 
Q 5.515625 13.8125 5.515625 26.8125 
Q 5.515625 40.234375 12.765625 48.109375 
Q 20.015625 56 32.328125 56 
Q 43.359375 56 49.78125 48.890625 
Q 56.203125 41.796875 56.203125 29.59375 
z
M 47.21875 32.234375 
Q 47.125 39.59375 43.09375 43.984375 
Q 39.0625 48.390625 32.421875 48.390625 
Q 24.90625 48.390625 20.390625 44.140625 
Q 15.875 39.890625 15.1875 32.171875 
z
" id="DejaVuSans-101"/>
     </defs>
     <g style="fill:#262626;" transform="translate(16.318125 173.637187)rotate(-90)scale(0.12 -0.12)">
      <use xlink:href="#DejaVuSans-70"/>
      <use x="48.394531" xlink:href="#DejaVuSans-228"/>
      <use x="109.673828" xlink:href="#DejaVuSans-108"/>
      <use x="137.457031" xlink:href="#DejaVuSans-108"/>
      <use x="165.240234" xlink:href="#DejaVuSans-101"/>
     </g>
    </g>
   </g>
   <g id="line2d_22">
    <path clip-path="url(#pd359e39492)" d="M 80.599659 278.568105 
L 143.033226 274.858031 
L 174.250009 268.921913 
L 205.466792 265.21184 
L 236.683575 259.275722 
L 267.900358 249.815034 
L 299.117142 237.942798 
L 330.333925 216.609874 
L 361.550708 190.082847 
L 392.767491 162.071791 
L 423.984274 124.043535 
L 455.201058 95.10496 
L 486.417841 36.485795 
" style="fill:none;stroke:#4c72b0;stroke-linecap:round;stroke-width:2.5;"/>
    <defs>
     <path d="M 0 3 
C 0.795609 3 1.55874 2.683901 2.12132 2.12132 
C 2.683901 1.55874 3 0.795609 3 0 
C 3 -0.795609 2.683901 -1.55874 2.12132 -2.12132 
C 1.55874 -2.683901 0.795609 -3 0 -3 
C -0.795609 -3 -1.55874 -2.683901 -2.12132 -2.12132 
C -2.683901 -1.55874 -3 -0.795609 -3 0 
C -3 0.795609 -2.683901 1.55874 -2.12132 2.12132 
C -1.55874 2.683901 -0.795609 3 0 3 
z
" id="mbc2ee5bdb2" style="stroke:#ffffff;stroke-width:0.75;"/>
    </defs>
    <g clip-path="url(#pd359e39492)">
     <use style="fill:#4c72b0;stroke:#ffffff;stroke-width:0.75;" x="80.599659" xlink:href="#mbc2ee5bdb2" y="278.568105"/>
     <use style="fill:#4c72b0;stroke:#ffffff;stroke-width:0.75;" x="143.033226" xlink:href="#mbc2ee5bdb2" y="274.858031"/>
     <use style="fill:#4c72b0;stroke:#ffffff;stroke-width:0.75;" x="174.250009" xlink:href="#mbc2ee5bdb2" y="268.921913"/>
     <use style="fill:#4c72b0;stroke:#ffffff;stroke-width:0.75;" x="205.466792" xlink:href="#mbc2ee5bdb2" y="265.21184"/>
     <use style="fill:#4c72b0;stroke:#ffffff;stroke-width:0.75;" x="236.683575" xlink:href="#mbc2ee5bdb2" y="259.275722"/>
     <use style="fill:#4c72b0;stroke:#ffffff;stroke-width:0.75;" x="267.900358" xlink:href="#mbc2ee5bdb2" y="249.815034"/>
     <use style="fill:#4c72b0;stroke:#ffffff;stroke-width:0.75;" x="299.117142" xlink:href="#mbc2ee5bdb2" y="237.942798"/>
     <use style="fill:#4c72b0;stroke:#ffffff;stroke-width:0.75;" x="330.333925" xlink:href="#mbc2ee5bdb2" y="216.609874"/>
     <use style="fill:#4c72b0;stroke:#ffffff;stroke-width:0.75;" x="361.550708" xlink:href="#mbc2ee5bdb2" y="190.082847"/>
     <use style="fill:#4c72b0;stroke:#ffffff;stroke-width:0.75;" x="392.767491" xlink:href="#mbc2ee5bdb2" y="162.071791"/>
     <use style="fill:#4c72b0;stroke:#ffffff;stroke-width:0.75;" x="423.984274" xlink:href="#mbc2ee5bdb2" y="124.043535"/>
     <use style="fill:#4c72b0;stroke:#ffffff;stroke-width:0.75;" x="455.201058" xlink:href="#mbc2ee5bdb2" y="95.10496"/>
     <use style="fill:#4c72b0;stroke:#ffffff;stroke-width:0.75;" x="486.417841" xlink:href="#mbc2ee5bdb2" y="36.485795"/>
    </g>
   </g>
   <g id="line2d_23">
    <path clip-path="url(#pd359e39492)" d="M 80.599659 283.576705 
L 143.033226 283.576705 
L 174.250009 283.576705 
L 205.466792 283.576705 
L 236.683575 283.576705 
L 267.900358 283.576705 
L 299.117142 283.576705 
L 330.333925 283.391201 
L 361.550708 283.391201 
L 392.767491 283.391201 
L 423.984274 283.391201 
L 455.201058 283.020193 
L 486.417841 283.020193 
" style="fill:none;stroke:#dd8452;stroke-dasharray:10,3.75;stroke-dashoffset:0;stroke-width:2.5;"/>
    <defs>
     <path d="M -0 3 
L 3 -3 
L -3 -3 
z
" id="mf3bb809e7d" style="stroke:#ffffff;stroke-linejoin:miter;stroke-width:0.75;"/>
    </defs>
    <g clip-path="url(#pd359e39492)">
     <use style="fill:#dd8452;stroke:#ffffff;stroke-linejoin:miter;stroke-width:0.75;" x="80.599659" xlink:href="#mf3bb809e7d" y="283.576705"/>
     <use style="fill:#dd8452;stroke:#ffffff;stroke-linejoin:miter;stroke-width:0.75;" x="143.033226" xlink:href="#mf3bb809e7d" y="283.576705"/>
     <use style="fill:#dd8452;stroke:#ffffff;stroke-linejoin:miter;stroke-width:0.75;" x="174.250009" xlink:href="#mf3bb809e7d" y="283.576705"/>
     <use style="fill:#dd8452;stroke:#ffffff;stroke-linejoin:miter;stroke-width:0.75;" x="205.466792" xlink:href="#mf3bb809e7d" y="283.576705"/>
     <use style="fill:#dd8452;stroke:#ffffff;stroke-linejoin:miter;stroke-width:0.75;" x="236.683575" xlink:href="#mf3bb809e7d" y="283.576705"/>
     <use style="fill:#dd8452;stroke:#ffffff;stroke-linejoin:miter;stroke-width:0.75;" x="267.900358" xlink:href="#mf3bb809e7d" y="283.576705"/>
     <use style="fill:#dd8452;stroke:#ffffff;stroke-linejoin:miter;stroke-width:0.75;" x="299.117142" xlink:href="#mf3bb809e7d" y="283.576705"/>
     <use style="fill:#dd8452;stroke:#ffffff;stroke-linejoin:miter;stroke-width:0.75;" x="330.333925" xlink:href="#mf3bb809e7d" y="283.391201"/>
     <use style="fill:#dd8452;stroke:#ffffff;stroke-linejoin:miter;stroke-width:0.75;" x="361.550708" xlink:href="#mf3bb809e7d" y="283.391201"/>
     <use style="fill:#dd8452;stroke:#ffffff;stroke-linejoin:miter;stroke-width:0.75;" x="392.767491" xlink:href="#mf3bb809e7d" y="283.391201"/>
     <use style="fill:#dd8452;stroke:#ffffff;stroke-linejoin:miter;stroke-width:0.75;" x="423.984274" xlink:href="#mf3bb809e7d" y="283.391201"/>
     <use style="fill:#dd8452;stroke:#ffffff;stroke-linejoin:miter;stroke-width:0.75;" x="455.201058" xlink:href="#mf3bb809e7d" y="283.020193"/>
     <use style="fill:#dd8452;stroke:#ffffff;stroke-linejoin:miter;stroke-width:0.75;" x="486.417841" xlink:href="#mf3bb809e7d" y="283.020193"/>
    </g>
   </g>
   <g id="line2d_24">
    <path clip-path="url(#pd359e39492)" d="M 80.599659 283.576705 
L 143.033226 283.576705 
L 174.250009 283.576705 
L 205.466792 283.576705 
L 236.683575 283.205697 
L 267.900358 282.83469 
L 299.117142 282.83469 
L 330.333925 282.83469 
L 361.550708 282.463682 
L 392.767491 282.463682 
L 423.984274 282.463682 
L 455.201058 282.463682 
L 486.417841 281.907171 
" style="fill:none;stroke:#55a868;stroke-dasharray:2.5,2.5;stroke-dashoffset:0;stroke-width:2.5;"/>
    <defs>
     <path d="M 0 -3 
L -3 3 
L 3 3 
z
" id="m29eeb02e4e" style="stroke:#ffffff;stroke-linejoin:miter;stroke-width:0.75;"/>
    </defs>
    <g clip-path="url(#pd359e39492)">
     <use style="fill:#55a868;stroke:#ffffff;stroke-linejoin:miter;stroke-width:0.75;" x="80.599659" xlink:href="#m29eeb02e4e" y="283.576705"/>
     <use style="fill:#55a868;stroke:#ffffff;stroke-linejoin:miter;stroke-width:0.75;" x="143.033226" xlink:href="#m29eeb02e4e" y="283.576705"/>
     <use style="fill:#55a868;stroke:#ffffff;stroke-linejoin:miter;stroke-width:0.75;" x="174.250009" xlink:href="#m29eeb02e4e" y="283.576705"/>
     <use style="fill:#55a868;stroke:#ffffff;stroke-linejoin:miter;stroke-width:0.75;" x="205.466792" xlink:href="#m29eeb02e4e" y="283.576705"/>
     <use style="fill:#55a868;stroke:#ffffff;stroke-linejoin:miter;stroke-width:0.75;" x="236.683575" xlink:href="#m29eeb02e4e" y="283.205697"/>
     <use style="fill:#55a868;stroke:#ffffff;stroke-linejoin:miter;stroke-width:0.75;" x="267.900358" xlink:href="#m29eeb02e4e" y="282.83469"/>
     <use style="fill:#55a868;stroke:#ffffff;stroke-linejoin:miter;stroke-width:0.75;" x="299.117142" xlink:href="#m29eeb02e4e" y="282.83469"/>
     <use style="fill:#55a868;stroke:#ffffff;stroke-linejoin:miter;stroke-width:0.75;" x="330.333925" xlink:href="#m29eeb02e4e" y="282.83469"/>
     <use style="fill:#55a868;stroke:#ffffff;stroke-linejoin:miter;stroke-width:0.75;" x="361.550708" xlink:href="#m29eeb02e4e" y="282.463682"/>
     <use style="fill:#55a868;stroke:#ffffff;stroke-linejoin:miter;stroke-width:0.75;" x="392.767491" xlink:href="#m29eeb02e4e" y="282.463682"/>
     <use style="fill:#55a868;stroke:#ffffff;stroke-linejoin:miter;stroke-width:0.75;" x="423.984274" xlink:href="#m29eeb02e4e" y="282.463682"/>
     <use style="fill:#55a868;stroke:#ffffff;stroke-linejoin:miter;stroke-width:0.75;" x="455.201058" xlink:href="#m29eeb02e4e" y="282.463682"/>
     <use style="fill:#55a868;stroke:#ffffff;stroke-linejoin:miter;stroke-width:0.75;" x="486.417841" xlink:href="#m29eeb02e4e" y="281.907171"/>
    </g>
   </g>
   <g id="line2d_25">
    <path clip-path="url(#pd359e39492)" d="M 80.599659 278.568105 
L 143.033226 274.858031 
L 174.250009 268.921913 
L 205.466792 265.21184 
L 236.683575 259.646729 
L 267.900358 250.557049 
L 299.117142 238.684813 
L 330.333925 217.537393 
L 361.550708 191.381373 
L 392.767491 163.370316 
L 423.984274 125.342061 
L 455.201058 96.774493 
L 486.417841 38.71184 
" style="fill:none;stroke:#c44e52;stroke-dasharray:7.5,2.5,3.75,2.5;stroke-dashoffset:0;stroke-width:2.5;"/>
    <defs>
     <path d="M -3 -0 
L 3 3 
L 3 -3 
z
" id="mc8fec0e152" style="stroke:#ffffff;stroke-linejoin:miter;stroke-width:0.75;"/>
    </defs>
    <g clip-path="url(#pd359e39492)">
     <use style="fill:#c44e52;stroke:#ffffff;stroke-linejoin:miter;stroke-width:0.75;" x="80.599659" xlink:href="#mc8fec0e152" y="278.568105"/>
     <use style="fill:#c44e52;stroke:#ffffff;stroke-linejoin:miter;stroke-width:0.75;" x="143.033226" xlink:href="#mc8fec0e152" y="274.858031"/>
     <use style="fill:#c44e52;stroke:#ffffff;stroke-linejoin:miter;stroke-width:0.75;" x="174.250009" xlink:href="#mc8fec0e152" y="268.921913"/>
     <use style="fill:#c44e52;stroke:#ffffff;stroke-linejoin:miter;stroke-width:0.75;" x="205.466792" xlink:href="#mc8fec0e152" y="265.21184"/>
     <use style="fill:#c44e52;stroke:#ffffff;stroke-linejoin:miter;stroke-width:0.75;" x="236.683575" xlink:href="#mc8fec0e152" y="259.646729"/>
     <use style="fill:#c44e52;stroke:#ffffff;stroke-linejoin:miter;stroke-width:0.75;" x="267.900358" xlink:href="#mc8fec0e152" y="250.557049"/>
     <use style="fill:#c44e52;stroke:#ffffff;stroke-linejoin:miter;stroke-width:0.75;" x="299.117142" xlink:href="#mc8fec0e152" y="238.684813"/>
     <use style="fill:#c44e52;stroke:#ffffff;stroke-linejoin:miter;stroke-width:0.75;" x="330.333925" xlink:href="#mc8fec0e152" y="217.537393"/>
     <use style="fill:#c44e52;stroke:#ffffff;stroke-linejoin:miter;stroke-width:0.75;" x="361.550708" xlink:href="#mc8fec0e152" y="191.381373"/>
     <use style="fill:#c44e52;stroke:#ffffff;stroke-linejoin:miter;stroke-width:0.75;" x="392.767491" xlink:href="#mc8fec0e152" y="163.370316"/>
     <use style="fill:#c44e52;stroke:#ffffff;stroke-linejoin:miter;stroke-width:0.75;" x="423.984274" xlink:href="#mc8fec0e152" y="125.342061"/>
     <use style="fill:#c44e52;stroke:#ffffff;stroke-linejoin:miter;stroke-width:0.75;" x="455.201058" xlink:href="#mc8fec0e152" y="96.774493"/>
     <use style="fill:#c44e52;stroke:#ffffff;stroke-linejoin:miter;stroke-width:0.75;" x="486.417841" xlink:href="#mc8fec0e152" y="38.71184"/>
    </g>
   </g>
   <g id="line2d_26"/>
   <g id="line2d_27"/>
   <g id="line2d_28"/>
   <g id="line2d_29"/>
   <g id="patch_3">
    <path d="M 60.30875 295.93125 
L 60.30875 24.13125 
" style="fill:none;stroke:#cccccc;stroke-linecap:square;stroke-linejoin:miter;stroke-width:1.25;"/>
   </g>
   <g id="patch_4">
    <path d="M 506.70875 295.93125 
L 506.70875 24.13125 
" style="fill:none;stroke:#cccccc;stroke-linecap:square;stroke-linejoin:miter;stroke-width:1.25;"/>
   </g>
   <g id="patch_5">
    <path d="M 60.30875 295.93125 
L 506.70875 295.93125 
" style="fill:none;stroke:#cccccc;stroke-linecap:square;stroke-linejoin:miter;stroke-width:1.25;"/>
   </g>
   <g id="patch_6">
    <path d="M 60.30875 24.13125 
L 506.70875 24.13125 
" style="fill:none;stroke:#cccccc;stroke-linecap:square;stroke-linejoin:miter;stroke-width:1.25;"/>
   </g>
   <g id="text_31">
    <!-- Bestätigte und aktive Fälle Österreichweit -->
    <defs>
     <path d="M 19.671875 34.8125 
L 19.671875 8.109375 
L 35.5 8.109375 
Q 43.453125 8.109375 47.28125 11.40625 
Q 51.125 14.703125 51.125 21.484375 
Q 51.125 28.328125 47.28125 31.5625 
Q 43.453125 34.8125 35.5 34.8125 
z
M 19.671875 64.796875 
L 19.671875 42.828125 
L 34.28125 42.828125 
Q 41.5 42.828125 45.03125 45.53125 
Q 48.578125 48.25 48.578125 53.8125 
Q 48.578125 59.328125 45.03125 62.0625 
Q 41.5 64.796875 34.28125 64.796875 
z
M 9.8125 72.90625 
L 35.015625 72.90625 
Q 46.296875 72.90625 52.390625 68.21875 
Q 58.5 63.53125 58.5 54.890625 
Q 58.5 48.1875 55.375 44.234375 
Q 52.25 40.28125 46.1875 39.3125 
Q 53.46875 37.75 57.5 32.78125 
Q 61.53125 27.828125 61.53125 20.40625 
Q 61.53125 10.640625 54.890625 5.3125 
Q 48.25 0 35.984375 0 
L 9.8125 0 
z
" id="DejaVuSans-66"/>
     <path d="M 44.28125 53.078125 
L 44.28125 44.578125 
Q 40.484375 46.53125 36.375 47.5 
Q 32.28125 48.484375 27.875 48.484375 
Q 21.1875 48.484375 17.84375 46.4375 
Q 14.5 44.390625 14.5 40.28125 
Q 14.5 37.15625 16.890625 35.375 
Q 19.28125 33.59375 26.515625 31.984375 
L 29.59375 31.296875 
Q 39.15625 29.25 43.1875 25.515625 
Q 47.21875 21.78125 47.21875 15.09375 
Q 47.21875 7.46875 41.1875 3.015625 
Q 35.15625 -1.421875 24.609375 -1.421875 
Q 20.21875 -1.421875 15.453125 -0.5625 
Q 10.6875 0.296875 5.421875 2 
L 5.421875 11.28125 
Q 10.40625 8.6875 15.234375 7.390625 
Q 20.0625 6.109375 24.8125 6.109375 
Q 31.15625 6.109375 34.5625 8.28125 
Q 37.984375 10.453125 37.984375 14.40625 
Q 37.984375 18.0625 35.515625 20.015625 
Q 33.0625 21.96875 24.703125 23.78125 
L 21.578125 24.515625 
Q 13.234375 26.265625 9.515625 29.90625 
Q 5.8125 33.546875 5.8125 39.890625 
Q 5.8125 47.609375 11.28125 51.796875 
Q 16.75 56 26.8125 56 
Q 31.78125 56 36.171875 55.265625 
Q 40.578125 54.546875 44.28125 53.078125 
z
" id="DejaVuSans-115"/>
     <path d="M 9.421875 54.6875 
L 18.40625 54.6875 
L 18.40625 0 
L 9.421875 0 
z
M 9.421875 75.984375 
L 18.40625 75.984375 
L 18.40625 64.59375 
L 9.421875 64.59375 
z
" id="DejaVuSans-105"/>
     <path d="M 45.40625 27.984375 
Q 45.40625 37.75 41.375 43.109375 
Q 37.359375 48.484375 30.078125 48.484375 
Q 22.859375 48.484375 18.828125 43.109375 
Q 14.796875 37.75 14.796875 27.984375 
Q 14.796875 18.265625 18.828125 12.890625 
Q 22.859375 7.515625 30.078125 7.515625 
Q 37.359375 7.515625 41.375 12.890625 
Q 45.40625 18.265625 45.40625 27.984375 
z
M 54.390625 6.78125 
Q 54.390625 -7.171875 48.1875 -13.984375 
Q 42 -20.796875 29.203125 -20.796875 
Q 24.46875 -20.796875 20.265625 -20.09375 
Q 16.0625 -19.390625 12.109375 -17.921875 
L 12.109375 -9.1875 
Q 16.0625 -11.328125 19.921875 -12.34375 
Q 23.78125 -13.375 27.78125 -13.375 
Q 36.625 -13.375 41.015625 -8.765625 
Q 45.40625 -4.15625 45.40625 5.171875 
L 45.40625 9.625 
Q 42.625 4.78125 38.28125 2.390625 
Q 33.9375 0 27.875 0 
Q 17.828125 0 11.671875 7.65625 
Q 5.515625 15.328125 5.515625 27.984375 
Q 5.515625 40.671875 11.671875 48.328125 
Q 17.828125 56 27.875 56 
Q 33.9375 56 38.28125 53.609375 
Q 42.625 51.21875 45.40625 46.390625 
L 45.40625 54.6875 
L 54.390625 54.6875 
z
" id="DejaVuSans-103"/>
     <path d="M 54.890625 33.015625 
L 54.890625 0 
L 45.90625 0 
L 45.90625 32.71875 
Q 45.90625 40.484375 42.875 44.328125 
Q 39.84375 48.1875 33.796875 48.1875 
Q 26.515625 48.1875 22.3125 43.546875 
Q 18.109375 38.921875 18.109375 30.90625 
L 18.109375 0 
L 9.078125 0 
L 9.078125 54.6875 
L 18.109375 54.6875 
L 18.109375 46.1875 
Q 21.34375 51.125 25.703125 53.5625 
Q 30.078125 56 35.796875 56 
Q 45.21875 56 50.046875 50.171875 
Q 54.890625 44.34375 54.890625 33.015625 
z
" id="DejaVuSans-110"/>
     <path d="M 45.40625 46.390625 
L 45.40625 75.984375 
L 54.390625 75.984375 
L 54.390625 0 
L 45.40625 0 
L 45.40625 8.203125 
Q 42.578125 3.328125 38.25 0.953125 
Q 33.9375 -1.421875 27.875 -1.421875 
Q 17.96875 -1.421875 11.734375 6.484375 
Q 5.515625 14.40625 5.515625 27.296875 
Q 5.515625 40.1875 11.734375 48.09375 
Q 17.96875 56 27.875 56 
Q 33.9375 56 38.25 53.625 
Q 42.578125 51.265625 45.40625 46.390625 
z
M 14.796875 27.296875 
Q 14.796875 17.390625 18.875 11.75 
Q 22.953125 6.109375 30.078125 6.109375 
Q 37.203125 6.109375 41.296875 11.75 
Q 45.40625 17.390625 45.40625 27.296875 
Q 45.40625 37.203125 41.296875 42.84375 
Q 37.203125 48.484375 30.078125 48.484375 
Q 22.953125 48.484375 18.875 42.84375 
Q 14.796875 37.203125 14.796875 27.296875 
z
" id="DejaVuSans-100"/>
     <path d="M 9.078125 75.984375 
L 18.109375 75.984375 
L 18.109375 31.109375 
L 44.921875 54.6875 
L 56.390625 54.6875 
L 27.390625 29.109375 
L 57.625 0 
L 45.90625 0 
L 18.109375 26.703125 
L 18.109375 0 
L 9.078125 0 
z
" id="DejaVuSans-107"/>
     <path d="M 2.984375 54.6875 
L 12.5 54.6875 
L 29.59375 8.796875 
L 46.6875 54.6875 
L 56.203125 54.6875 
L 35.6875 0 
L 23.484375 0 
z
" id="DejaVuSans-118"/>
     <path d="M 39.40625 66.21875 
Q 28.65625 66.21875 22.328125 58.203125 
Q 16.015625 50.203125 16.015625 36.375 
Q 16.015625 22.609375 22.328125 14.59375 
Q 28.65625 6.59375 39.40625 6.59375 
Q 50.140625 6.59375 56.421875 14.59375 
Q 62.703125 22.609375 62.703125 36.375 
Q 62.703125 50.203125 56.421875 58.203125 
Q 50.140625 66.21875 39.40625 66.21875 
z
M 39.40625 74.21875 
Q 54.734375 74.21875 63.90625 63.9375 
Q 73.09375 53.65625 73.09375 36.375 
Q 73.09375 19.140625 63.90625 8.859375 
Q 54.734375 -1.421875 39.40625 -1.421875 
Q 24.03125 -1.421875 14.8125 8.828125 
Q 5.609375 19.09375 5.609375 36.375 
Q 5.609375 53.65625 14.8125 63.9375 
Q 24.03125 74.21875 39.40625 74.21875 
z
M 43.96875 91.09375 
L 53.875 91.09375 
L 53.875 81.1875 
L 43.96875 81.1875 
z
M 24.875 91.09375 
L 34.78125 91.09375 
L 34.78125 81.1875 
L 24.875 81.1875 
z
" id="DejaVuSans-214"/>
     <path d="M 48.78125 52.59375 
L 48.78125 44.1875 
Q 44.96875 46.296875 41.140625 47.34375 
Q 37.3125 48.390625 33.40625 48.390625 
Q 24.65625 48.390625 19.8125 42.84375 
Q 14.984375 37.3125 14.984375 27.296875 
Q 14.984375 17.28125 19.8125 11.734375 
Q 24.65625 6.203125 33.40625 6.203125 
Q 37.3125 6.203125 41.140625 7.25 
Q 44.96875 8.296875 48.78125 10.40625 
L 48.78125 2.09375 
Q 45.015625 0.34375 40.984375 -0.53125 
Q 36.96875 -1.421875 32.421875 -1.421875 
Q 20.0625 -1.421875 12.78125 6.34375 
Q 5.515625 14.109375 5.515625 27.296875 
Q 5.515625 40.671875 12.859375 48.328125 
Q 20.21875 56 33.015625 56 
Q 37.15625 56 41.109375 55.140625 
Q 45.0625 54.296875 48.78125 52.59375 
z
" id="DejaVuSans-99"/>
     <path d="M 54.890625 33.015625 
L 54.890625 0 
L 45.90625 0 
L 45.90625 32.71875 
Q 45.90625 40.484375 42.875 44.328125 
Q 39.84375 48.1875 33.796875 48.1875 
Q 26.515625 48.1875 22.3125 43.546875 
Q 18.109375 38.921875 18.109375 30.90625 
L 18.109375 0 
L 9.078125 0 
L 9.078125 75.984375 
L 18.109375 75.984375 
L 18.109375 46.1875 
Q 21.34375 51.125 25.703125 53.5625 
Q 30.078125 56 35.796875 56 
Q 45.21875 56 50.046875 50.171875 
Q 54.890625 44.34375 54.890625 33.015625 
z
" id="DejaVuSans-104"/>
     <path d="M 4.203125 54.6875 
L 13.1875 54.6875 
L 24.421875 12.015625 
L 35.59375 54.6875 
L 46.1875 54.6875 
L 57.421875 12.015625 
L 68.609375 54.6875 
L 77.59375 54.6875 
L 63.28125 0 
L 52.6875 0 
L 40.921875 44.828125 
L 29.109375 0 
L 18.5 0 
z
" id="DejaVuSans-119"/>
    </defs>
    <g style="fill:#262626;" transform="translate(157.948437 18.13125)scale(0.12 -0.12)">
     <use xlink:href="#DejaVuSans-66"/>
     <use x="68.603516" xlink:href="#DejaVuSans-101"/>
     <use x="130.126953" xlink:href="#DejaVuSans-115"/>
     <use x="182.226562" xlink:href="#DejaVuSans-116"/>
     <use x="221.435547" xlink:href="#DejaVuSans-228"/>
     <use x="282.714844" xlink:href="#DejaVuSans-116"/>
     <use x="321.923828" xlink:href="#DejaVuSans-105"/>
     <use x="349.707031" xlink:href="#DejaVuSans-103"/>
     <use x="413.183594" xlink:href="#DejaVuSans-116"/>
     <use x="452.392578" xlink:href="#DejaVuSans-101"/>
     <use x="513.916016" xlink:href="#DejaVuSans-32"/>
     <use x="545.703125" xlink:href="#DejaVuSans-117"/>
     <use x="609.082031" xlink:href="#DejaVuSans-110"/>
     <use x="672.460938" xlink:href="#DejaVuSans-100"/>
     <use x="735.9375" xlink:href="#DejaVuSans-32"/>
     <use x="767.724609" xlink:href="#DejaVuSans-97"/>
     <use x="829.003906" xlink:href="#DejaVuSans-107"/>
     <use x="886.914062" xlink:href="#DejaVuSans-116"/>
     <use x="926.123047" xlink:href="#DejaVuSans-105"/>
     <use x="953.90625" xlink:href="#DejaVuSans-118"/>
     <use x="1013.085938" xlink:href="#DejaVuSans-101"/>
     <use x="1074.609375" xlink:href="#DejaVuSans-32"/>
     <use x="1106.396484" xlink:href="#DejaVuSans-70"/>
     <use x="1154.791016" xlink:href="#DejaVuSans-228"/>
     <use x="1216.070312" xlink:href="#DejaVuSans-108"/>
     <use x="1243.853516" xlink:href="#DejaVuSans-108"/>
     <use x="1271.636719" xlink:href="#DejaVuSans-101"/>
     <use x="1333.160156" xlink:href="#DejaVuSans-32"/>
     <use x="1364.947266" xlink:href="#DejaVuSans-214"/>
     <use x="1443.658203" xlink:href="#DejaVuSans-115"/>
     <use x="1495.757812" xlink:href="#DejaVuSans-116"/>
     <use x="1534.966797" xlink:href="#DejaVuSans-101"/>
     <use x="1596.490234" xlink:href="#DejaVuSans-114"/>
     <use x="1635.853516" xlink:href="#DejaVuSans-114"/>
     <use x="1674.716797" xlink:href="#DejaVuSans-101"/>
     <use x="1736.240234" xlink:href="#DejaVuSans-105"/>
     <use x="1764.023438" xlink:href="#DejaVuSans-99"/>
     <use x="1819.003906" xlink:href="#DejaVuSans-104"/>
     <use x="1882.382812" xlink:href="#DejaVuSans-119"/>
     <use x="1964.169922" xlink:href="#DejaVuSans-101"/>
     <use x="2025.693359" xlink:href="#DejaVuSans-105"/>
     <use x="2053.476562" xlink:href="#DejaVuSans-116"/>
    </g>
   </g>
   <g id="legend_1">
    <g id="patch_7">
     <path d="M 68.00875 97.515 
L 158.683125 97.515 
Q 160.883125 97.515 160.883125 95.315 
L 160.883125 31.83125 
Q 160.883125 29.63125 158.683125 29.63125 
L 68.00875 29.63125 
Q 65.80875 29.63125 65.80875 31.83125 
L 65.80875 95.315 
Q 65.80875 97.515 68.00875 97.515 
z
" style="fill:#ffffff;opacity:0.8;stroke:#cccccc;stroke-linejoin:miter;"/>
    </g>
    <g id="line2d_30">
     <path d="M 70.20875 38.539531 
L 92.20875 38.539531 
" style="fill:none;stroke:#4c72b0;stroke-linecap:round;stroke-width:1.5;"/>
    </g>
    <g id="line2d_31">
     <defs>
      <path d="M 0 3 
C 0.795609 3 1.55874 2.683901 2.12132 2.12132 
C 2.683901 1.55874 3 0.795609 3 0 
C 3 -0.795609 2.683901 -1.55874 2.12132 -2.12132 
C 1.55874 -2.683901 0.795609 -3 0 -3 
C -0.795609 -3 -1.55874 -2.683901 -2.12132 -2.12132 
C -2.683901 -1.55874 -3 -0.795609 -3 0 
C -3 0.795609 -2.683901 1.55874 -2.12132 2.12132 
C -1.55874 2.683901 -0.795609 3 0 3 
z
" id="m76fed74408" style="stroke:#4c72b0;"/>
     </defs>
     <g>
      <use style="fill:#4c72b0;stroke:#4c72b0;" x="81.20875" xlink:href="#m76fed74408" y="38.539531"/>
     </g>
    </g>
    <g id="text_32">
     <!-- confirmed -->
     <defs>
      <path d="M 30.609375 48.390625 
Q 23.390625 48.390625 19.1875 42.75 
Q 14.984375 37.109375 14.984375 27.296875 
Q 14.984375 17.484375 19.15625 11.84375 
Q 23.34375 6.203125 30.609375 6.203125 
Q 37.796875 6.203125 41.984375 11.859375 
Q 46.1875 17.53125 46.1875 27.296875 
Q 46.1875 37.015625 41.984375 42.703125 
Q 37.796875 48.390625 30.609375 48.390625 
z
M 30.609375 56 
Q 42.328125 56 49.015625 48.375 
Q 55.71875 40.765625 55.71875 27.296875 
Q 55.71875 13.875 49.015625 6.21875 
Q 42.328125 -1.421875 30.609375 -1.421875 
Q 18.84375 -1.421875 12.171875 6.21875 
Q 5.515625 13.875 5.515625 27.296875 
Q 5.515625 40.765625 12.171875 48.375 
Q 18.84375 56 30.609375 56 
z
" id="DejaVuSans-111"/>
      <path d="M 37.109375 75.984375 
L 37.109375 68.5 
L 28.515625 68.5 
Q 23.6875 68.5 21.796875 66.546875 
Q 19.921875 64.59375 19.921875 59.515625 
L 19.921875 54.6875 
L 34.71875 54.6875 
L 34.71875 47.703125 
L 19.921875 47.703125 
L 19.921875 0 
L 10.890625 0 
L 10.890625 47.703125 
L 2.296875 47.703125 
L 2.296875 54.6875 
L 10.890625 54.6875 
L 10.890625 58.5 
Q 10.890625 67.625 15.140625 71.796875 
Q 19.390625 75.984375 28.609375 75.984375 
z
" id="DejaVuSans-102"/>
     </defs>
     <g style="fill:#262626;" transform="translate(101.00875 42.389531)scale(0.11 -0.11)">
      <use xlink:href="#DejaVuSans-99"/>
      <use x="54.980469" xlink:href="#DejaVuSans-111"/>
      <use x="116.162109" xlink:href="#DejaVuSans-110"/>
      <use x="179.541016" xlink:href="#DejaVuSans-102"/>
      <use x="214.746094" xlink:href="#DejaVuSans-105"/>
      <use x="242.529297" xlink:href="#DejaVuSans-114"/>
      <use x="281.892578" xlink:href="#DejaVuSans-109"/>
      <use x="379.304688" xlink:href="#DejaVuSans-101"/>
      <use x="440.828125" xlink:href="#DejaVuSans-100"/>
     </g>
    </g>
    <g id="line2d_32">
     <path d="M 70.20875 54.685469 
L 92.20875 54.685469 
" style="fill:none;stroke:#dd8452;stroke-dasharray:6,2.25;stroke-dashoffset:0;stroke-width:1.5;"/>
    </g>
    <g id="line2d_33">
     <defs>
      <path d="M -0 3 
L 3 -3 
L -3 -3 
z
" id="m64166566e5" style="stroke:#dd8452;stroke-linejoin:miter;"/>
     </defs>
     <g>
      <use style="fill:#dd8452;stroke:#dd8452;stroke-linejoin:miter;" x="81.20875" xlink:href="#m64166566e5" y="54.685469"/>
     </g>
    </g>
    <g id="text_33">
     <!-- deaths -->
     <g style="fill:#262626;" transform="translate(101.00875 58.535469)scale(0.11 -0.11)">
      <use xlink:href="#DejaVuSans-100"/>
      <use x="63.476562" xlink:href="#DejaVuSans-101"/>
      <use x="125" xlink:href="#DejaVuSans-97"/>
      <use x="186.279297" xlink:href="#DejaVuSans-116"/>
      <use x="225.488281" xlink:href="#DejaVuSans-104"/>
      <use x="288.867188" xlink:href="#DejaVuSans-115"/>
     </g>
    </g>
    <g id="line2d_34">
     <path d="M 70.20875 70.831406 
L 92.20875 70.831406 
" style="fill:none;stroke:#55a868;stroke-dasharray:1.5,1.5;stroke-dashoffset:0;stroke-width:1.5;"/>
    </g>
    <g id="line2d_35">
     <defs>
      <path d="M 0 -3 
L -3 3 
L 3 3 
z
" id="mb87a6b5c00" style="stroke:#55a868;stroke-linejoin:miter;"/>
     </defs>
     <g>
      <use style="fill:#55a868;stroke:#55a868;stroke-linejoin:miter;" x="81.20875" xlink:href="#mb87a6b5c00" y="70.831406"/>
     </g>
    </g>
    <g id="text_34">
     <!-- recovered -->
     <g style="fill:#262626;" transform="translate(101.00875 74.681406)scale(0.11 -0.11)">
      <use xlink:href="#DejaVuSans-114"/>
      <use x="38.863281" xlink:href="#DejaVuSans-101"/>
      <use x="100.386719" xlink:href="#DejaVuSans-99"/>
      <use x="155.367188" xlink:href="#DejaVuSans-111"/>
      <use x="216.548828" xlink:href="#DejaVuSans-118"/>
      <use x="275.728516" xlink:href="#DejaVuSans-101"/>
      <use x="337.251953" xlink:href="#DejaVuSans-114"/>
      <use x="376.115234" xlink:href="#DejaVuSans-101"/>
      <use x="437.638672" xlink:href="#DejaVuSans-100"/>
     </g>
    </g>
    <g id="line2d_36">
     <path d="M 70.20875 86.977344 
L 92.20875 86.977344 
" style="fill:none;stroke:#c44e52;stroke-dasharray:4.5,1.5,2.25,1.5;stroke-dashoffset:0;stroke-width:1.5;"/>
    </g>
    <g id="line2d_37">
     <defs>
      <path d="M -3 -0 
L 3 3 
L 3 -3 
z
" id="m251a59c106" style="stroke:#c44e52;stroke-linejoin:miter;"/>
     </defs>
     <g>
      <use style="fill:#c44e52;stroke:#c44e52;stroke-linejoin:miter;" x="81.20875" xlink:href="#m251a59c106" y="86.977344"/>
     </g>
    </g>
    <g id="text_35">
     <!-- active -->
     <g style="fill:#262626;" transform="translate(101.00875 90.827344)scale(0.11 -0.11)">
      <use xlink:href="#DejaVuSans-97"/>
      <use x="61.279297" xlink:href="#DejaVuSans-99"/>
      <use x="116.259766" xlink:href="#DejaVuSans-116"/>
      <use x="155.46875" xlink:href="#DejaVuSans-105"/>
      <use x="183.251953" xlink:href="#DejaVuSans-118"/>
      <use x="242.431641" xlink:href="#DejaVuSans-101"/>
     </g>
    </g>
   </g>
  </g>
 </g>
 <defs>
  <clipPath id="pd359e39492">
   <rect height="271.8" width="446.4" x="60.30875" y="24.13125"/>
  </clipPath>
 </defs>
</svg>
