<?xml version="1.0" encoding="utf-8" standalone="no"?>
<!DOCTYPE svg PUBLIC "-//W3C//DTD SVG 1.1//EN"
  "http://www.w3.org/Graphics/SVG/1.1/DTD/svg11.dtd">
<!-- Created with matplotlib (https://matplotlib.org/) -->
<svg height="405.415937pt" version="1.1" viewBox="0 0 538.65375 405.415937" width="538.65375pt" xmlns="http://www.w3.org/2000/svg" xmlns:xlink="http://www.w3.org/1999/xlink">
 <defs>
  <style type="text/css">
*{stroke-linecap:butt;stroke-linejoin:round;}
  </style>
 </defs>
 <g id="figure_1">
  <g id="patch_1">
   <path d="M 0 405.415937 
L 538.65375 405.415937 
L 538.65375 0 
L 0 0 
z
" style="fill:#ffffff;"/>
  </g>
  <g id="axes_1">
   <g id="patch_2">
    <path d="M 51.69375 348.48 
L 498.09375 348.48 
L 498.09375 22.32 
L 51.69375 22.32 
z
" style="fill:#ffffff;"/>
   </g>
   <g id="matplotlib.axis_1">
    <g id="xtick_1">
     <g id="line2d_1">
      <path clip-path="url(#pf1e19b6d26)" d="M 57.491153 348.48 
L 57.491153 22.32 
" style="fill:none;stroke:#cccccc;stroke-linecap:round;"/>
     </g>
     <g id="text_1">
      <!-- Mar 02 -->
      <defs>
       <path d="M 9.8125 72.90625 
L 24.515625 72.90625 
L 43.109375 23.296875 
L 61.8125 72.90625 
L 76.515625 72.90625 
L 76.515625 0 
L 66.890625 0 
L 66.890625 64.015625 
L 48.09375 14.015625 
L 38.1875 14.015625 
L 19.390625 64.015625 
L 19.390625 0 
L 9.8125 0 
z
" id="DejaVuSans-77"/>
       <path d="M 34.28125 27.484375 
Q 23.390625 27.484375 19.1875 25 
Q 14.984375 22.515625 14.984375 16.5 
Q 14.984375 11.71875 18.140625 8.90625 
Q 21.296875 6.109375 26.703125 6.109375 
Q 34.1875 6.109375 38.703125 11.40625 
Q 43.21875 16.703125 43.21875 25.484375 
L 43.21875 27.484375 
z
M 52.203125 31.203125 
L 52.203125 0 
L 43.21875 0 
L 43.21875 8.296875 
Q 40.140625 3.328125 35.546875 0.953125 
Q 30.953125 -1.421875 24.3125 -1.421875 
Q 15.921875 -1.421875 10.953125 3.296875 
Q 6 8.015625 6 15.921875 
Q 6 25.140625 12.171875 29.828125 
Q 18.359375 34.515625 30.609375 34.515625 
L 43.21875 34.515625 
L 43.21875 35.40625 
Q 43.21875 41.609375 39.140625 45 
Q 35.0625 48.390625 27.6875 48.390625 
Q 23 48.390625 18.546875 47.265625 
Q 14.109375 46.140625 10.015625 43.890625 
L 10.015625 52.203125 
Q 14.9375 54.109375 19.578125 55.046875 
Q 24.21875 56 28.609375 56 
Q 40.484375 56 46.34375 49.84375 
Q 52.203125 43.703125 52.203125 31.203125 
z
" id="DejaVuSans-97"/>
       <path d="M 41.109375 46.296875 
Q 39.59375 47.171875 37.8125 47.578125 
Q 36.03125 48 33.890625 48 
Q 26.265625 48 22.1875 43.046875 
Q 18.109375 38.09375 18.109375 28.8125 
L 18.109375 0 
L 9.078125 0 
L 9.078125 54.6875 
L 18.109375 54.6875 
L 18.109375 46.1875 
Q 20.953125 51.171875 25.484375 53.578125 
Q 30.03125 56 36.53125 56 
Q 37.453125 56 38.578125 55.875 
Q 39.703125 55.765625 41.0625 55.515625 
z
" id="DejaVuSans-114"/>
       <path id="DejaVuSans-32"/>
       <path d="M 31.78125 66.40625 
Q 24.171875 66.40625 20.328125 58.90625 
Q 16.5 51.421875 16.5 36.375 
Q 16.5 21.390625 20.328125 13.890625 
Q 24.171875 6.390625 31.78125 6.390625 
Q 39.453125 6.390625 43.28125 13.890625 
Q 47.125 21.390625 47.125 36.375 
Q 47.125 51.421875 43.28125 58.90625 
Q 39.453125 66.40625 31.78125 66.40625 
z
M 31.78125 74.21875 
Q 44.046875 74.21875 50.515625 64.515625 
Q 56.984375 54.828125 56.984375 36.375 
Q 56.984375 17.96875 50.515625 8.265625 
Q 44.046875 -1.421875 31.78125 -1.421875 
Q 19.53125 -1.421875 13.0625 8.265625 
Q 6.59375 17.96875 6.59375 36.375 
Q 6.59375 54.828125 13.0625 64.515625 
Q 19.53125 74.21875 31.78125 74.21875 
z
" id="DejaVuSans-48"/>
       <path d="M 19.1875 8.296875 
L 53.609375 8.296875 
L 53.609375 0 
L 7.328125 0 
L 7.328125 8.296875 
Q 12.9375 14.109375 22.625 23.890625 
Q 32.328125 33.6875 34.8125 36.53125 
Q 39.546875 41.84375 41.421875 45.53125 
Q 43.3125 49.21875 43.3125 52.78125 
Q 43.3125 58.59375 39.234375 62.25 
Q 35.15625 65.921875 28.609375 65.921875 
Q 23.96875 65.921875 18.8125 64.3125 
Q 13.671875 62.703125 7.8125 59.421875 
L 7.8125 69.390625 
Q 13.765625 71.78125 18.9375 73 
Q 24.125 74.21875 28.421875 74.21875 
Q 39.75 74.21875 46.484375 68.546875 
Q 53.21875 62.890625 53.21875 53.421875 
Q 53.21875 48.921875 51.53125 44.890625 
Q 49.859375 40.875 45.40625 35.40625 
Q 44.1875 33.984375 37.640625 27.21875 
Q 31.109375 20.453125 19.1875 8.296875 
z
" id="DejaVuSans-50"/>
      </defs>
      <g style="fill:#262626;" transform="translate(60.526465 396.227344)rotate(-90)scale(0.11 -0.11)">
       <use xlink:href="#DejaVuSans-77"/>
       <use x="86.279297" xlink:href="#DejaVuSans-97"/>
       <use x="147.558594" xlink:href="#DejaVuSans-114"/>
       <use x="188.671875" xlink:href="#DejaVuSans-32"/>
       <use x="220.458984" xlink:href="#DejaVuSans-48"/>
       <use x="284.082031" xlink:href="#DejaVuSans-50"/>
      </g>
     </g>
    </g>
    <g id="xtick_2">
     <g id="line2d_2">
      <path clip-path="url(#pf1e19b6d26)" d="M 64.737906 348.48 
L 64.737906 22.32 
" style="fill:none;stroke:#cccccc;stroke-linecap:round;"/>
     </g>
     <g id="text_2">
      <!-- Mar 03 -->
      <defs>
       <path d="M 40.578125 39.3125 
Q 47.65625 37.796875 51.625 33 
Q 55.609375 28.21875 55.609375 21.1875 
Q 55.609375 10.40625 48.1875 4.484375 
Q 40.765625 -1.421875 27.09375 -1.421875 
Q 22.515625 -1.421875 17.65625 -0.515625 
Q 12.796875 0.390625 7.625 2.203125 
L 7.625 11.71875 
Q 11.71875 9.328125 16.59375 8.109375 
Q 21.484375 6.890625 26.8125 6.890625 
Q 36.078125 6.890625 40.9375 10.546875 
Q 45.796875 14.203125 45.796875 21.1875 
Q 45.796875 27.640625 41.28125 31.265625 
Q 36.765625 34.90625 28.71875 34.90625 
L 20.21875 34.90625 
L 20.21875 43.015625 
L 29.109375 43.015625 
Q 36.375 43.015625 40.234375 45.921875 
Q 44.09375 48.828125 44.09375 54.296875 
Q 44.09375 59.90625 40.109375 62.90625 
Q 36.140625 65.921875 28.71875 65.921875 
Q 24.65625 65.921875 20.015625 65.03125 
Q 15.375 64.15625 9.8125 62.3125 
L 9.8125 71.09375 
Q 15.4375 72.65625 20.34375 73.4375 
Q 25.25 74.21875 29.59375 74.21875 
Q 40.828125 74.21875 47.359375 69.109375 
Q 53.90625 64.015625 53.90625 55.328125 
Q 53.90625 49.265625 50.4375 45.09375 
Q 46.96875 40.921875 40.578125 39.3125 
z
" id="DejaVuSans-51"/>
      </defs>
      <g style="fill:#262626;" transform="translate(67.773218 396.227344)rotate(-90)scale(0.11 -0.11)">
       <use xlink:href="#DejaVuSans-77"/>
       <use x="86.279297" xlink:href="#DejaVuSans-97"/>
       <use x="147.558594" xlink:href="#DejaVuSans-114"/>
       <use x="188.671875" xlink:href="#DejaVuSans-32"/>
       <use x="220.458984" xlink:href="#DejaVuSans-48"/>
       <use x="284.082031" xlink:href="#DejaVuSans-51"/>
      </g>
     </g>
    </g>
    <g id="xtick_3">
     <g id="line2d_3">
      <path clip-path="url(#pf1e19b6d26)" d="M 71.984659 348.48 
L 71.984659 22.32 
" style="fill:none;stroke:#cccccc;stroke-linecap:round;"/>
     </g>
     <g id="text_3">
      <!-- Mar 04 -->
      <defs>
       <path d="M 37.796875 64.3125 
L 12.890625 25.390625 
L 37.796875 25.390625 
z
M 35.203125 72.90625 
L 47.609375 72.90625 
L 47.609375 25.390625 
L 58.015625 25.390625 
L 58.015625 17.1875 
L 47.609375 17.1875 
L 47.609375 0 
L 37.796875 0 
L 37.796875 17.1875 
L 4.890625 17.1875 
L 4.890625 26.703125 
z
" id="DejaVuSans-52"/>
      </defs>
      <g style="fill:#262626;" transform="translate(75.019972 396.227344)rotate(-90)scale(0.11 -0.11)">
       <use xlink:href="#DejaVuSans-77"/>
       <use x="86.279297" xlink:href="#DejaVuSans-97"/>
       <use x="147.558594" xlink:href="#DejaVuSans-114"/>
       <use x="188.671875" xlink:href="#DejaVuSans-32"/>
       <use x="220.458984" xlink:href="#DejaVuSans-48"/>
       <use x="284.082031" xlink:href="#DejaVuSans-52"/>
      </g>
     </g>
    </g>
    <g id="xtick_4">
     <g id="line2d_4">
      <path clip-path="url(#pf1e19b6d26)" d="M 79.231412 348.48 
L 79.231412 22.32 
" style="fill:none;stroke:#cccccc;stroke-linecap:round;"/>
     </g>
     <g id="text_4">
      <!-- Mar 05 -->
      <defs>
       <path d="M 10.796875 72.90625 
L 49.515625 72.90625 
L 49.515625 64.59375 
L 19.828125 64.59375 
L 19.828125 46.734375 
Q 21.96875 47.46875 24.109375 47.828125 
Q 26.265625 48.1875 28.421875 48.1875 
Q 40.625 48.1875 47.75 41.5 
Q 54.890625 34.8125 54.890625 23.390625 
Q 54.890625 11.625 47.5625 5.09375 
Q 40.234375 -1.421875 26.90625 -1.421875 
Q 22.3125 -1.421875 17.546875 -0.640625 
Q 12.796875 0.140625 7.71875 1.703125 
L 7.71875 11.625 
Q 12.109375 9.234375 16.796875 8.0625 
Q 21.484375 6.890625 26.703125 6.890625 
Q 35.15625 6.890625 40.078125 11.328125 
Q 45.015625 15.765625 45.015625 23.390625 
Q 45.015625 31 40.078125 35.4375 
Q 35.15625 39.890625 26.703125 39.890625 
Q 22.75 39.890625 18.8125 39.015625 
Q 14.890625 38.140625 10.796875 36.28125 
z
" id="DejaVuSans-53"/>
      </defs>
      <g style="fill:#262626;" transform="translate(82.266725 396.227344)rotate(-90)scale(0.11 -0.11)">
       <use xlink:href="#DejaVuSans-77"/>
       <use x="86.279297" xlink:href="#DejaVuSans-97"/>
       <use x="147.558594" xlink:href="#DejaVuSans-114"/>
       <use x="188.671875" xlink:href="#DejaVuSans-32"/>
       <use x="220.458984" xlink:href="#DejaVuSans-48"/>
       <use x="284.082031" xlink:href="#DejaVuSans-53"/>
      </g>
     </g>
    </g>
    <g id="xtick_5">
     <g id="line2d_5">
      <path clip-path="url(#pf1e19b6d26)" d="M 86.478166 348.48 
L 86.478166 22.32 
" style="fill:none;stroke:#cccccc;stroke-linecap:round;"/>
     </g>
     <g id="text_5">
      <!-- Mar 06 -->
      <defs>
       <path d="M 33.015625 40.375 
Q 26.375 40.375 22.484375 35.828125 
Q 18.609375 31.296875 18.609375 23.390625 
Q 18.609375 15.53125 22.484375 10.953125 
Q 26.375 6.390625 33.015625 6.390625 
Q 39.65625 6.390625 43.53125 10.953125 
Q 47.40625 15.53125 47.40625 23.390625 
Q 47.40625 31.296875 43.53125 35.828125 
Q 39.65625 40.375 33.015625 40.375 
z
M 52.59375 71.296875 
L 52.59375 62.3125 
Q 48.875 64.0625 45.09375 64.984375 
Q 41.3125 65.921875 37.59375 65.921875 
Q 27.828125 65.921875 22.671875 59.328125 
Q 17.53125 52.734375 16.796875 39.40625 
Q 19.671875 43.65625 24.015625 45.921875 
Q 28.375 48.1875 33.59375 48.1875 
Q 44.578125 48.1875 50.953125 41.515625 
Q 57.328125 34.859375 57.328125 23.390625 
Q 57.328125 12.15625 50.6875 5.359375 
Q 44.046875 -1.421875 33.015625 -1.421875 
Q 20.359375 -1.421875 13.671875 8.265625 
Q 6.984375 17.96875 6.984375 36.375 
Q 6.984375 53.65625 15.1875 63.9375 
Q 23.390625 74.21875 37.203125 74.21875 
Q 40.921875 74.21875 44.703125 73.484375 
Q 48.484375 72.75 52.59375 71.296875 
z
" id="DejaVuSans-54"/>
      </defs>
      <g style="fill:#262626;" transform="translate(89.513478 396.227344)rotate(-90)scale(0.11 -0.11)">
       <use xlink:href="#DejaVuSans-77"/>
       <use x="86.279297" xlink:href="#DejaVuSans-97"/>
       <use x="147.558594" xlink:href="#DejaVuSans-114"/>
       <use x="188.671875" xlink:href="#DejaVuSans-32"/>
       <use x="220.458984" xlink:href="#DejaVuSans-48"/>
       <use x="284.082031" xlink:href="#DejaVuSans-54"/>
      </g>
     </g>
    </g>
    <g id="xtick_6">
     <g id="line2d_6">
      <path clip-path="url(#pf1e19b6d26)" d="M 93.724919 348.48 
L 93.724919 22.32 
" style="fill:none;stroke:#cccccc;stroke-linecap:round;"/>
     </g>
     <g id="text_6">
      <!-- Mar 07 -->
      <defs>
       <path d="M 8.203125 72.90625 
L 55.078125 72.90625 
L 55.078125 68.703125 
L 28.609375 0 
L 18.3125 0 
L 43.21875 64.59375 
L 8.203125 64.59375 
z
" id="DejaVuSans-55"/>
      </defs>
      <g style="fill:#262626;" transform="translate(96.760231 396.227344)rotate(-90)scale(0.11 -0.11)">
       <use xlink:href="#DejaVuSans-77"/>
       <use x="86.279297" xlink:href="#DejaVuSans-97"/>
       <use x="147.558594" xlink:href="#DejaVuSans-114"/>
       <use x="188.671875" xlink:href="#DejaVuSans-32"/>
       <use x="220.458984" xlink:href="#DejaVuSans-48"/>
       <use x="284.082031" xlink:href="#DejaVuSans-55"/>
      </g>
     </g>
    </g>
    <g id="xtick_7">
     <g id="line2d_7">
      <path clip-path="url(#pf1e19b6d26)" d="M 100.971672 348.48 
L 100.971672 22.32 
" style="fill:none;stroke:#cccccc;stroke-linecap:round;"/>
     </g>
     <g id="text_7">
      <!-- Mar 08 -->
      <defs>
       <path d="M 31.78125 34.625 
Q 24.75 34.625 20.71875 30.859375 
Q 16.703125 27.09375 16.703125 20.515625 
Q 16.703125 13.921875 20.71875 10.15625 
Q 24.75 6.390625 31.78125 6.390625 
Q 38.8125 6.390625 42.859375 10.171875 
Q 46.921875 13.96875 46.921875 20.515625 
Q 46.921875 27.09375 42.890625 30.859375 
Q 38.875 34.625 31.78125 34.625 
z
M 21.921875 38.8125 
Q 15.578125 40.375 12.03125 44.71875 
Q 8.5 49.078125 8.5 55.328125 
Q 8.5 64.0625 14.71875 69.140625 
Q 20.953125 74.21875 31.78125 74.21875 
Q 42.671875 74.21875 48.875 69.140625 
Q 55.078125 64.0625 55.078125 55.328125 
Q 55.078125 49.078125 51.53125 44.71875 
Q 48 40.375 41.703125 38.8125 
Q 48.828125 37.15625 52.796875 32.3125 
Q 56.78125 27.484375 56.78125 20.515625 
Q 56.78125 9.90625 50.3125 4.234375 
Q 43.84375 -1.421875 31.78125 -1.421875 
Q 19.734375 -1.421875 13.25 4.234375 
Q 6.78125 9.90625 6.78125 20.515625 
Q 6.78125 27.484375 10.78125 32.3125 
Q 14.796875 37.15625 21.921875 38.8125 
z
M 18.3125 54.390625 
Q 18.3125 48.734375 21.84375 45.5625 
Q 25.390625 42.390625 31.78125 42.390625 
Q 38.140625 42.390625 41.71875 45.5625 
Q 45.3125 48.734375 45.3125 54.390625 
Q 45.3125 60.0625 41.71875 63.234375 
Q 38.140625 66.40625 31.78125 66.40625 
Q 25.390625 66.40625 21.84375 63.234375 
Q 18.3125 60.0625 18.3125 54.390625 
z
" id="DejaVuSans-56"/>
      </defs>
      <g style="fill:#262626;" transform="translate(104.006985 396.227344)rotate(-90)scale(0.11 -0.11)">
       <use xlink:href="#DejaVuSans-77"/>
       <use x="86.279297" xlink:href="#DejaVuSans-97"/>
       <use x="147.558594" xlink:href="#DejaVuSans-114"/>
       <use x="188.671875" xlink:href="#DejaVuSans-32"/>
       <use x="220.458984" xlink:href="#DejaVuSans-48"/>
       <use x="284.082031" xlink:href="#DejaVuSans-56"/>
      </g>
     </g>
    </g>
    <g id="xtick_8">
     <g id="line2d_8">
      <path clip-path="url(#pf1e19b6d26)" d="M 108.218425 348.48 
L 108.218425 22.32 
" style="fill:none;stroke:#cccccc;stroke-linecap:round;"/>
     </g>
     <g id="text_8">
      <!-- Mar 09 -->
      <defs>
       <path d="M 10.984375 1.515625 
L 10.984375 10.5 
Q 14.703125 8.734375 18.5 7.8125 
Q 22.3125 6.890625 25.984375 6.890625 
Q 35.75 6.890625 40.890625 13.453125 
Q 46.046875 20.015625 46.78125 33.40625 
Q 43.953125 29.203125 39.59375 26.953125 
Q 35.25 24.703125 29.984375 24.703125 
Q 19.046875 24.703125 12.671875 31.3125 
Q 6.296875 37.9375 6.296875 49.421875 
Q 6.296875 60.640625 12.9375 67.421875 
Q 19.578125 74.21875 30.609375 74.21875 
Q 43.265625 74.21875 49.921875 64.515625 
Q 56.59375 54.828125 56.59375 36.375 
Q 56.59375 19.140625 48.40625 8.859375 
Q 40.234375 -1.421875 26.421875 -1.421875 
Q 22.703125 -1.421875 18.890625 -0.6875 
Q 15.09375 0.046875 10.984375 1.515625 
z
M 30.609375 32.421875 
Q 37.25 32.421875 41.125 36.953125 
Q 45.015625 41.5 45.015625 49.421875 
Q 45.015625 57.28125 41.125 61.84375 
Q 37.25 66.40625 30.609375 66.40625 
Q 23.96875 66.40625 20.09375 61.84375 
Q 16.21875 57.28125 16.21875 49.421875 
Q 16.21875 41.5 20.09375 36.953125 
Q 23.96875 32.421875 30.609375 32.421875 
z
" id="DejaVuSans-57"/>
      </defs>
      <g style="fill:#262626;" transform="translate(111.253738 396.227344)rotate(-90)scale(0.11 -0.11)">
       <use xlink:href="#DejaVuSans-77"/>
       <use x="86.279297" xlink:href="#DejaVuSans-97"/>
       <use x="147.558594" xlink:href="#DejaVuSans-114"/>
       <use x="188.671875" xlink:href="#DejaVuSans-32"/>
       <use x="220.458984" xlink:href="#DejaVuSans-48"/>
       <use x="284.082031" xlink:href="#DejaVuSans-57"/>
      </g>
     </g>
    </g>
    <g id="xtick_9">
     <g id="line2d_9">
      <path clip-path="url(#pf1e19b6d26)" d="M 115.465179 348.48 
L 115.465179 22.32 
" style="fill:none;stroke:#cccccc;stroke-linecap:round;"/>
     </g>
     <g id="text_9">
      <!-- Mar 10 -->
      <defs>
       <path d="M 12.40625 8.296875 
L 28.515625 8.296875 
L 28.515625 63.921875 
L 10.984375 60.40625 
L 10.984375 69.390625 
L 28.421875 72.90625 
L 38.28125 72.90625 
L 38.28125 8.296875 
L 54.390625 8.296875 
L 54.390625 0 
L 12.40625 0 
z
" id="DejaVuSans-49"/>
      </defs>
      <g style="fill:#262626;" transform="translate(118.500491 396.227344)rotate(-90)scale(0.11 -0.11)">
       <use xlink:href="#DejaVuSans-77"/>
       <use x="86.279297" xlink:href="#DejaVuSans-97"/>
       <use x="147.558594" xlink:href="#DejaVuSans-114"/>
       <use x="188.671875" xlink:href="#DejaVuSans-32"/>
       <use x="220.458984" xlink:href="#DejaVuSans-49"/>
       <use x="284.082031" xlink:href="#DejaVuSans-48"/>
      </g>
     </g>
    </g>
    <g id="xtick_10">
     <g id="line2d_10">
      <path clip-path="url(#pf1e19b6d26)" d="M 122.711932 348.48 
L 122.711932 22.32 
" style="fill:none;stroke:#cccccc;stroke-linecap:round;"/>
     </g>
     <g id="text_10">
      <!-- Mar 11 -->
      <g style="fill:#262626;" transform="translate(125.747244 396.227344)rotate(-90)scale(0.11 -0.11)">
       <use xlink:href="#DejaVuSans-77"/>
       <use x="86.279297" xlink:href="#DejaVuSans-97"/>
       <use x="147.558594" xlink:href="#DejaVuSans-114"/>
       <use x="188.671875" xlink:href="#DejaVuSans-32"/>
       <use x="220.458984" xlink:href="#DejaVuSans-49"/>
       <use x="284.082031" xlink:href="#DejaVuSans-49"/>
      </g>
     </g>
    </g>
    <g id="xtick_11">
     <g id="line2d_11">
      <path clip-path="url(#pf1e19b6d26)" d="M 129.958685 348.48 
L 129.958685 22.32 
" style="fill:none;stroke:#cccccc;stroke-linecap:round;"/>
     </g>
     <g id="text_11">
      <!-- Mar 12 -->
      <g style="fill:#262626;" transform="translate(132.993998 396.227344)rotate(-90)scale(0.11 -0.11)">
       <use xlink:href="#DejaVuSans-77"/>
       <use x="86.279297" xlink:href="#DejaVuSans-97"/>
       <use x="147.558594" xlink:href="#DejaVuSans-114"/>
       <use x="188.671875" xlink:href="#DejaVuSans-32"/>
       <use x="220.458984" xlink:href="#DejaVuSans-49"/>
       <use x="284.082031" xlink:href="#DejaVuSans-50"/>
      </g>
     </g>
    </g>
    <g id="xtick_12">
     <g id="line2d_12">
      <path clip-path="url(#pf1e19b6d26)" d="M 137.205438 348.48 
L 137.205438 22.32 
" style="fill:none;stroke:#cccccc;stroke-linecap:round;"/>
     </g>
     <g id="text_12">
      <!-- Mar 13 -->
      <g style="fill:#262626;" transform="translate(140.240751 396.227344)rotate(-90)scale(0.11 -0.11)">
       <use xlink:href="#DejaVuSans-77"/>
       <use x="86.279297" xlink:href="#DejaVuSans-97"/>
       <use x="147.558594" xlink:href="#DejaVuSans-114"/>
       <use x="188.671875" xlink:href="#DejaVuSans-32"/>
       <use x="220.458984" xlink:href="#DejaVuSans-49"/>
       <use x="284.082031" xlink:href="#DejaVuSans-51"/>
      </g>
     </g>
    </g>
    <g id="xtick_13">
     <g id="line2d_13">
      <path clip-path="url(#pf1e19b6d26)" d="M 144.452192 348.48 
L 144.452192 22.32 
" style="fill:none;stroke:#cccccc;stroke-linecap:round;"/>
     </g>
     <g id="text_13">
      <!-- Mar 14 -->
      <g style="fill:#262626;" transform="translate(147.487504 396.227344)rotate(-90)scale(0.11 -0.11)">
       <use xlink:href="#DejaVuSans-77"/>
       <use x="86.279297" xlink:href="#DejaVuSans-97"/>
       <use x="147.558594" xlink:href="#DejaVuSans-114"/>
       <use x="188.671875" xlink:href="#DejaVuSans-32"/>
       <use x="220.458984" xlink:href="#DejaVuSans-49"/>
       <use x="284.082031" xlink:href="#DejaVuSans-52"/>
      </g>
     </g>
    </g>
    <g id="xtick_14">
     <g id="line2d_14">
      <path clip-path="url(#pf1e19b6d26)" d="M 151.698945 348.48 
L 151.698945 22.32 
" style="fill:none;stroke:#cccccc;stroke-linecap:round;"/>
     </g>
     <g id="text_14">
      <!-- Mar 15 -->
      <g style="fill:#262626;" transform="translate(154.734257 396.227344)rotate(-90)scale(0.11 -0.11)">
       <use xlink:href="#DejaVuSans-77"/>
       <use x="86.279297" xlink:href="#DejaVuSans-97"/>
       <use x="147.558594" xlink:href="#DejaVuSans-114"/>
       <use x="188.671875" xlink:href="#DejaVuSans-32"/>
       <use x="220.458984" xlink:href="#DejaVuSans-49"/>
       <use x="284.082031" xlink:href="#DejaVuSans-53"/>
      </g>
     </g>
    </g>
    <g id="xtick_15">
     <g id="line2d_15">
      <path clip-path="url(#pf1e19b6d26)" d="M 158.945698 348.48 
L 158.945698 22.32 
" style="fill:none;stroke:#cccccc;stroke-linecap:round;"/>
     </g>
     <g id="text_15">
      <!-- Mar 16 -->
      <g style="fill:#262626;" transform="translate(161.981011 396.227344)rotate(-90)scale(0.11 -0.11)">
       <use xlink:href="#DejaVuSans-77"/>
       <use x="86.279297" xlink:href="#DejaVuSans-97"/>
       <use x="147.558594" xlink:href="#DejaVuSans-114"/>
       <use x="188.671875" xlink:href="#DejaVuSans-32"/>
       <use x="220.458984" xlink:href="#DejaVuSans-49"/>
       <use x="284.082031" xlink:href="#DejaVuSans-54"/>
      </g>
     </g>
    </g>
    <g id="xtick_16">
     <g id="line2d_16">
      <path clip-path="url(#pf1e19b6d26)" d="M 166.192451 348.48 
L 166.192451 22.32 
" style="fill:none;stroke:#cccccc;stroke-linecap:round;"/>
     </g>
     <g id="text_16">
      <!-- Mar 17 -->
      <g style="fill:#262626;" transform="translate(169.227764 396.227344)rotate(-90)scale(0.11 -0.11)">
       <use xlink:href="#DejaVuSans-77"/>
       <use x="86.279297" xlink:href="#DejaVuSans-97"/>
       <use x="147.558594" xlink:href="#DejaVuSans-114"/>
       <use x="188.671875" xlink:href="#DejaVuSans-32"/>
       <use x="220.458984" xlink:href="#DejaVuSans-49"/>
       <use x="284.082031" xlink:href="#DejaVuSans-55"/>
      </g>
     </g>
    </g>
    <g id="xtick_17">
     <g id="line2d_17">
      <path clip-path="url(#pf1e19b6d26)" d="M 173.439205 348.48 
L 173.439205 22.32 
" style="fill:none;stroke:#cccccc;stroke-linecap:round;"/>
     </g>
     <g id="text_17">
      <!-- Mar 18 -->
      <g style="fill:#262626;" transform="translate(176.474517 396.227344)rotate(-90)scale(0.11 -0.11)">
       <use xlink:href="#DejaVuSans-77"/>
       <use x="86.279297" xlink:href="#DejaVuSans-97"/>
       <use x="147.558594" xlink:href="#DejaVuSans-114"/>
       <use x="188.671875" xlink:href="#DejaVuSans-32"/>
       <use x="220.458984" xlink:href="#DejaVuSans-49"/>
       <use x="284.082031" xlink:href="#DejaVuSans-56"/>
      </g>
     </g>
    </g>
    <g id="xtick_18">
     <g id="line2d_18">
      <path clip-path="url(#pf1e19b6d26)" d="M 180.685958 348.48 
L 180.685958 22.32 
" style="fill:none;stroke:#cccccc;stroke-linecap:round;"/>
     </g>
     <g id="text_18">
      <!-- Mar 19 -->
      <g style="fill:#262626;" transform="translate(183.72127 396.227344)rotate(-90)scale(0.11 -0.11)">
       <use xlink:href="#DejaVuSans-77"/>
       <use x="86.279297" xlink:href="#DejaVuSans-97"/>
       <use x="147.558594" xlink:href="#DejaVuSans-114"/>
       <use x="188.671875" xlink:href="#DejaVuSans-32"/>
       <use x="220.458984" xlink:href="#DejaVuSans-49"/>
       <use x="284.082031" xlink:href="#DejaVuSans-57"/>
      </g>
     </g>
    </g>
    <g id="xtick_19">
     <g id="line2d_19">
      <path clip-path="url(#pf1e19b6d26)" d="M 187.932711 348.48 
L 187.932711 22.32 
" style="fill:none;stroke:#cccccc;stroke-linecap:round;"/>
     </g>
     <g id="text_19">
      <!-- Mar 20 -->
      <g style="fill:#262626;" transform="translate(190.968024 396.227344)rotate(-90)scale(0.11 -0.11)">
       <use xlink:href="#DejaVuSans-77"/>
       <use x="86.279297" xlink:href="#DejaVuSans-97"/>
       <use x="147.558594" xlink:href="#DejaVuSans-114"/>
       <use x="188.671875" xlink:href="#DejaVuSans-32"/>
       <use x="220.458984" xlink:href="#DejaVuSans-50"/>
       <use x="284.082031" xlink:href="#DejaVuSans-48"/>
      </g>
     </g>
    </g>
    <g id="xtick_20">
     <g id="line2d_20">
      <path clip-path="url(#pf1e19b6d26)" d="M 195.179464 348.48 
L 195.179464 22.32 
" style="fill:none;stroke:#cccccc;stroke-linecap:round;"/>
     </g>
     <g id="text_20">
      <!-- Mar 21 -->
      <g style="fill:#262626;" transform="translate(198.214777 396.227344)rotate(-90)scale(0.11 -0.11)">
       <use xlink:href="#DejaVuSans-77"/>
       <use x="86.279297" xlink:href="#DejaVuSans-97"/>
       <use x="147.558594" xlink:href="#DejaVuSans-114"/>
       <use x="188.671875" xlink:href="#DejaVuSans-32"/>
       <use x="220.458984" xlink:href="#DejaVuSans-50"/>
       <use x="284.082031" xlink:href="#DejaVuSans-49"/>
      </g>
     </g>
    </g>
    <g id="xtick_21">
     <g id="line2d_21">
      <path clip-path="url(#pf1e19b6d26)" d="M 202.426218 348.48 
L 202.426218 22.32 
" style="fill:none;stroke:#cccccc;stroke-linecap:round;"/>
     </g>
     <g id="text_21">
      <!-- Mar 22 -->
      <g style="fill:#262626;" transform="translate(205.46153 396.227344)rotate(-90)scale(0.11 -0.11)">
       <use xlink:href="#DejaVuSans-77"/>
       <use x="86.279297" xlink:href="#DejaVuSans-97"/>
       <use x="147.558594" xlink:href="#DejaVuSans-114"/>
       <use x="188.671875" xlink:href="#DejaVuSans-32"/>
       <use x="220.458984" xlink:href="#DejaVuSans-50"/>
       <use x="284.082031" xlink:href="#DejaVuSans-50"/>
      </g>
     </g>
    </g>
    <g id="xtick_22">
     <g id="line2d_22">
      <path clip-path="url(#pf1e19b6d26)" d="M 209.672971 348.48 
L 209.672971 22.32 
" style="fill:none;stroke:#cccccc;stroke-linecap:round;"/>
     </g>
     <g id="text_22">
      <!-- Mar 23 -->
      <g style="fill:#262626;" transform="translate(212.708283 396.227344)rotate(-90)scale(0.11 -0.11)">
       <use xlink:href="#DejaVuSans-77"/>
       <use x="86.279297" xlink:href="#DejaVuSans-97"/>
       <use x="147.558594" xlink:href="#DejaVuSans-114"/>
       <use x="188.671875" xlink:href="#DejaVuSans-32"/>
       <use x="220.458984" xlink:href="#DejaVuSans-50"/>
       <use x="284.082031" xlink:href="#DejaVuSans-51"/>
      </g>
     </g>
    </g>
    <g id="xtick_23">
     <g id="line2d_23">
      <path clip-path="url(#pf1e19b6d26)" d="M 216.919724 348.48 
L 216.919724 22.32 
" style="fill:none;stroke:#cccccc;stroke-linecap:round;"/>
     </g>
     <g id="text_23">
      <!-- Mar 24 -->
      <g style="fill:#262626;" transform="translate(219.955037 396.227344)rotate(-90)scale(0.11 -0.11)">
       <use xlink:href="#DejaVuSans-77"/>
       <use x="86.279297" xlink:href="#DejaVuSans-97"/>
       <use x="147.558594" xlink:href="#DejaVuSans-114"/>
       <use x="188.671875" xlink:href="#DejaVuSans-32"/>
       <use x="220.458984" xlink:href="#DejaVuSans-50"/>
       <use x="284.082031" xlink:href="#DejaVuSans-52"/>
      </g>
     </g>
    </g>
    <g id="xtick_24">
     <g id="line2d_24">
      <path clip-path="url(#pf1e19b6d26)" d="M 224.166477 348.48 
L 224.166477 22.32 
" style="fill:none;stroke:#cccccc;stroke-linecap:round;"/>
     </g>
     <g id="text_24">
      <!-- Mar 25 -->
      <g style="fill:#262626;" transform="translate(227.20179 396.227344)rotate(-90)scale(0.11 -0.11)">
       <use xlink:href="#DejaVuSans-77"/>
       <use x="86.279297" xlink:href="#DejaVuSans-97"/>
       <use x="147.558594" xlink:href="#DejaVuSans-114"/>
       <use x="188.671875" xlink:href="#DejaVuSans-32"/>
       <use x="220.458984" xlink:href="#DejaVuSans-50"/>
       <use x="284.082031" xlink:href="#DejaVuSans-53"/>
      </g>
     </g>
    </g>
    <g id="xtick_25">
     <g id="line2d_25">
      <path clip-path="url(#pf1e19b6d26)" d="M 231.413231 348.48 
L 231.413231 22.32 
" style="fill:none;stroke:#cccccc;stroke-linecap:round;"/>
     </g>
     <g id="text_25">
      <!-- Mar 26 -->
      <g style="fill:#262626;" transform="translate(234.448543 396.227344)rotate(-90)scale(0.11 -0.11)">
       <use xlink:href="#DejaVuSans-77"/>
       <use x="86.279297" xlink:href="#DejaVuSans-97"/>
       <use x="147.558594" xlink:href="#DejaVuSans-114"/>
       <use x="188.671875" xlink:href="#DejaVuSans-32"/>
       <use x="220.458984" xlink:href="#DejaVuSans-50"/>
       <use x="284.082031" xlink:href="#DejaVuSans-54"/>
      </g>
     </g>
    </g>
    <g id="xtick_26">
     <g id="line2d_26">
      <path clip-path="url(#pf1e19b6d26)" d="M 238.659984 348.48 
L 238.659984 22.32 
" style="fill:none;stroke:#cccccc;stroke-linecap:round;"/>
     </g>
     <g id="text_26">
      <!-- Mar 27 -->
      <g style="fill:#262626;" transform="translate(241.695296 396.227344)rotate(-90)scale(0.11 -0.11)">
       <use xlink:href="#DejaVuSans-77"/>
       <use x="86.279297" xlink:href="#DejaVuSans-97"/>
       <use x="147.558594" xlink:href="#DejaVuSans-114"/>
       <use x="188.671875" xlink:href="#DejaVuSans-32"/>
       <use x="220.458984" xlink:href="#DejaVuSans-50"/>
       <use x="284.082031" xlink:href="#DejaVuSans-55"/>
      </g>
     </g>
    </g>
    <g id="xtick_27">
     <g id="line2d_27">
      <path clip-path="url(#pf1e19b6d26)" d="M 245.906737 348.48 
L 245.906737 22.32 
" style="fill:none;stroke:#cccccc;stroke-linecap:round;"/>
     </g>
     <g id="text_27">
      <!-- Mar 28 -->
      <g style="fill:#262626;" transform="translate(248.94205 396.227344)rotate(-90)scale(0.11 -0.11)">
       <use xlink:href="#DejaVuSans-77"/>
       <use x="86.279297" xlink:href="#DejaVuSans-97"/>
       <use x="147.558594" xlink:href="#DejaVuSans-114"/>
       <use x="188.671875" xlink:href="#DejaVuSans-32"/>
       <use x="220.458984" xlink:href="#DejaVuSans-50"/>
       <use x="284.082031" xlink:href="#DejaVuSans-56"/>
      </g>
     </g>
    </g>
    <g id="xtick_28">
     <g id="line2d_28">
      <path clip-path="url(#pf1e19b6d26)" d="M 253.15349 348.48 
L 253.15349 22.32 
" style="fill:none;stroke:#cccccc;stroke-linecap:round;"/>
     </g>
     <g id="text_28">
      <!-- Mar 29 -->
      <g style="fill:#262626;" transform="translate(256.188803 396.227344)rotate(-90)scale(0.11 -0.11)">
       <use xlink:href="#DejaVuSans-77"/>
       <use x="86.279297" xlink:href="#DejaVuSans-97"/>
       <use x="147.558594" xlink:href="#DejaVuSans-114"/>
       <use x="188.671875" xlink:href="#DejaVuSans-32"/>
       <use x="220.458984" xlink:href="#DejaVuSans-50"/>
       <use x="284.082031" xlink:href="#DejaVuSans-57"/>
      </g>
     </g>
    </g>
    <g id="xtick_29">
     <g id="line2d_29">
      <path clip-path="url(#pf1e19b6d26)" d="M 260.400244 348.48 
L 260.400244 22.32 
" style="fill:none;stroke:#cccccc;stroke-linecap:round;"/>
     </g>
     <g id="text_29">
      <!-- Mar 30 -->
      <g style="fill:#262626;" transform="translate(263.435556 396.227344)rotate(-90)scale(0.11 -0.11)">
       <use xlink:href="#DejaVuSans-77"/>
       <use x="86.279297" xlink:href="#DejaVuSans-97"/>
       <use x="147.558594" xlink:href="#DejaVuSans-114"/>
       <use x="188.671875" xlink:href="#DejaVuSans-32"/>
       <use x="220.458984" xlink:href="#DejaVuSans-51"/>
       <use x="284.082031" xlink:href="#DejaVuSans-48"/>
      </g>
     </g>
    </g>
    <g id="xtick_30">
     <g id="line2d_30">
      <path clip-path="url(#pf1e19b6d26)" d="M 267.646997 348.48 
L 267.646997 22.32 
" style="fill:none;stroke:#cccccc;stroke-linecap:round;"/>
     </g>
     <g id="text_30">
      <!-- Mar 31 -->
      <g style="fill:#262626;" transform="translate(270.682309 396.227344)rotate(-90)scale(0.11 -0.11)">
       <use xlink:href="#DejaVuSans-77"/>
       <use x="86.279297" xlink:href="#DejaVuSans-97"/>
       <use x="147.558594" xlink:href="#DejaVuSans-114"/>
       <use x="188.671875" xlink:href="#DejaVuSans-32"/>
       <use x="220.458984" xlink:href="#DejaVuSans-51"/>
       <use x="284.082031" xlink:href="#DejaVuSans-49"/>
      </g>
     </g>
    </g>
    <g id="xtick_31">
     <g id="line2d_31">
      <path clip-path="url(#pf1e19b6d26)" d="M 274.89375 348.48 
L 274.89375 22.32 
" style="fill:none;stroke:#cccccc;stroke-linecap:round;"/>
     </g>
     <g id="text_31">
      <!-- Apr 01 -->
      <defs>
       <path d="M 34.1875 63.1875 
L 20.796875 26.90625 
L 47.609375 26.90625 
z
M 28.609375 72.90625 
L 39.796875 72.90625 
L 67.578125 0 
L 57.328125 0 
L 50.6875 18.703125 
L 17.828125 18.703125 
L 11.1875 0 
L 0.78125 0 
z
" id="DejaVuSans-65"/>
       <path d="M 18.109375 8.203125 
L 18.109375 -20.796875 
L 9.078125 -20.796875 
L 9.078125 54.6875 
L 18.109375 54.6875 
L 18.109375 46.390625 
Q 20.953125 51.265625 25.265625 53.625 
Q 29.59375 56 35.59375 56 
Q 45.5625 56 51.78125 48.09375 
Q 58.015625 40.1875 58.015625 27.296875 
Q 58.015625 14.40625 51.78125 6.484375 
Q 45.5625 -1.421875 35.59375 -1.421875 
Q 29.59375 -1.421875 25.265625 0.953125 
Q 20.953125 3.328125 18.109375 8.203125 
z
M 48.6875 27.296875 
Q 48.6875 37.203125 44.609375 42.84375 
Q 40.53125 48.484375 33.40625 48.484375 
Q 26.265625 48.484375 22.1875 42.84375 
Q 18.109375 37.203125 18.109375 27.296875 
Q 18.109375 17.390625 22.1875 11.75 
Q 26.265625 6.109375 33.40625 6.109375 
Q 40.53125 6.109375 44.609375 11.75 
Q 48.6875 17.390625 48.6875 27.296875 
z
" id="DejaVuSans-112"/>
      </defs>
      <g style="fill:#262626;" transform="translate(277.929063 394.503437)rotate(-90)scale(0.11 -0.11)">
       <use xlink:href="#DejaVuSans-65"/>
       <use x="68.408203" xlink:href="#DejaVuSans-112"/>
       <use x="131.884766" xlink:href="#DejaVuSans-114"/>
       <use x="172.998047" xlink:href="#DejaVuSans-32"/>
       <use x="204.785156" xlink:href="#DejaVuSans-48"/>
       <use x="268.408203" xlink:href="#DejaVuSans-49"/>
      </g>
     </g>
    </g>
    <g id="xtick_32">
     <g id="line2d_32">
      <path clip-path="url(#pf1e19b6d26)" d="M 282.140503 348.48 
L 282.140503 22.32 
" style="fill:none;stroke:#cccccc;stroke-linecap:round;"/>
     </g>
     <g id="text_32">
      <!-- Apr 02 -->
      <g style="fill:#262626;" transform="translate(285.175816 394.503437)rotate(-90)scale(0.11 -0.11)">
       <use xlink:href="#DejaVuSans-65"/>
       <use x="68.408203" xlink:href="#DejaVuSans-112"/>
       <use x="131.884766" xlink:href="#DejaVuSans-114"/>
       <use x="172.998047" xlink:href="#DejaVuSans-32"/>
       <use x="204.785156" xlink:href="#DejaVuSans-48"/>
       <use x="268.408203" xlink:href="#DejaVuSans-50"/>
      </g>
     </g>
    </g>
    <g id="xtick_33">
     <g id="line2d_33">
      <path clip-path="url(#pf1e19b6d26)" d="M 289.387256 348.48 
L 289.387256 22.32 
" style="fill:none;stroke:#cccccc;stroke-linecap:round;"/>
     </g>
     <g id="text_33">
      <!-- Apr 03 -->
      <g style="fill:#262626;" transform="translate(292.422569 394.503437)rotate(-90)scale(0.11 -0.11)">
       <use xlink:href="#DejaVuSans-65"/>
       <use x="68.408203" xlink:href="#DejaVuSans-112"/>
       <use x="131.884766" xlink:href="#DejaVuSans-114"/>
       <use x="172.998047" xlink:href="#DejaVuSans-32"/>
       <use x="204.785156" xlink:href="#DejaVuSans-48"/>
       <use x="268.408203" xlink:href="#DejaVuSans-51"/>
      </g>
     </g>
    </g>
    <g id="xtick_34">
     <g id="line2d_34">
      <path clip-path="url(#pf1e19b6d26)" d="M 296.63401 348.48 
L 296.63401 22.32 
" style="fill:none;stroke:#cccccc;stroke-linecap:round;"/>
     </g>
     <g id="text_34">
      <!-- Apr 04 -->
      <g style="fill:#262626;" transform="translate(299.669322 394.503437)rotate(-90)scale(0.11 -0.11)">
       <use xlink:href="#DejaVuSans-65"/>
       <use x="68.408203" xlink:href="#DejaVuSans-112"/>
       <use x="131.884766" xlink:href="#DejaVuSans-114"/>
       <use x="172.998047" xlink:href="#DejaVuSans-32"/>
       <use x="204.785156" xlink:href="#DejaVuSans-48"/>
       <use x="268.408203" xlink:href="#DejaVuSans-52"/>
      </g>
     </g>
    </g>
    <g id="xtick_35">
     <g id="line2d_35">
      <path clip-path="url(#pf1e19b6d26)" d="M 303.880763 348.48 
L 303.880763 22.32 
" style="fill:none;stroke:#cccccc;stroke-linecap:round;"/>
     </g>
     <g id="text_35">
      <!-- Apr 05 -->
      <g style="fill:#262626;" transform="translate(306.916075 394.503437)rotate(-90)scale(0.11 -0.11)">
       <use xlink:href="#DejaVuSans-65"/>
       <use x="68.408203" xlink:href="#DejaVuSans-112"/>
       <use x="131.884766" xlink:href="#DejaVuSans-114"/>
       <use x="172.998047" xlink:href="#DejaVuSans-32"/>
       <use x="204.785156" xlink:href="#DejaVuSans-48"/>
       <use x="268.408203" xlink:href="#DejaVuSans-53"/>
      </g>
     </g>
    </g>
    <g id="xtick_36">
     <g id="line2d_36">
      <path clip-path="url(#pf1e19b6d26)" d="M 311.127516 348.48 
L 311.127516 22.32 
" style="fill:none;stroke:#cccccc;stroke-linecap:round;"/>
     </g>
     <g id="text_36">
      <!-- Apr 06 -->
      <g style="fill:#262626;" transform="translate(314.162829 394.503437)rotate(-90)scale(0.11 -0.11)">
       <use xlink:href="#DejaVuSans-65"/>
       <use x="68.408203" xlink:href="#DejaVuSans-112"/>
       <use x="131.884766" xlink:href="#DejaVuSans-114"/>
       <use x="172.998047" xlink:href="#DejaVuSans-32"/>
       <use x="204.785156" xlink:href="#DejaVuSans-48"/>
       <use x="268.408203" xlink:href="#DejaVuSans-54"/>
      </g>
     </g>
    </g>
    <g id="xtick_37">
     <g id="line2d_37">
      <path clip-path="url(#pf1e19b6d26)" d="M 318.374269 348.48 
L 318.374269 22.32 
" style="fill:none;stroke:#cccccc;stroke-linecap:round;"/>
     </g>
     <g id="text_37">
      <!-- Apr 07 -->
      <g style="fill:#262626;" transform="translate(321.409582 394.503437)rotate(-90)scale(0.11 -0.11)">
       <use xlink:href="#DejaVuSans-65"/>
       <use x="68.408203" xlink:href="#DejaVuSans-112"/>
       <use x="131.884766" xlink:href="#DejaVuSans-114"/>
       <use x="172.998047" xlink:href="#DejaVuSans-32"/>
       <use x="204.785156" xlink:href="#DejaVuSans-48"/>
       <use x="268.408203" xlink:href="#DejaVuSans-55"/>
      </g>
     </g>
    </g>
    <g id="xtick_38">
     <g id="line2d_38">
      <path clip-path="url(#pf1e19b6d26)" d="M 325.621023 348.48 
L 325.621023 22.32 
" style="fill:none;stroke:#cccccc;stroke-linecap:round;"/>
     </g>
     <g id="text_38">
      <!-- Apr 08 -->
      <g style="fill:#262626;" transform="translate(328.656335 394.503437)rotate(-90)scale(0.11 -0.11)">
       <use xlink:href="#DejaVuSans-65"/>
       <use x="68.408203" xlink:href="#DejaVuSans-112"/>
       <use x="131.884766" xlink:href="#DejaVuSans-114"/>
       <use x="172.998047" xlink:href="#DejaVuSans-32"/>
       <use x="204.785156" xlink:href="#DejaVuSans-48"/>
       <use x="268.408203" xlink:href="#DejaVuSans-56"/>
      </g>
     </g>
    </g>
    <g id="xtick_39">
     <g id="line2d_39">
      <path clip-path="url(#pf1e19b6d26)" d="M 332.867776 348.48 
L 332.867776 22.32 
" style="fill:none;stroke:#cccccc;stroke-linecap:round;"/>
     </g>
     <g id="text_39">
      <!-- Apr 09 -->
      <g style="fill:#262626;" transform="translate(335.903088 394.503437)rotate(-90)scale(0.11 -0.11)">
       <use xlink:href="#DejaVuSans-65"/>
       <use x="68.408203" xlink:href="#DejaVuSans-112"/>
       <use x="131.884766" xlink:href="#DejaVuSans-114"/>
       <use x="172.998047" xlink:href="#DejaVuSans-32"/>
       <use x="204.785156" xlink:href="#DejaVuSans-48"/>
       <use x="268.408203" xlink:href="#DejaVuSans-57"/>
      </g>
     </g>
    </g>
    <g id="xtick_40">
     <g id="line2d_40">
      <path clip-path="url(#pf1e19b6d26)" d="M 340.114529 348.48 
L 340.114529 22.32 
" style="fill:none;stroke:#cccccc;stroke-linecap:round;"/>
     </g>
     <g id="text_40">
      <!-- Apr 10 -->
      <g style="fill:#262626;" transform="translate(343.149842 394.503437)rotate(-90)scale(0.11 -0.11)">
       <use xlink:href="#DejaVuSans-65"/>
       <use x="68.408203" xlink:href="#DejaVuSans-112"/>
       <use x="131.884766" xlink:href="#DejaVuSans-114"/>
       <use x="172.998047" xlink:href="#DejaVuSans-32"/>
       <use x="204.785156" xlink:href="#DejaVuSans-49"/>
       <use x="268.408203" xlink:href="#DejaVuSans-48"/>
      </g>
     </g>
    </g>
    <g id="xtick_41">
     <g id="line2d_41">
      <path clip-path="url(#pf1e19b6d26)" d="M 347.361282 348.48 
L 347.361282 22.32 
" style="fill:none;stroke:#cccccc;stroke-linecap:round;"/>
     </g>
     <g id="text_41">
      <!-- Apr 11 -->
      <g style="fill:#262626;" transform="translate(350.396595 394.503437)rotate(-90)scale(0.11 -0.11)">
       <use xlink:href="#DejaVuSans-65"/>
       <use x="68.408203" xlink:href="#DejaVuSans-112"/>
       <use x="131.884766" xlink:href="#DejaVuSans-114"/>
       <use x="172.998047" xlink:href="#DejaVuSans-32"/>
       <use x="204.785156" xlink:href="#DejaVuSans-49"/>
       <use x="268.408203" xlink:href="#DejaVuSans-49"/>
      </g>
     </g>
    </g>
    <g id="xtick_42">
     <g id="line2d_42">
      <path clip-path="url(#pf1e19b6d26)" d="M 354.608036 348.48 
L 354.608036 22.32 
" style="fill:none;stroke:#cccccc;stroke-linecap:round;"/>
     </g>
     <g id="text_42">
      <!-- Apr 12 -->
      <g style="fill:#262626;" transform="translate(357.643348 394.503437)rotate(-90)scale(0.11 -0.11)">
       <use xlink:href="#DejaVuSans-65"/>
       <use x="68.408203" xlink:href="#DejaVuSans-112"/>
       <use x="131.884766" xlink:href="#DejaVuSans-114"/>
       <use x="172.998047" xlink:href="#DejaVuSans-32"/>
       <use x="204.785156" xlink:href="#DejaVuSans-49"/>
       <use x="268.408203" xlink:href="#DejaVuSans-50"/>
      </g>
     </g>
    </g>
    <g id="xtick_43">
     <g id="line2d_43">
      <path clip-path="url(#pf1e19b6d26)" d="M 361.854789 348.48 
L 361.854789 22.32 
" style="fill:none;stroke:#cccccc;stroke-linecap:round;"/>
     </g>
     <g id="text_43">
      <!-- Apr 13 -->
      <g style="fill:#262626;" transform="translate(364.890101 394.503437)rotate(-90)scale(0.11 -0.11)">
       <use xlink:href="#DejaVuSans-65"/>
       <use x="68.408203" xlink:href="#DejaVuSans-112"/>
       <use x="131.884766" xlink:href="#DejaVuSans-114"/>
       <use x="172.998047" xlink:href="#DejaVuSans-32"/>
       <use x="204.785156" xlink:href="#DejaVuSans-49"/>
       <use x="268.408203" xlink:href="#DejaVuSans-51"/>
      </g>
     </g>
    </g>
    <g id="xtick_44">
     <g id="line2d_44">
      <path clip-path="url(#pf1e19b6d26)" d="M 369.101542 348.48 
L 369.101542 22.32 
" style="fill:none;stroke:#cccccc;stroke-linecap:round;"/>
     </g>
     <g id="text_44">
      <!-- Apr 14 -->
      <g style="fill:#262626;" transform="translate(372.136855 394.503437)rotate(-90)scale(0.11 -0.11)">
       <use xlink:href="#DejaVuSans-65"/>
       <use x="68.408203" xlink:href="#DejaVuSans-112"/>
       <use x="131.884766" xlink:href="#DejaVuSans-114"/>
       <use x="172.998047" xlink:href="#DejaVuSans-32"/>
       <use x="204.785156" xlink:href="#DejaVuSans-49"/>
       <use x="268.408203" xlink:href="#DejaVuSans-52"/>
      </g>
     </g>
    </g>
    <g id="xtick_45">
     <g id="line2d_45">
      <path clip-path="url(#pf1e19b6d26)" d="M 376.348295 348.48 
L 376.348295 22.32 
" style="fill:none;stroke:#cccccc;stroke-linecap:round;"/>
     </g>
     <g id="text_45">
      <!-- Apr 15 -->
      <g style="fill:#262626;" transform="translate(379.383608 394.503437)rotate(-90)scale(0.11 -0.11)">
       <use xlink:href="#DejaVuSans-65"/>
       <use x="68.408203" xlink:href="#DejaVuSans-112"/>
       <use x="131.884766" xlink:href="#DejaVuSans-114"/>
       <use x="172.998047" xlink:href="#DejaVuSans-32"/>
       <use x="204.785156" xlink:href="#DejaVuSans-49"/>
       <use x="268.408203" xlink:href="#DejaVuSans-53"/>
      </g>
     </g>
    </g>
    <g id="xtick_46">
     <g id="line2d_46">
      <path clip-path="url(#pf1e19b6d26)" d="M 383.595049 348.48 
L 383.595049 22.32 
" style="fill:none;stroke:#cccccc;stroke-linecap:round;"/>
     </g>
     <g id="text_46">
      <!-- Apr 16 -->
      <g style="fill:#262626;" transform="translate(386.630361 394.503437)rotate(-90)scale(0.11 -0.11)">
       <use xlink:href="#DejaVuSans-65"/>
       <use x="68.408203" xlink:href="#DejaVuSans-112"/>
       <use x="131.884766" xlink:href="#DejaVuSans-114"/>
       <use x="172.998047" xlink:href="#DejaVuSans-32"/>
       <use x="204.785156" xlink:href="#DejaVuSans-49"/>
       <use x="268.408203" xlink:href="#DejaVuSans-54"/>
      </g>
     </g>
    </g>
    <g id="xtick_47">
     <g id="line2d_47">
      <path clip-path="url(#pf1e19b6d26)" d="M 390.841802 348.48 
L 390.841802 22.32 
" style="fill:none;stroke:#cccccc;stroke-linecap:round;"/>
     </g>
     <g id="text_47">
      <!-- Apr 17 -->
      <g style="fill:#262626;" transform="translate(393.877114 394.503437)rotate(-90)scale(0.11 -0.11)">
       <use xlink:href="#DejaVuSans-65"/>
       <use x="68.408203" xlink:href="#DejaVuSans-112"/>
       <use x="131.884766" xlink:href="#DejaVuSans-114"/>
       <use x="172.998047" xlink:href="#DejaVuSans-32"/>
       <use x="204.785156" xlink:href="#DejaVuSans-49"/>
       <use x="268.408203" xlink:href="#DejaVuSans-55"/>
      </g>
     </g>
    </g>
    <g id="xtick_48">
     <g id="line2d_48">
      <path clip-path="url(#pf1e19b6d26)" d="M 398.088555 348.48 
L 398.088555 22.32 
" style="fill:none;stroke:#cccccc;stroke-linecap:round;"/>
     </g>
     <g id="text_48">
      <!-- Apr 18 -->
      <g style="fill:#262626;" transform="translate(401.123868 394.503437)rotate(-90)scale(0.11 -0.11)">
       <use xlink:href="#DejaVuSans-65"/>
       <use x="68.408203" xlink:href="#DejaVuSans-112"/>
       <use x="131.884766" xlink:href="#DejaVuSans-114"/>
       <use x="172.998047" xlink:href="#DejaVuSans-32"/>
       <use x="204.785156" xlink:href="#DejaVuSans-49"/>
       <use x="268.408203" xlink:href="#DejaVuSans-56"/>
      </g>
     </g>
    </g>
    <g id="xtick_49">
     <g id="line2d_49">
      <path clip-path="url(#pf1e19b6d26)" d="M 405.335308 348.48 
L 405.335308 22.32 
" style="fill:none;stroke:#cccccc;stroke-linecap:round;"/>
     </g>
     <g id="text_49">
      <!-- Apr 19 -->
      <g style="fill:#262626;" transform="translate(408.370621 394.503437)rotate(-90)scale(0.11 -0.11)">
       <use xlink:href="#DejaVuSans-65"/>
       <use x="68.408203" xlink:href="#DejaVuSans-112"/>
       <use x="131.884766" xlink:href="#DejaVuSans-114"/>
       <use x="172.998047" xlink:href="#DejaVuSans-32"/>
       <use x="204.785156" xlink:href="#DejaVuSans-49"/>
       <use x="268.408203" xlink:href="#DejaVuSans-57"/>
      </g>
     </g>
    </g>
    <g id="xtick_50">
     <g id="line2d_50">
      <path clip-path="url(#pf1e19b6d26)" d="M 412.582062 348.48 
L 412.582062 22.32 
" style="fill:none;stroke:#cccccc;stroke-linecap:round;"/>
     </g>
     <g id="text_50">
      <!-- Apr 20 -->
      <g style="fill:#262626;" transform="translate(415.617374 394.503437)rotate(-90)scale(0.11 -0.11)">
       <use xlink:href="#DejaVuSans-65"/>
       <use x="68.408203" xlink:href="#DejaVuSans-112"/>
       <use x="131.884766" xlink:href="#DejaVuSans-114"/>
       <use x="172.998047" xlink:href="#DejaVuSans-32"/>
       <use x="204.785156" xlink:href="#DejaVuSans-50"/>
       <use x="268.408203" xlink:href="#DejaVuSans-48"/>
      </g>
     </g>
    </g>
    <g id="xtick_51">
     <g id="line2d_51">
      <path clip-path="url(#pf1e19b6d26)" d="M 419.828815 348.48 
L 419.828815 22.32 
" style="fill:none;stroke:#cccccc;stroke-linecap:round;"/>
     </g>
     <g id="text_51">
      <!-- Apr 21 -->
      <g style="fill:#262626;" transform="translate(422.864127 394.503437)rotate(-90)scale(0.11 -0.11)">
       <use xlink:href="#DejaVuSans-65"/>
       <use x="68.408203" xlink:href="#DejaVuSans-112"/>
       <use x="131.884766" xlink:href="#DejaVuSans-114"/>
       <use x="172.998047" xlink:href="#DejaVuSans-32"/>
       <use x="204.785156" xlink:href="#DejaVuSans-50"/>
       <use x="268.408203" xlink:href="#DejaVuSans-49"/>
      </g>
     </g>
    </g>
    <g id="xtick_52">
     <g id="line2d_52">
      <path clip-path="url(#pf1e19b6d26)" d="M 427.075568 348.48 
L 427.075568 22.32 
" style="fill:none;stroke:#cccccc;stroke-linecap:round;"/>
     </g>
     <g id="text_52">
      <!-- Apr 22 -->
      <g style="fill:#262626;" transform="translate(430.110881 394.503437)rotate(-90)scale(0.11 -0.11)">
       <use xlink:href="#DejaVuSans-65"/>
       <use x="68.408203" xlink:href="#DejaVuSans-112"/>
       <use x="131.884766" xlink:href="#DejaVuSans-114"/>
       <use x="172.998047" xlink:href="#DejaVuSans-32"/>
       <use x="204.785156" xlink:href="#DejaVuSans-50"/>
       <use x="268.408203" xlink:href="#DejaVuSans-50"/>
      </g>
     </g>
    </g>
    <g id="xtick_53">
     <g id="line2d_53">
      <path clip-path="url(#pf1e19b6d26)" d="M 434.322321 348.48 
L 434.322321 22.32 
" style="fill:none;stroke:#cccccc;stroke-linecap:round;"/>
     </g>
     <g id="text_53">
      <!-- Apr 23 -->
      <g style="fill:#262626;" transform="translate(437.357634 394.503437)rotate(-90)scale(0.11 -0.11)">
       <use xlink:href="#DejaVuSans-65"/>
       <use x="68.408203" xlink:href="#DejaVuSans-112"/>
       <use x="131.884766" xlink:href="#DejaVuSans-114"/>
       <use x="172.998047" xlink:href="#DejaVuSans-32"/>
       <use x="204.785156" xlink:href="#DejaVuSans-50"/>
       <use x="268.408203" xlink:href="#DejaVuSans-51"/>
      </g>
     </g>
    </g>
    <g id="xtick_54">
     <g id="line2d_54">
      <path clip-path="url(#pf1e19b6d26)" d="M 441.569075 348.48 
L 441.569075 22.32 
" style="fill:none;stroke:#cccccc;stroke-linecap:round;"/>
     </g>
     <g id="text_54">
      <!-- Apr 24 -->
      <g style="fill:#262626;" transform="translate(444.604387 394.503437)rotate(-90)scale(0.11 -0.11)">
       <use xlink:href="#DejaVuSans-65"/>
       <use x="68.408203" xlink:href="#DejaVuSans-112"/>
       <use x="131.884766" xlink:href="#DejaVuSans-114"/>
       <use x="172.998047" xlink:href="#DejaVuSans-32"/>
       <use x="204.785156" xlink:href="#DejaVuSans-50"/>
       <use x="268.408203" xlink:href="#DejaVuSans-52"/>
      </g>
     </g>
    </g>
    <g id="xtick_55">
     <g id="line2d_55">
      <path clip-path="url(#pf1e19b6d26)" d="M 448.815828 348.48 
L 448.815828 22.32 
" style="fill:none;stroke:#cccccc;stroke-linecap:round;"/>
     </g>
     <g id="text_55">
      <!-- Apr 25 -->
      <g style="fill:#262626;" transform="translate(451.85114 394.503437)rotate(-90)scale(0.11 -0.11)">
       <use xlink:href="#DejaVuSans-65"/>
       <use x="68.408203" xlink:href="#DejaVuSans-112"/>
       <use x="131.884766" xlink:href="#DejaVuSans-114"/>
       <use x="172.998047" xlink:href="#DejaVuSans-32"/>
       <use x="204.785156" xlink:href="#DejaVuSans-50"/>
       <use x="268.408203" xlink:href="#DejaVuSans-53"/>
      </g>
     </g>
    </g>
    <g id="xtick_56">
     <g id="line2d_56">
      <path clip-path="url(#pf1e19b6d26)" d="M 456.062581 348.48 
L 456.062581 22.32 
" style="fill:none;stroke:#cccccc;stroke-linecap:round;"/>
     </g>
     <g id="text_56">
      <!-- Apr 26 -->
      <g style="fill:#262626;" transform="translate(459.097894 394.503437)rotate(-90)scale(0.11 -0.11)">
       <use xlink:href="#DejaVuSans-65"/>
       <use x="68.408203" xlink:href="#DejaVuSans-112"/>
       <use x="131.884766" xlink:href="#DejaVuSans-114"/>
       <use x="172.998047" xlink:href="#DejaVuSans-32"/>
       <use x="204.785156" xlink:href="#DejaVuSans-50"/>
       <use x="268.408203" xlink:href="#DejaVuSans-54"/>
      </g>
     </g>
    </g>
    <g id="xtick_57">
     <g id="line2d_57">
      <path clip-path="url(#pf1e19b6d26)" d="M 463.309334 348.48 
L 463.309334 22.32 
" style="fill:none;stroke:#cccccc;stroke-linecap:round;"/>
     </g>
     <g id="text_57">
      <!-- Apr 27 -->
      <g style="fill:#262626;" transform="translate(466.344647 394.503437)rotate(-90)scale(0.11 -0.11)">
       <use xlink:href="#DejaVuSans-65"/>
       <use x="68.408203" xlink:href="#DejaVuSans-112"/>
       <use x="131.884766" xlink:href="#DejaVuSans-114"/>
       <use x="172.998047" xlink:href="#DejaVuSans-32"/>
       <use x="204.785156" xlink:href="#DejaVuSans-50"/>
       <use x="268.408203" xlink:href="#DejaVuSans-55"/>
      </g>
     </g>
    </g>
    <g id="xtick_58">
     <g id="line2d_58">
      <path clip-path="url(#pf1e19b6d26)" d="M 470.556088 348.48 
L 470.556088 22.32 
" style="fill:none;stroke:#cccccc;stroke-linecap:round;"/>
     </g>
     <g id="text_58">
      <!-- Apr 28 -->
      <g style="fill:#262626;" transform="translate(473.5914 394.503437)rotate(-90)scale(0.11 -0.11)">
       <use xlink:href="#DejaVuSans-65"/>
       <use x="68.408203" xlink:href="#DejaVuSans-112"/>
       <use x="131.884766" xlink:href="#DejaVuSans-114"/>
       <use x="172.998047" xlink:href="#DejaVuSans-32"/>
       <use x="204.785156" xlink:href="#DejaVuSans-50"/>
       <use x="268.408203" xlink:href="#DejaVuSans-56"/>
      </g>
     </g>
    </g>
    <g id="xtick_59">
     <g id="line2d_59">
      <path clip-path="url(#pf1e19b6d26)" d="M 477.802841 348.48 
L 477.802841 22.32 
" style="fill:none;stroke:#cccccc;stroke-linecap:round;"/>
     </g>
     <g id="text_59">
      <!-- Apr 29 -->
      <g style="fill:#262626;" transform="translate(480.838153 394.503437)rotate(-90)scale(0.11 -0.11)">
       <use xlink:href="#DejaVuSans-65"/>
       <use x="68.408203" xlink:href="#DejaVuSans-112"/>
       <use x="131.884766" xlink:href="#DejaVuSans-114"/>
       <use x="172.998047" xlink:href="#DejaVuSans-32"/>
       <use x="204.785156" xlink:href="#DejaVuSans-50"/>
       <use x="268.408203" xlink:href="#DejaVuSans-57"/>
      </g>
     </g>
    </g>
    <g id="xtick_60">
     <g id="line2d_60">
      <path clip-path="url(#pf1e19b6d26)" d="M 485.049594 348.48 
L 485.049594 22.32 
" style="fill:none;stroke:#cccccc;stroke-linecap:round;"/>
     </g>
     <g id="text_60">
      <!-- Apr 30 -->
      <g style="fill:#262626;" transform="translate(488.084907 394.503437)rotate(-90)scale(0.11 -0.11)">
       <use xlink:href="#DejaVuSans-65"/>
       <use x="68.408203" xlink:href="#DejaVuSans-112"/>
       <use x="131.884766" xlink:href="#DejaVuSans-114"/>
       <use x="172.998047" xlink:href="#DejaVuSans-32"/>
       <use x="204.785156" xlink:href="#DejaVuSans-51"/>
       <use x="268.408203" xlink:href="#DejaVuSans-48"/>
      </g>
     </g>
    </g>
    <g id="xtick_61">
     <g id="line2d_61">
      <path clip-path="url(#pf1e19b6d26)" d="M 492.296347 348.48 
L 492.296347 22.32 
" style="fill:none;stroke:#cccccc;stroke-linecap:round;"/>
     </g>
     <g id="text_61">
      <!-- May 01 -->
      <defs>
       <path d="M 32.171875 -5.078125 
Q 28.375 -14.84375 24.75 -17.8125 
Q 21.140625 -20.796875 15.09375 -20.796875 
L 7.90625 -20.796875 
L 7.90625 -13.28125 
L 13.1875 -13.28125 
Q 16.890625 -13.28125 18.9375 -11.515625 
Q 21 -9.765625 23.484375 -3.21875 
L 25.09375 0.875 
L 2.984375 54.6875 
L 12.5 54.6875 
L 29.59375 11.921875 
L 46.6875 54.6875 
L 56.203125 54.6875 
z
" id="DejaVuSans-121"/>
      </defs>
      <g style="fill:#262626;" transform="translate(495.33166 398.215937)rotate(-90)scale(0.11 -0.11)">
       <use xlink:href="#DejaVuSans-77"/>
       <use x="86.279297" xlink:href="#DejaVuSans-97"/>
       <use x="147.558594" xlink:href="#DejaVuSans-121"/>
       <use x="206.738281" xlink:href="#DejaVuSans-32"/>
       <use x="238.525391" xlink:href="#DejaVuSans-48"/>
       <use x="302.148438" xlink:href="#DejaVuSans-49"/>
      </g>
     </g>
    </g>
   </g>
   <g id="matplotlib.axis_2">
    <g id="ytick_1">
     <g id="line2d_62">
      <path clip-path="url(#pf1e19b6d26)" d="M 51.69375 333.832415 
L 498.09375 333.832415 
" style="fill:none;stroke:#cccccc;stroke-linecap:round;"/>
     </g>
     <g id="text_62">
      <!-- 0 -->
      <g style="fill:#262626;" transform="translate(35.195 338.011556)scale(0.11 -0.11)">
       <use xlink:href="#DejaVuSans-48"/>
      </g>
     </g>
    </g>
    <g id="ytick_2">
     <g id="line2d_63">
      <path clip-path="url(#pf1e19b6d26)" d="M 51.69375 267.954682 
L 498.09375 267.954682 
" style="fill:none;stroke:#cccccc;stroke-linecap:round;"/>
     </g>
     <g id="text_63">
      <!-- 10000 -->
      <g style="fill:#262626;" transform="translate(7.2 272.133822)scale(0.11 -0.11)">
       <use xlink:href="#DejaVuSans-49"/>
       <use x="63.623047" xlink:href="#DejaVuSans-48"/>
       <use x="127.246094" xlink:href="#DejaVuSans-48"/>
       <use x="190.869141" xlink:href="#DejaVuSans-48"/>
       <use x="254.492188" xlink:href="#DejaVuSans-48"/>
      </g>
     </g>
    </g>
    <g id="ytick_3">
     <g id="line2d_64">
      <path clip-path="url(#pf1e19b6d26)" d="M 51.69375 202.076948 
L 498.09375 202.076948 
" style="fill:none;stroke:#cccccc;stroke-linecap:round;"/>
     </g>
     <g id="text_64">
      <!-- 20000 -->
      <g style="fill:#262626;" transform="translate(7.2 206.256089)scale(0.11 -0.11)">
       <use xlink:href="#DejaVuSans-50"/>
       <use x="63.623047" xlink:href="#DejaVuSans-48"/>
       <use x="127.246094" xlink:href="#DejaVuSans-48"/>
       <use x="190.869141" xlink:href="#DejaVuSans-48"/>
       <use x="254.492188" xlink:href="#DejaVuSans-48"/>
      </g>
     </g>
    </g>
    <g id="ytick_4">
     <g id="line2d_65">
      <path clip-path="url(#pf1e19b6d26)" d="M 51.69375 136.199215 
L 498.09375 136.199215 
" style="fill:none;stroke:#cccccc;stroke-linecap:round;"/>
     </g>
     <g id="text_65">
      <!-- 30000 -->
      <g style="fill:#262626;" transform="translate(7.2 140.378355)scale(0.11 -0.11)">
       <use xlink:href="#DejaVuSans-51"/>
       <use x="63.623047" xlink:href="#DejaVuSans-48"/>
       <use x="127.246094" xlink:href="#DejaVuSans-48"/>
       <use x="190.869141" xlink:href="#DejaVuSans-48"/>
       <use x="254.492188" xlink:href="#DejaVuSans-48"/>
      </g>
     </g>
    </g>
    <g id="ytick_5">
     <g id="line2d_66">
      <path clip-path="url(#pf1e19b6d26)" d="M 51.69375 70.321481 
L 498.09375 70.321481 
" style="fill:none;stroke:#cccccc;stroke-linecap:round;"/>
     </g>
     <g id="text_66">
      <!-- 40000 -->
      <g style="fill:#262626;" transform="translate(7.2 74.500622)scale(0.11 -0.11)">
       <use xlink:href="#DejaVuSans-52"/>
       <use x="63.623047" xlink:href="#DejaVuSans-48"/>
       <use x="127.246094" xlink:href="#DejaVuSans-48"/>
       <use x="190.869141" xlink:href="#DejaVuSans-48"/>
       <use x="254.492188" xlink:href="#DejaVuSans-48"/>
      </g>
     </g>
    </g>
   </g>
   <g id="line2d_67">
    <defs>
     <path d="M 0 3 
C 0.795609 3 1.55874 2.683901 2.12132 2.12132 
C 2.683901 1.55874 3 0.795609 3 0 
C 3 -0.795609 2.683901 -1.55874 2.12132 -2.12132 
C 1.55874 -2.683901 0.795609 -3 0 -3 
C -0.795609 -3 -1.55874 -2.683901 -2.12132 -2.12132 
C -2.683901 -1.55874 -3 -0.795609 -3 0 
C -3 0.795609 -2.683901 1.55874 -2.12132 2.12132 
C -1.55874 2.683901 -0.795609 3 0 3 
z
" id="mcaec5357d1" style="stroke:#55a868;"/>
    </defs>
    <g clip-path="url(#pf1e19b6d26)">
     <use style="fill:#55a868;stroke:#55a868;" x="71.984659" xlink:href="#mcaec5357d1" y="333.654545"/>
     <use style="fill:#55a868;stroke:#55a868;" x="86.478166" xlink:href="#mcaec5357d1" y="333.52279"/>
     <use style="fill:#55a868;stroke:#55a868;" x="93.724919" xlink:href="#mcaec5357d1" y="333.311981"/>
     <use style="fill:#55a868;stroke:#55a868;" x="100.971672" xlink:href="#mcaec5357d1" y="333.239516"/>
     <use style="fill:#55a868;stroke:#55a868;" x="108.218425" xlink:href="#mcaec5357d1" y="332.982593"/>
     <use style="fill:#55a868;stroke:#55a868;" x="115.465179" xlink:href="#mcaec5357d1" y="332.659792"/>
     <use style="fill:#55a868;stroke:#55a868;" x="122.711932" xlink:href="#mcaec5357d1" y="332.238174"/>
     <use style="fill:#55a868;stroke:#55a868;" x="129.958685" xlink:href="#mcaec5357d1" y="331.487168"/>
     <use style="fill:#55a868;stroke:#55a868;" x="137.205438" xlink:href="#mcaec5357d1" y="330.558292"/>
     <use style="fill:#55a868;stroke:#55a868;" x="144.452192" xlink:href="#mcaec5357d1" y="329.563538"/>
     <use style="fill:#55a868;stroke:#55a868;" x="151.698945" xlink:href="#mcaec5357d1" y="328.213045"/>
     <use style="fill:#55a868;stroke:#55a868;" x="158.945698" xlink:href="#mcaec5357d1" y="327.198528"/>
     <use style="fill:#55a868;stroke:#55a868;" x="166.192451" xlink:href="#mcaec5357d1" y="325.136555"/>
     <use style="fill:#55a868;stroke:#55a868;" x="173.439205" xlink:href="#mcaec5357d1" y="323.074581"/>
     <use style="fill:#55a868;stroke:#55a868;" x="180.685958" xlink:href="#mcaec5357d1" y="320.670044"/>
     <use style="fill:#55a868;stroke:#55a868;" x="187.932711" xlink:href="#mcaec5357d1" y="318.140339"/>
     <use style="fill:#55a868;stroke:#55a868;" x="195.179464" xlink:href="#mcaec5357d1" y="315.347123"/>
     <use style="fill:#55a868;stroke:#55a868;" x="202.426218" xlink:href="#mcaec5357d1" y="312.567083"/>
     <use style="fill:#55a868;stroke:#55a868;" x="209.672971" xlink:href="#mcaec5357d1" y="308.120336"/>
     <use style="fill:#55a868;stroke:#55a868;" x="216.919724" xlink:href="#mcaec5357d1" y="301.89489"/>
     <use style="fill:#55a868;stroke:#55a868;" x="224.166477" xlink:href="#mcaec5357d1" y="297.408616"/>
     <use style="fill:#55a868;stroke:#55a868;" x="231.413231" xlink:href="#mcaec5357d1" y="292.006642"/>
     <use style="fill:#55a868;stroke:#55a868;" x="238.659984" xlink:href="#mcaec5357d1" y="285.471571"/>
     <use style="fill:#55a868;stroke:#55a868;" x="245.906737" xlink:href="#mcaec5357d1" y="281.611136"/>
     <use style="fill:#55a868;stroke:#55a868;" x="253.15349" xlink:href="#mcaec5357d1" y="278.16573"/>
     <use style="fill:#55a868;stroke:#55a868;" x="260.400244" xlink:href="#mcaec5357d1" y="272.058865"/>
     <use style="fill:#55a868;stroke:#55a868;" x="267.646997" xlink:href="#mcaec5357d1" y="270.365807"/>
    </g>
   </g>
   <g id="line2d_68">
    <path clip-path="url(#pf1e19b6d26)" d="M 274.89375 265.075825 
L 282.140503 259.673851 
L 289.387256 254.080831 
L 296.63401 248.283591 
L 303.880763 242.282129 
L 311.127516 236.083034 
L 318.374269 229.679719 
L 325.621023 223.07877 
L 332.867776 216.2736 
L 340.114529 209.264209 
L 347.361282 202.050597 
L 354.608036 194.632764 
L 361.854789 187.010711 
L 369.101542 179.191024 
L 376.348295 171.160528 
L 383.595049 162.925811 
L 390.841802 154.486874 
L 398.088555 145.843715 
L 405.335308 136.996335 
L 412.582062 127.938147 
L 419.828815 118.675738 
L 427.075568 109.209107 
L 434.322321 99.538256 
L 441.569075 89.656596 
L 448.815828 79.570715 
L 456.062581 69.274025 
L 463.309334 58.773114 
L 470.556088 48.061395 
L 477.802841 37.145455 
" style="fill:none;stroke:#c44e52;stroke-linecap:round;stroke-width:1.5;"/>
   </g>
   <g id="patch_3">
    <path d="M 51.69375 348.48 
L 51.69375 22.32 
" style="fill:none;stroke:#cccccc;stroke-linecap:square;stroke-linejoin:miter;stroke-width:1.25;"/>
   </g>
   <g id="patch_4">
    <path d="M 498.09375 348.48 
L 498.09375 22.32 
" style="fill:none;stroke:#cccccc;stroke-linecap:square;stroke-linejoin:miter;stroke-width:1.25;"/>
   </g>
   <g id="patch_5">
    <path d="M 51.69375 348.48 
L 498.09375 348.48 
" style="fill:none;stroke:#cccccc;stroke-linecap:square;stroke-linejoin:miter;stroke-width:1.25;"/>
   </g>
   <g id="patch_6">
    <path d="M 51.69375 22.32 
L 498.09375 22.32 
" style="fill:none;stroke:#cccccc;stroke-linecap:square;stroke-linejoin:miter;stroke-width:1.25;"/>
   </g>
   <g id="text_67">
    <!-- Forecast for infections in Austria $n(t)$ (p = 2.057, c = 11.5, t0= -0.000, a0= -504.297) -->
    <defs>
     <path d="M 9.8125 72.90625 
L 51.703125 72.90625 
L 51.703125 64.59375 
L 19.671875 64.59375 
L 19.671875 43.109375 
L 48.578125 43.109375 
L 48.578125 34.8125 
L 19.671875 34.8125 
L 19.671875 0 
L 9.8125 0 
z
" id="DejaVuSans-70"/>
     <path d="M 30.609375 48.390625 
Q 23.390625 48.390625 19.1875 42.75 
Q 14.984375 37.109375 14.984375 27.296875 
Q 14.984375 17.484375 19.15625 11.84375 
Q 23.34375 6.203125 30.609375 6.203125 
Q 37.796875 6.203125 41.984375 11.859375 
Q 46.1875 17.53125 46.1875 27.296875 
Q 46.1875 37.015625 41.984375 42.703125 
Q 37.796875 48.390625 30.609375 48.390625 
z
M 30.609375 56 
Q 42.328125 56 49.015625 48.375 
Q 55.71875 40.765625 55.71875 27.296875 
Q 55.71875 13.875 49.015625 6.21875 
Q 42.328125 -1.421875 30.609375 -1.421875 
Q 18.84375 -1.421875 12.171875 6.21875 
Q 5.515625 13.875 5.515625 27.296875 
Q 5.515625 40.765625 12.171875 48.375 
Q 18.84375 56 30.609375 56 
z
" id="DejaVuSans-111"/>
     <path d="M 56.203125 29.59375 
L 56.203125 25.203125 
L 14.890625 25.203125 
Q 15.484375 15.921875 20.484375 11.0625 
Q 25.484375 6.203125 34.421875 6.203125 
Q 39.59375 6.203125 44.453125 7.46875 
Q 49.3125 8.734375 54.109375 11.28125 
L 54.109375 2.78125 
Q 49.265625 0.734375 44.1875 -0.34375 
Q 39.109375 -1.421875 33.890625 -1.421875 
Q 20.796875 -1.421875 13.15625 6.1875 
Q 5.515625 13.8125 5.515625 26.8125 
Q 5.515625 40.234375 12.765625 48.109375 
Q 20.015625 56 32.328125 56 
Q 43.359375 56 49.78125 48.890625 
Q 56.203125 41.796875 56.203125 29.59375 
z
M 47.21875 32.234375 
Q 47.125 39.59375 43.09375 43.984375 
Q 39.0625 48.390625 32.421875 48.390625 
Q 24.90625 48.390625 20.390625 44.140625 
Q 15.875 39.890625 15.1875 32.171875 
z
" id="DejaVuSans-101"/>
     <path d="M 48.78125 52.59375 
L 48.78125 44.1875 
Q 44.96875 46.296875 41.140625 47.34375 
Q 37.3125 48.390625 33.40625 48.390625 
Q 24.65625 48.390625 19.8125 42.84375 
Q 14.984375 37.3125 14.984375 27.296875 
Q 14.984375 17.28125 19.8125 11.734375 
Q 24.65625 6.203125 33.40625 6.203125 
Q 37.3125 6.203125 41.140625 7.25 
Q 44.96875 8.296875 48.78125 10.40625 
L 48.78125 2.09375 
Q 45.015625 0.34375 40.984375 -0.53125 
Q 36.96875 -1.421875 32.421875 -1.421875 
Q 20.0625 -1.421875 12.78125 6.34375 
Q 5.515625 14.109375 5.515625 27.296875 
Q 5.515625 40.671875 12.859375 48.328125 
Q 20.21875 56 33.015625 56 
Q 37.15625 56 41.109375 55.140625 
Q 45.0625 54.296875 48.78125 52.59375 
z
" id="DejaVuSans-99"/>
     <path d="M 44.28125 53.078125 
L 44.28125 44.578125 
Q 40.484375 46.53125 36.375 47.5 
Q 32.28125 48.484375 27.875 48.484375 
Q 21.1875 48.484375 17.84375 46.4375 
Q 14.5 44.390625 14.5 40.28125 
Q 14.5 37.15625 16.890625 35.375 
Q 19.28125 33.59375 26.515625 31.984375 
L 29.59375 31.296875 
Q 39.15625 29.25 43.1875 25.515625 
Q 47.21875 21.78125 47.21875 15.09375 
Q 47.21875 7.46875 41.1875 3.015625 
Q 35.15625 -1.421875 24.609375 -1.421875 
Q 20.21875 -1.421875 15.453125 -0.5625 
Q 10.6875 0.296875 5.421875 2 
L 5.421875 11.28125 
Q 10.40625 8.6875 15.234375 7.390625 
Q 20.0625 6.109375 24.8125 6.109375 
Q 31.15625 6.109375 34.5625 8.28125 
Q 37.984375 10.453125 37.984375 14.40625 
Q 37.984375 18.0625 35.515625 20.015625 
Q 33.0625 21.96875 24.703125 23.78125 
L 21.578125 24.515625 
Q 13.234375 26.265625 9.515625 29.90625 
Q 5.8125 33.546875 5.8125 39.890625 
Q 5.8125 47.609375 11.28125 51.796875 
Q 16.75 56 26.8125 56 
Q 31.78125 56 36.171875 55.265625 
Q 40.578125 54.546875 44.28125 53.078125 
z
" id="DejaVuSans-115"/>
     <path d="M 18.3125 70.21875 
L 18.3125 54.6875 
L 36.8125 54.6875 
L 36.8125 47.703125 
L 18.3125 47.703125 
L 18.3125 18.015625 
Q 18.3125 11.328125 20.140625 9.421875 
Q 21.96875 7.515625 27.59375 7.515625 
L 36.8125 7.515625 
L 36.8125 0 
L 27.59375 0 
Q 17.1875 0 13.234375 3.875 
Q 9.28125 7.765625 9.28125 18.015625 
L 9.28125 47.703125 
L 2.6875 47.703125 
L 2.6875 54.6875 
L 9.28125 54.6875 
L 9.28125 70.21875 
z
" id="DejaVuSans-116"/>
     <path d="M 37.109375 75.984375 
L 37.109375 68.5 
L 28.515625 68.5 
Q 23.6875 68.5 21.796875 66.546875 
Q 19.921875 64.59375 19.921875 59.515625 
L 19.921875 54.6875 
L 34.71875 54.6875 
L 34.71875 47.703125 
L 19.921875 47.703125 
L 19.921875 0 
L 10.890625 0 
L 10.890625 47.703125 
L 2.296875 47.703125 
L 2.296875 54.6875 
L 10.890625 54.6875 
L 10.890625 58.5 
Q 10.890625 67.625 15.140625 71.796875 
Q 19.390625 75.984375 28.609375 75.984375 
z
" id="DejaVuSans-102"/>
     <path d="M 9.421875 54.6875 
L 18.40625 54.6875 
L 18.40625 0 
L 9.421875 0 
z
M 9.421875 75.984375 
L 18.40625 75.984375 
L 18.40625 64.59375 
L 9.421875 64.59375 
z
" id="DejaVuSans-105"/>
     <path d="M 54.890625 33.015625 
L 54.890625 0 
L 45.90625 0 
L 45.90625 32.71875 
Q 45.90625 40.484375 42.875 44.328125 
Q 39.84375 48.1875 33.796875 48.1875 
Q 26.515625 48.1875 22.3125 43.546875 
Q 18.109375 38.921875 18.109375 30.90625 
L 18.109375 0 
L 9.078125 0 
L 9.078125 54.6875 
L 18.109375 54.6875 
L 18.109375 46.1875 
Q 21.34375 51.125 25.703125 53.5625 
Q 30.078125 56 35.796875 56 
Q 45.21875 56 50.046875 50.171875 
Q 54.890625 44.34375 54.890625 33.015625 
z
" id="DejaVuSans-110"/>
     <path d="M 8.5 21.578125 
L 8.5 54.6875 
L 17.484375 54.6875 
L 17.484375 21.921875 
Q 17.484375 14.15625 20.5 10.265625 
Q 23.53125 6.390625 29.59375 6.390625 
Q 36.859375 6.390625 41.078125 11.03125 
Q 45.3125 15.671875 45.3125 23.6875 
L 45.3125 54.6875 
L 54.296875 54.6875 
L 54.296875 0 
L 45.3125 0 
L 45.3125 8.40625 
Q 42.046875 3.421875 37.71875 1 
Q 33.40625 -1.421875 27.6875 -1.421875 
Q 18.265625 -1.421875 13.375 4.4375 
Q 8.5 10.296875 8.5 21.578125 
z
M 31.109375 56 
z
" id="DejaVuSans-117"/>
     <path d="M 55.71875 33.015625 
L 49.3125 0 
L 40.28125 0 
L 46.6875 32.671875 
Q 47.125 34.96875 47.359375 36.71875 
Q 47.609375 38.484375 47.609375 39.5 
Q 47.609375 43.609375 45.015625 45.890625 
Q 42.4375 48.1875 37.796875 48.1875 
Q 30.5625 48.1875 25.34375 43.375 
Q 20.125 38.578125 18.5 30.328125 
L 12.5 0 
L 3.515625 0 
L 14.109375 54.6875 
L 23.09375 54.6875 
L 21.296875 46.09375 
Q 25.046875 50.828125 30.3125 53.40625 
Q 35.59375 56 41.40625 56 
Q 48.640625 56 52.609375 52.09375 
Q 56.59375 48.1875 56.59375 41.109375 
Q 56.59375 39.359375 56.375 37.359375 
Q 56.15625 35.359375 55.71875 33.015625 
z
" id="DejaVuSans-Oblique-110"/>
     <path d="M 31 75.875 
Q 24.46875 64.65625 21.28125 53.65625 
Q 18.109375 42.671875 18.109375 31.390625 
Q 18.109375 20.125 21.3125 9.0625 
Q 24.515625 -2 31 -13.1875 
L 23.1875 -13.1875 
Q 15.875 -1.703125 12.234375 9.375 
Q 8.59375 20.453125 8.59375 31.390625 
Q 8.59375 42.28125 12.203125 53.3125 
Q 15.828125 64.359375 23.1875 75.875 
z
" id="DejaVuSans-40"/>
     <path d="M 42.28125 54.6875 
L 40.921875 47.703125 
L 23 47.703125 
L 17.1875 18.015625 
Q 16.890625 16.359375 16.75 15.234375 
Q 16.609375 14.109375 16.609375 13.484375 
Q 16.609375 10.359375 18.484375 8.9375 
Q 20.359375 7.515625 24.515625 7.515625 
L 33.59375 7.515625 
L 32.078125 0 
L 23.484375 0 
Q 15.484375 0 11.546875 3.125 
Q 7.625 6.25 7.625 12.59375 
Q 7.625 13.71875 7.765625 15.0625 
Q 7.90625 16.40625 8.203125 18.015625 
L 14.015625 47.703125 
L 6.390625 47.703125 
L 7.8125 54.6875 
L 15.28125 54.6875 
L 18.3125 70.21875 
L 27.296875 70.21875 
L 24.3125 54.6875 
z
" id="DejaVuSans-Oblique-116"/>
     <path d="M 8.015625 75.875 
L 15.828125 75.875 
Q 23.140625 64.359375 26.78125 53.3125 
Q 30.421875 42.28125 30.421875 31.390625 
Q 30.421875 20.453125 26.78125 9.375 
Q 23.140625 -1.703125 15.828125 -13.1875 
L 8.015625 -13.1875 
Q 14.5 -2 17.703125 9.0625 
Q 20.90625 20.125 20.90625 31.390625 
Q 20.90625 42.671875 17.703125 53.65625 
Q 14.5 64.65625 8.015625 75.875 
z
" id="DejaVuSans-41"/>
     <path d="M 10.59375 45.40625 
L 73.1875 45.40625 
L 73.1875 37.203125 
L 10.59375 37.203125 
z
M 10.59375 25.484375 
L 73.1875 25.484375 
L 73.1875 17.1875 
L 10.59375 17.1875 
z
" id="DejaVuSans-61"/>
     <path d="M 10.6875 12.40625 
L 21 12.40625 
L 21 0 
L 10.6875 0 
z
" id="DejaVuSans-46"/>
     <path d="M 11.71875 12.40625 
L 22.015625 12.40625 
L 22.015625 4 
L 14.015625 -11.625 
L 7.71875 -11.625 
L 11.71875 4 
z
" id="DejaVuSans-44"/>
     <path d="M 4.890625 31.390625 
L 31.203125 31.390625 
L 31.203125 23.390625 
L 4.890625 23.390625 
z
" id="DejaVuSans-45"/>
    </defs>
    <g style="fill:#262626;" transform="translate(18.33375 16.32)scale(0.12 -0.12)">
     <use transform="translate(0 0.015625)" xlink:href="#DejaVuSans-70"/>
     <use transform="translate(57.519531 0.015625)" xlink:href="#DejaVuSans-111"/>
     <use transform="translate(118.701172 0.015625)" xlink:href="#DejaVuSans-114"/>
     <use transform="translate(159.814453 0.015625)" xlink:href="#DejaVuSans-101"/>
     <use transform="translate(221.337891 0.015625)" xlink:href="#DejaVuSans-99"/>
     <use transform="translate(276.318359 0.015625)" xlink:href="#DejaVuSans-97"/>
     <use transform="translate(337.597656 0.015625)" xlink:href="#DejaVuSans-115"/>
     <use transform="translate(389.697266 0.015625)" xlink:href="#DejaVuSans-116"/>
     <use transform="translate(428.90625 0.015625)" xlink:href="#DejaVuSans-32"/>
     <use transform="translate(460.693359 0.015625)" xlink:href="#DejaVuSans-102"/>
     <use transform="translate(495.898438 0.015625)" xlink:href="#DejaVuSans-111"/>
     <use transform="translate(557.080078 0.015625)" xlink:href="#DejaVuSans-114"/>
     <use transform="translate(598.193359 0.015625)" xlink:href="#DejaVuSans-32"/>
     <use transform="translate(629.980469 0.015625)" xlink:href="#DejaVuSans-105"/>
     <use transform="translate(657.763672 0.015625)" xlink:href="#DejaVuSans-110"/>
     <use transform="translate(721.142578 0.015625)" xlink:href="#DejaVuSans-102"/>
     <use transform="translate(756.347656 0.015625)" xlink:href="#DejaVuSans-101"/>
     <use transform="translate(817.871094 0.015625)" xlink:href="#DejaVuSans-99"/>
     <use transform="translate(872.851562 0.015625)" xlink:href="#DejaVuSans-116"/>
     <use transform="translate(912.060547 0.015625)" xlink:href="#DejaVuSans-105"/>
     <use transform="translate(939.84375 0.015625)" xlink:href="#DejaVuSans-111"/>
     <use transform="translate(1001.025391 0.015625)" xlink:href="#DejaVuSans-110"/>
     <use transform="translate(1064.404297 0.015625)" xlink:href="#DejaVuSans-115"/>
     <use transform="translate(1116.503906 0.015625)" xlink:href="#DejaVuSans-32"/>
     <use transform="translate(1148.291016 0.015625)" xlink:href="#DejaVuSans-105"/>
     <use transform="translate(1176.074219 0.015625)" xlink:href="#DejaVuSans-110"/>
     <use transform="translate(1239.453125 0.015625)" xlink:href="#DejaVuSans-32"/>
     <use transform="translate(1271.240234 0.015625)" xlink:href="#DejaVuSans-65"/>
     <use transform="translate(1339.648438 0.015625)" xlink:href="#DejaVuSans-117"/>
     <use transform="translate(1403.027344 0.015625)" xlink:href="#DejaVuSans-115"/>
     <use transform="translate(1455.126953 0.015625)" xlink:href="#DejaVuSans-116"/>
     <use transform="translate(1494.335938 0.015625)" xlink:href="#DejaVuSans-114"/>
     <use transform="translate(1535.449219 0.015625)" xlink:href="#DejaVuSans-105"/>
     <use transform="translate(1563.232422 0.015625)" xlink:href="#DejaVuSans-97"/>
     <use transform="translate(1624.511719 0.015625)" xlink:href="#DejaVuSans-32"/>
     <use transform="translate(1656.298828 0.015625)" xlink:href="#DejaVuSans-Oblique-110"/>
     <use transform="translate(1719.677734 0.015625)" xlink:href="#DejaVuSans-40"/>
     <use transform="translate(1758.691406 0.015625)" xlink:href="#DejaVuSans-Oblique-116"/>
     <use transform="translate(1797.900391 0.015625)" xlink:href="#DejaVuSans-41"/>
     <use transform="translate(1836.914062 0.015625)" xlink:href="#DejaVuSans-32"/>
     <use transform="translate(1868.701172 0.015625)" xlink:href="#DejaVuSans-40"/>
     <use transform="translate(1907.714844 0.015625)" xlink:href="#DejaVuSans-112"/>
     <use transform="translate(1971.191406 0.015625)" xlink:href="#DejaVuSans-32"/>
     <use transform="translate(2002.978516 0.015625)" xlink:href="#DejaVuSans-61"/>
     <use transform="translate(2086.767578 0.015625)" xlink:href="#DejaVuSans-32"/>
     <use transform="translate(2118.554688 0.015625)" xlink:href="#DejaVuSans-50"/>
     <use transform="translate(2182.177734 0.015625)" xlink:href="#DejaVuSans-46"/>
     <use transform="translate(2213.964844 0.015625)" xlink:href="#DejaVuSans-48"/>
     <use transform="translate(2277.587891 0.015625)" xlink:href="#DejaVuSans-53"/>
     <use transform="translate(2333.960938 0.015625)" xlink:href="#DejaVuSans-55"/>
     <use transform="translate(2397.583984 0.015625)" xlink:href="#DejaVuSans-44"/>
     <use transform="translate(2429.371094 0.015625)" xlink:href="#DejaVuSans-32"/>
     <use transform="translate(2461.158203 0.015625)" xlink:href="#DejaVuSans-99"/>
     <use transform="translate(2516.138672 0.015625)" xlink:href="#DejaVuSans-32"/>
     <use transform="translate(2547.925781 0.015625)" xlink:href="#DejaVuSans-61"/>
     <use transform="translate(2631.714844 0.015625)" xlink:href="#DejaVuSans-32"/>
     <use transform="translate(2663.501953 0.015625)" xlink:href="#DejaVuSans-49"/>
     <use transform="translate(2727.125 0.015625)" xlink:href="#DejaVuSans-49"/>
     <use transform="translate(2790.748047 0.015625)" xlink:href="#DejaVuSans-46"/>
     <use transform="translate(2822.535156 0.015625)" xlink:href="#DejaVuSans-53"/>
     <use transform="translate(2886.158203 0.015625)" xlink:href="#DejaVuSans-44"/>
     <use transform="translate(2917.945312 0.015625)" xlink:href="#DejaVuSans-32"/>
     <use transform="translate(2949.732422 0.015625)" xlink:href="#DejaVuSans-116"/>
     <use transform="translate(2988.941406 0.015625)" xlink:href="#DejaVuSans-48"/>
     <use transform="translate(3052.564453 0.015625)" xlink:href="#DejaVuSans-61"/>
     <use transform="translate(3136.353516 0.015625)" xlink:href="#DejaVuSans-32"/>
     <use transform="translate(3168.140625 0.015625)" xlink:href="#DejaVuSans-45"/>
     <use transform="translate(3204.224609 0.015625)" xlink:href="#DejaVuSans-48"/>
     <use transform="translate(3267.847656 0.015625)" xlink:href="#DejaVuSans-46"/>
     <use transform="translate(3299.634766 0.015625)" xlink:href="#DejaVuSans-48"/>
     <use transform="translate(3363.257812 0.015625)" xlink:href="#DejaVuSans-48"/>
     <use transform="translate(3426.880859 0.015625)" xlink:href="#DejaVuSans-48"/>
     <use transform="translate(3490.503906 0.015625)" xlink:href="#DejaVuSans-44"/>
     <use transform="translate(3522.291016 0.015625)" xlink:href="#DejaVuSans-32"/>
     <use transform="translate(3554.078125 0.015625)" xlink:href="#DejaVuSans-97"/>
     <use transform="translate(3615.357422 0.015625)" xlink:href="#DejaVuSans-48"/>
     <use transform="translate(3678.980469 0.015625)" xlink:href="#DejaVuSans-61"/>
     <use transform="translate(3762.769531 0.015625)" xlink:href="#DejaVuSans-32"/>
     <use transform="translate(3794.556641 0.015625)" xlink:href="#DejaVuSans-45"/>
     <use transform="translate(3830.640625 0.015625)" xlink:href="#DejaVuSans-53"/>
     <use transform="translate(3894.263672 0.015625)" xlink:href="#DejaVuSans-48"/>
     <use transform="translate(3957.886719 0.015625)" xlink:href="#DejaVuSans-52"/>
     <use transform="translate(4021.509766 0.015625)" xlink:href="#DejaVuSans-46"/>
     <use transform="translate(4047.796875 0.015625)" xlink:href="#DejaVuSans-50"/>
     <use transform="translate(4109.669922 0.015625)" xlink:href="#DejaVuSans-57"/>
     <use transform="translate(4173.292969 0.015625)" xlink:href="#DejaVuSans-55"/>
     <use transform="translate(4236.916016 0.015625)" xlink:href="#DejaVuSans-41"/>
    </g>
   </g>
   <g id="legend_1">
    <g id="patch_7">
     <path d="M 59.39375 63.411875 
L 252.66375 63.411875 
Q 254.86375 63.411875 254.86375 61.211875 
L 254.86375 30.02 
Q 254.86375 27.82 252.66375 27.82 
L 59.39375 27.82 
Q 57.19375 27.82 57.19375 30.02 
L 57.19375 61.211875 
Q 57.19375 63.411875 59.39375 63.411875 
z
" style="fill:#ffffff;opacity:0.8;stroke:#cccccc;stroke-linejoin:miter;"/>
    </g>
    <g id="line2d_69"/>
    <g id="line2d_70">
     <g>
      <use style="fill:#55a868;stroke:#55a868;" x="72.59375" xlink:href="#mcaec5357d1" y="36.728281"/>
     </g>
    </g>
    <g id="text_68">
     <!-- actual cases -->
     <defs>
      <path d="M 9.421875 75.984375 
L 18.40625 75.984375 
L 18.40625 0 
L 9.421875 0 
z
" id="DejaVuSans-108"/>
     </defs>
     <g style="fill:#262626;" transform="translate(92.39375 40.578281)scale(0.11 -0.11)">
      <use xlink:href="#DejaVuSans-97"/>
      <use x="61.279297" xlink:href="#DejaVuSans-99"/>
      <use x="116.259766" xlink:href="#DejaVuSans-116"/>
      <use x="155.46875" xlink:href="#DejaVuSans-117"/>
      <use x="218.847656" xlink:href="#DejaVuSans-97"/>
      <use x="280.126953" xlink:href="#DejaVuSans-108"/>
      <use x="307.910156" xlink:href="#DejaVuSans-32"/>
      <use x="339.697266" xlink:href="#DejaVuSans-99"/>
      <use x="394.677734" xlink:href="#DejaVuSans-97"/>
      <use x="455.957031" xlink:href="#DejaVuSans-115"/>
      <use x="508.056641" xlink:href="#DejaVuSans-101"/>
      <use x="569.580078" xlink:href="#DejaVuSans-115"/>
     </g>
    </g>
    <g id="line2d_71">
     <path d="M 61.59375 52.874219 
L 83.59375 52.874219 
" style="fill:none;stroke:#c44e52;stroke-linecap:round;stroke-width:1.5;"/>
    </g>
    <g id="line2d_72"/>
    <g id="text_69">
     <!-- forecast: $n(t) = c(t-t_0)^p+a_0$ -->
     <defs>
      <path d="M 11.71875 12.40625 
L 22.015625 12.40625 
L 22.015625 0 
L 11.71875 0 
z
M 11.71875 51.703125 
L 22.015625 51.703125 
L 22.015625 39.3125 
L 11.71875 39.3125 
z
" id="DejaVuSans-58"/>
      <path d="M 53.609375 52.59375 
L 51.8125 43.703125 
Q 48.578125 46.046875 44.9375 47.21875 
Q 41.3125 48.390625 37.40625 48.390625 
Q 33.109375 48.390625 29.21875 46.875 
Q 25.34375 45.359375 22.703125 42.578125 
Q 18.5 38.328125 16.203125 32.609375 
Q 13.921875 26.90625 13.921875 20.796875 
Q 13.921875 13.421875 17.609375 9.8125 
Q 21.296875 6.203125 28.8125 6.203125 
Q 32.515625 6.203125 36.6875 7.328125 
Q 40.875 8.453125 45.40625 10.6875 
L 43.703125 1.8125 
Q 39.796875 0.203125 35.671875 -0.609375 
Q 31.546875 -1.421875 27.203125 -1.421875 
Q 16.3125 -1.421875 10.453125 4.015625 
Q 4.59375 9.46875 4.59375 19.578125 
Q 4.59375 28.078125 7.640625 35.234375 
Q 10.6875 42.390625 16.703125 48.09375 
Q 20.796875 52 26.3125 54 
Q 31.84375 56 38.375 56 
Q 42.1875 56 45.9375 55.140625 
Q 49.703125 54.296875 53.609375 52.59375 
z
" id="DejaVuSans-Oblique-99"/>
      <path d="M 10.59375 35.5 
L 73.1875 35.5 
L 73.1875 27.203125 
L 10.59375 27.203125 
z
" id="DejaVuSans-8722"/>
      <path d="M 49.609375 33.6875 
Q 49.609375 40.875 46.484375 44.671875 
Q 43.359375 48.484375 37.5 48.484375 
Q 33.5 48.484375 29.859375 46.4375 
Q 26.21875 44.390625 23.390625 40.484375 
Q 20.609375 36.625 18.9375 31.15625 
Q 17.28125 25.6875 17.28125 20.3125 
Q 17.28125 13.484375 20.40625 9.796875 
Q 23.53125 6.109375 29.296875 6.109375 
Q 33.546875 6.109375 37.1875 8.109375 
Q 40.828125 10.109375 43.40625 13.921875 
Q 46.1875 17.921875 47.890625 23.34375 
Q 49.609375 28.765625 49.609375 33.6875 
z
M 21.78125 46.390625 
Q 25.390625 51.125 30.296875 53.5625 
Q 35.203125 56 41.21875 56 
Q 49.609375 56 54.25 50.5 
Q 58.890625 45.015625 58.890625 35.109375 
Q 58.890625 27 56 19.65625 
Q 53.125 12.3125 47.703125 6.5 
Q 44.09375 2.640625 39.546875 0.609375 
Q 35.015625 -1.421875 29.984375 -1.421875 
Q 24.171875 -1.421875 20.21875 1 
Q 16.265625 3.421875 14.3125 8.203125 
L 8.6875 -20.796875 
L -0.296875 -20.796875 
L 14.40625 54.6875 
L 23.390625 54.6875 
z
" id="DejaVuSans-Oblique-112"/>
      <path d="M 46 62.703125 
L 46 35.5 
L 73.1875 35.5 
L 73.1875 27.203125 
L 46 27.203125 
L 46 0 
L 37.796875 0 
L 37.796875 27.203125 
L 10.59375 27.203125 
L 10.59375 35.5 
L 37.796875 35.5 
L 37.796875 62.703125 
z
" id="DejaVuSans-43"/>
      <path d="M 53.71875 31.203125 
L 47.609375 0 
L 38.625 0 
L 40.28125 8.296875 
Q 36.328125 3.421875 31.265625 1 
Q 26.21875 -1.421875 20.015625 -1.421875 
Q 13.03125 -1.421875 8.5625 2.84375 
Q 4.109375 7.125 4.109375 13.8125 
Q 4.109375 23.390625 11.75 28.953125 
Q 19.390625 34.515625 32.8125 34.515625 
L 45.3125 34.515625 
L 45.796875 36.921875 
Q 45.90625 37.3125 45.953125 37.765625 
Q 46 38.234375 46 39.203125 
Q 46 43.5625 42.453125 45.96875 
Q 38.921875 48.390625 32.515625 48.390625 
Q 28.125 48.390625 23.5 47.265625 
Q 18.890625 46.140625 14.015625 43.890625 
L 15.578125 52.203125 
Q 20.65625 54.109375 25.515625 55.046875 
Q 30.375 56 34.90625 56 
Q 44.578125 56 49.625 51.796875 
Q 54.6875 47.609375 54.6875 39.59375 
Q 54.6875 37.984375 54.4375 35.8125 
Q 54.203125 33.640625 53.71875 31.203125 
z
M 44 27.484375 
L 35.015625 27.484375 
Q 23.96875 27.484375 18.671875 24.53125 
Q 13.375 21.578125 13.375 15.375 
Q 13.375 11.078125 16.078125 8.640625 
Q 18.796875 6.203125 23.578125 6.203125 
Q 30.90625 6.203125 36.375 11.453125 
Q 41.84375 16.703125 43.609375 25.484375 
z
" id="DejaVuSans-Oblique-97"/>
     </defs>
     <g style="fill:#262626;" transform="translate(92.39375 56.724219)scale(0.11 -0.11)">
      <use transform="translate(0 0.51875)" xlink:href="#DejaVuSans-102"/>
      <use transform="translate(35.205078 0.51875)" xlink:href="#DejaVuSans-111"/>
      <use transform="translate(96.386719 0.51875)" xlink:href="#DejaVuSans-114"/>
      <use transform="translate(137.5 0.51875)" xlink:href="#DejaVuSans-101"/>
      <use transform="translate(199.023438 0.51875)" xlink:href="#DejaVuSans-99"/>
      <use transform="translate(254.003906 0.51875)" xlink:href="#DejaVuSans-97"/>
      <use transform="translate(315.283203 0.51875)" xlink:href="#DejaVuSans-115"/>
      <use transform="translate(367.382812 0.51875)" xlink:href="#DejaVuSans-116"/>
      <use transform="translate(406.591797 0.51875)" xlink:href="#DejaVuSans-58"/>
      <use transform="translate(440.283203 0.51875)" xlink:href="#DejaVuSans-32"/>
      <use transform="translate(472.070312 0.51875)" xlink:href="#DejaVuSans-Oblique-110"/>
      <use transform="translate(535.449219 0.51875)" xlink:href="#DejaVuSans-40"/>
      <use transform="translate(574.462891 0.51875)" xlink:href="#DejaVuSans-Oblique-116"/>
      <use transform="translate(613.671875 0.51875)" xlink:href="#DejaVuSans-41"/>
      <use transform="translate(672.167969 0.51875)" xlink:href="#DejaVuSans-61"/>
      <use transform="translate(775.439453 0.51875)" xlink:href="#DejaVuSans-Oblique-99"/>
      <use transform="translate(830.419922 0.51875)" xlink:href="#DejaVuSans-40"/>
      <use transform="translate(869.433594 0.51875)" xlink:href="#DejaVuSans-Oblique-116"/>
      <use transform="translate(928.125 0.51875)" xlink:href="#DejaVuSans-8722"/>
      <use transform="translate(1031.396484 0.51875)" xlink:href="#DejaVuSans-Oblique-116"/>
      <use transform="translate(1070.605469 -15.8875)scale(0.7)" xlink:href="#DejaVuSans-48"/>
      <use transform="translate(1117.875977 0.51875)" xlink:href="#DejaVuSans-41"/>
      <use transform="translate(1157.84668 38.8)scale(0.7)" xlink:href="#DejaVuSans-Oblique-112"/>
      <use transform="translate(1224.49707 0.51875)" xlink:href="#DejaVuSans-43"/>
      <use transform="translate(1327.768555 0.51875)" xlink:href="#DejaVuSans-Oblique-97"/>
      <use transform="translate(1389.047852 -15.8875)scale(0.7)" xlink:href="#DejaVuSans-48"/>
     </g>
    </g>
   </g>
  </g>
 </g>
 <defs>
  <clipPath id="pf1e19b6d26">
   <rect height="326.16" width="446.4" x="51.69375" y="22.32"/>
  </clipPath>
 </defs>
</svg>
