<?xml version="1.0" encoding="utf-8" standalone="no"?>
<!DOCTYPE svg PUBLIC "-//W3C//DTD SVG 1.1//EN"
  "http://www.w3.org/Graphics/SVG/1.1/DTD/svg11.dtd">
<!-- Created with matplotlib (https://matplotlib.org/) -->
<svg height="364.679219pt" version="1.1" viewBox="0 0 689.218437 364.679219" width="689.218437pt" xmlns="http://www.w3.org/2000/svg" xmlns:xlink="http://www.w3.org/1999/xlink">
 <defs>
  <style type="text/css">
*{stroke-linecap:butt;stroke-linejoin:round;}
  </style>
 </defs>
 <g id="figure_1">
  <g id="patch_1">
   <path d="M 0 364.679219 
L 689.218437 364.679219 
L 689.218437 -0 
L 0 -0 
z
" style="fill:#ffffff;"/>
  </g>
  <g id="axes_1">
   <g id="patch_2">
    <path d="M 60.30875 294.118125 
L 506.70875 294.118125 
L 506.70875 22.318125 
L 60.30875 22.318125 
z
" style="fill:#ffffff;"/>
   </g>
   <g id="matplotlib.axis_1">
    <g id="xtick_1">
     <g id="line2d_1">
      <path clip-path="url(#p099132f77f)" d="M 80.599659 294.118125 
L 80.599659 22.318125 
" style="fill:none;stroke:#cccccc;stroke-linecap:round;"/>
     </g>
     <g id="text_1">
      <!-- Mar 09 -->
      <defs>
       <path d="M 9.8125 72.90625 
L 24.515625 72.90625 
L 43.109375 23.296875 
L 61.8125 72.90625 
L 76.515625 72.90625 
L 76.515625 0 
L 66.890625 0 
L 66.890625 64.015625 
L 48.09375 14.015625 
L 38.1875 14.015625 
L 19.390625 64.015625 
L 19.390625 0 
L 9.8125 0 
z
" id="DejaVuSans-77"/>
       <path d="M 34.28125 27.484375 
Q 23.390625 27.484375 19.1875 25 
Q 14.984375 22.515625 14.984375 16.5 
Q 14.984375 11.71875 18.140625 8.90625 
Q 21.296875 6.109375 26.703125 6.109375 
Q 34.1875 6.109375 38.703125 11.40625 
Q 43.21875 16.703125 43.21875 25.484375 
L 43.21875 27.484375 
z
M 52.203125 31.203125 
L 52.203125 0 
L 43.21875 0 
L 43.21875 8.296875 
Q 40.140625 3.328125 35.546875 0.953125 
Q 30.953125 -1.421875 24.3125 -1.421875 
Q 15.921875 -1.421875 10.953125 3.296875 
Q 6 8.015625 6 15.921875 
Q 6 25.140625 12.171875 29.828125 
Q 18.359375 34.515625 30.609375 34.515625 
L 43.21875 34.515625 
L 43.21875 35.40625 
Q 43.21875 41.609375 39.140625 45 
Q 35.0625 48.390625 27.6875 48.390625 
Q 23 48.390625 18.546875 47.265625 
Q 14.109375 46.140625 10.015625 43.890625 
L 10.015625 52.203125 
Q 14.9375 54.109375 19.578125 55.046875 
Q 24.21875 56 28.609375 56 
Q 40.484375 56 46.34375 49.84375 
Q 52.203125 43.703125 52.203125 31.203125 
z
" id="DejaVuSans-97"/>
       <path d="M 41.109375 46.296875 
Q 39.59375 47.171875 37.8125 47.578125 
Q 36.03125 48 33.890625 48 
Q 26.265625 48 22.1875 43.046875 
Q 18.109375 38.09375 18.109375 28.8125 
L 18.109375 0 
L 9.078125 0 
L 9.078125 54.6875 
L 18.109375 54.6875 
L 18.109375 46.1875 
Q 20.953125 51.171875 25.484375 53.578125 
Q 30.03125 56 36.53125 56 
Q 37.453125 56 38.578125 55.875 
Q 39.703125 55.765625 41.0625 55.515625 
z
" id="DejaVuSans-114"/>
       <path id="DejaVuSans-32"/>
       <path d="M 31.78125 66.40625 
Q 24.171875 66.40625 20.328125 58.90625 
Q 16.5 51.421875 16.5 36.375 
Q 16.5 21.390625 20.328125 13.890625 
Q 24.171875 6.390625 31.78125 6.390625 
Q 39.453125 6.390625 43.28125 13.890625 
Q 47.125 21.390625 47.125 36.375 
Q 47.125 51.421875 43.28125 58.90625 
Q 39.453125 66.40625 31.78125 66.40625 
z
M 31.78125 74.21875 
Q 44.046875 74.21875 50.515625 64.515625 
Q 56.984375 54.828125 56.984375 36.375 
Q 56.984375 17.96875 50.515625 8.265625 
Q 44.046875 -1.421875 31.78125 -1.421875 
Q 19.53125 -1.421875 13.0625 8.265625 
Q 6.59375 17.96875 6.59375 36.375 
Q 6.59375 54.828125 13.0625 64.515625 
Q 19.53125 74.21875 31.78125 74.21875 
z
" id="DejaVuSans-48"/>
       <path d="M 10.984375 1.515625 
L 10.984375 10.5 
Q 14.703125 8.734375 18.5 7.8125 
Q 22.3125 6.890625 25.984375 6.890625 
Q 35.75 6.890625 40.890625 13.453125 
Q 46.046875 20.015625 46.78125 33.40625 
Q 43.953125 29.203125 39.59375 26.953125 
Q 35.25 24.703125 29.984375 24.703125 
Q 19.046875 24.703125 12.671875 31.3125 
Q 6.296875 37.9375 6.296875 49.421875 
Q 6.296875 60.640625 12.9375 67.421875 
Q 19.578125 74.21875 30.609375 74.21875 
Q 43.265625 74.21875 49.921875 64.515625 
Q 56.59375 54.828125 56.59375 36.375 
Q 56.59375 19.140625 48.40625 8.859375 
Q 40.234375 -1.421875 26.421875 -1.421875 
Q 22.703125 -1.421875 18.890625 -0.6875 
Q 15.09375 0.046875 10.984375 1.515625 
z
M 30.609375 32.421875 
Q 37.25 32.421875 41.125 36.953125 
Q 45.015625 41.5 45.015625 49.421875 
Q 45.015625 57.28125 41.125 61.84375 
Q 37.25 66.40625 30.609375 66.40625 
Q 23.96875 66.40625 20.09375 61.84375 
Q 16.21875 57.28125 16.21875 49.421875 
Q 16.21875 41.5 20.09375 36.953125 
Q 23.96875 32.421875 30.609375 32.421875 
z
" id="DejaVuSans-57"/>
      </defs>
      <g style="fill:#262626;" transform="translate(83.634972 341.865469)rotate(-90)scale(0.11 -0.11)">
       <use xlink:href="#DejaVuSans-77"/>
       <use x="86.279297" xlink:href="#DejaVuSans-97"/>
       <use x="147.558594" xlink:href="#DejaVuSans-114"/>
       <use x="188.671875" xlink:href="#DejaVuSans-32"/>
       <use x="220.458984" xlink:href="#DejaVuSans-48"/>
       <use x="284.082031" xlink:href="#DejaVuSans-57"/>
      </g>
     </g>
    </g>
    <g id="xtick_2">
     <g id="line2d_2">
      <path clip-path="url(#p099132f77f)" d="M 101.958511 294.118125 
L 101.958511 22.318125 
" style="fill:none;stroke:#cccccc;stroke-linecap:round;"/>
     </g>
     <g id="text_2">
      <!-- Mar 10 -->
      <defs>
       <path d="M 12.40625 8.296875 
L 28.515625 8.296875 
L 28.515625 63.921875 
L 10.984375 60.40625 
L 10.984375 69.390625 
L 28.421875 72.90625 
L 38.28125 72.90625 
L 38.28125 8.296875 
L 54.390625 8.296875 
L 54.390625 0 
L 12.40625 0 
z
" id="DejaVuSans-49"/>
      </defs>
      <g style="fill:#262626;" transform="translate(104.993823 341.865469)rotate(-90)scale(0.11 -0.11)">
       <use xlink:href="#DejaVuSans-77"/>
       <use x="86.279297" xlink:href="#DejaVuSans-97"/>
       <use x="147.558594" xlink:href="#DejaVuSans-114"/>
       <use x="188.671875" xlink:href="#DejaVuSans-32"/>
       <use x="220.458984" xlink:href="#DejaVuSans-49"/>
       <use x="284.082031" xlink:href="#DejaVuSans-48"/>
      </g>
     </g>
    </g>
    <g id="xtick_3">
     <g id="line2d_3">
      <path clip-path="url(#p099132f77f)" d="M 123.317362 294.118125 
L 123.317362 22.318125 
" style="fill:none;stroke:#cccccc;stroke-linecap:round;"/>
     </g>
     <g id="text_3">
      <!-- Mar 11 -->
      <g style="fill:#262626;" transform="translate(126.352675 341.865469)rotate(-90)scale(0.11 -0.11)">
       <use xlink:href="#DejaVuSans-77"/>
       <use x="86.279297" xlink:href="#DejaVuSans-97"/>
       <use x="147.558594" xlink:href="#DejaVuSans-114"/>
       <use x="188.671875" xlink:href="#DejaVuSans-32"/>
       <use x="220.458984" xlink:href="#DejaVuSans-49"/>
       <use x="284.082031" xlink:href="#DejaVuSans-49"/>
      </g>
     </g>
    </g>
    <g id="xtick_4">
     <g id="line2d_4">
      <path clip-path="url(#p099132f77f)" d="M 144.676214 294.118125 
L 144.676214 22.318125 
" style="fill:none;stroke:#cccccc;stroke-linecap:round;"/>
     </g>
     <g id="text_4">
      <!-- Mar 12 -->
      <defs>
       <path d="M 19.1875 8.296875 
L 53.609375 8.296875 
L 53.609375 0 
L 7.328125 0 
L 7.328125 8.296875 
Q 12.9375 14.109375 22.625 23.890625 
Q 32.328125 33.6875 34.8125 36.53125 
Q 39.546875 41.84375 41.421875 45.53125 
Q 43.3125 49.21875 43.3125 52.78125 
Q 43.3125 58.59375 39.234375 62.25 
Q 35.15625 65.921875 28.609375 65.921875 
Q 23.96875 65.921875 18.8125 64.3125 
Q 13.671875 62.703125 7.8125 59.421875 
L 7.8125 69.390625 
Q 13.765625 71.78125 18.9375 73 
Q 24.125 74.21875 28.421875 74.21875 
Q 39.75 74.21875 46.484375 68.546875 
Q 53.21875 62.890625 53.21875 53.421875 
Q 53.21875 48.921875 51.53125 44.890625 
Q 49.859375 40.875 45.40625 35.40625 
Q 44.1875 33.984375 37.640625 27.21875 
Q 31.109375 20.453125 19.1875 8.296875 
z
" id="DejaVuSans-50"/>
      </defs>
      <g style="fill:#262626;" transform="translate(147.711527 341.865469)rotate(-90)scale(0.11 -0.11)">
       <use xlink:href="#DejaVuSans-77"/>
       <use x="86.279297" xlink:href="#DejaVuSans-97"/>
       <use x="147.558594" xlink:href="#DejaVuSans-114"/>
       <use x="188.671875" xlink:href="#DejaVuSans-32"/>
       <use x="220.458984" xlink:href="#DejaVuSans-49"/>
       <use x="284.082031" xlink:href="#DejaVuSans-50"/>
      </g>
     </g>
    </g>
    <g id="xtick_5">
     <g id="line2d_5">
      <path clip-path="url(#p099132f77f)" d="M 166.035066 294.118125 
L 166.035066 22.318125 
" style="fill:none;stroke:#cccccc;stroke-linecap:round;"/>
     </g>
     <g id="text_5">
      <!-- Mar 13 -->
      <defs>
       <path d="M 40.578125 39.3125 
Q 47.65625 37.796875 51.625 33 
Q 55.609375 28.21875 55.609375 21.1875 
Q 55.609375 10.40625 48.1875 4.484375 
Q 40.765625 -1.421875 27.09375 -1.421875 
Q 22.515625 -1.421875 17.65625 -0.515625 
Q 12.796875 0.390625 7.625 2.203125 
L 7.625 11.71875 
Q 11.71875 9.328125 16.59375 8.109375 
Q 21.484375 6.890625 26.8125 6.890625 
Q 36.078125 6.890625 40.9375 10.546875 
Q 45.796875 14.203125 45.796875 21.1875 
Q 45.796875 27.640625 41.28125 31.265625 
Q 36.765625 34.90625 28.71875 34.90625 
L 20.21875 34.90625 
L 20.21875 43.015625 
L 29.109375 43.015625 
Q 36.375 43.015625 40.234375 45.921875 
Q 44.09375 48.828125 44.09375 54.296875 
Q 44.09375 59.90625 40.109375 62.90625 
Q 36.140625 65.921875 28.71875 65.921875 
Q 24.65625 65.921875 20.015625 65.03125 
Q 15.375 64.15625 9.8125 62.3125 
L 9.8125 71.09375 
Q 15.4375 72.65625 20.34375 73.4375 
Q 25.25 74.21875 29.59375 74.21875 
Q 40.828125 74.21875 47.359375 69.109375 
Q 53.90625 64.015625 53.90625 55.328125 
Q 53.90625 49.265625 50.4375 45.09375 
Q 46.96875 40.921875 40.578125 39.3125 
z
" id="DejaVuSans-51"/>
      </defs>
      <g style="fill:#262626;" transform="translate(169.070378 341.865469)rotate(-90)scale(0.11 -0.11)">
       <use xlink:href="#DejaVuSans-77"/>
       <use x="86.279297" xlink:href="#DejaVuSans-97"/>
       <use x="147.558594" xlink:href="#DejaVuSans-114"/>
       <use x="188.671875" xlink:href="#DejaVuSans-32"/>
       <use x="220.458984" xlink:href="#DejaVuSans-49"/>
       <use x="284.082031" xlink:href="#DejaVuSans-51"/>
      </g>
     </g>
    </g>
    <g id="xtick_6">
     <g id="line2d_6">
      <path clip-path="url(#p099132f77f)" d="M 187.393917 294.118125 
L 187.393917 22.318125 
" style="fill:none;stroke:#cccccc;stroke-linecap:round;"/>
     </g>
     <g id="text_6">
      <!-- Mar 14 -->
      <defs>
       <path d="M 37.796875 64.3125 
L 12.890625 25.390625 
L 37.796875 25.390625 
z
M 35.203125 72.90625 
L 47.609375 72.90625 
L 47.609375 25.390625 
L 58.015625 25.390625 
L 58.015625 17.1875 
L 47.609375 17.1875 
L 47.609375 0 
L 37.796875 0 
L 37.796875 17.1875 
L 4.890625 17.1875 
L 4.890625 26.703125 
z
" id="DejaVuSans-52"/>
      </defs>
      <g style="fill:#262626;" transform="translate(190.42923 341.865469)rotate(-90)scale(0.11 -0.11)">
       <use xlink:href="#DejaVuSans-77"/>
       <use x="86.279297" xlink:href="#DejaVuSans-97"/>
       <use x="147.558594" xlink:href="#DejaVuSans-114"/>
       <use x="188.671875" xlink:href="#DejaVuSans-32"/>
       <use x="220.458984" xlink:href="#DejaVuSans-49"/>
       <use x="284.082031" xlink:href="#DejaVuSans-52"/>
      </g>
     </g>
    </g>
    <g id="xtick_7">
     <g id="line2d_7">
      <path clip-path="url(#p099132f77f)" d="M 208.752769 294.118125 
L 208.752769 22.318125 
" style="fill:none;stroke:#cccccc;stroke-linecap:round;"/>
     </g>
     <g id="text_7">
      <!-- Mar 15 -->
      <defs>
       <path d="M 10.796875 72.90625 
L 49.515625 72.90625 
L 49.515625 64.59375 
L 19.828125 64.59375 
L 19.828125 46.734375 
Q 21.96875 47.46875 24.109375 47.828125 
Q 26.265625 48.1875 28.421875 48.1875 
Q 40.625 48.1875 47.75 41.5 
Q 54.890625 34.8125 54.890625 23.390625 
Q 54.890625 11.625 47.5625 5.09375 
Q 40.234375 -1.421875 26.90625 -1.421875 
Q 22.3125 -1.421875 17.546875 -0.640625 
Q 12.796875 0.140625 7.71875 1.703125 
L 7.71875 11.625 
Q 12.109375 9.234375 16.796875 8.0625 
Q 21.484375 6.890625 26.703125 6.890625 
Q 35.15625 6.890625 40.078125 11.328125 
Q 45.015625 15.765625 45.015625 23.390625 
Q 45.015625 31 40.078125 35.4375 
Q 35.15625 39.890625 26.703125 39.890625 
Q 22.75 39.890625 18.8125 39.015625 
Q 14.890625 38.140625 10.796875 36.28125 
z
" id="DejaVuSans-53"/>
      </defs>
      <g style="fill:#262626;" transform="translate(211.788082 341.865469)rotate(-90)scale(0.11 -0.11)">
       <use xlink:href="#DejaVuSans-77"/>
       <use x="86.279297" xlink:href="#DejaVuSans-97"/>
       <use x="147.558594" xlink:href="#DejaVuSans-114"/>
       <use x="188.671875" xlink:href="#DejaVuSans-32"/>
       <use x="220.458984" xlink:href="#DejaVuSans-49"/>
       <use x="284.082031" xlink:href="#DejaVuSans-53"/>
      </g>
     </g>
    </g>
    <g id="xtick_8">
     <g id="line2d_8">
      <path clip-path="url(#p099132f77f)" d="M 230.111621 294.118125 
L 230.111621 22.318125 
" style="fill:none;stroke:#cccccc;stroke-linecap:round;"/>
     </g>
     <g id="text_8">
      <!-- Mar 16 -->
      <defs>
       <path d="M 33.015625 40.375 
Q 26.375 40.375 22.484375 35.828125 
Q 18.609375 31.296875 18.609375 23.390625 
Q 18.609375 15.53125 22.484375 10.953125 
Q 26.375 6.390625 33.015625 6.390625 
Q 39.65625 6.390625 43.53125 10.953125 
Q 47.40625 15.53125 47.40625 23.390625 
Q 47.40625 31.296875 43.53125 35.828125 
Q 39.65625 40.375 33.015625 40.375 
z
M 52.59375 71.296875 
L 52.59375 62.3125 
Q 48.875 64.0625 45.09375 64.984375 
Q 41.3125 65.921875 37.59375 65.921875 
Q 27.828125 65.921875 22.671875 59.328125 
Q 17.53125 52.734375 16.796875 39.40625 
Q 19.671875 43.65625 24.015625 45.921875 
Q 28.375 48.1875 33.59375 48.1875 
Q 44.578125 48.1875 50.953125 41.515625 
Q 57.328125 34.859375 57.328125 23.390625 
Q 57.328125 12.15625 50.6875 5.359375 
Q 44.046875 -1.421875 33.015625 -1.421875 
Q 20.359375 -1.421875 13.671875 8.265625 
Q 6.984375 17.96875 6.984375 36.375 
Q 6.984375 53.65625 15.1875 63.9375 
Q 23.390625 74.21875 37.203125 74.21875 
Q 40.921875 74.21875 44.703125 73.484375 
Q 48.484375 72.75 52.59375 71.296875 
z
" id="DejaVuSans-54"/>
      </defs>
      <g style="fill:#262626;" transform="translate(233.146933 341.865469)rotate(-90)scale(0.11 -0.11)">
       <use xlink:href="#DejaVuSans-77"/>
       <use x="86.279297" xlink:href="#DejaVuSans-97"/>
       <use x="147.558594" xlink:href="#DejaVuSans-114"/>
       <use x="188.671875" xlink:href="#DejaVuSans-32"/>
       <use x="220.458984" xlink:href="#DejaVuSans-49"/>
       <use x="284.082031" xlink:href="#DejaVuSans-54"/>
      </g>
     </g>
    </g>
    <g id="xtick_9">
     <g id="line2d_9">
      <path clip-path="url(#p099132f77f)" d="M 251.470472 294.118125 
L 251.470472 22.318125 
" style="fill:none;stroke:#cccccc;stroke-linecap:round;"/>
     </g>
     <g id="text_9">
      <!-- Mar 17 -->
      <defs>
       <path d="M 8.203125 72.90625 
L 55.078125 72.90625 
L 55.078125 68.703125 
L 28.609375 0 
L 18.3125 0 
L 43.21875 64.59375 
L 8.203125 64.59375 
z
" id="DejaVuSans-55"/>
      </defs>
      <g style="fill:#262626;" transform="translate(254.505785 341.865469)rotate(-90)scale(0.11 -0.11)">
       <use xlink:href="#DejaVuSans-77"/>
       <use x="86.279297" xlink:href="#DejaVuSans-97"/>
       <use x="147.558594" xlink:href="#DejaVuSans-114"/>
       <use x="188.671875" xlink:href="#DejaVuSans-32"/>
       <use x="220.458984" xlink:href="#DejaVuSans-49"/>
       <use x="284.082031" xlink:href="#DejaVuSans-55"/>
      </g>
     </g>
    </g>
    <g id="xtick_10">
     <g id="line2d_10">
      <path clip-path="url(#p099132f77f)" d="M 272.829324 294.118125 
L 272.829324 22.318125 
" style="fill:none;stroke:#cccccc;stroke-linecap:round;"/>
     </g>
     <g id="text_10">
      <!-- Mar 18 -->
      <defs>
       <path d="M 31.78125 34.625 
Q 24.75 34.625 20.71875 30.859375 
Q 16.703125 27.09375 16.703125 20.515625 
Q 16.703125 13.921875 20.71875 10.15625 
Q 24.75 6.390625 31.78125 6.390625 
Q 38.8125 6.390625 42.859375 10.171875 
Q 46.921875 13.96875 46.921875 20.515625 
Q 46.921875 27.09375 42.890625 30.859375 
Q 38.875 34.625 31.78125 34.625 
z
M 21.921875 38.8125 
Q 15.578125 40.375 12.03125 44.71875 
Q 8.5 49.078125 8.5 55.328125 
Q 8.5 64.0625 14.71875 69.140625 
Q 20.953125 74.21875 31.78125 74.21875 
Q 42.671875 74.21875 48.875 69.140625 
Q 55.078125 64.0625 55.078125 55.328125 
Q 55.078125 49.078125 51.53125 44.71875 
Q 48 40.375 41.703125 38.8125 
Q 48.828125 37.15625 52.796875 32.3125 
Q 56.78125 27.484375 56.78125 20.515625 
Q 56.78125 9.90625 50.3125 4.234375 
Q 43.84375 -1.421875 31.78125 -1.421875 
Q 19.734375 -1.421875 13.25 4.234375 
Q 6.78125 9.90625 6.78125 20.515625 
Q 6.78125 27.484375 10.78125 32.3125 
Q 14.796875 37.15625 21.921875 38.8125 
z
M 18.3125 54.390625 
Q 18.3125 48.734375 21.84375 45.5625 
Q 25.390625 42.390625 31.78125 42.390625 
Q 38.140625 42.390625 41.71875 45.5625 
Q 45.3125 48.734375 45.3125 54.390625 
Q 45.3125 60.0625 41.71875 63.234375 
Q 38.140625 66.40625 31.78125 66.40625 
Q 25.390625 66.40625 21.84375 63.234375 
Q 18.3125 60.0625 18.3125 54.390625 
z
" id="DejaVuSans-56"/>
      </defs>
      <g style="fill:#262626;" transform="translate(275.864637 341.865469)rotate(-90)scale(0.11 -0.11)">
       <use xlink:href="#DejaVuSans-77"/>
       <use x="86.279297" xlink:href="#DejaVuSans-97"/>
       <use x="147.558594" xlink:href="#DejaVuSans-114"/>
       <use x="188.671875" xlink:href="#DejaVuSans-32"/>
       <use x="220.458984" xlink:href="#DejaVuSans-49"/>
       <use x="284.082031" xlink:href="#DejaVuSans-56"/>
      </g>
     </g>
    </g>
    <g id="xtick_11">
     <g id="line2d_11">
      <path clip-path="url(#p099132f77f)" d="M 294.188176 294.118125 
L 294.188176 22.318125 
" style="fill:none;stroke:#cccccc;stroke-linecap:round;"/>
     </g>
     <g id="text_11">
      <!-- Mar 19 -->
      <g style="fill:#262626;" transform="translate(297.223488 341.865469)rotate(-90)scale(0.11 -0.11)">
       <use xlink:href="#DejaVuSans-77"/>
       <use x="86.279297" xlink:href="#DejaVuSans-97"/>
       <use x="147.558594" xlink:href="#DejaVuSans-114"/>
       <use x="188.671875" xlink:href="#DejaVuSans-32"/>
       <use x="220.458984" xlink:href="#DejaVuSans-49"/>
       <use x="284.082031" xlink:href="#DejaVuSans-57"/>
      </g>
     </g>
    </g>
    <g id="xtick_12">
     <g id="line2d_12">
      <path clip-path="url(#p099132f77f)" d="M 315.547028 294.118125 
L 315.547028 22.318125 
" style="fill:none;stroke:#cccccc;stroke-linecap:round;"/>
     </g>
     <g id="text_12">
      <!-- Mar 20 -->
      <g style="fill:#262626;" transform="translate(318.58234 341.865469)rotate(-90)scale(0.11 -0.11)">
       <use xlink:href="#DejaVuSans-77"/>
       <use x="86.279297" xlink:href="#DejaVuSans-97"/>
       <use x="147.558594" xlink:href="#DejaVuSans-114"/>
       <use x="188.671875" xlink:href="#DejaVuSans-32"/>
       <use x="220.458984" xlink:href="#DejaVuSans-50"/>
       <use x="284.082031" xlink:href="#DejaVuSans-48"/>
      </g>
     </g>
    </g>
    <g id="xtick_13">
     <g id="line2d_13">
      <path clip-path="url(#p099132f77f)" d="M 336.905879 294.118125 
L 336.905879 22.318125 
" style="fill:none;stroke:#cccccc;stroke-linecap:round;"/>
     </g>
     <g id="text_13">
      <!-- Mar 21 -->
      <g style="fill:#262626;" transform="translate(339.941192 341.865469)rotate(-90)scale(0.11 -0.11)">
       <use xlink:href="#DejaVuSans-77"/>
       <use x="86.279297" xlink:href="#DejaVuSans-97"/>
       <use x="147.558594" xlink:href="#DejaVuSans-114"/>
       <use x="188.671875" xlink:href="#DejaVuSans-32"/>
       <use x="220.458984" xlink:href="#DejaVuSans-50"/>
       <use x="284.082031" xlink:href="#DejaVuSans-49"/>
      </g>
     </g>
    </g>
    <g id="xtick_14">
     <g id="line2d_14">
      <path clip-path="url(#p099132f77f)" d="M 358.264731 294.118125 
L 358.264731 22.318125 
" style="fill:none;stroke:#cccccc;stroke-linecap:round;"/>
     </g>
     <g id="text_14">
      <!-- Mar 22 -->
      <g style="fill:#262626;" transform="translate(361.300043 341.865469)rotate(-90)scale(0.11 -0.11)">
       <use xlink:href="#DejaVuSans-77"/>
       <use x="86.279297" xlink:href="#DejaVuSans-97"/>
       <use x="147.558594" xlink:href="#DejaVuSans-114"/>
       <use x="188.671875" xlink:href="#DejaVuSans-32"/>
       <use x="220.458984" xlink:href="#DejaVuSans-50"/>
       <use x="284.082031" xlink:href="#DejaVuSans-50"/>
      </g>
     </g>
    </g>
    <g id="xtick_15">
     <g id="line2d_15">
      <path clip-path="url(#p099132f77f)" d="M 379.623583 294.118125 
L 379.623583 22.318125 
" style="fill:none;stroke:#cccccc;stroke-linecap:round;"/>
     </g>
     <g id="text_15">
      <!-- Mar 23 -->
      <g style="fill:#262626;" transform="translate(382.658895 341.865469)rotate(-90)scale(0.11 -0.11)">
       <use xlink:href="#DejaVuSans-77"/>
       <use x="86.279297" xlink:href="#DejaVuSans-97"/>
       <use x="147.558594" xlink:href="#DejaVuSans-114"/>
       <use x="188.671875" xlink:href="#DejaVuSans-32"/>
       <use x="220.458984" xlink:href="#DejaVuSans-50"/>
       <use x="284.082031" xlink:href="#DejaVuSans-51"/>
      </g>
     </g>
    </g>
    <g id="xtick_16">
     <g id="line2d_16">
      <path clip-path="url(#p099132f77f)" d="M 400.982434 294.118125 
L 400.982434 22.318125 
" style="fill:none;stroke:#cccccc;stroke-linecap:round;"/>
     </g>
     <g id="text_16">
      <!-- Mar 24 -->
      <g style="fill:#262626;" transform="translate(404.017747 341.865469)rotate(-90)scale(0.11 -0.11)">
       <use xlink:href="#DejaVuSans-77"/>
       <use x="86.279297" xlink:href="#DejaVuSans-97"/>
       <use x="147.558594" xlink:href="#DejaVuSans-114"/>
       <use x="188.671875" xlink:href="#DejaVuSans-32"/>
       <use x="220.458984" xlink:href="#DejaVuSans-50"/>
       <use x="284.082031" xlink:href="#DejaVuSans-52"/>
      </g>
     </g>
    </g>
    <g id="xtick_17">
     <g id="line2d_17">
      <path clip-path="url(#p099132f77f)" d="M 422.341286 294.118125 
L 422.341286 22.318125 
" style="fill:none;stroke:#cccccc;stroke-linecap:round;"/>
     </g>
     <g id="text_17">
      <!-- Mar 25 -->
      <g style="fill:#262626;" transform="translate(425.376598 341.865469)rotate(-90)scale(0.11 -0.11)">
       <use xlink:href="#DejaVuSans-77"/>
       <use x="86.279297" xlink:href="#DejaVuSans-97"/>
       <use x="147.558594" xlink:href="#DejaVuSans-114"/>
       <use x="188.671875" xlink:href="#DejaVuSans-32"/>
       <use x="220.458984" xlink:href="#DejaVuSans-50"/>
       <use x="284.082031" xlink:href="#DejaVuSans-53"/>
      </g>
     </g>
    </g>
    <g id="xtick_18">
     <g id="line2d_18">
      <path clip-path="url(#p099132f77f)" d="M 443.700138 294.118125 
L 443.700138 22.318125 
" style="fill:none;stroke:#cccccc;stroke-linecap:round;"/>
     </g>
     <g id="text_18">
      <!-- Mar 26 -->
      <g style="fill:#262626;" transform="translate(446.73545 341.865469)rotate(-90)scale(0.11 -0.11)">
       <use xlink:href="#DejaVuSans-77"/>
       <use x="86.279297" xlink:href="#DejaVuSans-97"/>
       <use x="147.558594" xlink:href="#DejaVuSans-114"/>
       <use x="188.671875" xlink:href="#DejaVuSans-32"/>
       <use x="220.458984" xlink:href="#DejaVuSans-50"/>
       <use x="284.082031" xlink:href="#DejaVuSans-54"/>
      </g>
     </g>
    </g>
    <g id="xtick_19">
     <g id="line2d_19">
      <path clip-path="url(#p099132f77f)" d="M 465.058989 294.118125 
L 465.058989 22.318125 
" style="fill:none;stroke:#cccccc;stroke-linecap:round;"/>
     </g>
     <g id="text_19">
      <!-- Mar 27 -->
      <g style="fill:#262626;" transform="translate(468.094302 341.865469)rotate(-90)scale(0.11 -0.11)">
       <use xlink:href="#DejaVuSans-77"/>
       <use x="86.279297" xlink:href="#DejaVuSans-97"/>
       <use x="147.558594" xlink:href="#DejaVuSans-114"/>
       <use x="188.671875" xlink:href="#DejaVuSans-32"/>
       <use x="220.458984" xlink:href="#DejaVuSans-50"/>
       <use x="284.082031" xlink:href="#DejaVuSans-55"/>
      </g>
     </g>
    </g>
    <g id="xtick_20">
     <g id="line2d_20">
      <path clip-path="url(#p099132f77f)" d="M 486.417841 294.118125 
L 486.417841 22.318125 
" style="fill:none;stroke:#cccccc;stroke-linecap:round;"/>
     </g>
     <g id="text_20">
      <!-- Mar 28 -->
      <g style="fill:#262626;" transform="translate(489.453153 341.865469)rotate(-90)scale(0.11 -0.11)">
       <use xlink:href="#DejaVuSans-77"/>
       <use x="86.279297" xlink:href="#DejaVuSans-97"/>
       <use x="147.558594" xlink:href="#DejaVuSans-114"/>
       <use x="188.671875" xlink:href="#DejaVuSans-32"/>
       <use x="220.458984" xlink:href="#DejaVuSans-50"/>
       <use x="284.082031" xlink:href="#DejaVuSans-56"/>
      </g>
     </g>
    </g>
    <g id="text_21">
     <!-- Datum -->
     <defs>
      <path d="M 19.671875 64.796875 
L 19.671875 8.109375 
L 31.59375 8.109375 
Q 46.6875 8.109375 53.6875 14.9375 
Q 60.6875 21.78125 60.6875 36.53125 
Q 60.6875 51.171875 53.6875 57.984375 
Q 46.6875 64.796875 31.59375 64.796875 
z
M 9.8125 72.90625 
L 30.078125 72.90625 
Q 51.265625 72.90625 61.171875 64.09375 
Q 71.09375 55.28125 71.09375 36.53125 
Q 71.09375 17.671875 61.125 8.828125 
Q 51.171875 0 30.078125 0 
L 9.8125 0 
z
" id="DejaVuSans-68"/>
      <path d="M 18.3125 70.21875 
L 18.3125 54.6875 
L 36.8125 54.6875 
L 36.8125 47.703125 
L 18.3125 47.703125 
L 18.3125 18.015625 
Q 18.3125 11.328125 20.140625 9.421875 
Q 21.96875 7.515625 27.59375 7.515625 
L 36.8125 7.515625 
L 36.8125 0 
L 27.59375 0 
Q 17.1875 0 13.234375 3.875 
Q 9.28125 7.765625 9.28125 18.015625 
L 9.28125 47.703125 
L 2.6875 47.703125 
L 2.6875 54.6875 
L 9.28125 54.6875 
L 9.28125 70.21875 
z
" id="DejaVuSans-116"/>
      <path d="M 8.5 21.578125 
L 8.5 54.6875 
L 17.484375 54.6875 
L 17.484375 21.921875 
Q 17.484375 14.15625 20.5 10.265625 
Q 23.53125 6.390625 29.59375 6.390625 
Q 36.859375 6.390625 41.078125 11.03125 
Q 45.3125 15.671875 45.3125 23.6875 
L 45.3125 54.6875 
L 54.296875 54.6875 
L 54.296875 0 
L 45.3125 0 
L 45.3125 8.40625 
Q 42.046875 3.421875 37.71875 1 
Q 33.40625 -1.421875 27.6875 -1.421875 
Q 18.265625 -1.421875 13.375 4.4375 
Q 8.5 10.296875 8.5 21.578125 
z
M 31.109375 56 
z
" id="DejaVuSans-117"/>
      <path d="M 52 44.1875 
Q 55.375 50.25 60.0625 53.125 
Q 64.75 56 71.09375 56 
Q 79.640625 56 84.28125 50.015625 
Q 88.921875 44.046875 88.921875 33.015625 
L 88.921875 0 
L 79.890625 0 
L 79.890625 32.71875 
Q 79.890625 40.578125 77.09375 44.375 
Q 74.3125 48.1875 68.609375 48.1875 
Q 61.625 48.1875 57.5625 43.546875 
Q 53.515625 38.921875 53.515625 30.90625 
L 53.515625 0 
L 44.484375 0 
L 44.484375 32.71875 
Q 44.484375 40.625 41.703125 44.40625 
Q 38.921875 48.1875 33.109375 48.1875 
Q 26.21875 48.1875 22.15625 43.53125 
Q 18.109375 38.875 18.109375 30.90625 
L 18.109375 0 
L 9.078125 0 
L 9.078125 54.6875 
L 18.109375 54.6875 
L 18.109375 46.1875 
Q 21.1875 51.21875 25.484375 53.609375 
Q 29.78125 56 35.6875 56 
Q 41.65625 56 45.828125 52.96875 
Q 50 49.953125 52 44.1875 
z
" id="DejaVuSans-109"/>
     </defs>
     <g style="fill:#262626;" transform="translate(263.212813 354.983594)scale(0.12 -0.12)">
      <use xlink:href="#DejaVuSans-68"/>
      <use x="77.001953" xlink:href="#DejaVuSans-97"/>
      <use x="138.28125" xlink:href="#DejaVuSans-116"/>
      <use x="177.490234" xlink:href="#DejaVuSans-117"/>
      <use x="240.869141" xlink:href="#DejaVuSans-109"/>
     </g>
    </g>
   </g>
   <g id="matplotlib.axis_2">
    <g id="ytick_1">
     <g id="line2d_21">
      <path clip-path="url(#p099132f77f)" d="M 60.30875 281.76358 
L 506.70875 281.76358 
" style="fill:none;stroke:#cccccc;stroke-linecap:round;"/>
     </g>
     <g id="text_22">
      <!-- 0 -->
      <g style="fill:#262626;" transform="translate(43.81 285.94272)scale(0.11 -0.11)">
       <use xlink:href="#DejaVuSans-48"/>
      </g>
     </g>
     <g id="text_23">
      <!-- 0 -->
      <g style="fill:#262626;" transform="translate(516.20875 285.94272)scale(0.11 -0.11)">
       <use xlink:href="#DejaVuSans-48"/>
      </g>
     </g>
    </g>
    <g id="ytick_2">
     <g id="line2d_22">
      <path clip-path="url(#p099132f77f)" d="M 60.30875 248.300564 
L 506.70875 248.300564 
" style="fill:none;stroke:#cccccc;stroke-linecap:round;"/>
     </g>
     <g id="text_24">
      <!-- 250 -->
      <g style="fill:#262626;" transform="translate(29.8125 252.479704)scale(0.11 -0.11)">
       <use xlink:href="#DejaVuSans-50"/>
       <use x="63.623047" xlink:href="#DejaVuSans-53"/>
       <use x="127.246094" xlink:href="#DejaVuSans-48"/>
      </g>
     </g>
     <g id="text_25">
      <!-- 250 -->
      <g style="fill:#262626;" transform="translate(516.20875 252.479704)scale(0.11 -0.11)">
       <use xlink:href="#DejaVuSans-50"/>
       <use x="63.623047" xlink:href="#DejaVuSans-53"/>
       <use x="127.246094" xlink:href="#DejaVuSans-48"/>
      </g>
     </g>
    </g>
    <g id="ytick_3">
     <g id="line2d_23">
      <path clip-path="url(#p099132f77f)" d="M 60.30875 214.837548 
L 506.70875 214.837548 
" style="fill:none;stroke:#cccccc;stroke-linecap:round;"/>
     </g>
     <g id="text_26">
      <!-- 500 -->
      <g style="fill:#262626;" transform="translate(29.8125 219.016688)scale(0.11 -0.11)">
       <use xlink:href="#DejaVuSans-53"/>
       <use x="63.623047" xlink:href="#DejaVuSans-48"/>
       <use x="127.246094" xlink:href="#DejaVuSans-48"/>
      </g>
     </g>
     <g id="text_27">
      <!-- 500 -->
      <g style="fill:#262626;" transform="translate(516.20875 219.016688)scale(0.11 -0.11)">
       <use xlink:href="#DejaVuSans-53"/>
       <use x="63.623047" xlink:href="#DejaVuSans-48"/>
       <use x="127.246094" xlink:href="#DejaVuSans-48"/>
      </g>
     </g>
    </g>
    <g id="ytick_4">
     <g id="line2d_24">
      <path clip-path="url(#p099132f77f)" d="M 60.30875 181.374532 
L 506.70875 181.374532 
" style="fill:none;stroke:#cccccc;stroke-linecap:round;"/>
     </g>
     <g id="text_28">
      <!-- 750 -->
      <g style="fill:#262626;" transform="translate(29.8125 185.553673)scale(0.11 -0.11)">
       <use xlink:href="#DejaVuSans-55"/>
       <use x="63.623047" xlink:href="#DejaVuSans-53"/>
       <use x="127.246094" xlink:href="#DejaVuSans-48"/>
      </g>
     </g>
     <g id="text_29">
      <!-- 750 -->
      <g style="fill:#262626;" transform="translate(516.20875 185.553673)scale(0.11 -0.11)">
       <use xlink:href="#DejaVuSans-55"/>
       <use x="63.623047" xlink:href="#DejaVuSans-53"/>
       <use x="127.246094" xlink:href="#DejaVuSans-48"/>
      </g>
     </g>
    </g>
    <g id="ytick_5">
     <g id="line2d_25">
      <path clip-path="url(#p099132f77f)" d="M 60.30875 147.911516 
L 506.70875 147.911516 
" style="fill:none;stroke:#cccccc;stroke-linecap:round;"/>
     </g>
     <g id="text_30">
      <!-- 1000 -->
      <g style="fill:#262626;" transform="translate(22.81375 152.090657)scale(0.11 -0.11)">
       <use xlink:href="#DejaVuSans-49"/>
       <use x="63.623047" xlink:href="#DejaVuSans-48"/>
       <use x="127.246094" xlink:href="#DejaVuSans-48"/>
       <use x="190.869141" xlink:href="#DejaVuSans-48"/>
      </g>
     </g>
     <g id="text_31">
      <!-- 1000 -->
      <g style="fill:#262626;" transform="translate(516.20875 152.090657)scale(0.11 -0.11)">
       <use xlink:href="#DejaVuSans-49"/>
       <use x="63.623047" xlink:href="#DejaVuSans-48"/>
       <use x="127.246094" xlink:href="#DejaVuSans-48"/>
       <use x="190.869141" xlink:href="#DejaVuSans-48"/>
      </g>
     </g>
    </g>
    <g id="ytick_6">
     <g id="line2d_26">
      <path clip-path="url(#p099132f77f)" d="M 60.30875 114.4485 
L 506.70875 114.4485 
" style="fill:none;stroke:#cccccc;stroke-linecap:round;"/>
     </g>
     <g id="text_32">
      <!-- 1250 -->
      <g style="fill:#262626;" transform="translate(22.81375 118.627641)scale(0.11 -0.11)">
       <use xlink:href="#DejaVuSans-49"/>
       <use x="63.623047" xlink:href="#DejaVuSans-50"/>
       <use x="127.246094" xlink:href="#DejaVuSans-53"/>
       <use x="190.869141" xlink:href="#DejaVuSans-48"/>
      </g>
     </g>
     <g id="text_33">
      <!-- 1250 -->
      <g style="fill:#262626;" transform="translate(516.20875 118.627641)scale(0.11 -0.11)">
       <use xlink:href="#DejaVuSans-49"/>
       <use x="63.623047" xlink:href="#DejaVuSans-50"/>
       <use x="127.246094" xlink:href="#DejaVuSans-53"/>
       <use x="190.869141" xlink:href="#DejaVuSans-48"/>
      </g>
     </g>
    </g>
    <g id="ytick_7">
     <g id="line2d_27">
      <path clip-path="url(#p099132f77f)" d="M 60.30875 80.985484 
L 506.70875 80.985484 
" style="fill:none;stroke:#cccccc;stroke-linecap:round;"/>
     </g>
     <g id="text_34">
      <!-- 1500 -->
      <g style="fill:#262626;" transform="translate(22.81375 85.164625)scale(0.11 -0.11)">
       <use xlink:href="#DejaVuSans-49"/>
       <use x="63.623047" xlink:href="#DejaVuSans-53"/>
       <use x="127.246094" xlink:href="#DejaVuSans-48"/>
       <use x="190.869141" xlink:href="#DejaVuSans-48"/>
      </g>
     </g>
     <g id="text_35">
      <!-- 1500 -->
      <g style="fill:#262626;" transform="translate(516.20875 85.164625)scale(0.11 -0.11)">
       <use xlink:href="#DejaVuSans-49"/>
       <use x="63.623047" xlink:href="#DejaVuSans-53"/>
       <use x="127.246094" xlink:href="#DejaVuSans-48"/>
       <use x="190.869141" xlink:href="#DejaVuSans-48"/>
      </g>
     </g>
    </g>
    <g id="ytick_8">
     <g id="line2d_28">
      <path clip-path="url(#p099132f77f)" d="M 60.30875 47.522469 
L 506.70875 47.522469 
" style="fill:none;stroke:#cccccc;stroke-linecap:round;"/>
     </g>
     <g id="text_36">
      <!-- 1750 -->
      <g style="fill:#262626;" transform="translate(22.81375 51.701609)scale(0.11 -0.11)">
       <use xlink:href="#DejaVuSans-49"/>
       <use x="63.623047" xlink:href="#DejaVuSans-55"/>
       <use x="127.246094" xlink:href="#DejaVuSans-53"/>
       <use x="190.869141" xlink:href="#DejaVuSans-48"/>
      </g>
     </g>
     <g id="text_37">
      <!-- 1750 -->
      <g style="fill:#262626;" transform="translate(516.20875 51.701609)scale(0.11 -0.11)">
       <use xlink:href="#DejaVuSans-49"/>
       <use x="63.623047" xlink:href="#DejaVuSans-55"/>
       <use x="127.246094" xlink:href="#DejaVuSans-53"/>
       <use x="190.869141" xlink:href="#DejaVuSans-48"/>
      </g>
     </g>
    </g>
    <g id="text_38">
     <!-- Bestätigte Fälle -->
     <defs>
      <path d="M 19.671875 34.8125 
L 19.671875 8.109375 
L 35.5 8.109375 
Q 43.453125 8.109375 47.28125 11.40625 
Q 51.125 14.703125 51.125 21.484375 
Q 51.125 28.328125 47.28125 31.5625 
Q 43.453125 34.8125 35.5 34.8125 
z
M 19.671875 64.796875 
L 19.671875 42.828125 
L 34.28125 42.828125 
Q 41.5 42.828125 45.03125 45.53125 
Q 48.578125 48.25 48.578125 53.8125 
Q 48.578125 59.328125 45.03125 62.0625 
Q 41.5 64.796875 34.28125 64.796875 
z
M 9.8125 72.90625 
L 35.015625 72.90625 
Q 46.296875 72.90625 52.390625 68.21875 
Q 58.5 63.53125 58.5 54.890625 
Q 58.5 48.1875 55.375 44.234375 
Q 52.25 40.28125 46.1875 39.3125 
Q 53.46875 37.75 57.5 32.78125 
Q 61.53125 27.828125 61.53125 20.40625 
Q 61.53125 10.640625 54.890625 5.3125 
Q 48.25 0 35.984375 0 
L 9.8125 0 
z
" id="DejaVuSans-66"/>
      <path d="M 56.203125 29.59375 
L 56.203125 25.203125 
L 14.890625 25.203125 
Q 15.484375 15.921875 20.484375 11.0625 
Q 25.484375 6.203125 34.421875 6.203125 
Q 39.59375 6.203125 44.453125 7.46875 
Q 49.3125 8.734375 54.109375 11.28125 
L 54.109375 2.78125 
Q 49.265625 0.734375 44.1875 -0.34375 
Q 39.109375 -1.421875 33.890625 -1.421875 
Q 20.796875 -1.421875 13.15625 6.1875 
Q 5.515625 13.8125 5.515625 26.8125 
Q 5.515625 40.234375 12.765625 48.109375 
Q 20.015625 56 32.328125 56 
Q 43.359375 56 49.78125 48.890625 
Q 56.203125 41.796875 56.203125 29.59375 
z
M 47.21875 32.234375 
Q 47.125 39.59375 43.09375 43.984375 
Q 39.0625 48.390625 32.421875 48.390625 
Q 24.90625 48.390625 20.390625 44.140625 
Q 15.875 39.890625 15.1875 32.171875 
z
" id="DejaVuSans-101"/>
      <path d="M 44.28125 53.078125 
L 44.28125 44.578125 
Q 40.484375 46.53125 36.375 47.5 
Q 32.28125 48.484375 27.875 48.484375 
Q 21.1875 48.484375 17.84375 46.4375 
Q 14.5 44.390625 14.5 40.28125 
Q 14.5 37.15625 16.890625 35.375 
Q 19.28125 33.59375 26.515625 31.984375 
L 29.59375 31.296875 
Q 39.15625 29.25 43.1875 25.515625 
Q 47.21875 21.78125 47.21875 15.09375 
Q 47.21875 7.46875 41.1875 3.015625 
Q 35.15625 -1.421875 24.609375 -1.421875 
Q 20.21875 -1.421875 15.453125 -0.5625 
Q 10.6875 0.296875 5.421875 2 
L 5.421875 11.28125 
Q 10.40625 8.6875 15.234375 7.390625 
Q 20.0625 6.109375 24.8125 6.109375 
Q 31.15625 6.109375 34.5625 8.28125 
Q 37.984375 10.453125 37.984375 14.40625 
Q 37.984375 18.0625 35.515625 20.015625 
Q 33.0625 21.96875 24.703125 23.78125 
L 21.578125 24.515625 
Q 13.234375 26.265625 9.515625 29.90625 
Q 5.8125 33.546875 5.8125 39.890625 
Q 5.8125 47.609375 11.28125 51.796875 
Q 16.75 56 26.8125 56 
Q 31.78125 56 36.171875 55.265625 
Q 40.578125 54.546875 44.28125 53.078125 
z
" id="DejaVuSans-115"/>
      <path d="M 34.28125 27.484375 
Q 23.390625 27.484375 19.1875 25 
Q 14.984375 22.515625 14.984375 16.5 
Q 14.984375 11.71875 18.140625 8.90625 
Q 21.296875 6.109375 26.703125 6.109375 
Q 34.1875 6.109375 38.703125 11.40625 
Q 43.21875 16.703125 43.21875 25.484375 
L 43.21875 27.484375 
z
M 52.203125 31.203125 
L 52.203125 0 
L 43.21875 0 
L 43.21875 8.296875 
Q 40.140625 3.328125 35.546875 0.953125 
Q 30.953125 -1.421875 24.3125 -1.421875 
Q 15.921875 -1.421875 10.953125 3.296875 
Q 6 8.015625 6 15.921875 
Q 6 25.140625 12.171875 29.828125 
Q 18.359375 34.515625 30.609375 34.515625 
L 43.21875 34.515625 
L 43.21875 35.40625 
Q 43.21875 41.609375 39.140625 45 
Q 35.0625 48.390625 27.6875 48.390625 
Q 23 48.390625 18.546875 47.265625 
Q 14.109375 46.140625 10.015625 43.890625 
L 10.015625 52.203125 
Q 14.9375 54.109375 19.578125 55.046875 
Q 24.21875 56 28.609375 56 
Q 40.484375 56 46.34375 49.84375 
Q 52.203125 43.703125 52.203125 31.203125 
z
M 33.59375 75.78125 
L 43.5 75.78125 
L 43.5 65.921875 
L 33.59375 65.921875 
z
M 14.5 75.78125 
L 24.40625 75.78125 
L 24.40625 65.921875 
L 14.5 65.921875 
z
" id="DejaVuSans-228"/>
      <path d="M 9.421875 54.6875 
L 18.40625 54.6875 
L 18.40625 0 
L 9.421875 0 
z
M 9.421875 75.984375 
L 18.40625 75.984375 
L 18.40625 64.59375 
L 9.421875 64.59375 
z
" id="DejaVuSans-105"/>
      <path d="M 45.40625 27.984375 
Q 45.40625 37.75 41.375 43.109375 
Q 37.359375 48.484375 30.078125 48.484375 
Q 22.859375 48.484375 18.828125 43.109375 
Q 14.796875 37.75 14.796875 27.984375 
Q 14.796875 18.265625 18.828125 12.890625 
Q 22.859375 7.515625 30.078125 7.515625 
Q 37.359375 7.515625 41.375 12.890625 
Q 45.40625 18.265625 45.40625 27.984375 
z
M 54.390625 6.78125 
Q 54.390625 -7.171875 48.1875 -13.984375 
Q 42 -20.796875 29.203125 -20.796875 
Q 24.46875 -20.796875 20.265625 -20.09375 
Q 16.0625 -19.390625 12.109375 -17.921875 
L 12.109375 -9.1875 
Q 16.0625 -11.328125 19.921875 -12.34375 
Q 23.78125 -13.375 27.78125 -13.375 
Q 36.625 -13.375 41.015625 -8.765625 
Q 45.40625 -4.15625 45.40625 5.171875 
L 45.40625 9.625 
Q 42.625 4.78125 38.28125 2.390625 
Q 33.9375 0 27.875 0 
Q 17.828125 0 11.671875 7.65625 
Q 5.515625 15.328125 5.515625 27.984375 
Q 5.515625 40.671875 11.671875 48.328125 
Q 17.828125 56 27.875 56 
Q 33.9375 56 38.28125 53.609375 
Q 42.625 51.21875 45.40625 46.390625 
L 45.40625 54.6875 
L 54.390625 54.6875 
z
" id="DejaVuSans-103"/>
      <path d="M 9.8125 72.90625 
L 51.703125 72.90625 
L 51.703125 64.59375 
L 19.671875 64.59375 
L 19.671875 43.109375 
L 48.578125 43.109375 
L 48.578125 34.8125 
L 19.671875 34.8125 
L 19.671875 0 
L 9.8125 0 
z
" id="DejaVuSans-70"/>
      <path d="M 9.421875 75.984375 
L 18.40625 75.984375 
L 18.40625 0 
L 9.421875 0 
z
" id="DejaVuSans-108"/>
     </defs>
     <g style="fill:#262626;" transform="translate(16.318125 204.56625)rotate(-90)scale(0.12 -0.12)">
      <use xlink:href="#DejaVuSans-66"/>
      <use x="68.603516" xlink:href="#DejaVuSans-101"/>
      <use x="130.126953" xlink:href="#DejaVuSans-115"/>
      <use x="182.226562" xlink:href="#DejaVuSans-116"/>
      <use x="221.435547" xlink:href="#DejaVuSans-228"/>
      <use x="282.714844" xlink:href="#DejaVuSans-116"/>
      <use x="321.923828" xlink:href="#DejaVuSans-105"/>
      <use x="349.707031" xlink:href="#DejaVuSans-103"/>
      <use x="413.183594" xlink:href="#DejaVuSans-116"/>
      <use x="452.392578" xlink:href="#DejaVuSans-101"/>
      <use x="513.916016" xlink:href="#DejaVuSans-32"/>
      <use x="545.703125" xlink:href="#DejaVuSans-70"/>
      <use x="594.097656" xlink:href="#DejaVuSans-228"/>
      <use x="655.376953" xlink:href="#DejaVuSans-108"/>
      <use x="683.160156" xlink:href="#DejaVuSans-108"/>
      <use x="710.943359" xlink:href="#DejaVuSans-101"/>
     </g>
    </g>
   </g>
   <g id="line2d_29">
    <path clip-path="url(#p099132f77f)" d="M 80.599659 281.228171 
L 101.958511 281.228171 
L 123.317362 281.228171 
L 144.676214 280.960467 
L 166.035066 280.826615 
L 187.393917 280.425059 
L 208.752769 280.425059 
L 230.111621 280.425059 
L 251.470472 280.291207 
L 272.829324 279.086538 
L 294.188176 277.88187 
L 315.547028 277.346461 
L 336.905879 274.535568 
L 358.264731 273.3309 
L 379.623583 272.260083 
L 400.982434 270.520006 
L 422.341286 269.850746 
L 443.700138 266.370592 
L 465.058989 263.291995 
L 486.417841 262.756587 
" style="fill:none;stroke:#4c72b0;stroke-linecap:round;stroke-width:2.5;"/>
    <defs>
     <path d="M 0 3 
C 0.795609 3 1.55874 2.683901 2.12132 2.12132 
C 2.683901 1.55874 3 0.795609 3 0 
C 3 -0.795609 2.683901 -1.55874 2.12132 -2.12132 
C 1.55874 -2.683901 0.795609 -3 0 -3 
C -0.795609 -3 -1.55874 -2.683901 -2.12132 -2.12132 
C -2.683901 -1.55874 -3 -0.795609 -3 0 
C -3 0.795609 -2.683901 1.55874 -2.12132 2.12132 
C -1.55874 2.683901 -0.795609 3 0 3 
z
" id="mf1ced80ae6" style="stroke:#ffffff;stroke-width:0.75;"/>
    </defs>
    <g clip-path="url(#p099132f77f)">
     <use style="fill:#4c72b0;stroke:#ffffff;stroke-width:0.75;" x="80.599659" xlink:href="#mf1ced80ae6" y="281.228171"/>
     <use style="fill:#4c72b0;stroke:#ffffff;stroke-width:0.75;" x="101.958511" xlink:href="#mf1ced80ae6" y="281.228171"/>
     <use style="fill:#4c72b0;stroke:#ffffff;stroke-width:0.75;" x="123.317362" xlink:href="#mf1ced80ae6" y="281.228171"/>
     <use style="fill:#4c72b0;stroke:#ffffff;stroke-width:0.75;" x="144.676214" xlink:href="#mf1ced80ae6" y="280.960467"/>
     <use style="fill:#4c72b0;stroke:#ffffff;stroke-width:0.75;" x="166.035066" xlink:href="#mf1ced80ae6" y="280.826615"/>
     <use style="fill:#4c72b0;stroke:#ffffff;stroke-width:0.75;" x="187.393917" xlink:href="#mf1ced80ae6" y="280.425059"/>
     <use style="fill:#4c72b0;stroke:#ffffff;stroke-width:0.75;" x="208.752769" xlink:href="#mf1ced80ae6" y="280.425059"/>
     <use style="fill:#4c72b0;stroke:#ffffff;stroke-width:0.75;" x="230.111621" xlink:href="#mf1ced80ae6" y="280.425059"/>
     <use style="fill:#4c72b0;stroke:#ffffff;stroke-width:0.75;" x="251.470472" xlink:href="#mf1ced80ae6" y="280.291207"/>
     <use style="fill:#4c72b0;stroke:#ffffff;stroke-width:0.75;" x="272.829324" xlink:href="#mf1ced80ae6" y="279.086538"/>
     <use style="fill:#4c72b0;stroke:#ffffff;stroke-width:0.75;" x="294.188176" xlink:href="#mf1ced80ae6" y="277.88187"/>
     <use style="fill:#4c72b0;stroke:#ffffff;stroke-width:0.75;" x="315.547028" xlink:href="#mf1ced80ae6" y="277.346461"/>
     <use style="fill:#4c72b0;stroke:#ffffff;stroke-width:0.75;" x="336.905879" xlink:href="#mf1ced80ae6" y="274.535568"/>
     <use style="fill:#4c72b0;stroke:#ffffff;stroke-width:0.75;" x="358.264731" xlink:href="#mf1ced80ae6" y="273.3309"/>
     <use style="fill:#4c72b0;stroke:#ffffff;stroke-width:0.75;" x="379.623583" xlink:href="#mf1ced80ae6" y="272.260083"/>
     <use style="fill:#4c72b0;stroke:#ffffff;stroke-width:0.75;" x="400.982434" xlink:href="#mf1ced80ae6" y="270.520006"/>
     <use style="fill:#4c72b0;stroke:#ffffff;stroke-width:0.75;" x="422.341286" xlink:href="#mf1ced80ae6" y="269.850746"/>
     <use style="fill:#4c72b0;stroke:#ffffff;stroke-width:0.75;" x="443.700138" xlink:href="#mf1ced80ae6" y="266.370592"/>
     <use style="fill:#4c72b0;stroke:#ffffff;stroke-width:0.75;" x="465.058989" xlink:href="#mf1ced80ae6" y="263.291995"/>
     <use style="fill:#4c72b0;stroke:#ffffff;stroke-width:0.75;" x="486.417841" xlink:href="#mf1ced80ae6" y="262.756587"/>
    </g>
   </g>
   <g id="line2d_30">
    <path clip-path="url(#p099132f77f)" d="M 80.599659 281.629727 
L 101.958511 281.629727 
L 123.317362 281.362023 
L 144.676214 281.362023 
L 166.035066 281.228171 
L 187.393917 281.094319 
L 208.752769 280.960467 
L 230.111621 279.354242 
L 251.470472 278.149574 
L 272.829324 276.275645 
L 294.188176 275.070976 
L 315.547028 272.260083 
L 336.905879 270.653858 
L 358.264731 267.709113 
L 379.623583 265.433628 
L 400.982434 262.890439 
L 422.341286 260.213397 
L 443.700138 257.268652 
L 465.058989 254.725463 
L 486.417841 252.182274 
" style="fill:none;stroke:#dd8452;stroke-dasharray:10,3.75;stroke-dashoffset:0;stroke-width:2.5;"/>
    <defs>
     <path d="M -0 3 
L 3 -3 
L -3 -3 
z
" id="mf8a3abe0fd" style="stroke:#ffffff;stroke-linejoin:miter;stroke-width:0.75;"/>
    </defs>
    <g clip-path="url(#p099132f77f)">
     <use style="fill:#dd8452;stroke:#ffffff;stroke-linejoin:miter;stroke-width:0.75;" x="80.599659" xlink:href="#mf8a3abe0fd" y="281.629727"/>
     <use style="fill:#dd8452;stroke:#ffffff;stroke-linejoin:miter;stroke-width:0.75;" x="101.958511" xlink:href="#mf8a3abe0fd" y="281.629727"/>
     <use style="fill:#dd8452;stroke:#ffffff;stroke-linejoin:miter;stroke-width:0.75;" x="123.317362" xlink:href="#mf8a3abe0fd" y="281.362023"/>
     <use style="fill:#dd8452;stroke:#ffffff;stroke-linejoin:miter;stroke-width:0.75;" x="144.676214" xlink:href="#mf8a3abe0fd" y="281.362023"/>
     <use style="fill:#dd8452;stroke:#ffffff;stroke-linejoin:miter;stroke-width:0.75;" x="166.035066" xlink:href="#mf8a3abe0fd" y="281.228171"/>
     <use style="fill:#dd8452;stroke:#ffffff;stroke-linejoin:miter;stroke-width:0.75;" x="187.393917" xlink:href="#mf8a3abe0fd" y="281.094319"/>
     <use style="fill:#dd8452;stroke:#ffffff;stroke-linejoin:miter;stroke-width:0.75;" x="208.752769" xlink:href="#mf8a3abe0fd" y="280.960467"/>
     <use style="fill:#dd8452;stroke:#ffffff;stroke-linejoin:miter;stroke-width:0.75;" x="230.111621" xlink:href="#mf8a3abe0fd" y="279.354242"/>
     <use style="fill:#dd8452;stroke:#ffffff;stroke-linejoin:miter;stroke-width:0.75;" x="251.470472" xlink:href="#mf8a3abe0fd" y="278.149574"/>
     <use style="fill:#dd8452;stroke:#ffffff;stroke-linejoin:miter;stroke-width:0.75;" x="272.829324" xlink:href="#mf8a3abe0fd" y="276.275645"/>
     <use style="fill:#dd8452;stroke:#ffffff;stroke-linejoin:miter;stroke-width:0.75;" x="294.188176" xlink:href="#mf8a3abe0fd" y="275.070976"/>
     <use style="fill:#dd8452;stroke:#ffffff;stroke-linejoin:miter;stroke-width:0.75;" x="315.547028" xlink:href="#mf8a3abe0fd" y="272.260083"/>
     <use style="fill:#dd8452;stroke:#ffffff;stroke-linejoin:miter;stroke-width:0.75;" x="336.905879" xlink:href="#mf8a3abe0fd" y="270.653858"/>
     <use style="fill:#dd8452;stroke:#ffffff;stroke-linejoin:miter;stroke-width:0.75;" x="358.264731" xlink:href="#mf8a3abe0fd" y="267.709113"/>
     <use style="fill:#dd8452;stroke:#ffffff;stroke-linejoin:miter;stroke-width:0.75;" x="379.623583" xlink:href="#mf8a3abe0fd" y="265.433628"/>
     <use style="fill:#dd8452;stroke:#ffffff;stroke-linejoin:miter;stroke-width:0.75;" x="400.982434" xlink:href="#mf8a3abe0fd" y="262.890439"/>
     <use style="fill:#dd8452;stroke:#ffffff;stroke-linejoin:miter;stroke-width:0.75;" x="422.341286" xlink:href="#mf8a3abe0fd" y="260.213397"/>
     <use style="fill:#dd8452;stroke:#ffffff;stroke-linejoin:miter;stroke-width:0.75;" x="443.700138" xlink:href="#mf8a3abe0fd" y="257.268652"/>
     <use style="fill:#dd8452;stroke:#ffffff;stroke-linejoin:miter;stroke-width:0.75;" x="465.058989" xlink:href="#mf8a3abe0fd" y="254.725463"/>
     <use style="fill:#dd8452;stroke:#ffffff;stroke-linejoin:miter;stroke-width:0.75;" x="486.417841" xlink:href="#mf8a3abe0fd" y="252.182274"/>
    </g>
   </g>
   <g id="line2d_31">
    <path clip-path="url(#p099132f77f)" d="M 80.599659 276.944905 
L 101.958511 276.409497 
L 123.317362 275.740237 
L 144.676214 274.937124 
L 166.035066 273.3309 
L 187.393917 270.78771 
L 208.752769 266.906001 
L 230.111621 261.418066 
L 251.470472 252.851534 
L 272.829324 247.497451 
L 294.188176 240.9387 
L 315.547028 234.246097 
L 336.905879 229.025867 
L 358.264731 222.065559 
L 379.623583 206.271016 
L 400.982434 198.7753 
L 422.341286 181.374532 
L 443.700138 164.910728 
L 465.058989 129.172227 
L 486.417841 112.842275 
" style="fill:none;stroke:#55a868;stroke-dasharray:2.5,2.5;stroke-dashoffset:0;stroke-width:2.5;"/>
    <defs>
     <path d="M 0 -3 
L -3 3 
L 3 3 
z
" id="m5425659de5" style="stroke:#ffffff;stroke-linejoin:miter;stroke-width:0.75;"/>
    </defs>
    <g clip-path="url(#p099132f77f)">
     <use style="fill:#55a868;stroke:#ffffff;stroke-linejoin:miter;stroke-width:0.75;" x="80.599659" xlink:href="#m5425659de5" y="276.944905"/>
     <use style="fill:#55a868;stroke:#ffffff;stroke-linejoin:miter;stroke-width:0.75;" x="101.958511" xlink:href="#m5425659de5" y="276.409497"/>
     <use style="fill:#55a868;stroke:#ffffff;stroke-linejoin:miter;stroke-width:0.75;" x="123.317362" xlink:href="#m5425659de5" y="275.740237"/>
     <use style="fill:#55a868;stroke:#ffffff;stroke-linejoin:miter;stroke-width:0.75;" x="144.676214" xlink:href="#m5425659de5" y="274.937124"/>
     <use style="fill:#55a868;stroke:#ffffff;stroke-linejoin:miter;stroke-width:0.75;" x="166.035066" xlink:href="#m5425659de5" y="273.3309"/>
     <use style="fill:#55a868;stroke:#ffffff;stroke-linejoin:miter;stroke-width:0.75;" x="187.393917" xlink:href="#m5425659de5" y="270.78771"/>
     <use style="fill:#55a868;stroke:#ffffff;stroke-linejoin:miter;stroke-width:0.75;" x="208.752769" xlink:href="#m5425659de5" y="266.906001"/>
     <use style="fill:#55a868;stroke:#ffffff;stroke-linejoin:miter;stroke-width:0.75;" x="230.111621" xlink:href="#m5425659de5" y="261.418066"/>
     <use style="fill:#55a868;stroke:#ffffff;stroke-linejoin:miter;stroke-width:0.75;" x="251.470472" xlink:href="#m5425659de5" y="252.851534"/>
     <use style="fill:#55a868;stroke:#ffffff;stroke-linejoin:miter;stroke-width:0.75;" x="272.829324" xlink:href="#m5425659de5" y="247.497451"/>
     <use style="fill:#55a868;stroke:#ffffff;stroke-linejoin:miter;stroke-width:0.75;" x="294.188176" xlink:href="#m5425659de5" y="240.9387"/>
     <use style="fill:#55a868;stroke:#ffffff;stroke-linejoin:miter;stroke-width:0.75;" x="315.547028" xlink:href="#m5425659de5" y="234.246097"/>
     <use style="fill:#55a868;stroke:#ffffff;stroke-linejoin:miter;stroke-width:0.75;" x="336.905879" xlink:href="#m5425659de5" y="229.025867"/>
     <use style="fill:#55a868;stroke:#ffffff;stroke-linejoin:miter;stroke-width:0.75;" x="358.264731" xlink:href="#m5425659de5" y="222.065559"/>
     <use style="fill:#55a868;stroke:#ffffff;stroke-linejoin:miter;stroke-width:0.75;" x="379.623583" xlink:href="#m5425659de5" y="206.271016"/>
     <use style="fill:#55a868;stroke:#ffffff;stroke-linejoin:miter;stroke-width:0.75;" x="400.982434" xlink:href="#m5425659de5" y="198.7753"/>
     <use style="fill:#55a868;stroke:#ffffff;stroke-linejoin:miter;stroke-width:0.75;" x="422.341286" xlink:href="#m5425659de5" y="181.374532"/>
     <use style="fill:#55a868;stroke:#ffffff;stroke-linejoin:miter;stroke-width:0.75;" x="443.700138" xlink:href="#m5425659de5" y="164.910728"/>
     <use style="fill:#55a868;stroke:#ffffff;stroke-linejoin:miter;stroke-width:0.75;" x="465.058989" xlink:href="#m5425659de5" y="129.172227"/>
     <use style="fill:#55a868;stroke:#ffffff;stroke-linejoin:miter;stroke-width:0.75;" x="486.417841" xlink:href="#m5425659de5" y="112.842275"/>
    </g>
   </g>
   <g id="line2d_32">
    <path clip-path="url(#p099132f77f)" d="M 80.599659 280.291207 
L 101.958511 278.818834 
L 123.317362 277.078757 
L 144.676214 274.00016 
L 166.035066 270.520006 
L 187.393917 266.23674 
L 208.752769 260.481101 
L 230.111621 254.725463 
L 251.470472 248.568268 
L 272.829324 240.9387 
L 294.188176 232.104464 
L 315.547028 225.411861 
L 336.905879 208.412649 
L 358.264731 197.704484 
L 379.623583 187.130171 
L 400.982434 175.351189 
L 422.341286 159.288942 
L 443.700138 281.76358 
L 465.058989 118.865618 
L 486.417841 103.472631 
" style="fill:none;stroke:#c44e52;stroke-dasharray:7.5,2.5,3.75,2.5;stroke-dashoffset:0;stroke-width:2.5;"/>
    <defs>
     <path d="M -3 -0 
L 3 3 
L 3 -3 
z
" id="m137a423a2b" style="stroke:#ffffff;stroke-linejoin:miter;stroke-width:0.75;"/>
    </defs>
    <g clip-path="url(#p099132f77f)">
     <use style="fill:#c44e52;stroke:#ffffff;stroke-linejoin:miter;stroke-width:0.75;" x="80.599659" xlink:href="#m137a423a2b" y="280.291207"/>
     <use style="fill:#c44e52;stroke:#ffffff;stroke-linejoin:miter;stroke-width:0.75;" x="101.958511" xlink:href="#m137a423a2b" y="278.818834"/>
     <use style="fill:#c44e52;stroke:#ffffff;stroke-linejoin:miter;stroke-width:0.75;" x="123.317362" xlink:href="#m137a423a2b" y="277.078757"/>
     <use style="fill:#c44e52;stroke:#ffffff;stroke-linejoin:miter;stroke-width:0.75;" x="144.676214" xlink:href="#m137a423a2b" y="274.00016"/>
     <use style="fill:#c44e52;stroke:#ffffff;stroke-linejoin:miter;stroke-width:0.75;" x="166.035066" xlink:href="#m137a423a2b" y="270.520006"/>
     <use style="fill:#c44e52;stroke:#ffffff;stroke-linejoin:miter;stroke-width:0.75;" x="187.393917" xlink:href="#m137a423a2b" y="266.23674"/>
     <use style="fill:#c44e52;stroke:#ffffff;stroke-linejoin:miter;stroke-width:0.75;" x="208.752769" xlink:href="#m137a423a2b" y="260.481101"/>
     <use style="fill:#c44e52;stroke:#ffffff;stroke-linejoin:miter;stroke-width:0.75;" x="230.111621" xlink:href="#m137a423a2b" y="254.725463"/>
     <use style="fill:#c44e52;stroke:#ffffff;stroke-linejoin:miter;stroke-width:0.75;" x="251.470472" xlink:href="#m137a423a2b" y="248.568268"/>
     <use style="fill:#c44e52;stroke:#ffffff;stroke-linejoin:miter;stroke-width:0.75;" x="272.829324" xlink:href="#m137a423a2b" y="240.9387"/>
     <use style="fill:#c44e52;stroke:#ffffff;stroke-linejoin:miter;stroke-width:0.75;" x="294.188176" xlink:href="#m137a423a2b" y="232.104464"/>
     <use style="fill:#c44e52;stroke:#ffffff;stroke-linejoin:miter;stroke-width:0.75;" x="315.547028" xlink:href="#m137a423a2b" y="225.411861"/>
     <use style="fill:#c44e52;stroke:#ffffff;stroke-linejoin:miter;stroke-width:0.75;" x="336.905879" xlink:href="#m137a423a2b" y="208.412649"/>
     <use style="fill:#c44e52;stroke:#ffffff;stroke-linejoin:miter;stroke-width:0.75;" x="358.264731" xlink:href="#m137a423a2b" y="197.704484"/>
     <use style="fill:#c44e52;stroke:#ffffff;stroke-linejoin:miter;stroke-width:0.75;" x="379.623583" xlink:href="#m137a423a2b" y="187.130171"/>
     <use style="fill:#c44e52;stroke:#ffffff;stroke-linejoin:miter;stroke-width:0.75;" x="400.982434" xlink:href="#m137a423a2b" y="175.351189"/>
     <use style="fill:#c44e52;stroke:#ffffff;stroke-linejoin:miter;stroke-width:0.75;" x="422.341286" xlink:href="#m137a423a2b" y="159.288942"/>
     <use style="fill:#c44e52;stroke:#ffffff;stroke-linejoin:miter;stroke-width:0.75;" x="443.700138" xlink:href="#m137a423a2b" y="281.76358"/>
     <use style="fill:#c44e52;stroke:#ffffff;stroke-linejoin:miter;stroke-width:0.75;" x="465.058989" xlink:href="#m137a423a2b" y="118.865618"/>
     <use style="fill:#c44e52;stroke:#ffffff;stroke-linejoin:miter;stroke-width:0.75;" x="486.417841" xlink:href="#m137a423a2b" y="103.472631"/>
    </g>
   </g>
   <g id="line2d_33">
    <path clip-path="url(#p099132f77f)" d="M 80.599659 280.558911 
L 101.958511 280.157355 
L 123.317362 279.889651 
L 144.676214 279.22039 
L 166.035066 278.684982 
L 187.393917 277.748018 
L 208.752769 276.543349 
L 230.111621 274.00016 
L 251.470472 272.929343 
L 272.829324 269.850746 
L 294.188176 264.764367 
L 315.547028 259.410285 
L 336.905879 257.000948 
L 358.264731 245.757374 
L 379.623583 231.970612 
L 400.982434 224.341044 
L 422.341286 212.695915 
L 443.700138 202.65701 
L 465.058989 189.807212 
L 486.417841 181.24068 
" style="fill:none;stroke:#8172b3;stroke-dasharray:12.5,2.5,2.5,2.5;stroke-dashoffset:0;stroke-width:2.5;"/>
    <defs>
     <path d="M 3 0 
L -3 -3 
L -3 3 
z
" id="ma7f480a172" style="stroke:#ffffff;stroke-linejoin:miter;stroke-width:0.75;"/>
    </defs>
    <g clip-path="url(#p099132f77f)">
     <use style="fill:#8172b3;stroke:#ffffff;stroke-linejoin:miter;stroke-width:0.75;" x="80.599659" xlink:href="#ma7f480a172" y="280.558911"/>
     <use style="fill:#8172b3;stroke:#ffffff;stroke-linejoin:miter;stroke-width:0.75;" x="101.958511" xlink:href="#ma7f480a172" y="280.157355"/>
     <use style="fill:#8172b3;stroke:#ffffff;stroke-linejoin:miter;stroke-width:0.75;" x="123.317362" xlink:href="#ma7f480a172" y="279.889651"/>
     <use style="fill:#8172b3;stroke:#ffffff;stroke-linejoin:miter;stroke-width:0.75;" x="144.676214" xlink:href="#ma7f480a172" y="279.22039"/>
     <use style="fill:#8172b3;stroke:#ffffff;stroke-linejoin:miter;stroke-width:0.75;" x="166.035066" xlink:href="#ma7f480a172" y="278.684982"/>
     <use style="fill:#8172b3;stroke:#ffffff;stroke-linejoin:miter;stroke-width:0.75;" x="187.393917" xlink:href="#ma7f480a172" y="277.748018"/>
     <use style="fill:#8172b3;stroke:#ffffff;stroke-linejoin:miter;stroke-width:0.75;" x="208.752769" xlink:href="#ma7f480a172" y="276.543349"/>
     <use style="fill:#8172b3;stroke:#ffffff;stroke-linejoin:miter;stroke-width:0.75;" x="230.111621" xlink:href="#ma7f480a172" y="274.00016"/>
     <use style="fill:#8172b3;stroke:#ffffff;stroke-linejoin:miter;stroke-width:0.75;" x="251.470472" xlink:href="#ma7f480a172" y="272.929343"/>
     <use style="fill:#8172b3;stroke:#ffffff;stroke-linejoin:miter;stroke-width:0.75;" x="272.829324" xlink:href="#ma7f480a172" y="269.850746"/>
     <use style="fill:#8172b3;stroke:#ffffff;stroke-linejoin:miter;stroke-width:0.75;" x="294.188176" xlink:href="#ma7f480a172" y="264.764367"/>
     <use style="fill:#8172b3;stroke:#ffffff;stroke-linejoin:miter;stroke-width:0.75;" x="315.547028" xlink:href="#ma7f480a172" y="259.410285"/>
     <use style="fill:#8172b3;stroke:#ffffff;stroke-linejoin:miter;stroke-width:0.75;" x="336.905879" xlink:href="#ma7f480a172" y="257.000948"/>
     <use style="fill:#8172b3;stroke:#ffffff;stroke-linejoin:miter;stroke-width:0.75;" x="358.264731" xlink:href="#ma7f480a172" y="245.757374"/>
     <use style="fill:#8172b3;stroke:#ffffff;stroke-linejoin:miter;stroke-width:0.75;" x="379.623583" xlink:href="#ma7f480a172" y="231.970612"/>
     <use style="fill:#8172b3;stroke:#ffffff;stroke-linejoin:miter;stroke-width:0.75;" x="400.982434" xlink:href="#ma7f480a172" y="224.341044"/>
     <use style="fill:#8172b3;stroke:#ffffff;stroke-linejoin:miter;stroke-width:0.75;" x="422.341286" xlink:href="#ma7f480a172" y="212.695915"/>
     <use style="fill:#8172b3;stroke:#ffffff;stroke-linejoin:miter;stroke-width:0.75;" x="443.700138" xlink:href="#ma7f480a172" y="202.65701"/>
     <use style="fill:#8172b3;stroke:#ffffff;stroke-linejoin:miter;stroke-width:0.75;" x="465.058989" xlink:href="#ma7f480a172" y="189.807212"/>
     <use style="fill:#8172b3;stroke:#ffffff;stroke-linejoin:miter;stroke-width:0.75;" x="486.417841" xlink:href="#ma7f480a172" y="181.24068"/>
    </g>
   </g>
   <g id="line2d_34">
    <path clip-path="url(#p099132f77f)" d="M 80.599659 279.621947 
L 101.958511 279.488094 
L 123.317362 278.417278 
L 144.676214 277.346461 
L 166.035066 274.803272 
L 187.393917 272.260083 
L 208.752769 266.906001 
L 230.111621 263.158143 
L 251.470472 258.874877 
L 272.829324 252.316126 
L 294.188176 244.017298 
L 315.547028 236.253878 
L 336.905879 229.828979 
L 358.264731 225.144157 
L 379.623583 216.711477 
L 400.982434 207.074128 
L 422.341286 197.838336 
L 443.700138 188.200987 
L 465.058989 180.169863 
L 486.417841 170.934071 
" style="fill:none;stroke:#937860;stroke-dasharray:12.5,2.5,5,2.5,5,2.5;stroke-dashoffset:0;stroke-width:2.5;"/>
    <defs>
     <path d="M -1.14805 -2.771639 
L -2.771639 -1.14805 
L -2.771639 1.14805 
L -1.14805 2.771639 
L 1.14805 2.771639 
L 2.771639 1.14805 
L 2.771639 -1.14805 
L 1.14805 -2.771639 
z
" id="m4e3288b565" style="stroke:#ffffff;stroke-linejoin:miter;stroke-width:0.75;"/>
    </defs>
    <g clip-path="url(#p099132f77f)">
     <use style="fill:#937860;stroke:#ffffff;stroke-linejoin:miter;stroke-width:0.75;" x="80.599659" xlink:href="#m4e3288b565" y="279.621947"/>
     <use style="fill:#937860;stroke:#ffffff;stroke-linejoin:miter;stroke-width:0.75;" x="101.958511" xlink:href="#m4e3288b565" y="279.488094"/>
     <use style="fill:#937860;stroke:#ffffff;stroke-linejoin:miter;stroke-width:0.75;" x="123.317362" xlink:href="#m4e3288b565" y="278.417278"/>
     <use style="fill:#937860;stroke:#ffffff;stroke-linejoin:miter;stroke-width:0.75;" x="144.676214" xlink:href="#m4e3288b565" y="277.346461"/>
     <use style="fill:#937860;stroke:#ffffff;stroke-linejoin:miter;stroke-width:0.75;" x="166.035066" xlink:href="#m4e3288b565" y="274.803272"/>
     <use style="fill:#937860;stroke:#ffffff;stroke-linejoin:miter;stroke-width:0.75;" x="187.393917" xlink:href="#m4e3288b565" y="272.260083"/>
     <use style="fill:#937860;stroke:#ffffff;stroke-linejoin:miter;stroke-width:0.75;" x="208.752769" xlink:href="#m4e3288b565" y="266.906001"/>
     <use style="fill:#937860;stroke:#ffffff;stroke-linejoin:miter;stroke-width:0.75;" x="230.111621" xlink:href="#m4e3288b565" y="263.158143"/>
     <use style="fill:#937860;stroke:#ffffff;stroke-linejoin:miter;stroke-width:0.75;" x="251.470472" xlink:href="#m4e3288b565" y="258.874877"/>
     <use style="fill:#937860;stroke:#ffffff;stroke-linejoin:miter;stroke-width:0.75;" x="272.829324" xlink:href="#m4e3288b565" y="252.316126"/>
     <use style="fill:#937860;stroke:#ffffff;stroke-linejoin:miter;stroke-width:0.75;" x="294.188176" xlink:href="#m4e3288b565" y="244.017298"/>
     <use style="fill:#937860;stroke:#ffffff;stroke-linejoin:miter;stroke-width:0.75;" x="315.547028" xlink:href="#m4e3288b565" y="236.253878"/>
     <use style="fill:#937860;stroke:#ffffff;stroke-linejoin:miter;stroke-width:0.75;" x="336.905879" xlink:href="#m4e3288b565" y="229.828979"/>
     <use style="fill:#937860;stroke:#ffffff;stroke-linejoin:miter;stroke-width:0.75;" x="358.264731" xlink:href="#m4e3288b565" y="225.144157"/>
     <use style="fill:#937860;stroke:#ffffff;stroke-linejoin:miter;stroke-width:0.75;" x="379.623583" xlink:href="#m4e3288b565" y="216.711477"/>
     <use style="fill:#937860;stroke:#ffffff;stroke-linejoin:miter;stroke-width:0.75;" x="400.982434" xlink:href="#m4e3288b565" y="207.074128"/>
     <use style="fill:#937860;stroke:#ffffff;stroke-linejoin:miter;stroke-width:0.75;" x="422.341286" xlink:href="#m4e3288b565" y="197.838336"/>
     <use style="fill:#937860;stroke:#ffffff;stroke-linejoin:miter;stroke-width:0.75;" x="443.700138" xlink:href="#m4e3288b565" y="188.200987"/>
     <use style="fill:#937860;stroke:#ffffff;stroke-linejoin:miter;stroke-width:0.75;" x="465.058989" xlink:href="#m4e3288b565" y="180.169863"/>
     <use style="fill:#937860;stroke:#ffffff;stroke-linejoin:miter;stroke-width:0.75;" x="486.417841" xlink:href="#m4e3288b565" y="170.934071"/>
    </g>
   </g>
   <g id="line2d_35">
    <path clip-path="url(#p099132f77f)" d="M 80.599659 279.621947 
L 101.958511 277.480314 
L 123.317362 274.134012 
L 144.676214 267.173705 
L 166.035066 259.410285 
L 187.393917 254.190054 
L 208.752769 247.765155 
L 230.111621 247.765155 
L 251.470472 237.860103 
L 272.829324 230.632091 
L 294.188176 219.656222 
L 315.547028 213.766731 
L 336.905879 204.798643 
L 358.264731 195.562851 
L 379.623583 174.280373 
L 400.982434 281.76358 
L 422.341286 281.76358 
L 443.700138 281.76358 
L 465.058989 47.254764 
L 486.417841 34.67267 
" style="fill:none;stroke:#da8bc3;stroke-dasharray:5,5,7.5,3.75;stroke-dashoffset:0;stroke-width:2.5;"/>
    <defs>
     <path d="M -3 3 
L 3 3 
L 3 -3 
L -3 -3 
z
" id="m9bf4664b91" style="stroke:#ffffff;stroke-linejoin:miter;stroke-width:0.75;"/>
    </defs>
    <g clip-path="url(#p099132f77f)">
     <use style="fill:#da8bc3;stroke:#ffffff;stroke-linejoin:miter;stroke-width:0.75;" x="80.599659" xlink:href="#m9bf4664b91" y="279.621947"/>
     <use style="fill:#da8bc3;stroke:#ffffff;stroke-linejoin:miter;stroke-width:0.75;" x="101.958511" xlink:href="#m9bf4664b91" y="277.480314"/>
     <use style="fill:#da8bc3;stroke:#ffffff;stroke-linejoin:miter;stroke-width:0.75;" x="123.317362" xlink:href="#m9bf4664b91" y="274.134012"/>
     <use style="fill:#da8bc3;stroke:#ffffff;stroke-linejoin:miter;stroke-width:0.75;" x="144.676214" xlink:href="#m9bf4664b91" y="267.173705"/>
     <use style="fill:#da8bc3;stroke:#ffffff;stroke-linejoin:miter;stroke-width:0.75;" x="166.035066" xlink:href="#m9bf4664b91" y="259.410285"/>
     <use style="fill:#da8bc3;stroke:#ffffff;stroke-linejoin:miter;stroke-width:0.75;" x="187.393917" xlink:href="#m9bf4664b91" y="254.190054"/>
     <use style="fill:#da8bc3;stroke:#ffffff;stroke-linejoin:miter;stroke-width:0.75;" x="208.752769" xlink:href="#m9bf4664b91" y="247.765155"/>
     <use style="fill:#da8bc3;stroke:#ffffff;stroke-linejoin:miter;stroke-width:0.75;" x="230.111621" xlink:href="#m9bf4664b91" y="247.765155"/>
     <use style="fill:#da8bc3;stroke:#ffffff;stroke-linejoin:miter;stroke-width:0.75;" x="251.470472" xlink:href="#m9bf4664b91" y="237.860103"/>
     <use style="fill:#da8bc3;stroke:#ffffff;stroke-linejoin:miter;stroke-width:0.75;" x="272.829324" xlink:href="#m9bf4664b91" y="230.632091"/>
     <use style="fill:#da8bc3;stroke:#ffffff;stroke-linejoin:miter;stroke-width:0.75;" x="294.188176" xlink:href="#m9bf4664b91" y="219.656222"/>
     <use style="fill:#da8bc3;stroke:#ffffff;stroke-linejoin:miter;stroke-width:0.75;" x="315.547028" xlink:href="#m9bf4664b91" y="213.766731"/>
     <use style="fill:#da8bc3;stroke:#ffffff;stroke-linejoin:miter;stroke-width:0.75;" x="336.905879" xlink:href="#m9bf4664b91" y="204.798643"/>
     <use style="fill:#da8bc3;stroke:#ffffff;stroke-linejoin:miter;stroke-width:0.75;" x="358.264731" xlink:href="#m9bf4664b91" y="195.562851"/>
     <use style="fill:#da8bc3;stroke:#ffffff;stroke-linejoin:miter;stroke-width:0.75;" x="379.623583" xlink:href="#m9bf4664b91" y="174.280373"/>
     <use style="fill:#da8bc3;stroke:#ffffff;stroke-linejoin:miter;stroke-width:0.75;" x="400.982434" xlink:href="#m9bf4664b91" y="281.76358"/>
     <use style="fill:#da8bc3;stroke:#ffffff;stroke-linejoin:miter;stroke-width:0.75;" x="422.341286" xlink:href="#m9bf4664b91" y="281.76358"/>
     <use style="fill:#da8bc3;stroke:#ffffff;stroke-linejoin:miter;stroke-width:0.75;" x="443.700138" xlink:href="#m9bf4664b91" y="281.76358"/>
     <use style="fill:#da8bc3;stroke:#ffffff;stroke-linejoin:miter;stroke-width:0.75;" x="465.058989" xlink:href="#m9bf4664b91" y="47.254764"/>
     <use style="fill:#da8bc3;stroke:#ffffff;stroke-linejoin:miter;stroke-width:0.75;" x="486.417841" xlink:href="#m9bf4664b91" y="34.67267"/>
    </g>
   </g>
   <g id="line2d_36">
    <path clip-path="url(#p099132f77f)" d="M 80.599659 281.362023 
L 101.958511 280.291207 
L 123.317362 280.023503 
L 144.676214 279.621947 
L 166.035066 278.818834 
L 187.393917 277.212609 
L 208.752769 275.338681 
L 230.111621 274.401716 
L 251.470472 268.512225 
L 272.829324 265.165924 
L 294.188176 261.551918 
L 315.547028 255.394723 
L 336.905879 251.245309 
L 358.264731 246.560487 
L 379.623583 238.529363 
L 400.982434 231.033648 
L 422.341286 227.28579 
L 443.700138 223.537932 
L 465.058989 214.703696 
L 486.417841 208.278797 
" style="fill:none;stroke:#8c8c8c;stroke-dasharray:2.5,6.25,7.5,3;stroke-dashoffset:0;stroke-width:2.5;"/>
    <defs>
     <path d="M 0 -3 
L -2.85317 -0.927051 
L -1.763356 2.427051 
L 1.763356 2.427051 
L 2.85317 -0.927051 
z
" id="m9850fb0276" style="stroke:#ffffff;stroke-linejoin:miter;stroke-width:0.75;"/>
    </defs>
    <g clip-path="url(#p099132f77f)">
     <use style="fill:#8c8c8c;stroke:#ffffff;stroke-linejoin:miter;stroke-width:0.75;" x="80.599659" xlink:href="#m9850fb0276" y="281.362023"/>
     <use style="fill:#8c8c8c;stroke:#ffffff;stroke-linejoin:miter;stroke-width:0.75;" x="101.958511" xlink:href="#m9850fb0276" y="280.291207"/>
     <use style="fill:#8c8c8c;stroke:#ffffff;stroke-linejoin:miter;stroke-width:0.75;" x="123.317362" xlink:href="#m9850fb0276" y="280.023503"/>
     <use style="fill:#8c8c8c;stroke:#ffffff;stroke-linejoin:miter;stroke-width:0.75;" x="144.676214" xlink:href="#m9850fb0276" y="279.621947"/>
     <use style="fill:#8c8c8c;stroke:#ffffff;stroke-linejoin:miter;stroke-width:0.75;" x="166.035066" xlink:href="#m9850fb0276" y="278.818834"/>
     <use style="fill:#8c8c8c;stroke:#ffffff;stroke-linejoin:miter;stroke-width:0.75;" x="187.393917" xlink:href="#m9850fb0276" y="277.212609"/>
     <use style="fill:#8c8c8c;stroke:#ffffff;stroke-linejoin:miter;stroke-width:0.75;" x="208.752769" xlink:href="#m9850fb0276" y="275.338681"/>
     <use style="fill:#8c8c8c;stroke:#ffffff;stroke-linejoin:miter;stroke-width:0.75;" x="230.111621" xlink:href="#m9850fb0276" y="274.401716"/>
     <use style="fill:#8c8c8c;stroke:#ffffff;stroke-linejoin:miter;stroke-width:0.75;" x="251.470472" xlink:href="#m9850fb0276" y="268.512225"/>
     <use style="fill:#8c8c8c;stroke:#ffffff;stroke-linejoin:miter;stroke-width:0.75;" x="272.829324" xlink:href="#m9850fb0276" y="265.165924"/>
     <use style="fill:#8c8c8c;stroke:#ffffff;stroke-linejoin:miter;stroke-width:0.75;" x="294.188176" xlink:href="#m9850fb0276" y="261.551918"/>
     <use style="fill:#8c8c8c;stroke:#ffffff;stroke-linejoin:miter;stroke-width:0.75;" x="315.547028" xlink:href="#m9850fb0276" y="255.394723"/>
     <use style="fill:#8c8c8c;stroke:#ffffff;stroke-linejoin:miter;stroke-width:0.75;" x="336.905879" xlink:href="#m9850fb0276" y="251.245309"/>
     <use style="fill:#8c8c8c;stroke:#ffffff;stroke-linejoin:miter;stroke-width:0.75;" x="358.264731" xlink:href="#m9850fb0276" y="246.560487"/>
     <use style="fill:#8c8c8c;stroke:#ffffff;stroke-linejoin:miter;stroke-width:0.75;" x="379.623583" xlink:href="#m9850fb0276" y="238.529363"/>
     <use style="fill:#8c8c8c;stroke:#ffffff;stroke-linejoin:miter;stroke-width:0.75;" x="400.982434" xlink:href="#m9850fb0276" y="231.033648"/>
     <use style="fill:#8c8c8c;stroke:#ffffff;stroke-linejoin:miter;stroke-width:0.75;" x="422.341286" xlink:href="#m9850fb0276" y="227.28579"/>
     <use style="fill:#8c8c8c;stroke:#ffffff;stroke-linejoin:miter;stroke-width:0.75;" x="443.700138" xlink:href="#m9850fb0276" y="223.537932"/>
     <use style="fill:#8c8c8c;stroke:#ffffff;stroke-linejoin:miter;stroke-width:0.75;" x="465.058989" xlink:href="#m9850fb0276" y="214.703696"/>
     <use style="fill:#8c8c8c;stroke:#ffffff;stroke-linejoin:miter;stroke-width:0.75;" x="486.417841" xlink:href="#m9850fb0276" y="208.278797"/>
    </g>
   </g>
   <g id="line2d_37">
    <path clip-path="url(#p099132f77f)" d="M 80.599659 277.078757 
L 101.958511 276.007941 
L 123.317362 275.070976 
L 144.676214 272.929343 
L 166.035066 270.78771 
L 187.393917 268.244521 
L 208.752769 265.433628 
L 230.111621 264.630515 
L 251.470472 259.544137 
L 272.829324 253.788498 
L 294.188176 250.442197 
L 315.547028 242.143369 
L 336.905879 233.710689 
L 358.264731 227.821198 
L 379.623583 218.049997 
L 400.982434 199.176856 
L 422.341286 187.799431 
L 443.700138 171.335627 
L 465.058989 147.50996 
L 486.417841 141.754321 
" style="fill:none;stroke:#ccb974;stroke-dasharray:5,6.25,7.5,3;stroke-dashoffset:0;stroke-width:2.5;"/>
    <defs>
     <path d="M 0 -3 
L -0.673542 -0.927051 
L -2.85317 -0.927051 
L -1.089814 0.354102 
L -1.763356 2.427051 
L -0 1.145898 
L 1.763356 2.427051 
L 1.089814 0.354102 
L 2.85317 -0.927051 
L 0.673542 -0.927051 
z
" id="mc169e009c9" style="stroke:#ffffff;stroke-linejoin:bevel;stroke-width:0.75;"/>
    </defs>
    <g clip-path="url(#p099132f77f)">
     <use style="fill:#ccb974;stroke:#ffffff;stroke-linejoin:bevel;stroke-width:0.75;" x="80.599659" xlink:href="#mc169e009c9" y="277.078757"/>
     <use style="fill:#ccb974;stroke:#ffffff;stroke-linejoin:bevel;stroke-width:0.75;" x="101.958511" xlink:href="#mc169e009c9" y="276.007941"/>
     <use style="fill:#ccb974;stroke:#ffffff;stroke-linejoin:bevel;stroke-width:0.75;" x="123.317362" xlink:href="#mc169e009c9" y="275.070976"/>
     <use style="fill:#ccb974;stroke:#ffffff;stroke-linejoin:bevel;stroke-width:0.75;" x="144.676214" xlink:href="#mc169e009c9" y="272.929343"/>
     <use style="fill:#ccb974;stroke:#ffffff;stroke-linejoin:bevel;stroke-width:0.75;" x="166.035066" xlink:href="#mc169e009c9" y="270.78771"/>
     <use style="fill:#ccb974;stroke:#ffffff;stroke-linejoin:bevel;stroke-width:0.75;" x="187.393917" xlink:href="#mc169e009c9" y="268.244521"/>
     <use style="fill:#ccb974;stroke:#ffffff;stroke-linejoin:bevel;stroke-width:0.75;" x="208.752769" xlink:href="#mc169e009c9" y="265.433628"/>
     <use style="fill:#ccb974;stroke:#ffffff;stroke-linejoin:bevel;stroke-width:0.75;" x="230.111621" xlink:href="#mc169e009c9" y="264.630515"/>
     <use style="fill:#ccb974;stroke:#ffffff;stroke-linejoin:bevel;stroke-width:0.75;" x="251.470472" xlink:href="#mc169e009c9" y="259.544137"/>
     <use style="fill:#ccb974;stroke:#ffffff;stroke-linejoin:bevel;stroke-width:0.75;" x="272.829324" xlink:href="#mc169e009c9" y="253.788498"/>
     <use style="fill:#ccb974;stroke:#ffffff;stroke-linejoin:bevel;stroke-width:0.75;" x="294.188176" xlink:href="#mc169e009c9" y="250.442197"/>
     <use style="fill:#ccb974;stroke:#ffffff;stroke-linejoin:bevel;stroke-width:0.75;" x="315.547028" xlink:href="#mc169e009c9" y="242.143369"/>
     <use style="fill:#ccb974;stroke:#ffffff;stroke-linejoin:bevel;stroke-width:0.75;" x="336.905879" xlink:href="#mc169e009c9" y="233.710689"/>
     <use style="fill:#ccb974;stroke:#ffffff;stroke-linejoin:bevel;stroke-width:0.75;" x="358.264731" xlink:href="#mc169e009c9" y="227.821198"/>
     <use style="fill:#ccb974;stroke:#ffffff;stroke-linejoin:bevel;stroke-width:0.75;" x="379.623583" xlink:href="#mc169e009c9" y="218.049997"/>
     <use style="fill:#ccb974;stroke:#ffffff;stroke-linejoin:bevel;stroke-width:0.75;" x="400.982434" xlink:href="#mc169e009c9" y="199.176856"/>
     <use style="fill:#ccb974;stroke:#ffffff;stroke-linejoin:bevel;stroke-width:0.75;" x="422.341286" xlink:href="#mc169e009c9" y="187.799431"/>
     <use style="fill:#ccb974;stroke:#ffffff;stroke-linejoin:bevel;stroke-width:0.75;" x="443.700138" xlink:href="#mc169e009c9" y="171.335627"/>
     <use style="fill:#ccb974;stroke:#ffffff;stroke-linejoin:bevel;stroke-width:0.75;" x="465.058989" xlink:href="#mc169e009c9" y="147.50996"/>
     <use style="fill:#ccb974;stroke:#ffffff;stroke-linejoin:bevel;stroke-width:0.75;" x="486.417841" xlink:href="#mc169e009c9" y="141.754321"/>
    </g>
   </g>
   <g id="line2d_38"/>
   <g id="line2d_39"/>
   <g id="line2d_40"/>
   <g id="line2d_41"/>
   <g id="line2d_42"/>
   <g id="line2d_43"/>
   <g id="line2d_44"/>
   <g id="line2d_45"/>
   <g id="line2d_46"/>
   <g id="patch_3">
    <path d="M 60.30875 294.118125 
L 60.30875 22.318125 
" style="fill:none;stroke:#cccccc;stroke-linecap:square;stroke-linejoin:miter;stroke-width:1.25;"/>
   </g>
   <g id="patch_4">
    <path d="M 506.70875 294.118125 
L 506.70875 22.318125 
" style="fill:none;stroke:#cccccc;stroke-linecap:square;stroke-linejoin:miter;stroke-width:1.25;"/>
   </g>
   <g id="patch_5">
    <path d="M 60.30875 294.118125 
L 506.70875 294.118125 
" style="fill:none;stroke:#cccccc;stroke-linecap:square;stroke-linejoin:miter;stroke-width:1.25;"/>
   </g>
   <g id="patch_6">
    <path d="M 60.30875 22.318125 
L 506.70875 22.318125 
" style="fill:none;stroke:#cccccc;stroke-linecap:square;stroke-linejoin:miter;stroke-width:1.25;"/>
   </g>
   <g id="text_39">
    <!-- Bestätigte Fälle von Bundesland -->
    <defs>
     <path d="M 2.984375 54.6875 
L 12.5 54.6875 
L 29.59375 8.796875 
L 46.6875 54.6875 
L 56.203125 54.6875 
L 35.6875 0 
L 23.484375 0 
z
" id="DejaVuSans-118"/>
     <path d="M 30.609375 48.390625 
Q 23.390625 48.390625 19.1875 42.75 
Q 14.984375 37.109375 14.984375 27.296875 
Q 14.984375 17.484375 19.15625 11.84375 
Q 23.34375 6.203125 30.609375 6.203125 
Q 37.796875 6.203125 41.984375 11.859375 
Q 46.1875 17.53125 46.1875 27.296875 
Q 46.1875 37.015625 41.984375 42.703125 
Q 37.796875 48.390625 30.609375 48.390625 
z
M 30.609375 56 
Q 42.328125 56 49.015625 48.375 
Q 55.71875 40.765625 55.71875 27.296875 
Q 55.71875 13.875 49.015625 6.21875 
Q 42.328125 -1.421875 30.609375 -1.421875 
Q 18.84375 -1.421875 12.171875 6.21875 
Q 5.515625 13.875 5.515625 27.296875 
Q 5.515625 40.765625 12.171875 48.375 
Q 18.84375 56 30.609375 56 
z
" id="DejaVuSans-111"/>
     <path d="M 54.890625 33.015625 
L 54.890625 0 
L 45.90625 0 
L 45.90625 32.71875 
Q 45.90625 40.484375 42.875 44.328125 
Q 39.84375 48.1875 33.796875 48.1875 
Q 26.515625 48.1875 22.3125 43.546875 
Q 18.109375 38.921875 18.109375 30.90625 
L 18.109375 0 
L 9.078125 0 
L 9.078125 54.6875 
L 18.109375 54.6875 
L 18.109375 46.1875 
Q 21.34375 51.125 25.703125 53.5625 
Q 30.078125 56 35.796875 56 
Q 45.21875 56 50.046875 50.171875 
Q 54.890625 44.34375 54.890625 33.015625 
z
" id="DejaVuSans-110"/>
     <path d="M 45.40625 46.390625 
L 45.40625 75.984375 
L 54.390625 75.984375 
L 54.390625 0 
L 45.40625 0 
L 45.40625 8.203125 
Q 42.578125 3.328125 38.25 0.953125 
Q 33.9375 -1.421875 27.875 -1.421875 
Q 17.96875 -1.421875 11.734375 6.484375 
Q 5.515625 14.40625 5.515625 27.296875 
Q 5.515625 40.1875 11.734375 48.09375 
Q 17.96875 56 27.875 56 
Q 33.9375 56 38.25 53.625 
Q 42.578125 51.265625 45.40625 46.390625 
z
M 14.796875 27.296875 
Q 14.796875 17.390625 18.875 11.75 
Q 22.953125 6.109375 30.078125 6.109375 
Q 37.203125 6.109375 41.296875 11.75 
Q 45.40625 17.390625 45.40625 27.296875 
Q 45.40625 37.203125 41.296875 42.84375 
Q 37.203125 48.484375 30.078125 48.484375 
Q 22.953125 48.484375 18.875 42.84375 
Q 14.796875 37.203125 14.796875 27.296875 
z
" id="DejaVuSans-100"/>
    </defs>
    <g style="fill:#262626;" transform="translate(187.018438 16.318125)scale(0.12 -0.12)">
     <use xlink:href="#DejaVuSans-66"/>
     <use x="68.603516" xlink:href="#DejaVuSans-101"/>
     <use x="130.126953" xlink:href="#DejaVuSans-115"/>
     <use x="182.226562" xlink:href="#DejaVuSans-116"/>
     <use x="221.435547" xlink:href="#DejaVuSans-228"/>
     <use x="282.714844" xlink:href="#DejaVuSans-116"/>
     <use x="321.923828" xlink:href="#DejaVuSans-105"/>
     <use x="349.707031" xlink:href="#DejaVuSans-103"/>
     <use x="413.183594" xlink:href="#DejaVuSans-116"/>
     <use x="452.392578" xlink:href="#DejaVuSans-101"/>
     <use x="513.916016" xlink:href="#DejaVuSans-32"/>
     <use x="545.703125" xlink:href="#DejaVuSans-70"/>
     <use x="594.097656" xlink:href="#DejaVuSans-228"/>
     <use x="655.376953" xlink:href="#DejaVuSans-108"/>
     <use x="683.160156" xlink:href="#DejaVuSans-108"/>
     <use x="710.943359" xlink:href="#DejaVuSans-101"/>
     <use x="772.466797" xlink:href="#DejaVuSans-32"/>
     <use x="804.253906" xlink:href="#DejaVuSans-118"/>
     <use x="863.433594" xlink:href="#DejaVuSans-111"/>
     <use x="924.615234" xlink:href="#DejaVuSans-110"/>
     <use x="987.994141" xlink:href="#DejaVuSans-32"/>
     <use x="1019.78125" xlink:href="#DejaVuSans-66"/>
     <use x="1088.384766" xlink:href="#DejaVuSans-117"/>
     <use x="1151.763672" xlink:href="#DejaVuSans-110"/>
     <use x="1215.142578" xlink:href="#DejaVuSans-100"/>
     <use x="1278.619141" xlink:href="#DejaVuSans-101"/>
     <use x="1340.142578" xlink:href="#DejaVuSans-115"/>
     <use x="1392.242188" xlink:href="#DejaVuSans-108"/>
     <use x="1420.025391" xlink:href="#DejaVuSans-97"/>
     <use x="1481.304688" xlink:href="#DejaVuSans-110"/>
     <use x="1544.683594" xlink:href="#DejaVuSans-100"/>
    </g>
   </g>
   <g id="legend_1">
    <g id="patch_7">
     <path d="M 553.54875 170.931562 
L 679.818437 170.931562 
Q 682.018438 170.931562 682.018438 168.731562 
L 682.018438 24.518125 
Q 682.018438 22.318125 679.818437 22.318125 
L 553.54875 22.318125 
Q 551.34875 22.318125 551.34875 24.518125 
L 551.34875 168.731562 
Q 551.34875 170.931562 553.54875 170.931562 
z
" style="fill:#ffffff;opacity:0.8;stroke:#cccccc;stroke-linejoin:miter;"/>
    </g>
    <g id="line2d_47">
     <path d="M 555.74875 31.226406 
L 577.74875 31.226406 
" style="fill:none;stroke:#4c72b0;stroke-linecap:round;stroke-width:1.5;"/>
    </g>
    <g id="line2d_48">
     <defs>
      <path d="M 0 3 
C 0.795609 3 1.55874 2.683901 2.12132 2.12132 
C 2.683901 1.55874 3 0.795609 3 0 
C 3 -0.795609 2.683901 -1.55874 2.12132 -2.12132 
C 1.55874 -2.683901 0.795609 -3 0 -3 
C -0.795609 -3 -1.55874 -2.683901 -2.12132 -2.12132 
C -2.683901 -1.55874 -3 -0.795609 -3 0 
C -3 0.795609 -2.683901 1.55874 -2.12132 2.12132 
C -1.55874 2.683901 -0.795609 3 0 3 
z
" id="m969c5dfcc7" style="stroke:#4c72b0;"/>
     </defs>
     <g>
      <use style="fill:#4c72b0;stroke:#4c72b0;" x="566.74875" xlink:href="#m969c5dfcc7" y="31.226406"/>
     </g>
    </g>
    <g id="text_40">
     <!-- Burgenland -->
     <g style="fill:#262626;" transform="translate(586.54875 35.076406)scale(0.11 -0.11)">
      <use xlink:href="#DejaVuSans-66"/>
      <use x="68.603516" xlink:href="#DejaVuSans-117"/>
      <use x="131.982422" xlink:href="#DejaVuSans-114"/>
      <use x="171.345703" xlink:href="#DejaVuSans-103"/>
      <use x="234.822266" xlink:href="#DejaVuSans-101"/>
      <use x="296.345703" xlink:href="#DejaVuSans-110"/>
      <use x="359.724609" xlink:href="#DejaVuSans-108"/>
      <use x="387.507812" xlink:href="#DejaVuSans-97"/>
      <use x="448.787109" xlink:href="#DejaVuSans-110"/>
      <use x="512.166016" xlink:href="#DejaVuSans-100"/>
     </g>
    </g>
    <g id="line2d_49">
     <path d="M 555.74875 47.372344 
L 577.74875 47.372344 
" style="fill:none;stroke:#dd8452;stroke-dasharray:6,2.25;stroke-dashoffset:0;stroke-width:1.5;"/>
    </g>
    <g id="line2d_50">
     <defs>
      <path d="M -0 3 
L 3 -3 
L -3 -3 
z
" id="m24e995a795" style="stroke:#dd8452;stroke-linejoin:miter;"/>
     </defs>
     <g>
      <use style="fill:#dd8452;stroke:#dd8452;stroke-linejoin:miter;" x="566.74875" xlink:href="#m24e995a795" y="47.372344"/>
     </g>
    </g>
    <g id="text_41">
     <!-- Kärnten -->
     <defs>
      <path d="M 9.8125 72.90625 
L 19.671875 72.90625 
L 19.671875 42.09375 
L 52.390625 72.90625 
L 65.09375 72.90625 
L 28.90625 38.921875 
L 67.671875 0 
L 54.6875 0 
L 19.671875 35.109375 
L 19.671875 0 
L 9.8125 0 
z
" id="DejaVuSans-75"/>
     </defs>
     <g style="fill:#262626;" transform="translate(586.54875 51.222344)scale(0.11 -0.11)">
      <use xlink:href="#DejaVuSans-75"/>
      <use x="63.826172" xlink:href="#DejaVuSans-228"/>
      <use x="125.105469" xlink:href="#DejaVuSans-114"/>
      <use x="164.46875" xlink:href="#DejaVuSans-110"/>
      <use x="227.847656" xlink:href="#DejaVuSans-116"/>
      <use x="267.056641" xlink:href="#DejaVuSans-101"/>
      <use x="328.580078" xlink:href="#DejaVuSans-110"/>
     </g>
    </g>
    <g id="line2d_51">
     <path d="M 555.74875 63.518281 
L 577.74875 63.518281 
" style="fill:none;stroke:#55a868;stroke-dasharray:1.5,1.5;stroke-dashoffset:0;stroke-width:1.5;"/>
    </g>
    <g id="line2d_52">
     <defs>
      <path d="M 0 -3 
L -3 3 
L 3 3 
z
" id="mb67664637e" style="stroke:#55a868;stroke-linejoin:miter;"/>
     </defs>
     <g>
      <use style="fill:#55a868;stroke:#55a868;stroke-linejoin:miter;" x="566.74875" xlink:href="#mb67664637e" y="63.518281"/>
     </g>
    </g>
    <g id="text_42">
     <!-- Niederösterreich -->
     <defs>
      <path d="M 9.8125 72.90625 
L 23.09375 72.90625 
L 55.421875 11.921875 
L 55.421875 72.90625 
L 64.984375 72.90625 
L 64.984375 0 
L 51.703125 0 
L 19.390625 60.984375 
L 19.390625 0 
L 9.8125 0 
z
" id="DejaVuSans-78"/>
      <path d="M 30.609375 48.390625 
Q 23.390625 48.390625 19.1875 42.75 
Q 14.984375 37.109375 14.984375 27.296875 
Q 14.984375 17.484375 19.15625 11.84375 
Q 23.34375 6.203125 30.609375 6.203125 
Q 37.796875 6.203125 41.984375 11.859375 
Q 46.1875 17.53125 46.1875 27.296875 
Q 46.1875 37.015625 41.984375 42.703125 
Q 37.796875 48.390625 30.609375 48.390625 
z
M 30.609375 56 
Q 42.328125 56 49.015625 48.375 
Q 55.71875 40.765625 55.71875 27.296875 
Q 55.71875 13.875 49.015625 6.21875 
Q 42.328125 -1.421875 30.609375 -1.421875 
Q 18.84375 -1.421875 12.171875 6.21875 
Q 5.515625 13.875 5.515625 27.296875 
Q 5.515625 40.765625 12.171875 48.375 
Q 18.84375 56 30.609375 56 
z
M 35.21875 75.78125 
L 45.125 75.78125 
L 45.125 65.921875 
L 35.21875 65.921875 
z
M 16.125 75.78125 
L 26.03125 75.78125 
L 26.03125 65.921875 
L 16.125 65.921875 
z
" id="DejaVuSans-246"/>
      <path d="M 48.78125 52.59375 
L 48.78125 44.1875 
Q 44.96875 46.296875 41.140625 47.34375 
Q 37.3125 48.390625 33.40625 48.390625 
Q 24.65625 48.390625 19.8125 42.84375 
Q 14.984375 37.3125 14.984375 27.296875 
Q 14.984375 17.28125 19.8125 11.734375 
Q 24.65625 6.203125 33.40625 6.203125 
Q 37.3125 6.203125 41.140625 7.25 
Q 44.96875 8.296875 48.78125 10.40625 
L 48.78125 2.09375 
Q 45.015625 0.34375 40.984375 -0.53125 
Q 36.96875 -1.421875 32.421875 -1.421875 
Q 20.0625 -1.421875 12.78125 6.34375 
Q 5.515625 14.109375 5.515625 27.296875 
Q 5.515625 40.671875 12.859375 48.328125 
Q 20.21875 56 33.015625 56 
Q 37.15625 56 41.109375 55.140625 
Q 45.0625 54.296875 48.78125 52.59375 
z
" id="DejaVuSans-99"/>
      <path d="M 54.890625 33.015625 
L 54.890625 0 
L 45.90625 0 
L 45.90625 32.71875 
Q 45.90625 40.484375 42.875 44.328125 
Q 39.84375 48.1875 33.796875 48.1875 
Q 26.515625 48.1875 22.3125 43.546875 
Q 18.109375 38.921875 18.109375 30.90625 
L 18.109375 0 
L 9.078125 0 
L 9.078125 75.984375 
L 18.109375 75.984375 
L 18.109375 46.1875 
Q 21.34375 51.125 25.703125 53.5625 
Q 30.078125 56 35.796875 56 
Q 45.21875 56 50.046875 50.171875 
Q 54.890625 44.34375 54.890625 33.015625 
z
" id="DejaVuSans-104"/>
     </defs>
     <g style="fill:#262626;" transform="translate(586.54875 67.368281)scale(0.11 -0.11)">
      <use xlink:href="#DejaVuSans-78"/>
      <use x="74.804688" xlink:href="#DejaVuSans-105"/>
      <use x="102.587891" xlink:href="#DejaVuSans-101"/>
      <use x="164.111328" xlink:href="#DejaVuSans-100"/>
      <use x="227.587891" xlink:href="#DejaVuSans-101"/>
      <use x="289.111328" xlink:href="#DejaVuSans-114"/>
      <use x="327.974609" xlink:href="#DejaVuSans-246"/>
      <use x="389.15625" xlink:href="#DejaVuSans-115"/>
      <use x="441.255859" xlink:href="#DejaVuSans-116"/>
      <use x="480.464844" xlink:href="#DejaVuSans-101"/>
      <use x="541.988281" xlink:href="#DejaVuSans-114"/>
      <use x="581.351562" xlink:href="#DejaVuSans-114"/>
      <use x="620.214844" xlink:href="#DejaVuSans-101"/>
      <use x="681.738281" xlink:href="#DejaVuSans-105"/>
      <use x="709.521484" xlink:href="#DejaVuSans-99"/>
      <use x="764.501953" xlink:href="#DejaVuSans-104"/>
     </g>
    </g>
    <g id="line2d_53">
     <path d="M 555.74875 79.664219 
L 577.74875 79.664219 
" style="fill:none;stroke:#c44e52;stroke-dasharray:4.5,1.5,2.25,1.5;stroke-dashoffset:0;stroke-width:1.5;"/>
    </g>
    <g id="line2d_54">
     <defs>
      <path d="M -3 -0 
L 3 3 
L 3 -3 
z
" id="m36a16c92d2" style="stroke:#c44e52;stroke-linejoin:miter;"/>
     </defs>
     <g>
      <use style="fill:#c44e52;stroke:#c44e52;stroke-linejoin:miter;" x="566.74875" xlink:href="#m36a16c92d2" y="79.664219"/>
     </g>
    </g>
    <g id="text_43">
     <!-- Oberösterreich -->
     <defs>
      <path d="M 39.40625 66.21875 
Q 28.65625 66.21875 22.328125 58.203125 
Q 16.015625 50.203125 16.015625 36.375 
Q 16.015625 22.609375 22.328125 14.59375 
Q 28.65625 6.59375 39.40625 6.59375 
Q 50.140625 6.59375 56.421875 14.59375 
Q 62.703125 22.609375 62.703125 36.375 
Q 62.703125 50.203125 56.421875 58.203125 
Q 50.140625 66.21875 39.40625 66.21875 
z
M 39.40625 74.21875 
Q 54.734375 74.21875 63.90625 63.9375 
Q 73.09375 53.65625 73.09375 36.375 
Q 73.09375 19.140625 63.90625 8.859375 
Q 54.734375 -1.421875 39.40625 -1.421875 
Q 24.03125 -1.421875 14.8125 8.828125 
Q 5.609375 19.09375 5.609375 36.375 
Q 5.609375 53.65625 14.8125 63.9375 
Q 24.03125 74.21875 39.40625 74.21875 
z
" id="DejaVuSans-79"/>
      <path d="M 48.6875 27.296875 
Q 48.6875 37.203125 44.609375 42.84375 
Q 40.53125 48.484375 33.40625 48.484375 
Q 26.265625 48.484375 22.1875 42.84375 
Q 18.109375 37.203125 18.109375 27.296875 
Q 18.109375 17.390625 22.1875 11.75 
Q 26.265625 6.109375 33.40625 6.109375 
Q 40.53125 6.109375 44.609375 11.75 
Q 48.6875 17.390625 48.6875 27.296875 
z
M 18.109375 46.390625 
Q 20.953125 51.265625 25.265625 53.625 
Q 29.59375 56 35.59375 56 
Q 45.5625 56 51.78125 48.09375 
Q 58.015625 40.1875 58.015625 27.296875 
Q 58.015625 14.40625 51.78125 6.484375 
Q 45.5625 -1.421875 35.59375 -1.421875 
Q 29.59375 -1.421875 25.265625 0.953125 
Q 20.953125 3.328125 18.109375 8.203125 
L 18.109375 0 
L 9.078125 0 
L 9.078125 75.984375 
L 18.109375 75.984375 
z
" id="DejaVuSans-98"/>
     </defs>
     <g style="fill:#262626;" transform="translate(586.54875 83.514219)scale(0.11 -0.11)">
      <use xlink:href="#DejaVuSans-79"/>
      <use x="78.710938" xlink:href="#DejaVuSans-98"/>
      <use x="142.1875" xlink:href="#DejaVuSans-101"/>
      <use x="203.710938" xlink:href="#DejaVuSans-114"/>
      <use x="242.574219" xlink:href="#DejaVuSans-246"/>
      <use x="303.755859" xlink:href="#DejaVuSans-115"/>
      <use x="355.855469" xlink:href="#DejaVuSans-116"/>
      <use x="395.064453" xlink:href="#DejaVuSans-101"/>
      <use x="456.587891" xlink:href="#DejaVuSans-114"/>
      <use x="495.951172" xlink:href="#DejaVuSans-114"/>
      <use x="534.814453" xlink:href="#DejaVuSans-101"/>
      <use x="596.337891" xlink:href="#DejaVuSans-105"/>
      <use x="624.121094" xlink:href="#DejaVuSans-99"/>
      <use x="679.101562" xlink:href="#DejaVuSans-104"/>
     </g>
    </g>
    <g id="line2d_55">
     <path d="M 555.74875 95.810156 
L 577.74875 95.810156 
" style="fill:none;stroke:#8172b3;stroke-dasharray:7.5,1.5,1.5,1.5;stroke-dashoffset:0;stroke-width:1.5;"/>
    </g>
    <g id="line2d_56">
     <defs>
      <path d="M 3 0 
L -3 -3 
L -3 3 
z
" id="m6bbd441743" style="stroke:#8172b3;stroke-linejoin:miter;"/>
     </defs>
     <g>
      <use style="fill:#8172b3;stroke:#8172b3;stroke-linejoin:miter;" x="566.74875" xlink:href="#m6bbd441743" y="95.810156"/>
     </g>
    </g>
    <g id="text_44">
     <!-- Salzburg -->
     <defs>
      <path d="M 53.515625 70.515625 
L 53.515625 60.890625 
Q 47.90625 63.578125 42.921875 64.890625 
Q 37.9375 66.21875 33.296875 66.21875 
Q 25.25 66.21875 20.875 63.09375 
Q 16.5 59.96875 16.5 54.203125 
Q 16.5 49.359375 19.40625 46.890625 
Q 22.3125 44.4375 30.421875 42.921875 
L 36.375 41.703125 
Q 47.40625 39.59375 52.65625 34.296875 
Q 57.90625 29 57.90625 20.125 
Q 57.90625 9.515625 50.796875 4.046875 
Q 43.703125 -1.421875 29.984375 -1.421875 
Q 24.8125 -1.421875 18.96875 -0.25 
Q 13.140625 0.921875 6.890625 3.21875 
L 6.890625 13.375 
Q 12.890625 10.015625 18.65625 8.296875 
Q 24.421875 6.59375 29.984375 6.59375 
Q 38.421875 6.59375 43.015625 9.90625 
Q 47.609375 13.234375 47.609375 19.390625 
Q 47.609375 24.75 44.3125 27.78125 
Q 41.015625 30.8125 33.5 32.328125 
L 27.484375 33.5 
Q 16.453125 35.6875 11.515625 40.375 
Q 6.59375 45.0625 6.59375 53.421875 
Q 6.59375 63.09375 13.40625 68.65625 
Q 20.21875 74.21875 32.171875 74.21875 
Q 37.3125 74.21875 42.625 73.28125 
Q 47.953125 72.359375 53.515625 70.515625 
z
" id="DejaVuSans-83"/>
      <path d="M 5.515625 54.6875 
L 48.1875 54.6875 
L 48.1875 46.484375 
L 14.40625 7.171875 
L 48.1875 7.171875 
L 48.1875 0 
L 4.296875 0 
L 4.296875 8.203125 
L 38.09375 47.515625 
L 5.515625 47.515625 
z
" id="DejaVuSans-122"/>
     </defs>
     <g style="fill:#262626;" transform="translate(586.54875 99.660156)scale(0.11 -0.11)">
      <use xlink:href="#DejaVuSans-83"/>
      <use x="63.476562" xlink:href="#DejaVuSans-97"/>
      <use x="124.755859" xlink:href="#DejaVuSans-108"/>
      <use x="152.539062" xlink:href="#DejaVuSans-122"/>
      <use x="205.029297" xlink:href="#DejaVuSans-98"/>
      <use x="268.505859" xlink:href="#DejaVuSans-117"/>
      <use x="331.884766" xlink:href="#DejaVuSans-114"/>
      <use x="371.248047" xlink:href="#DejaVuSans-103"/>
     </g>
    </g>
    <g id="line2d_57">
     <path d="M 555.74875 111.956094 
L 577.74875 111.956094 
" style="fill:none;stroke:#937860;stroke-dasharray:7.5,1.5,3,1.5,3,1.5;stroke-dashoffset:0;stroke-width:1.5;"/>
    </g>
    <g id="line2d_58">
     <defs>
      <path d="M -1.14805 -2.771639 
L -2.771639 -1.14805 
L -2.771639 1.14805 
L -1.14805 2.771639 
L 1.14805 2.771639 
L 2.771639 1.14805 
L 2.771639 -1.14805 
L 1.14805 -2.771639 
z
" id="m1f880ea998" style="stroke:#937860;stroke-linejoin:miter;"/>
     </defs>
     <g>
      <use style="fill:#937860;stroke:#937860;stroke-linejoin:miter;" x="566.74875" xlink:href="#m1f880ea998" y="111.956094"/>
     </g>
    </g>
    <g id="text_45">
     <!-- Steiermark -->
     <defs>
      <path d="M 9.078125 75.984375 
L 18.109375 75.984375 
L 18.109375 31.109375 
L 44.921875 54.6875 
L 56.390625 54.6875 
L 27.390625 29.109375 
L 57.625 0 
L 45.90625 0 
L 18.109375 26.703125 
L 18.109375 0 
L 9.078125 0 
z
" id="DejaVuSans-107"/>
     </defs>
     <g style="fill:#262626;" transform="translate(586.54875 115.806094)scale(0.11 -0.11)">
      <use xlink:href="#DejaVuSans-83"/>
      <use x="63.476562" xlink:href="#DejaVuSans-116"/>
      <use x="102.685547" xlink:href="#DejaVuSans-101"/>
      <use x="164.208984" xlink:href="#DejaVuSans-105"/>
      <use x="191.992188" xlink:href="#DejaVuSans-101"/>
      <use x="253.515625" xlink:href="#DejaVuSans-114"/>
      <use x="292.878906" xlink:href="#DejaVuSans-109"/>
      <use x="390.291016" xlink:href="#DejaVuSans-97"/>
      <use x="451.570312" xlink:href="#DejaVuSans-114"/>
      <use x="492.683594" xlink:href="#DejaVuSans-107"/>
     </g>
    </g>
    <g id="line2d_59">
     <path d="M 555.74875 128.102031 
L 577.74875 128.102031 
" style="fill:none;stroke:#da8bc3;stroke-dasharray:3,3,4.5,2.25;stroke-dashoffset:0;stroke-width:1.5;"/>
    </g>
    <g id="line2d_60">
     <defs>
      <path d="M -3 3 
L 3 3 
L 3 -3 
L -3 -3 
z
" id="m2219ce0f39" style="stroke:#da8bc3;stroke-linejoin:miter;"/>
     </defs>
     <g>
      <use style="fill:#da8bc3;stroke:#da8bc3;stroke-linejoin:miter;" x="566.74875" xlink:href="#m2219ce0f39" y="128.102031"/>
     </g>
    </g>
    <g id="text_46">
     <!-- Tirol -->
     <defs>
      <path d="M -0.296875 72.90625 
L 61.375 72.90625 
L 61.375 64.59375 
L 35.5 64.59375 
L 35.5 0 
L 25.59375 0 
L 25.59375 64.59375 
L -0.296875 64.59375 
z
" id="DejaVuSans-84"/>
     </defs>
     <g style="fill:#262626;" transform="translate(586.54875 131.952031)scale(0.11 -0.11)">
      <use xlink:href="#DejaVuSans-84"/>
      <use x="57.958984" xlink:href="#DejaVuSans-105"/>
      <use x="85.742188" xlink:href="#DejaVuSans-114"/>
      <use x="124.605469" xlink:href="#DejaVuSans-111"/>
      <use x="185.787109" xlink:href="#DejaVuSans-108"/>
     </g>
    </g>
    <g id="line2d_61">
     <path d="M 555.74875 144.247969 
L 577.74875 144.247969 
" style="fill:none;stroke:#8c8c8c;stroke-dasharray:1.5,3.75,4.5,1.8;stroke-dashoffset:0;stroke-width:1.5;"/>
    </g>
    <g id="line2d_62">
     <defs>
      <path d="M 0 -3 
L -2.85317 -0.927051 
L -1.763356 2.427051 
L 1.763356 2.427051 
L 2.85317 -0.927051 
z
" id="mbd9abadd14" style="stroke:#8c8c8c;stroke-linejoin:miter;"/>
     </defs>
     <g>
      <use style="fill:#8c8c8c;stroke:#8c8c8c;stroke-linejoin:miter;" x="566.74875" xlink:href="#mbd9abadd14" y="144.247969"/>
     </g>
    </g>
    <g id="text_47">
     <!-- Vorarlberg -->
     <defs>
      <path d="M 28.609375 0 
L 0.78125 72.90625 
L 11.078125 72.90625 
L 34.1875 11.53125 
L 57.328125 72.90625 
L 67.578125 72.90625 
L 39.796875 0 
z
" id="DejaVuSans-86"/>
     </defs>
     <g style="fill:#262626;" transform="translate(586.54875 148.097969)scale(0.11 -0.11)">
      <use xlink:href="#DejaVuSans-86"/>
      <use x="60.658203" xlink:href="#DejaVuSans-111"/>
      <use x="121.839844" xlink:href="#DejaVuSans-114"/>
      <use x="162.953125" xlink:href="#DejaVuSans-97"/>
      <use x="224.232422" xlink:href="#DejaVuSans-114"/>
      <use x="265.345703" xlink:href="#DejaVuSans-108"/>
      <use x="293.128906" xlink:href="#DejaVuSans-98"/>
      <use x="356.605469" xlink:href="#DejaVuSans-101"/>
      <use x="418.128906" xlink:href="#DejaVuSans-114"/>
      <use x="457.492188" xlink:href="#DejaVuSans-103"/>
     </g>
    </g>
    <g id="line2d_63">
     <path d="M 555.74875 160.393906 
L 577.74875 160.393906 
" style="fill:none;stroke:#ccb974;stroke-dasharray:3,3.75,4.5,1.8;stroke-dashoffset:0;stroke-width:1.5;"/>
    </g>
    <g id="line2d_64">
     <defs>
      <path d="M 0 -3 
L -0.673542 -0.927051 
L -2.85317 -0.927051 
L -1.089814 0.354102 
L -1.763356 2.427051 
L -0 1.145898 
L 1.763356 2.427051 
L 1.089814 0.354102 
L 2.85317 -0.927051 
L 0.673542 -0.927051 
z
" id="ma1385b1c2d" style="stroke:#ccb974;stroke-linejoin:bevel;"/>
     </defs>
     <g>
      <use style="fill:#ccb974;stroke:#ccb974;stroke-linejoin:bevel;" x="566.74875" xlink:href="#ma1385b1c2d" y="160.393906"/>
     </g>
    </g>
    <g id="text_48">
     <!-- Wien -->
     <defs>
      <path d="M 3.328125 72.90625 
L 13.28125 72.90625 
L 28.609375 11.28125 
L 43.890625 72.90625 
L 54.984375 72.90625 
L 70.3125 11.28125 
L 85.59375 72.90625 
L 95.609375 72.90625 
L 77.296875 0 
L 64.890625 0 
L 49.515625 63.28125 
L 33.984375 0 
L 21.578125 0 
z
" id="DejaVuSans-87"/>
     </defs>
     <g style="fill:#262626;" transform="translate(586.54875 164.243906)scale(0.11 -0.11)">
      <use xlink:href="#DejaVuSans-87"/>
      <use x="96.626953" xlink:href="#DejaVuSans-105"/>
      <use x="124.410156" xlink:href="#DejaVuSans-101"/>
      <use x="185.933594" xlink:href="#DejaVuSans-110"/>
     </g>
    </g>
   </g>
  </g>
 </g>
 <defs>
  <clipPath id="p099132f77f">
   <rect height="271.8" width="446.4" x="60.30875" y="22.318125"/>
  </clipPath>
 </defs>
</svg>
