<?xml version="1.0" encoding="utf-8" standalone="no"?>
<!DOCTYPE svg PUBLIC "-//W3C//DTD SVG 1.1//EN"
  "http://www.w3.org/Graphics/SVG/1.1/DTD/svg11.dtd">
<!-- Created with matplotlib (https://matplotlib.org/) -->
<svg height="364.679219pt" version="1.1" viewBox="0 0 682.219687 364.679219" width="682.219687pt" xmlns="http://www.w3.org/2000/svg" xmlns:xlink="http://www.w3.org/1999/xlink">
 <defs>
  <style type="text/css">
*{stroke-linecap:butt;stroke-linejoin:round;}
  </style>
 </defs>
 <g id="figure_1">
  <g id="patch_1">
   <path d="M 0 364.679219 
L 682.219687 364.679219 
L 682.219687 -0 
L 0 -0 
z
" style="fill:#ffffff;"/>
  </g>
  <g id="axes_1">
   <g id="patch_2">
    <path d="M 53.31 294.118125 
L 499.71 294.118125 
L 499.71 22.318125 
L 53.31 22.318125 
z
" style="fill:#ffffff;"/>
   </g>
   <g id="matplotlib.axis_1">
    <g id="xtick_1">
     <g id="line2d_1">
      <path clip-path="url(#pb05650f517)" d="M 73.600909 294.118125 
L 73.600909 22.318125 
" style="fill:none;stroke:#cccccc;stroke-linecap:round;"/>
     </g>
     <g id="text_1">
      <!-- Mar 09 -->
      <defs>
       <path d="M 9.8125 72.90625 
L 24.515625 72.90625 
L 43.109375 23.296875 
L 61.8125 72.90625 
L 76.515625 72.90625 
L 76.515625 0 
L 66.890625 0 
L 66.890625 64.015625 
L 48.09375 14.015625 
L 38.1875 14.015625 
L 19.390625 64.015625 
L 19.390625 0 
L 9.8125 0 
z
" id="DejaVuSans-77"/>
       <path d="M 34.28125 27.484375 
Q 23.390625 27.484375 19.1875 25 
Q 14.984375 22.515625 14.984375 16.5 
Q 14.984375 11.71875 18.140625 8.90625 
Q 21.296875 6.109375 26.703125 6.109375 
Q 34.1875 6.109375 38.703125 11.40625 
Q 43.21875 16.703125 43.21875 25.484375 
L 43.21875 27.484375 
z
M 52.203125 31.203125 
L 52.203125 0 
L 43.21875 0 
L 43.21875 8.296875 
Q 40.140625 3.328125 35.546875 0.953125 
Q 30.953125 -1.421875 24.3125 -1.421875 
Q 15.921875 -1.421875 10.953125 3.296875 
Q 6 8.015625 6 15.921875 
Q 6 25.140625 12.171875 29.828125 
Q 18.359375 34.515625 30.609375 34.515625 
L 43.21875 34.515625 
L 43.21875 35.40625 
Q 43.21875 41.609375 39.140625 45 
Q 35.0625 48.390625 27.6875 48.390625 
Q 23 48.390625 18.546875 47.265625 
Q 14.109375 46.140625 10.015625 43.890625 
L 10.015625 52.203125 
Q 14.9375 54.109375 19.578125 55.046875 
Q 24.21875 56 28.609375 56 
Q 40.484375 56 46.34375 49.84375 
Q 52.203125 43.703125 52.203125 31.203125 
z
" id="DejaVuSans-97"/>
       <path d="M 41.109375 46.296875 
Q 39.59375 47.171875 37.8125 47.578125 
Q 36.03125 48 33.890625 48 
Q 26.265625 48 22.1875 43.046875 
Q 18.109375 38.09375 18.109375 28.8125 
L 18.109375 0 
L 9.078125 0 
L 9.078125 54.6875 
L 18.109375 54.6875 
L 18.109375 46.1875 
Q 20.953125 51.171875 25.484375 53.578125 
Q 30.03125 56 36.53125 56 
Q 37.453125 56 38.578125 55.875 
Q 39.703125 55.765625 41.0625 55.515625 
z
" id="DejaVuSans-114"/>
       <path id="DejaVuSans-32"/>
       <path d="M 31.78125 66.40625 
Q 24.171875 66.40625 20.328125 58.90625 
Q 16.5 51.421875 16.5 36.375 
Q 16.5 21.390625 20.328125 13.890625 
Q 24.171875 6.390625 31.78125 6.390625 
Q 39.453125 6.390625 43.28125 13.890625 
Q 47.125 21.390625 47.125 36.375 
Q 47.125 51.421875 43.28125 58.90625 
Q 39.453125 66.40625 31.78125 66.40625 
z
M 31.78125 74.21875 
Q 44.046875 74.21875 50.515625 64.515625 
Q 56.984375 54.828125 56.984375 36.375 
Q 56.984375 17.96875 50.515625 8.265625 
Q 44.046875 -1.421875 31.78125 -1.421875 
Q 19.53125 -1.421875 13.0625 8.265625 
Q 6.59375 17.96875 6.59375 36.375 
Q 6.59375 54.828125 13.0625 64.515625 
Q 19.53125 74.21875 31.78125 74.21875 
z
" id="DejaVuSans-48"/>
       <path d="M 10.984375 1.515625 
L 10.984375 10.5 
Q 14.703125 8.734375 18.5 7.8125 
Q 22.3125 6.890625 25.984375 6.890625 
Q 35.75 6.890625 40.890625 13.453125 
Q 46.046875 20.015625 46.78125 33.40625 
Q 43.953125 29.203125 39.59375 26.953125 
Q 35.25 24.703125 29.984375 24.703125 
Q 19.046875 24.703125 12.671875 31.3125 
Q 6.296875 37.9375 6.296875 49.421875 
Q 6.296875 60.640625 12.9375 67.421875 
Q 19.578125 74.21875 30.609375 74.21875 
Q 43.265625 74.21875 49.921875 64.515625 
Q 56.59375 54.828125 56.59375 36.375 
Q 56.59375 19.140625 48.40625 8.859375 
Q 40.234375 -1.421875 26.421875 -1.421875 
Q 22.703125 -1.421875 18.890625 -0.6875 
Q 15.09375 0.046875 10.984375 1.515625 
z
M 30.609375 32.421875 
Q 37.25 32.421875 41.125 36.953125 
Q 45.015625 41.5 45.015625 49.421875 
Q 45.015625 57.28125 41.125 61.84375 
Q 37.25 66.40625 30.609375 66.40625 
Q 23.96875 66.40625 20.09375 61.84375 
Q 16.21875 57.28125 16.21875 49.421875 
Q 16.21875 41.5 20.09375 36.953125 
Q 23.96875 32.421875 30.609375 32.421875 
z
" id="DejaVuSans-57"/>
      </defs>
      <g style="fill:#262626;" transform="translate(76.636222 341.865469)rotate(-90)scale(0.11 -0.11)">
       <use xlink:href="#DejaVuSans-77"/>
       <use x="86.279297" xlink:href="#DejaVuSans-97"/>
       <use x="147.558594" xlink:href="#DejaVuSans-114"/>
       <use x="188.671875" xlink:href="#DejaVuSans-32"/>
       <use x="220.458984" xlink:href="#DejaVuSans-48"/>
       <use x="284.082031" xlink:href="#DejaVuSans-57"/>
      </g>
     </g>
    </g>
    <g id="xtick_2">
     <g id="line2d_2">
      <path clip-path="url(#pb05650f517)" d="M 110.493471 294.118125 
L 110.493471 22.318125 
" style="fill:none;stroke:#cccccc;stroke-linecap:round;"/>
     </g>
     <g id="text_2">
      <!-- Mar 10 -->
      <defs>
       <path d="M 12.40625 8.296875 
L 28.515625 8.296875 
L 28.515625 63.921875 
L 10.984375 60.40625 
L 10.984375 69.390625 
L 28.421875 72.90625 
L 38.28125 72.90625 
L 38.28125 8.296875 
L 54.390625 8.296875 
L 54.390625 0 
L 12.40625 0 
z
" id="DejaVuSans-49"/>
      </defs>
      <g style="fill:#262626;" transform="translate(113.528784 341.865469)rotate(-90)scale(0.11 -0.11)">
       <use xlink:href="#DejaVuSans-77"/>
       <use x="86.279297" xlink:href="#DejaVuSans-97"/>
       <use x="147.558594" xlink:href="#DejaVuSans-114"/>
       <use x="188.671875" xlink:href="#DejaVuSans-32"/>
       <use x="220.458984" xlink:href="#DejaVuSans-49"/>
       <use x="284.082031" xlink:href="#DejaVuSans-48"/>
      </g>
     </g>
    </g>
    <g id="xtick_3">
     <g id="line2d_3">
      <path clip-path="url(#pb05650f517)" d="M 147.386033 294.118125 
L 147.386033 22.318125 
" style="fill:none;stroke:#cccccc;stroke-linecap:round;"/>
     </g>
     <g id="text_3">
      <!-- Mar 11 -->
      <g style="fill:#262626;" transform="translate(150.421346 341.865469)rotate(-90)scale(0.11 -0.11)">
       <use xlink:href="#DejaVuSans-77"/>
       <use x="86.279297" xlink:href="#DejaVuSans-97"/>
       <use x="147.558594" xlink:href="#DejaVuSans-114"/>
       <use x="188.671875" xlink:href="#DejaVuSans-32"/>
       <use x="220.458984" xlink:href="#DejaVuSans-49"/>
       <use x="284.082031" xlink:href="#DejaVuSans-49"/>
      </g>
     </g>
    </g>
    <g id="xtick_4">
     <g id="line2d_4">
      <path clip-path="url(#pb05650f517)" d="M 184.278595 294.118125 
L 184.278595 22.318125 
" style="fill:none;stroke:#cccccc;stroke-linecap:round;"/>
     </g>
     <g id="text_4">
      <!-- Mar 12 -->
      <defs>
       <path d="M 19.1875 8.296875 
L 53.609375 8.296875 
L 53.609375 0 
L 7.328125 0 
L 7.328125 8.296875 
Q 12.9375 14.109375 22.625 23.890625 
Q 32.328125 33.6875 34.8125 36.53125 
Q 39.546875 41.84375 41.421875 45.53125 
Q 43.3125 49.21875 43.3125 52.78125 
Q 43.3125 58.59375 39.234375 62.25 
Q 35.15625 65.921875 28.609375 65.921875 
Q 23.96875 65.921875 18.8125 64.3125 
Q 13.671875 62.703125 7.8125 59.421875 
L 7.8125 69.390625 
Q 13.765625 71.78125 18.9375 73 
Q 24.125 74.21875 28.421875 74.21875 
Q 39.75 74.21875 46.484375 68.546875 
Q 53.21875 62.890625 53.21875 53.421875 
Q 53.21875 48.921875 51.53125 44.890625 
Q 49.859375 40.875 45.40625 35.40625 
Q 44.1875 33.984375 37.640625 27.21875 
Q 31.109375 20.453125 19.1875 8.296875 
z
" id="DejaVuSans-50"/>
      </defs>
      <g style="fill:#262626;" transform="translate(187.313908 341.865469)rotate(-90)scale(0.11 -0.11)">
       <use xlink:href="#DejaVuSans-77"/>
       <use x="86.279297" xlink:href="#DejaVuSans-97"/>
       <use x="147.558594" xlink:href="#DejaVuSans-114"/>
       <use x="188.671875" xlink:href="#DejaVuSans-32"/>
       <use x="220.458984" xlink:href="#DejaVuSans-49"/>
       <use x="284.082031" xlink:href="#DejaVuSans-50"/>
      </g>
     </g>
    </g>
    <g id="xtick_5">
     <g id="line2d_5">
      <path clip-path="url(#pb05650f517)" d="M 221.171157 294.118125 
L 221.171157 22.318125 
" style="fill:none;stroke:#cccccc;stroke-linecap:round;"/>
     </g>
     <g id="text_5">
      <!-- Mar 13 -->
      <defs>
       <path d="M 40.578125 39.3125 
Q 47.65625 37.796875 51.625 33 
Q 55.609375 28.21875 55.609375 21.1875 
Q 55.609375 10.40625 48.1875 4.484375 
Q 40.765625 -1.421875 27.09375 -1.421875 
Q 22.515625 -1.421875 17.65625 -0.515625 
Q 12.796875 0.390625 7.625 2.203125 
L 7.625 11.71875 
Q 11.71875 9.328125 16.59375 8.109375 
Q 21.484375 6.890625 26.8125 6.890625 
Q 36.078125 6.890625 40.9375 10.546875 
Q 45.796875 14.203125 45.796875 21.1875 
Q 45.796875 27.640625 41.28125 31.265625 
Q 36.765625 34.90625 28.71875 34.90625 
L 20.21875 34.90625 
L 20.21875 43.015625 
L 29.109375 43.015625 
Q 36.375 43.015625 40.234375 45.921875 
Q 44.09375 48.828125 44.09375 54.296875 
Q 44.09375 59.90625 40.109375 62.90625 
Q 36.140625 65.921875 28.71875 65.921875 
Q 24.65625 65.921875 20.015625 65.03125 
Q 15.375 64.15625 9.8125 62.3125 
L 9.8125 71.09375 
Q 15.4375 72.65625 20.34375 73.4375 
Q 25.25 74.21875 29.59375 74.21875 
Q 40.828125 74.21875 47.359375 69.109375 
Q 53.90625 64.015625 53.90625 55.328125 
Q 53.90625 49.265625 50.4375 45.09375 
Q 46.96875 40.921875 40.578125 39.3125 
z
" id="DejaVuSans-51"/>
      </defs>
      <g style="fill:#262626;" transform="translate(224.20647 341.865469)rotate(-90)scale(0.11 -0.11)">
       <use xlink:href="#DejaVuSans-77"/>
       <use x="86.279297" xlink:href="#DejaVuSans-97"/>
       <use x="147.558594" xlink:href="#DejaVuSans-114"/>
       <use x="188.671875" xlink:href="#DejaVuSans-32"/>
       <use x="220.458984" xlink:href="#DejaVuSans-49"/>
       <use x="284.082031" xlink:href="#DejaVuSans-51"/>
      </g>
     </g>
    </g>
    <g id="xtick_6">
     <g id="line2d_6">
      <path clip-path="url(#pb05650f517)" d="M 258.063719 294.118125 
L 258.063719 22.318125 
" style="fill:none;stroke:#cccccc;stroke-linecap:round;"/>
     </g>
     <g id="text_6">
      <!-- Mar 14 -->
      <defs>
       <path d="M 37.796875 64.3125 
L 12.890625 25.390625 
L 37.796875 25.390625 
z
M 35.203125 72.90625 
L 47.609375 72.90625 
L 47.609375 25.390625 
L 58.015625 25.390625 
L 58.015625 17.1875 
L 47.609375 17.1875 
L 47.609375 0 
L 37.796875 0 
L 37.796875 17.1875 
L 4.890625 17.1875 
L 4.890625 26.703125 
z
" id="DejaVuSans-52"/>
      </defs>
      <g style="fill:#262626;" transform="translate(261.099032 341.865469)rotate(-90)scale(0.11 -0.11)">
       <use xlink:href="#DejaVuSans-77"/>
       <use x="86.279297" xlink:href="#DejaVuSans-97"/>
       <use x="147.558594" xlink:href="#DejaVuSans-114"/>
       <use x="188.671875" xlink:href="#DejaVuSans-32"/>
       <use x="220.458984" xlink:href="#DejaVuSans-49"/>
       <use x="284.082031" xlink:href="#DejaVuSans-52"/>
      </g>
     </g>
    </g>
    <g id="xtick_7">
     <g id="line2d_7">
      <path clip-path="url(#pb05650f517)" d="M 294.956281 294.118125 
L 294.956281 22.318125 
" style="fill:none;stroke:#cccccc;stroke-linecap:round;"/>
     </g>
     <g id="text_7">
      <!-- Mar 15 -->
      <defs>
       <path d="M 10.796875 72.90625 
L 49.515625 72.90625 
L 49.515625 64.59375 
L 19.828125 64.59375 
L 19.828125 46.734375 
Q 21.96875 47.46875 24.109375 47.828125 
Q 26.265625 48.1875 28.421875 48.1875 
Q 40.625 48.1875 47.75 41.5 
Q 54.890625 34.8125 54.890625 23.390625 
Q 54.890625 11.625 47.5625 5.09375 
Q 40.234375 -1.421875 26.90625 -1.421875 
Q 22.3125 -1.421875 17.546875 -0.640625 
Q 12.796875 0.140625 7.71875 1.703125 
L 7.71875 11.625 
Q 12.109375 9.234375 16.796875 8.0625 
Q 21.484375 6.890625 26.703125 6.890625 
Q 35.15625 6.890625 40.078125 11.328125 
Q 45.015625 15.765625 45.015625 23.390625 
Q 45.015625 31 40.078125 35.4375 
Q 35.15625 39.890625 26.703125 39.890625 
Q 22.75 39.890625 18.8125 39.015625 
Q 14.890625 38.140625 10.796875 36.28125 
z
" id="DejaVuSans-53"/>
      </defs>
      <g style="fill:#262626;" transform="translate(297.991593 341.865469)rotate(-90)scale(0.11 -0.11)">
       <use xlink:href="#DejaVuSans-77"/>
       <use x="86.279297" xlink:href="#DejaVuSans-97"/>
       <use x="147.558594" xlink:href="#DejaVuSans-114"/>
       <use x="188.671875" xlink:href="#DejaVuSans-32"/>
       <use x="220.458984" xlink:href="#DejaVuSans-49"/>
       <use x="284.082031" xlink:href="#DejaVuSans-53"/>
      </g>
     </g>
    </g>
    <g id="xtick_8">
     <g id="line2d_8">
      <path clip-path="url(#pb05650f517)" d="M 331.848843 294.118125 
L 331.848843 22.318125 
" style="fill:none;stroke:#cccccc;stroke-linecap:round;"/>
     </g>
     <g id="text_8">
      <!-- Mar 16 -->
      <defs>
       <path d="M 33.015625 40.375 
Q 26.375 40.375 22.484375 35.828125 
Q 18.609375 31.296875 18.609375 23.390625 
Q 18.609375 15.53125 22.484375 10.953125 
Q 26.375 6.390625 33.015625 6.390625 
Q 39.65625 6.390625 43.53125 10.953125 
Q 47.40625 15.53125 47.40625 23.390625 
Q 47.40625 31.296875 43.53125 35.828125 
Q 39.65625 40.375 33.015625 40.375 
z
M 52.59375 71.296875 
L 52.59375 62.3125 
Q 48.875 64.0625 45.09375 64.984375 
Q 41.3125 65.921875 37.59375 65.921875 
Q 27.828125 65.921875 22.671875 59.328125 
Q 17.53125 52.734375 16.796875 39.40625 
Q 19.671875 43.65625 24.015625 45.921875 
Q 28.375 48.1875 33.59375 48.1875 
Q 44.578125 48.1875 50.953125 41.515625 
Q 57.328125 34.859375 57.328125 23.390625 
Q 57.328125 12.15625 50.6875 5.359375 
Q 44.046875 -1.421875 33.015625 -1.421875 
Q 20.359375 -1.421875 13.671875 8.265625 
Q 6.984375 17.96875 6.984375 36.375 
Q 6.984375 53.65625 15.1875 63.9375 
Q 23.390625 74.21875 37.203125 74.21875 
Q 40.921875 74.21875 44.703125 73.484375 
Q 48.484375 72.75 52.59375 71.296875 
z
" id="DejaVuSans-54"/>
      </defs>
      <g style="fill:#262626;" transform="translate(334.884155 341.865469)rotate(-90)scale(0.11 -0.11)">
       <use xlink:href="#DejaVuSans-77"/>
       <use x="86.279297" xlink:href="#DejaVuSans-97"/>
       <use x="147.558594" xlink:href="#DejaVuSans-114"/>
       <use x="188.671875" xlink:href="#DejaVuSans-32"/>
       <use x="220.458984" xlink:href="#DejaVuSans-49"/>
       <use x="284.082031" xlink:href="#DejaVuSans-54"/>
      </g>
     </g>
    </g>
    <g id="xtick_9">
     <g id="line2d_9">
      <path clip-path="url(#pb05650f517)" d="M 368.741405 294.118125 
L 368.741405 22.318125 
" style="fill:none;stroke:#cccccc;stroke-linecap:round;"/>
     </g>
     <g id="text_9">
      <!-- Mar 17 -->
      <defs>
       <path d="M 8.203125 72.90625 
L 55.078125 72.90625 
L 55.078125 68.703125 
L 28.609375 0 
L 18.3125 0 
L 43.21875 64.59375 
L 8.203125 64.59375 
z
" id="DejaVuSans-55"/>
      </defs>
      <g style="fill:#262626;" transform="translate(371.776717 341.865469)rotate(-90)scale(0.11 -0.11)">
       <use xlink:href="#DejaVuSans-77"/>
       <use x="86.279297" xlink:href="#DejaVuSans-97"/>
       <use x="147.558594" xlink:href="#DejaVuSans-114"/>
       <use x="188.671875" xlink:href="#DejaVuSans-32"/>
       <use x="220.458984" xlink:href="#DejaVuSans-49"/>
       <use x="284.082031" xlink:href="#DejaVuSans-55"/>
      </g>
     </g>
    </g>
    <g id="xtick_10">
     <g id="line2d_10">
      <path clip-path="url(#pb05650f517)" d="M 405.633967 294.118125 
L 405.633967 22.318125 
" style="fill:none;stroke:#cccccc;stroke-linecap:round;"/>
     </g>
     <g id="text_10">
      <!-- Mar 18 -->
      <defs>
       <path d="M 31.78125 34.625 
Q 24.75 34.625 20.71875 30.859375 
Q 16.703125 27.09375 16.703125 20.515625 
Q 16.703125 13.921875 20.71875 10.15625 
Q 24.75 6.390625 31.78125 6.390625 
Q 38.8125 6.390625 42.859375 10.171875 
Q 46.921875 13.96875 46.921875 20.515625 
Q 46.921875 27.09375 42.890625 30.859375 
Q 38.875 34.625 31.78125 34.625 
z
M 21.921875 38.8125 
Q 15.578125 40.375 12.03125 44.71875 
Q 8.5 49.078125 8.5 55.328125 
Q 8.5 64.0625 14.71875 69.140625 
Q 20.953125 74.21875 31.78125 74.21875 
Q 42.671875 74.21875 48.875 69.140625 
Q 55.078125 64.0625 55.078125 55.328125 
Q 55.078125 49.078125 51.53125 44.71875 
Q 48 40.375 41.703125 38.8125 
Q 48.828125 37.15625 52.796875 32.3125 
Q 56.78125 27.484375 56.78125 20.515625 
Q 56.78125 9.90625 50.3125 4.234375 
Q 43.84375 -1.421875 31.78125 -1.421875 
Q 19.734375 -1.421875 13.25 4.234375 
Q 6.78125 9.90625 6.78125 20.515625 
Q 6.78125 27.484375 10.78125 32.3125 
Q 14.796875 37.15625 21.921875 38.8125 
z
M 18.3125 54.390625 
Q 18.3125 48.734375 21.84375 45.5625 
Q 25.390625 42.390625 31.78125 42.390625 
Q 38.140625 42.390625 41.71875 45.5625 
Q 45.3125 48.734375 45.3125 54.390625 
Q 45.3125 60.0625 41.71875 63.234375 
Q 38.140625 66.40625 31.78125 66.40625 
Q 25.390625 66.40625 21.84375 63.234375 
Q 18.3125 60.0625 18.3125 54.390625 
z
" id="DejaVuSans-56"/>
      </defs>
      <g style="fill:#262626;" transform="translate(408.669279 341.865469)rotate(-90)scale(0.11 -0.11)">
       <use xlink:href="#DejaVuSans-77"/>
       <use x="86.279297" xlink:href="#DejaVuSans-97"/>
       <use x="147.558594" xlink:href="#DejaVuSans-114"/>
       <use x="188.671875" xlink:href="#DejaVuSans-32"/>
       <use x="220.458984" xlink:href="#DejaVuSans-49"/>
       <use x="284.082031" xlink:href="#DejaVuSans-56"/>
      </g>
     </g>
    </g>
    <g id="xtick_11">
     <g id="line2d_11">
      <path clip-path="url(#pb05650f517)" d="M 442.526529 294.118125 
L 442.526529 22.318125 
" style="fill:none;stroke:#cccccc;stroke-linecap:round;"/>
     </g>
     <g id="text_11">
      <!-- Mar 19 -->
      <g style="fill:#262626;" transform="translate(445.561841 341.865469)rotate(-90)scale(0.11 -0.11)">
       <use xlink:href="#DejaVuSans-77"/>
       <use x="86.279297" xlink:href="#DejaVuSans-97"/>
       <use x="147.558594" xlink:href="#DejaVuSans-114"/>
       <use x="188.671875" xlink:href="#DejaVuSans-32"/>
       <use x="220.458984" xlink:href="#DejaVuSans-49"/>
       <use x="284.082031" xlink:href="#DejaVuSans-57"/>
      </g>
     </g>
    </g>
    <g id="xtick_12">
     <g id="line2d_12">
      <path clip-path="url(#pb05650f517)" d="M 479.419091 294.118125 
L 479.419091 22.318125 
" style="fill:none;stroke:#cccccc;stroke-linecap:round;"/>
     </g>
     <g id="text_12">
      <!-- Mar 20 -->
      <g style="fill:#262626;" transform="translate(482.454403 341.865469)rotate(-90)scale(0.11 -0.11)">
       <use xlink:href="#DejaVuSans-77"/>
       <use x="86.279297" xlink:href="#DejaVuSans-97"/>
       <use x="147.558594" xlink:href="#DejaVuSans-114"/>
       <use x="188.671875" xlink:href="#DejaVuSans-32"/>
       <use x="220.458984" xlink:href="#DejaVuSans-50"/>
       <use x="284.082031" xlink:href="#DejaVuSans-48"/>
      </g>
     </g>
    </g>
    <g id="text_13">
     <!-- Datum -->
     <defs>
      <path d="M 19.671875 64.796875 
L 19.671875 8.109375 
L 31.59375 8.109375 
Q 46.6875 8.109375 53.6875 14.9375 
Q 60.6875 21.78125 60.6875 36.53125 
Q 60.6875 51.171875 53.6875 57.984375 
Q 46.6875 64.796875 31.59375 64.796875 
z
M 9.8125 72.90625 
L 30.078125 72.90625 
Q 51.265625 72.90625 61.171875 64.09375 
Q 71.09375 55.28125 71.09375 36.53125 
Q 71.09375 17.671875 61.125 8.828125 
Q 51.171875 0 30.078125 0 
L 9.8125 0 
z
" id="DejaVuSans-68"/>
      <path d="M 18.3125 70.21875 
L 18.3125 54.6875 
L 36.8125 54.6875 
L 36.8125 47.703125 
L 18.3125 47.703125 
L 18.3125 18.015625 
Q 18.3125 11.328125 20.140625 9.421875 
Q 21.96875 7.515625 27.59375 7.515625 
L 36.8125 7.515625 
L 36.8125 0 
L 27.59375 0 
Q 17.1875 0 13.234375 3.875 
Q 9.28125 7.765625 9.28125 18.015625 
L 9.28125 47.703125 
L 2.6875 47.703125 
L 2.6875 54.6875 
L 9.28125 54.6875 
L 9.28125 70.21875 
z
" id="DejaVuSans-116"/>
      <path d="M 8.5 21.578125 
L 8.5 54.6875 
L 17.484375 54.6875 
L 17.484375 21.921875 
Q 17.484375 14.15625 20.5 10.265625 
Q 23.53125 6.390625 29.59375 6.390625 
Q 36.859375 6.390625 41.078125 11.03125 
Q 45.3125 15.671875 45.3125 23.6875 
L 45.3125 54.6875 
L 54.296875 54.6875 
L 54.296875 0 
L 45.3125 0 
L 45.3125 8.40625 
Q 42.046875 3.421875 37.71875 1 
Q 33.40625 -1.421875 27.6875 -1.421875 
Q 18.265625 -1.421875 13.375 4.4375 
Q 8.5 10.296875 8.5 21.578125 
z
M 31.109375 56 
z
" id="DejaVuSans-117"/>
      <path d="M 52 44.1875 
Q 55.375 50.25 60.0625 53.125 
Q 64.75 56 71.09375 56 
Q 79.640625 56 84.28125 50.015625 
Q 88.921875 44.046875 88.921875 33.015625 
L 88.921875 0 
L 79.890625 0 
L 79.890625 32.71875 
Q 79.890625 40.578125 77.09375 44.375 
Q 74.3125 48.1875 68.609375 48.1875 
Q 61.625 48.1875 57.5625 43.546875 
Q 53.515625 38.921875 53.515625 30.90625 
L 53.515625 0 
L 44.484375 0 
L 44.484375 32.71875 
Q 44.484375 40.625 41.703125 44.40625 
Q 38.921875 48.1875 33.109375 48.1875 
Q 26.21875 48.1875 22.15625 43.53125 
Q 18.109375 38.875 18.109375 30.90625 
L 18.109375 0 
L 9.078125 0 
L 9.078125 54.6875 
L 18.109375 54.6875 
L 18.109375 46.1875 
Q 21.1875 51.21875 25.484375 53.609375 
Q 29.78125 56 35.6875 56 
Q 41.65625 56 45.828125 52.96875 
Q 50 49.953125 52 44.1875 
z
" id="DejaVuSans-109"/>
     </defs>
     <g style="fill:#262626;" transform="translate(256.214063 354.983594)scale(0.12 -0.12)">
      <use xlink:href="#DejaVuSans-68"/>
      <use x="77.001953" xlink:href="#DejaVuSans-97"/>
      <use x="138.28125" xlink:href="#DejaVuSans-116"/>
      <use x="177.490234" xlink:href="#DejaVuSans-117"/>
      <use x="240.869141" xlink:href="#DejaVuSans-109"/>
     </g>
    </g>
   </g>
   <g id="matplotlib.axis_2">
    <g id="ytick_1">
     <g id="line2d_13">
      <path clip-path="url(#pb05650f517)" d="M 53.31 282.268878 
L 499.71 282.268878 
" style="fill:none;stroke:#cccccc;stroke-linecap:round;"/>
     </g>
     <g id="text_14">
      <!-- 0 -->
      <g style="fill:#262626;" transform="translate(36.81125 286.448019)scale(0.11 -0.11)">
       <use xlink:href="#DejaVuSans-48"/>
      </g>
     </g>
     <g id="text_15">
      <!-- 0 -->
      <g style="fill:#262626;" transform="translate(509.21 286.448019)scale(0.11 -0.11)">
       <use xlink:href="#DejaVuSans-48"/>
      </g>
     </g>
    </g>
    <g id="ytick_2">
     <g id="line2d_14">
      <path clip-path="url(#pb05650f517)" d="M 53.31 231.73904 
L 499.71 231.73904 
" style="fill:none;stroke:#cccccc;stroke-linecap:round;"/>
     </g>
     <g id="text_16">
      <!-- 100 -->
      <g style="fill:#262626;" transform="translate(22.81375 235.91818)scale(0.11 -0.11)">
       <use xlink:href="#DejaVuSans-49"/>
       <use x="63.623047" xlink:href="#DejaVuSans-48"/>
       <use x="127.246094" xlink:href="#DejaVuSans-48"/>
      </g>
     </g>
     <g id="text_17">
      <!-- 100 -->
      <g style="fill:#262626;" transform="translate(509.21 235.91818)scale(0.11 -0.11)">
       <use xlink:href="#DejaVuSans-49"/>
       <use x="63.623047" xlink:href="#DejaVuSans-48"/>
       <use x="127.246094" xlink:href="#DejaVuSans-48"/>
      </g>
     </g>
    </g>
    <g id="ytick_3">
     <g id="line2d_15">
      <path clip-path="url(#pb05650f517)" d="M 53.31 181.209201 
L 499.71 181.209201 
" style="fill:none;stroke:#cccccc;stroke-linecap:round;"/>
     </g>
     <g id="text_18">
      <!-- 200 -->
      <g style="fill:#262626;" transform="translate(22.81375 185.388342)scale(0.11 -0.11)">
       <use xlink:href="#DejaVuSans-50"/>
       <use x="63.623047" xlink:href="#DejaVuSans-48"/>
       <use x="127.246094" xlink:href="#DejaVuSans-48"/>
      </g>
     </g>
     <g id="text_19">
      <!-- 200 -->
      <g style="fill:#262626;" transform="translate(509.21 185.388342)scale(0.11 -0.11)">
       <use xlink:href="#DejaVuSans-50"/>
       <use x="63.623047" xlink:href="#DejaVuSans-48"/>
       <use x="127.246094" xlink:href="#DejaVuSans-48"/>
      </g>
     </g>
    </g>
    <g id="ytick_4">
     <g id="line2d_16">
      <path clip-path="url(#pb05650f517)" d="M 53.31 130.679363 
L 499.71 130.679363 
" style="fill:none;stroke:#cccccc;stroke-linecap:round;"/>
     </g>
     <g id="text_20">
      <!-- 300 -->
      <g style="fill:#262626;" transform="translate(22.81375 134.858504)scale(0.11 -0.11)">
       <use xlink:href="#DejaVuSans-51"/>
       <use x="63.623047" xlink:href="#DejaVuSans-48"/>
       <use x="127.246094" xlink:href="#DejaVuSans-48"/>
      </g>
     </g>
     <g id="text_21">
      <!-- 300 -->
      <g style="fill:#262626;" transform="translate(509.21 134.858504)scale(0.11 -0.11)">
       <use xlink:href="#DejaVuSans-51"/>
       <use x="63.623047" xlink:href="#DejaVuSans-48"/>
       <use x="127.246094" xlink:href="#DejaVuSans-48"/>
      </g>
     </g>
    </g>
    <g id="ytick_5">
     <g id="line2d_17">
      <path clip-path="url(#pb05650f517)" d="M 53.31 80.149525 
L 499.71 80.149525 
" style="fill:none;stroke:#cccccc;stroke-linecap:round;"/>
     </g>
     <g id="text_22">
      <!-- 400 -->
      <g style="fill:#262626;" transform="translate(22.81375 84.328666)scale(0.11 -0.11)">
       <use xlink:href="#DejaVuSans-52"/>
       <use x="63.623047" xlink:href="#DejaVuSans-48"/>
       <use x="127.246094" xlink:href="#DejaVuSans-48"/>
      </g>
     </g>
     <g id="text_23">
      <!-- 400 -->
      <g style="fill:#262626;" transform="translate(509.21 84.328666)scale(0.11 -0.11)">
       <use xlink:href="#DejaVuSans-52"/>
       <use x="63.623047" xlink:href="#DejaVuSans-48"/>
       <use x="127.246094" xlink:href="#DejaVuSans-48"/>
      </g>
     </g>
    </g>
    <g id="ytick_6">
     <g id="line2d_18">
      <path clip-path="url(#pb05650f517)" d="M 53.31 29.619687 
L 499.71 29.619687 
" style="fill:none;stroke:#cccccc;stroke-linecap:round;"/>
     </g>
     <g id="text_24">
      <!-- 500 -->
      <g style="fill:#262626;" transform="translate(22.81375 33.798827)scale(0.11 -0.11)">
       <use xlink:href="#DejaVuSans-53"/>
       <use x="63.623047" xlink:href="#DejaVuSans-48"/>
       <use x="127.246094" xlink:href="#DejaVuSans-48"/>
      </g>
     </g>
     <g id="text_25">
      <!-- 500 -->
      <g style="fill:#262626;" transform="translate(509.21 33.798827)scale(0.11 -0.11)">
       <use xlink:href="#DejaVuSans-53"/>
       <use x="63.623047" xlink:href="#DejaVuSans-48"/>
       <use x="127.246094" xlink:href="#DejaVuSans-48"/>
      </g>
     </g>
    </g>
    <g id="text_26">
     <!-- Bestätigte Fälle -->
     <defs>
      <path d="M 19.671875 34.8125 
L 19.671875 8.109375 
L 35.5 8.109375 
Q 43.453125 8.109375 47.28125 11.40625 
Q 51.125 14.703125 51.125 21.484375 
Q 51.125 28.328125 47.28125 31.5625 
Q 43.453125 34.8125 35.5 34.8125 
z
M 19.671875 64.796875 
L 19.671875 42.828125 
L 34.28125 42.828125 
Q 41.5 42.828125 45.03125 45.53125 
Q 48.578125 48.25 48.578125 53.8125 
Q 48.578125 59.328125 45.03125 62.0625 
Q 41.5 64.796875 34.28125 64.796875 
z
M 9.8125 72.90625 
L 35.015625 72.90625 
Q 46.296875 72.90625 52.390625 68.21875 
Q 58.5 63.53125 58.5 54.890625 
Q 58.5 48.1875 55.375 44.234375 
Q 52.25 40.28125 46.1875 39.3125 
Q 53.46875 37.75 57.5 32.78125 
Q 61.53125 27.828125 61.53125 20.40625 
Q 61.53125 10.640625 54.890625 5.3125 
Q 48.25 0 35.984375 0 
L 9.8125 0 
z
" id="DejaVuSans-66"/>
      <path d="M 56.203125 29.59375 
L 56.203125 25.203125 
L 14.890625 25.203125 
Q 15.484375 15.921875 20.484375 11.0625 
Q 25.484375 6.203125 34.421875 6.203125 
Q 39.59375 6.203125 44.453125 7.46875 
Q 49.3125 8.734375 54.109375 11.28125 
L 54.109375 2.78125 
Q 49.265625 0.734375 44.1875 -0.34375 
Q 39.109375 -1.421875 33.890625 -1.421875 
Q 20.796875 -1.421875 13.15625 6.1875 
Q 5.515625 13.8125 5.515625 26.8125 
Q 5.515625 40.234375 12.765625 48.109375 
Q 20.015625 56 32.328125 56 
Q 43.359375 56 49.78125 48.890625 
Q 56.203125 41.796875 56.203125 29.59375 
z
M 47.21875 32.234375 
Q 47.125 39.59375 43.09375 43.984375 
Q 39.0625 48.390625 32.421875 48.390625 
Q 24.90625 48.390625 20.390625 44.140625 
Q 15.875 39.890625 15.1875 32.171875 
z
" id="DejaVuSans-101"/>
      <path d="M 44.28125 53.078125 
L 44.28125 44.578125 
Q 40.484375 46.53125 36.375 47.5 
Q 32.28125 48.484375 27.875 48.484375 
Q 21.1875 48.484375 17.84375 46.4375 
Q 14.5 44.390625 14.5 40.28125 
Q 14.5 37.15625 16.890625 35.375 
Q 19.28125 33.59375 26.515625 31.984375 
L 29.59375 31.296875 
Q 39.15625 29.25 43.1875 25.515625 
Q 47.21875 21.78125 47.21875 15.09375 
Q 47.21875 7.46875 41.1875 3.015625 
Q 35.15625 -1.421875 24.609375 -1.421875 
Q 20.21875 -1.421875 15.453125 -0.5625 
Q 10.6875 0.296875 5.421875 2 
L 5.421875 11.28125 
Q 10.40625 8.6875 15.234375 7.390625 
Q 20.0625 6.109375 24.8125 6.109375 
Q 31.15625 6.109375 34.5625 8.28125 
Q 37.984375 10.453125 37.984375 14.40625 
Q 37.984375 18.0625 35.515625 20.015625 
Q 33.0625 21.96875 24.703125 23.78125 
L 21.578125 24.515625 
Q 13.234375 26.265625 9.515625 29.90625 
Q 5.8125 33.546875 5.8125 39.890625 
Q 5.8125 47.609375 11.28125 51.796875 
Q 16.75 56 26.8125 56 
Q 31.78125 56 36.171875 55.265625 
Q 40.578125 54.546875 44.28125 53.078125 
z
" id="DejaVuSans-115"/>
      <path d="M 34.28125 27.484375 
Q 23.390625 27.484375 19.1875 25 
Q 14.984375 22.515625 14.984375 16.5 
Q 14.984375 11.71875 18.140625 8.90625 
Q 21.296875 6.109375 26.703125 6.109375 
Q 34.1875 6.109375 38.703125 11.40625 
Q 43.21875 16.703125 43.21875 25.484375 
L 43.21875 27.484375 
z
M 52.203125 31.203125 
L 52.203125 0 
L 43.21875 0 
L 43.21875 8.296875 
Q 40.140625 3.328125 35.546875 0.953125 
Q 30.953125 -1.421875 24.3125 -1.421875 
Q 15.921875 -1.421875 10.953125 3.296875 
Q 6 8.015625 6 15.921875 
Q 6 25.140625 12.171875 29.828125 
Q 18.359375 34.515625 30.609375 34.515625 
L 43.21875 34.515625 
L 43.21875 35.40625 
Q 43.21875 41.609375 39.140625 45 
Q 35.0625 48.390625 27.6875 48.390625 
Q 23 48.390625 18.546875 47.265625 
Q 14.109375 46.140625 10.015625 43.890625 
L 10.015625 52.203125 
Q 14.9375 54.109375 19.578125 55.046875 
Q 24.21875 56 28.609375 56 
Q 40.484375 56 46.34375 49.84375 
Q 52.203125 43.703125 52.203125 31.203125 
z
M 33.59375 75.78125 
L 43.5 75.78125 
L 43.5 65.921875 
L 33.59375 65.921875 
z
M 14.5 75.78125 
L 24.40625 75.78125 
L 24.40625 65.921875 
L 14.5 65.921875 
z
" id="DejaVuSans-228"/>
      <path d="M 9.421875 54.6875 
L 18.40625 54.6875 
L 18.40625 0 
L 9.421875 0 
z
M 9.421875 75.984375 
L 18.40625 75.984375 
L 18.40625 64.59375 
L 9.421875 64.59375 
z
" id="DejaVuSans-105"/>
      <path d="M 45.40625 27.984375 
Q 45.40625 37.75 41.375 43.109375 
Q 37.359375 48.484375 30.078125 48.484375 
Q 22.859375 48.484375 18.828125 43.109375 
Q 14.796875 37.75 14.796875 27.984375 
Q 14.796875 18.265625 18.828125 12.890625 
Q 22.859375 7.515625 30.078125 7.515625 
Q 37.359375 7.515625 41.375 12.890625 
Q 45.40625 18.265625 45.40625 27.984375 
z
M 54.390625 6.78125 
Q 54.390625 -7.171875 48.1875 -13.984375 
Q 42 -20.796875 29.203125 -20.796875 
Q 24.46875 -20.796875 20.265625 -20.09375 
Q 16.0625 -19.390625 12.109375 -17.921875 
L 12.109375 -9.1875 
Q 16.0625 -11.328125 19.921875 -12.34375 
Q 23.78125 -13.375 27.78125 -13.375 
Q 36.625 -13.375 41.015625 -8.765625 
Q 45.40625 -4.15625 45.40625 5.171875 
L 45.40625 9.625 
Q 42.625 4.78125 38.28125 2.390625 
Q 33.9375 0 27.875 0 
Q 17.828125 0 11.671875 7.65625 
Q 5.515625 15.328125 5.515625 27.984375 
Q 5.515625 40.671875 11.671875 48.328125 
Q 17.828125 56 27.875 56 
Q 33.9375 56 38.28125 53.609375 
Q 42.625 51.21875 45.40625 46.390625 
L 45.40625 54.6875 
L 54.390625 54.6875 
z
" id="DejaVuSans-103"/>
      <path d="M 9.8125 72.90625 
L 51.703125 72.90625 
L 51.703125 64.59375 
L 19.671875 64.59375 
L 19.671875 43.109375 
L 48.578125 43.109375 
L 48.578125 34.8125 
L 19.671875 34.8125 
L 19.671875 0 
L 9.8125 0 
z
" id="DejaVuSans-70"/>
      <path d="M 9.421875 75.984375 
L 18.40625 75.984375 
L 18.40625 0 
L 9.421875 0 
z
" id="DejaVuSans-108"/>
     </defs>
     <g style="fill:#262626;" transform="translate(16.318125 204.56625)rotate(-90)scale(0.12 -0.12)">
      <use xlink:href="#DejaVuSans-66"/>
      <use x="68.603516" xlink:href="#DejaVuSans-101"/>
      <use x="130.126953" xlink:href="#DejaVuSans-115"/>
      <use x="182.226562" xlink:href="#DejaVuSans-116"/>
      <use x="221.435547" xlink:href="#DejaVuSans-228"/>
      <use x="282.714844" xlink:href="#DejaVuSans-116"/>
      <use x="321.923828" xlink:href="#DejaVuSans-105"/>
      <use x="349.707031" xlink:href="#DejaVuSans-103"/>
      <use x="413.183594" xlink:href="#DejaVuSans-116"/>
      <use x="452.392578" xlink:href="#DejaVuSans-101"/>
      <use x="513.916016" xlink:href="#DejaVuSans-32"/>
      <use x="545.703125" xlink:href="#DejaVuSans-70"/>
      <use x="594.097656" xlink:href="#DejaVuSans-228"/>
      <use x="655.376953" xlink:href="#DejaVuSans-108"/>
      <use x="683.160156" xlink:href="#DejaVuSans-108"/>
      <use x="710.943359" xlink:href="#DejaVuSans-101"/>
     </g>
    </g>
   </g>
   <g id="line2d_19">
    <path clip-path="url(#pb05650f517)" d="M 73.600909 280.247684 
L 110.493471 280.247684 
L 147.386033 280.247684 
L 184.278595 279.237088 
L 221.171157 278.731789 
L 258.063719 277.215894 
L 294.956281 277.215894 
L 331.848843 277.215894 
L 368.741405 276.710596 
L 405.633967 272.16291 
L 442.526529 267.615225 
L 479.419091 266.09933 
" style="fill:none;stroke:#4c72b0;stroke-linecap:round;stroke-width:2.5;"/>
    <defs>
     <path d="M 0 3 
C 0.795609 3 1.55874 2.683901 2.12132 2.12132 
C 2.683901 1.55874 3 0.795609 3 0 
C 3 -0.795609 2.683901 -1.55874 2.12132 -2.12132 
C 1.55874 -2.683901 0.795609 -3 0 -3 
C -0.795609 -3 -1.55874 -2.683901 -2.12132 -2.12132 
C -2.683901 -1.55874 -3 -0.795609 -3 0 
C -3 0.795609 -2.683901 1.55874 -2.12132 2.12132 
C -1.55874 2.683901 -0.795609 3 0 3 
z
" id="m9d71bab61b" style="stroke:#ffffff;stroke-width:0.75;"/>
    </defs>
    <g clip-path="url(#pb05650f517)">
     <use style="fill:#4c72b0;stroke:#ffffff;stroke-width:0.75;" x="73.600909" xlink:href="#m9d71bab61b" y="280.247684"/>
     <use style="fill:#4c72b0;stroke:#ffffff;stroke-width:0.75;" x="110.493471" xlink:href="#m9d71bab61b" y="280.247684"/>
     <use style="fill:#4c72b0;stroke:#ffffff;stroke-width:0.75;" x="147.386033" xlink:href="#m9d71bab61b" y="280.247684"/>
     <use style="fill:#4c72b0;stroke:#ffffff;stroke-width:0.75;" x="184.278595" xlink:href="#m9d71bab61b" y="279.237088"/>
     <use style="fill:#4c72b0;stroke:#ffffff;stroke-width:0.75;" x="221.171157" xlink:href="#m9d71bab61b" y="278.731789"/>
     <use style="fill:#4c72b0;stroke:#ffffff;stroke-width:0.75;" x="258.063719" xlink:href="#m9d71bab61b" y="277.215894"/>
     <use style="fill:#4c72b0;stroke:#ffffff;stroke-width:0.75;" x="294.956281" xlink:href="#m9d71bab61b" y="277.215894"/>
     <use style="fill:#4c72b0;stroke:#ffffff;stroke-width:0.75;" x="331.848843" xlink:href="#m9d71bab61b" y="277.215894"/>
     <use style="fill:#4c72b0;stroke:#ffffff;stroke-width:0.75;" x="368.741405" xlink:href="#m9d71bab61b" y="276.710596"/>
     <use style="fill:#4c72b0;stroke:#ffffff;stroke-width:0.75;" x="405.633967" xlink:href="#m9d71bab61b" y="272.16291"/>
     <use style="fill:#4c72b0;stroke:#ffffff;stroke-width:0.75;" x="442.526529" xlink:href="#m9d71bab61b" y="267.615225"/>
     <use style="fill:#4c72b0;stroke:#ffffff;stroke-width:0.75;" x="479.419091" xlink:href="#m9d71bab61b" y="266.09933"/>
    </g>
   </g>
   <g id="line2d_20">
    <path clip-path="url(#pb05650f517)" d="M 73.600909 281.76358 
L 110.493471 281.76358 
L 147.386033 280.752983 
L 184.278595 280.752983 
L 221.171157 280.247684 
L 258.063719 279.742386 
L 294.956281 279.237088 
L 331.848843 273.173507 
L 368.741405 268.625822 
L 405.633967 261.551644 
L 442.526529 257.003959 
L 479.419091 250.43508 
" style="fill:none;stroke:#dd8452;stroke-dasharray:10,3.75;stroke-dashoffset:0;stroke-width:2.5;"/>
    <defs>
     <path d="M -0 3 
L 3 -3 
L -3 -3 
z
" id="mc70a010295" style="stroke:#ffffff;stroke-linejoin:miter;stroke-width:0.75;"/>
    </defs>
    <g clip-path="url(#pb05650f517)">
     <use style="fill:#dd8452;stroke:#ffffff;stroke-linejoin:miter;stroke-width:0.75;" x="73.600909" xlink:href="#mc70a010295" y="281.76358"/>
     <use style="fill:#dd8452;stroke:#ffffff;stroke-linejoin:miter;stroke-width:0.75;" x="110.493471" xlink:href="#mc70a010295" y="281.76358"/>
     <use style="fill:#dd8452;stroke:#ffffff;stroke-linejoin:miter;stroke-width:0.75;" x="147.386033" xlink:href="#mc70a010295" y="280.752983"/>
     <use style="fill:#dd8452;stroke:#ffffff;stroke-linejoin:miter;stroke-width:0.75;" x="184.278595" xlink:href="#mc70a010295" y="280.752983"/>
     <use style="fill:#dd8452;stroke:#ffffff;stroke-linejoin:miter;stroke-width:0.75;" x="221.171157" xlink:href="#mc70a010295" y="280.247684"/>
     <use style="fill:#dd8452;stroke:#ffffff;stroke-linejoin:miter;stroke-width:0.75;" x="258.063719" xlink:href="#mc70a010295" y="279.742386"/>
     <use style="fill:#dd8452;stroke:#ffffff;stroke-linejoin:miter;stroke-width:0.75;" x="294.956281" xlink:href="#mc70a010295" y="279.237088"/>
     <use style="fill:#dd8452;stroke:#ffffff;stroke-linejoin:miter;stroke-width:0.75;" x="331.848843" xlink:href="#mc70a010295" y="273.173507"/>
     <use style="fill:#dd8452;stroke:#ffffff;stroke-linejoin:miter;stroke-width:0.75;" x="368.741405" xlink:href="#mc70a010295" y="268.625822"/>
     <use style="fill:#dd8452;stroke:#ffffff;stroke-linejoin:miter;stroke-width:0.75;" x="405.633967" xlink:href="#mc70a010295" y="261.551644"/>
     <use style="fill:#dd8452;stroke:#ffffff;stroke-linejoin:miter;stroke-width:0.75;" x="442.526529" xlink:href="#mc70a010295" y="257.003959"/>
     <use style="fill:#dd8452;stroke:#ffffff;stroke-linejoin:miter;stroke-width:0.75;" x="479.419091" xlink:href="#mc70a010295" y="250.43508"/>
    </g>
   </g>
   <g id="line2d_21">
    <path clip-path="url(#pb05650f517)" d="M 73.600909 264.078136 
L 110.493471 262.056943 
L 147.386033 259.530451 
L 184.278595 256.49866 
L 221.171157 250.43508 
L 258.063719 240.834411 
L 294.956281 226.180757 
L 331.848843 205.463524 
L 368.741405 173.124427 
L 405.633967 152.912492 
L 442.526529 128.152871 
L 479.419091 122.089291 
" style="fill:none;stroke:#55a868;stroke-dasharray:2.5,2.5;stroke-dashoffset:0;stroke-width:2.5;"/>
    <defs>
     <path d="M 0 -3 
L -3 3 
L 3 3 
z
" id="md09c7f70fe" style="stroke:#ffffff;stroke-linejoin:miter;stroke-width:0.75;"/>
    </defs>
    <g clip-path="url(#pb05650f517)">
     <use style="fill:#55a868;stroke:#ffffff;stroke-linejoin:miter;stroke-width:0.75;" x="73.600909" xlink:href="#md09c7f70fe" y="264.078136"/>
     <use style="fill:#55a868;stroke:#ffffff;stroke-linejoin:miter;stroke-width:0.75;" x="110.493471" xlink:href="#md09c7f70fe" y="262.056943"/>
     <use style="fill:#55a868;stroke:#ffffff;stroke-linejoin:miter;stroke-width:0.75;" x="147.386033" xlink:href="#md09c7f70fe" y="259.530451"/>
     <use style="fill:#55a868;stroke:#ffffff;stroke-linejoin:miter;stroke-width:0.75;" x="184.278595" xlink:href="#md09c7f70fe" y="256.49866"/>
     <use style="fill:#55a868;stroke:#ffffff;stroke-linejoin:miter;stroke-width:0.75;" x="221.171157" xlink:href="#md09c7f70fe" y="250.43508"/>
     <use style="fill:#55a868;stroke:#ffffff;stroke-linejoin:miter;stroke-width:0.75;" x="258.063719" xlink:href="#md09c7f70fe" y="240.834411"/>
     <use style="fill:#55a868;stroke:#ffffff;stroke-linejoin:miter;stroke-width:0.75;" x="294.956281" xlink:href="#md09c7f70fe" y="226.180757"/>
     <use style="fill:#55a868;stroke:#ffffff;stroke-linejoin:miter;stroke-width:0.75;" x="331.848843" xlink:href="#md09c7f70fe" y="205.463524"/>
     <use style="fill:#55a868;stroke:#ffffff;stroke-linejoin:miter;stroke-width:0.75;" x="368.741405" xlink:href="#md09c7f70fe" y="173.124427"/>
     <use style="fill:#55a868;stroke:#ffffff;stroke-linejoin:miter;stroke-width:0.75;" x="405.633967" xlink:href="#md09c7f70fe" y="152.912492"/>
     <use style="fill:#55a868;stroke:#ffffff;stroke-linejoin:miter;stroke-width:0.75;" x="442.526529" xlink:href="#md09c7f70fe" y="128.152871"/>
     <use style="fill:#55a868;stroke:#ffffff;stroke-linejoin:miter;stroke-width:0.75;" x="479.419091" xlink:href="#md09c7f70fe" y="122.089291"/>
    </g>
   </g>
   <g id="line2d_22">
    <path clip-path="url(#pb05650f517)" d="M 73.600909 276.710596 
L 110.493471 271.152314 
L 147.386033 264.583435 
L 184.278595 252.961572 
L 221.171157 239.823814 
L 258.063719 223.654266 
L 294.956281 201.926435 
L 331.848843 180.198605 
L 368.741405 156.954879 
L 405.633967 128.152871 
L 442.526529 94.803178 
L 479.419091 80.654823 
" style="fill:none;stroke:#c44e52;stroke-dasharray:7.5,2.5,3.75,2.5;stroke-dashoffset:0;stroke-width:2.5;"/>
    <defs>
     <path d="M -3 -0 
L 3 3 
L 3 -3 
z
" id="m2bac0ffaec" style="stroke:#ffffff;stroke-linejoin:miter;stroke-width:0.75;"/>
    </defs>
    <g clip-path="url(#pb05650f517)">
     <use style="fill:#c44e52;stroke:#ffffff;stroke-linejoin:miter;stroke-width:0.75;" x="73.600909" xlink:href="#m2bac0ffaec" y="276.710596"/>
     <use style="fill:#c44e52;stroke:#ffffff;stroke-linejoin:miter;stroke-width:0.75;" x="110.493471" xlink:href="#m2bac0ffaec" y="271.152314"/>
     <use style="fill:#c44e52;stroke:#ffffff;stroke-linejoin:miter;stroke-width:0.75;" x="147.386033" xlink:href="#m2bac0ffaec" y="264.583435"/>
     <use style="fill:#c44e52;stroke:#ffffff;stroke-linejoin:miter;stroke-width:0.75;" x="184.278595" xlink:href="#m2bac0ffaec" y="252.961572"/>
     <use style="fill:#c44e52;stroke:#ffffff;stroke-linejoin:miter;stroke-width:0.75;" x="221.171157" xlink:href="#m2bac0ffaec" y="239.823814"/>
     <use style="fill:#c44e52;stroke:#ffffff;stroke-linejoin:miter;stroke-width:0.75;" x="258.063719" xlink:href="#m2bac0ffaec" y="223.654266"/>
     <use style="fill:#c44e52;stroke:#ffffff;stroke-linejoin:miter;stroke-width:0.75;" x="294.956281" xlink:href="#m2bac0ffaec" y="201.926435"/>
     <use style="fill:#c44e52;stroke:#ffffff;stroke-linejoin:miter;stroke-width:0.75;" x="331.848843" xlink:href="#m2bac0ffaec" y="180.198605"/>
     <use style="fill:#c44e52;stroke:#ffffff;stroke-linejoin:miter;stroke-width:0.75;" x="368.741405" xlink:href="#m2bac0ffaec" y="156.954879"/>
     <use style="fill:#c44e52;stroke:#ffffff;stroke-linejoin:miter;stroke-width:0.75;" x="405.633967" xlink:href="#m2bac0ffaec" y="128.152871"/>
     <use style="fill:#c44e52;stroke:#ffffff;stroke-linejoin:miter;stroke-width:0.75;" x="442.526529" xlink:href="#m2bac0ffaec" y="94.803178"/>
     <use style="fill:#c44e52;stroke:#ffffff;stroke-linejoin:miter;stroke-width:0.75;" x="479.419091" xlink:href="#m2bac0ffaec" y="80.654823"/>
    </g>
   </g>
   <g id="line2d_23">
    <path clip-path="url(#pb05650f517)" d="M 73.600909 277.721192 
L 110.493471 276.205297 
L 147.386033 275.194701 
L 184.278595 272.668209 
L 221.171157 270.647015 
L 258.063719 267.109926 
L 294.956281 262.562241 
L 331.848843 252.961572 
L 368.741405 248.919185 
L 405.633967 237.297322 
L 442.526529 218.095983 
L 479.419091 207.990016 
" style="fill:none;stroke:#8172b3;stroke-dasharray:12.5,2.5,2.5,2.5;stroke-dashoffset:0;stroke-width:2.5;"/>
    <defs>
     <path d="M 3 0 
L -3 -3 
L -3 3 
z
" id="m5f888d24d5" style="stroke:#ffffff;stroke-linejoin:miter;stroke-width:0.75;"/>
    </defs>
    <g clip-path="url(#pb05650f517)">
     <use style="fill:#8172b3;stroke:#ffffff;stroke-linejoin:miter;stroke-width:0.75;" x="73.600909" xlink:href="#m5f888d24d5" y="277.721192"/>
     <use style="fill:#8172b3;stroke:#ffffff;stroke-linejoin:miter;stroke-width:0.75;" x="110.493471" xlink:href="#m5f888d24d5" y="276.205297"/>
     <use style="fill:#8172b3;stroke:#ffffff;stroke-linejoin:miter;stroke-width:0.75;" x="147.386033" xlink:href="#m5f888d24d5" y="275.194701"/>
     <use style="fill:#8172b3;stroke:#ffffff;stroke-linejoin:miter;stroke-width:0.75;" x="184.278595" xlink:href="#m5f888d24d5" y="272.668209"/>
     <use style="fill:#8172b3;stroke:#ffffff;stroke-linejoin:miter;stroke-width:0.75;" x="221.171157" xlink:href="#m5f888d24d5" y="270.647015"/>
     <use style="fill:#8172b3;stroke:#ffffff;stroke-linejoin:miter;stroke-width:0.75;" x="258.063719" xlink:href="#m5f888d24d5" y="267.109926"/>
     <use style="fill:#8172b3;stroke:#ffffff;stroke-linejoin:miter;stroke-width:0.75;" x="294.956281" xlink:href="#m5f888d24d5" y="262.562241"/>
     <use style="fill:#8172b3;stroke:#ffffff;stroke-linejoin:miter;stroke-width:0.75;" x="331.848843" xlink:href="#m5f888d24d5" y="252.961572"/>
     <use style="fill:#8172b3;stroke:#ffffff;stroke-linejoin:miter;stroke-width:0.75;" x="368.741405" xlink:href="#m5f888d24d5" y="248.919185"/>
     <use style="fill:#8172b3;stroke:#ffffff;stroke-linejoin:miter;stroke-width:0.75;" x="405.633967" xlink:href="#m5f888d24d5" y="237.297322"/>
     <use style="fill:#8172b3;stroke:#ffffff;stroke-linejoin:miter;stroke-width:0.75;" x="442.526529" xlink:href="#m5f888d24d5" y="218.095983"/>
     <use style="fill:#8172b3;stroke:#ffffff;stroke-linejoin:miter;stroke-width:0.75;" x="479.419091" xlink:href="#m5f888d24d5" y="207.990016"/>
    </g>
   </g>
   <g id="line2d_24">
    <path clip-path="url(#pb05650f517)" d="M 73.600909 274.184104 
L 110.493471 273.678805 
L 147.386033 269.636418 
L 184.278595 265.594031 
L 221.171157 255.993362 
L 258.063719 246.392693 
L 294.956281 226.180757 
L 331.848843 212.032403 
L 368.741405 195.862855 
L 405.633967 171.103234 
L 442.526529 139.774734 
L 479.419091 131.184662 
" style="fill:none;stroke:#937860;stroke-dasharray:12.5,2.5,5,2.5,5,2.5;stroke-dashoffset:0;stroke-width:2.5;"/>
    <defs>
     <path d="M -1.14805 -2.771639 
L -2.771639 -1.14805 
L -2.771639 1.14805 
L -1.14805 2.771639 
L 1.14805 2.771639 
L 2.771639 1.14805 
L 2.771639 -1.14805 
L 1.14805 -2.771639 
z
" id="mc5afadacf6" style="stroke:#ffffff;stroke-linejoin:miter;stroke-width:0.75;"/>
    </defs>
    <g clip-path="url(#pb05650f517)">
     <use style="fill:#937860;stroke:#ffffff;stroke-linejoin:miter;stroke-width:0.75;" x="73.600909" xlink:href="#mc5afadacf6" y="274.184104"/>
     <use style="fill:#937860;stroke:#ffffff;stroke-linejoin:miter;stroke-width:0.75;" x="110.493471" xlink:href="#mc5afadacf6" y="273.678805"/>
     <use style="fill:#937860;stroke:#ffffff;stroke-linejoin:miter;stroke-width:0.75;" x="147.386033" xlink:href="#mc5afadacf6" y="269.636418"/>
     <use style="fill:#937860;stroke:#ffffff;stroke-linejoin:miter;stroke-width:0.75;" x="184.278595" xlink:href="#mc5afadacf6" y="265.594031"/>
     <use style="fill:#937860;stroke:#ffffff;stroke-linejoin:miter;stroke-width:0.75;" x="221.171157" xlink:href="#mc5afadacf6" y="255.993362"/>
     <use style="fill:#937860;stroke:#ffffff;stroke-linejoin:miter;stroke-width:0.75;" x="258.063719" xlink:href="#mc5afadacf6" y="246.392693"/>
     <use style="fill:#937860;stroke:#ffffff;stroke-linejoin:miter;stroke-width:0.75;" x="294.956281" xlink:href="#mc5afadacf6" y="226.180757"/>
     <use style="fill:#937860;stroke:#ffffff;stroke-linejoin:miter;stroke-width:0.75;" x="331.848843" xlink:href="#mc5afadacf6" y="212.032403"/>
     <use style="fill:#937860;stroke:#ffffff;stroke-linejoin:miter;stroke-width:0.75;" x="368.741405" xlink:href="#mc5afadacf6" y="195.862855"/>
     <use style="fill:#937860;stroke:#ffffff;stroke-linejoin:miter;stroke-width:0.75;" x="405.633967" xlink:href="#mc5afadacf6" y="171.103234"/>
     <use style="fill:#937860;stroke:#ffffff;stroke-linejoin:miter;stroke-width:0.75;" x="442.526529" xlink:href="#mc5afadacf6" y="139.774734"/>
     <use style="fill:#937860;stroke:#ffffff;stroke-linejoin:miter;stroke-width:0.75;" x="479.419091" xlink:href="#mc5afadacf6" y="131.184662"/>
    </g>
   </g>
   <g id="line2d_25">
    <path clip-path="url(#pb05650f517)" d="M 73.600909 274.184104 
L 110.493471 266.09933 
L 147.386033 253.46687 
L 184.278595 227.191354 
L 221.171157 197.884048 
L 258.063719 178.177411 
L 294.956281 153.923089 
L 331.848843 153.923089 
L 368.741405 116.531008 
L 405.633967 89.244896 
L 442.526529 47.810428 
L 479.419091 34.67267 
" style="fill:none;stroke:#da8bc3;stroke-dasharray:5,5,7.5,3.75;stroke-dashoffset:0;stroke-width:2.5;"/>
    <defs>
     <path d="M -3 3 
L 3 3 
L 3 -3 
L -3 -3 
z
" id="me133d5685a" style="stroke:#ffffff;stroke-linejoin:miter;stroke-width:0.75;"/>
    </defs>
    <g clip-path="url(#pb05650f517)">
     <use style="fill:#da8bc3;stroke:#ffffff;stroke-linejoin:miter;stroke-width:0.75;" x="73.600909" xlink:href="#me133d5685a" y="274.184104"/>
     <use style="fill:#da8bc3;stroke:#ffffff;stroke-linejoin:miter;stroke-width:0.75;" x="110.493471" xlink:href="#me133d5685a" y="266.09933"/>
     <use style="fill:#da8bc3;stroke:#ffffff;stroke-linejoin:miter;stroke-width:0.75;" x="147.386033" xlink:href="#me133d5685a" y="253.46687"/>
     <use style="fill:#da8bc3;stroke:#ffffff;stroke-linejoin:miter;stroke-width:0.75;" x="184.278595" xlink:href="#me133d5685a" y="227.191354"/>
     <use style="fill:#da8bc3;stroke:#ffffff;stroke-linejoin:miter;stroke-width:0.75;" x="221.171157" xlink:href="#me133d5685a" y="197.884048"/>
     <use style="fill:#da8bc3;stroke:#ffffff;stroke-linejoin:miter;stroke-width:0.75;" x="258.063719" xlink:href="#me133d5685a" y="178.177411"/>
     <use style="fill:#da8bc3;stroke:#ffffff;stroke-linejoin:miter;stroke-width:0.75;" x="294.956281" xlink:href="#me133d5685a" y="153.923089"/>
     <use style="fill:#da8bc3;stroke:#ffffff;stroke-linejoin:miter;stroke-width:0.75;" x="331.848843" xlink:href="#me133d5685a" y="153.923089"/>
     <use style="fill:#da8bc3;stroke:#ffffff;stroke-linejoin:miter;stroke-width:0.75;" x="368.741405" xlink:href="#me133d5685a" y="116.531008"/>
     <use style="fill:#da8bc3;stroke:#ffffff;stroke-linejoin:miter;stroke-width:0.75;" x="405.633967" xlink:href="#me133d5685a" y="89.244896"/>
     <use style="fill:#da8bc3;stroke:#ffffff;stroke-linejoin:miter;stroke-width:0.75;" x="442.526529" xlink:href="#me133d5685a" y="47.810428"/>
     <use style="fill:#da8bc3;stroke:#ffffff;stroke-linejoin:miter;stroke-width:0.75;" x="479.419091" xlink:href="#me133d5685a" y="34.67267"/>
    </g>
   </g>
   <g id="line2d_26">
    <path clip-path="url(#pb05650f517)" d="M 73.600909 280.752983 
L 110.493471 276.710596 
L 147.386033 275.699999 
L 184.278595 274.184104 
L 221.171157 271.152314 
L 258.063719 265.088733 
L 294.956281 258.014556 
L 331.848843 254.477467 
L 368.741405 232.244338 
L 405.633967 219.611878 
L 442.526529 205.968822 
L 479.419091 191.820467 
" style="fill:none;stroke:#8c8c8c;stroke-dasharray:2.5,6.25,7.5,3;stroke-dashoffset:0;stroke-width:2.5;"/>
    <defs>
     <path d="M 0 -3 
L -2.85317 -0.927051 
L -1.763356 2.427051 
L 1.763356 2.427051 
L 2.85317 -0.927051 
z
" id="m017bd123e9" style="stroke:#ffffff;stroke-linejoin:miter;stroke-width:0.75;"/>
    </defs>
    <g clip-path="url(#pb05650f517)">
     <use style="fill:#8c8c8c;stroke:#ffffff;stroke-linejoin:miter;stroke-width:0.75;" x="73.600909" xlink:href="#m017bd123e9" y="280.752983"/>
     <use style="fill:#8c8c8c;stroke:#ffffff;stroke-linejoin:miter;stroke-width:0.75;" x="110.493471" xlink:href="#m017bd123e9" y="276.710596"/>
     <use style="fill:#8c8c8c;stroke:#ffffff;stroke-linejoin:miter;stroke-width:0.75;" x="147.386033" xlink:href="#m017bd123e9" y="275.699999"/>
     <use style="fill:#8c8c8c;stroke:#ffffff;stroke-linejoin:miter;stroke-width:0.75;" x="184.278595" xlink:href="#m017bd123e9" y="274.184104"/>
     <use style="fill:#8c8c8c;stroke:#ffffff;stroke-linejoin:miter;stroke-width:0.75;" x="221.171157" xlink:href="#m017bd123e9" y="271.152314"/>
     <use style="fill:#8c8c8c;stroke:#ffffff;stroke-linejoin:miter;stroke-width:0.75;" x="258.063719" xlink:href="#m017bd123e9" y="265.088733"/>
     <use style="fill:#8c8c8c;stroke:#ffffff;stroke-linejoin:miter;stroke-width:0.75;" x="294.956281" xlink:href="#m017bd123e9" y="258.014556"/>
     <use style="fill:#8c8c8c;stroke:#ffffff;stroke-linejoin:miter;stroke-width:0.75;" x="331.848843" xlink:href="#m017bd123e9" y="254.477467"/>
     <use style="fill:#8c8c8c;stroke:#ffffff;stroke-linejoin:miter;stroke-width:0.75;" x="368.741405" xlink:href="#m017bd123e9" y="232.244338"/>
     <use style="fill:#8c8c8c;stroke:#ffffff;stroke-linejoin:miter;stroke-width:0.75;" x="405.633967" xlink:href="#m017bd123e9" y="219.611878"/>
     <use style="fill:#8c8c8c;stroke:#ffffff;stroke-linejoin:miter;stroke-width:0.75;" x="442.526529" xlink:href="#m017bd123e9" y="205.968822"/>
     <use style="fill:#8c8c8c;stroke:#ffffff;stroke-linejoin:miter;stroke-width:0.75;" x="479.419091" xlink:href="#m017bd123e9" y="191.820467"/>
    </g>
   </g>
   <g id="line2d_27">
    <path clip-path="url(#pb05650f517)" d="M 73.600909 264.583435 
L 110.493471 260.541047 
L 147.386033 257.003959 
L 184.278595 248.919185 
L 221.171157 240.834411 
L 258.063719 231.233741 
L 294.956281 220.622475 
L 331.848843 217.590685 
L 368.741405 198.389346 
L 405.633967 176.661516 
L 442.526529 164.029056 
L 479.419091 142.301226 
" style="fill:none;stroke:#ccb974;stroke-dasharray:5,6.25,7.5,3;stroke-dashoffset:0;stroke-width:2.5;"/>
    <defs>
     <path d="M 0 -3 
L -0.673542 -0.927051 
L -2.85317 -0.927051 
L -1.089814 0.354102 
L -1.763356 2.427051 
L -0 1.145898 
L 1.763356 2.427051 
L 1.089814 0.354102 
L 2.85317 -0.927051 
L 0.673542 -0.927051 
z
" id="me6cc29209d" style="stroke:#ffffff;stroke-linejoin:bevel;stroke-width:0.75;"/>
    </defs>
    <g clip-path="url(#pb05650f517)">
     <use style="fill:#ccb974;stroke:#ffffff;stroke-linejoin:bevel;stroke-width:0.75;" x="73.600909" xlink:href="#me6cc29209d" y="264.583435"/>
     <use style="fill:#ccb974;stroke:#ffffff;stroke-linejoin:bevel;stroke-width:0.75;" x="110.493471" xlink:href="#me6cc29209d" y="260.541047"/>
     <use style="fill:#ccb974;stroke:#ffffff;stroke-linejoin:bevel;stroke-width:0.75;" x="147.386033" xlink:href="#me6cc29209d" y="257.003959"/>
     <use style="fill:#ccb974;stroke:#ffffff;stroke-linejoin:bevel;stroke-width:0.75;" x="184.278595" xlink:href="#me6cc29209d" y="248.919185"/>
     <use style="fill:#ccb974;stroke:#ffffff;stroke-linejoin:bevel;stroke-width:0.75;" x="221.171157" xlink:href="#me6cc29209d" y="240.834411"/>
     <use style="fill:#ccb974;stroke:#ffffff;stroke-linejoin:bevel;stroke-width:0.75;" x="258.063719" xlink:href="#me6cc29209d" y="231.233741"/>
     <use style="fill:#ccb974;stroke:#ffffff;stroke-linejoin:bevel;stroke-width:0.75;" x="294.956281" xlink:href="#me6cc29209d" y="220.622475"/>
     <use style="fill:#ccb974;stroke:#ffffff;stroke-linejoin:bevel;stroke-width:0.75;" x="331.848843" xlink:href="#me6cc29209d" y="217.590685"/>
     <use style="fill:#ccb974;stroke:#ffffff;stroke-linejoin:bevel;stroke-width:0.75;" x="368.741405" xlink:href="#me6cc29209d" y="198.389346"/>
     <use style="fill:#ccb974;stroke:#ffffff;stroke-linejoin:bevel;stroke-width:0.75;" x="405.633967" xlink:href="#me6cc29209d" y="176.661516"/>
     <use style="fill:#ccb974;stroke:#ffffff;stroke-linejoin:bevel;stroke-width:0.75;" x="442.526529" xlink:href="#me6cc29209d" y="164.029056"/>
     <use style="fill:#ccb974;stroke:#ffffff;stroke-linejoin:bevel;stroke-width:0.75;" x="479.419091" xlink:href="#me6cc29209d" y="142.301226"/>
    </g>
   </g>
   <g id="line2d_28"/>
   <g id="line2d_29"/>
   <g id="line2d_30"/>
   <g id="line2d_31"/>
   <g id="line2d_32"/>
   <g id="line2d_33"/>
   <g id="line2d_34"/>
   <g id="line2d_35"/>
   <g id="line2d_36"/>
   <g id="patch_3">
    <path d="M 53.31 294.118125 
L 53.31 22.318125 
" style="fill:none;stroke:#cccccc;stroke-linecap:square;stroke-linejoin:miter;stroke-width:1.25;"/>
   </g>
   <g id="patch_4">
    <path d="M 499.71 294.118125 
L 499.71 22.318125 
" style="fill:none;stroke:#cccccc;stroke-linecap:square;stroke-linejoin:miter;stroke-width:1.25;"/>
   </g>
   <g id="patch_5">
    <path d="M 53.31 294.118125 
L 499.71 294.118125 
" style="fill:none;stroke:#cccccc;stroke-linecap:square;stroke-linejoin:miter;stroke-width:1.25;"/>
   </g>
   <g id="patch_6">
    <path d="M 53.31 22.318125 
L 499.71 22.318125 
" style="fill:none;stroke:#cccccc;stroke-linecap:square;stroke-linejoin:miter;stroke-width:1.25;"/>
   </g>
   <g id="text_27">
    <!-- Bestätigte Fälle von Bundesland -->
    <defs>
     <path d="M 2.984375 54.6875 
L 12.5 54.6875 
L 29.59375 8.796875 
L 46.6875 54.6875 
L 56.203125 54.6875 
L 35.6875 0 
L 23.484375 0 
z
" id="DejaVuSans-118"/>
     <path d="M 30.609375 48.390625 
Q 23.390625 48.390625 19.1875 42.75 
Q 14.984375 37.109375 14.984375 27.296875 
Q 14.984375 17.484375 19.15625 11.84375 
Q 23.34375 6.203125 30.609375 6.203125 
Q 37.796875 6.203125 41.984375 11.859375 
Q 46.1875 17.53125 46.1875 27.296875 
Q 46.1875 37.015625 41.984375 42.703125 
Q 37.796875 48.390625 30.609375 48.390625 
z
M 30.609375 56 
Q 42.328125 56 49.015625 48.375 
Q 55.71875 40.765625 55.71875 27.296875 
Q 55.71875 13.875 49.015625 6.21875 
Q 42.328125 -1.421875 30.609375 -1.421875 
Q 18.84375 -1.421875 12.171875 6.21875 
Q 5.515625 13.875 5.515625 27.296875 
Q 5.515625 40.765625 12.171875 48.375 
Q 18.84375 56 30.609375 56 
z
" id="DejaVuSans-111"/>
     <path d="M 54.890625 33.015625 
L 54.890625 0 
L 45.90625 0 
L 45.90625 32.71875 
Q 45.90625 40.484375 42.875 44.328125 
Q 39.84375 48.1875 33.796875 48.1875 
Q 26.515625 48.1875 22.3125 43.546875 
Q 18.109375 38.921875 18.109375 30.90625 
L 18.109375 0 
L 9.078125 0 
L 9.078125 54.6875 
L 18.109375 54.6875 
L 18.109375 46.1875 
Q 21.34375 51.125 25.703125 53.5625 
Q 30.078125 56 35.796875 56 
Q 45.21875 56 50.046875 50.171875 
Q 54.890625 44.34375 54.890625 33.015625 
z
" id="DejaVuSans-110"/>
     <path d="M 45.40625 46.390625 
L 45.40625 75.984375 
L 54.390625 75.984375 
L 54.390625 0 
L 45.40625 0 
L 45.40625 8.203125 
Q 42.578125 3.328125 38.25 0.953125 
Q 33.9375 -1.421875 27.875 -1.421875 
Q 17.96875 -1.421875 11.734375 6.484375 
Q 5.515625 14.40625 5.515625 27.296875 
Q 5.515625 40.1875 11.734375 48.09375 
Q 17.96875 56 27.875 56 
Q 33.9375 56 38.25 53.625 
Q 42.578125 51.265625 45.40625 46.390625 
z
M 14.796875 27.296875 
Q 14.796875 17.390625 18.875 11.75 
Q 22.953125 6.109375 30.078125 6.109375 
Q 37.203125 6.109375 41.296875 11.75 
Q 45.40625 17.390625 45.40625 27.296875 
Q 45.40625 37.203125 41.296875 42.84375 
Q 37.203125 48.484375 30.078125 48.484375 
Q 22.953125 48.484375 18.875 42.84375 
Q 14.796875 37.203125 14.796875 27.296875 
z
" id="DejaVuSans-100"/>
    </defs>
    <g style="fill:#262626;" transform="translate(180.019687 16.318125)scale(0.12 -0.12)">
     <use xlink:href="#DejaVuSans-66"/>
     <use x="68.603516" xlink:href="#DejaVuSans-101"/>
     <use x="130.126953" xlink:href="#DejaVuSans-115"/>
     <use x="182.226562" xlink:href="#DejaVuSans-116"/>
     <use x="221.435547" xlink:href="#DejaVuSans-228"/>
     <use x="282.714844" xlink:href="#DejaVuSans-116"/>
     <use x="321.923828" xlink:href="#DejaVuSans-105"/>
     <use x="349.707031" xlink:href="#DejaVuSans-103"/>
     <use x="413.183594" xlink:href="#DejaVuSans-116"/>
     <use x="452.392578" xlink:href="#DejaVuSans-101"/>
     <use x="513.916016" xlink:href="#DejaVuSans-32"/>
     <use x="545.703125" xlink:href="#DejaVuSans-70"/>
     <use x="594.097656" xlink:href="#DejaVuSans-228"/>
     <use x="655.376953" xlink:href="#DejaVuSans-108"/>
     <use x="683.160156" xlink:href="#DejaVuSans-108"/>
     <use x="710.943359" xlink:href="#DejaVuSans-101"/>
     <use x="772.466797" xlink:href="#DejaVuSans-32"/>
     <use x="804.253906" xlink:href="#DejaVuSans-118"/>
     <use x="863.433594" xlink:href="#DejaVuSans-111"/>
     <use x="924.615234" xlink:href="#DejaVuSans-110"/>
     <use x="987.994141" xlink:href="#DejaVuSans-32"/>
     <use x="1019.78125" xlink:href="#DejaVuSans-66"/>
     <use x="1088.384766" xlink:href="#DejaVuSans-117"/>
     <use x="1151.763672" xlink:href="#DejaVuSans-110"/>
     <use x="1215.142578" xlink:href="#DejaVuSans-100"/>
     <use x="1278.619141" xlink:href="#DejaVuSans-101"/>
     <use x="1340.142578" xlink:href="#DejaVuSans-115"/>
     <use x="1392.242188" xlink:href="#DejaVuSans-108"/>
     <use x="1420.025391" xlink:href="#DejaVuSans-97"/>
     <use x="1481.304688" xlink:href="#DejaVuSans-110"/>
     <use x="1544.683594" xlink:href="#DejaVuSans-100"/>
    </g>
   </g>
   <g id="legend_1">
    <g id="patch_7">
     <path d="M 546.55 170.931562 
L 672.819687 170.931562 
Q 675.019688 170.931562 675.019688 168.731562 
L 675.019688 24.518125 
Q 675.019688 22.318125 672.819687 22.318125 
L 546.55 22.318125 
Q 544.35 22.318125 544.35 24.518125 
L 544.35 168.731562 
Q 544.35 170.931562 546.55 170.931562 
z
" style="fill:#ffffff;opacity:0.8;stroke:#cccccc;stroke-linejoin:miter;"/>
    </g>
    <g id="line2d_37">
     <path d="M 548.75 31.226406 
L 570.75 31.226406 
" style="fill:none;stroke:#4c72b0;stroke-linecap:round;stroke-width:1.5;"/>
    </g>
    <g id="line2d_38">
     <defs>
      <path d="M 0 3 
C 0.795609 3 1.55874 2.683901 2.12132 2.12132 
C 2.683901 1.55874 3 0.795609 3 0 
C 3 -0.795609 2.683901 -1.55874 2.12132 -2.12132 
C 1.55874 -2.683901 0.795609 -3 0 -3 
C -0.795609 -3 -1.55874 -2.683901 -2.12132 -2.12132 
C -2.683901 -1.55874 -3 -0.795609 -3 0 
C -3 0.795609 -2.683901 1.55874 -2.12132 2.12132 
C -1.55874 2.683901 -0.795609 3 0 3 
z
" id="m4985f3b332" style="stroke:#4c72b0;"/>
     </defs>
     <g>
      <use style="fill:#4c72b0;stroke:#4c72b0;" x="559.75" xlink:href="#m4985f3b332" y="31.226406"/>
     </g>
    </g>
    <g id="text_28">
     <!-- Burgenland -->
     <g style="fill:#262626;" transform="translate(579.55 35.076406)scale(0.11 -0.11)">
      <use xlink:href="#DejaVuSans-66"/>
      <use x="68.603516" xlink:href="#DejaVuSans-117"/>
      <use x="131.982422" xlink:href="#DejaVuSans-114"/>
      <use x="171.345703" xlink:href="#DejaVuSans-103"/>
      <use x="234.822266" xlink:href="#DejaVuSans-101"/>
      <use x="296.345703" xlink:href="#DejaVuSans-110"/>
      <use x="359.724609" xlink:href="#DejaVuSans-108"/>
      <use x="387.507812" xlink:href="#DejaVuSans-97"/>
      <use x="448.787109" xlink:href="#DejaVuSans-110"/>
      <use x="512.166016" xlink:href="#DejaVuSans-100"/>
     </g>
    </g>
    <g id="line2d_39">
     <path d="M 548.75 47.372344 
L 570.75 47.372344 
" style="fill:none;stroke:#dd8452;stroke-dasharray:6,2.25;stroke-dashoffset:0;stroke-width:1.5;"/>
    </g>
    <g id="line2d_40">
     <defs>
      <path d="M -0 3 
L 3 -3 
L -3 -3 
z
" id="mceeb4979be" style="stroke:#dd8452;stroke-linejoin:miter;"/>
     </defs>
     <g>
      <use style="fill:#dd8452;stroke:#dd8452;stroke-linejoin:miter;" x="559.75" xlink:href="#mceeb4979be" y="47.372344"/>
     </g>
    </g>
    <g id="text_29">
     <!-- Kärnten -->
     <defs>
      <path d="M 9.8125 72.90625 
L 19.671875 72.90625 
L 19.671875 42.09375 
L 52.390625 72.90625 
L 65.09375 72.90625 
L 28.90625 38.921875 
L 67.671875 0 
L 54.6875 0 
L 19.671875 35.109375 
L 19.671875 0 
L 9.8125 0 
z
" id="DejaVuSans-75"/>
     </defs>
     <g style="fill:#262626;" transform="translate(579.55 51.222344)scale(0.11 -0.11)">
      <use xlink:href="#DejaVuSans-75"/>
      <use x="63.826172" xlink:href="#DejaVuSans-228"/>
      <use x="125.105469" xlink:href="#DejaVuSans-114"/>
      <use x="164.46875" xlink:href="#DejaVuSans-110"/>
      <use x="227.847656" xlink:href="#DejaVuSans-116"/>
      <use x="267.056641" xlink:href="#DejaVuSans-101"/>
      <use x="328.580078" xlink:href="#DejaVuSans-110"/>
     </g>
    </g>
    <g id="line2d_41">
     <path d="M 548.75 63.518281 
L 570.75 63.518281 
" style="fill:none;stroke:#55a868;stroke-dasharray:1.5,1.5;stroke-dashoffset:0;stroke-width:1.5;"/>
    </g>
    <g id="line2d_42">
     <defs>
      <path d="M 0 -3 
L -3 3 
L 3 3 
z
" id="m37d383db4e" style="stroke:#55a868;stroke-linejoin:miter;"/>
     </defs>
     <g>
      <use style="fill:#55a868;stroke:#55a868;stroke-linejoin:miter;" x="559.75" xlink:href="#m37d383db4e" y="63.518281"/>
     </g>
    </g>
    <g id="text_30">
     <!-- Niederösterreich -->
     <defs>
      <path d="M 9.8125 72.90625 
L 23.09375 72.90625 
L 55.421875 11.921875 
L 55.421875 72.90625 
L 64.984375 72.90625 
L 64.984375 0 
L 51.703125 0 
L 19.390625 60.984375 
L 19.390625 0 
L 9.8125 0 
z
" id="DejaVuSans-78"/>
      <path d="M 30.609375 48.390625 
Q 23.390625 48.390625 19.1875 42.75 
Q 14.984375 37.109375 14.984375 27.296875 
Q 14.984375 17.484375 19.15625 11.84375 
Q 23.34375 6.203125 30.609375 6.203125 
Q 37.796875 6.203125 41.984375 11.859375 
Q 46.1875 17.53125 46.1875 27.296875 
Q 46.1875 37.015625 41.984375 42.703125 
Q 37.796875 48.390625 30.609375 48.390625 
z
M 30.609375 56 
Q 42.328125 56 49.015625 48.375 
Q 55.71875 40.765625 55.71875 27.296875 
Q 55.71875 13.875 49.015625 6.21875 
Q 42.328125 -1.421875 30.609375 -1.421875 
Q 18.84375 -1.421875 12.171875 6.21875 
Q 5.515625 13.875 5.515625 27.296875 
Q 5.515625 40.765625 12.171875 48.375 
Q 18.84375 56 30.609375 56 
z
M 35.21875 75.78125 
L 45.125 75.78125 
L 45.125 65.921875 
L 35.21875 65.921875 
z
M 16.125 75.78125 
L 26.03125 75.78125 
L 26.03125 65.921875 
L 16.125 65.921875 
z
" id="DejaVuSans-246"/>
      <path d="M 48.78125 52.59375 
L 48.78125 44.1875 
Q 44.96875 46.296875 41.140625 47.34375 
Q 37.3125 48.390625 33.40625 48.390625 
Q 24.65625 48.390625 19.8125 42.84375 
Q 14.984375 37.3125 14.984375 27.296875 
Q 14.984375 17.28125 19.8125 11.734375 
Q 24.65625 6.203125 33.40625 6.203125 
Q 37.3125 6.203125 41.140625 7.25 
Q 44.96875 8.296875 48.78125 10.40625 
L 48.78125 2.09375 
Q 45.015625 0.34375 40.984375 -0.53125 
Q 36.96875 -1.421875 32.421875 -1.421875 
Q 20.0625 -1.421875 12.78125 6.34375 
Q 5.515625 14.109375 5.515625 27.296875 
Q 5.515625 40.671875 12.859375 48.328125 
Q 20.21875 56 33.015625 56 
Q 37.15625 56 41.109375 55.140625 
Q 45.0625 54.296875 48.78125 52.59375 
z
" id="DejaVuSans-99"/>
      <path d="M 54.890625 33.015625 
L 54.890625 0 
L 45.90625 0 
L 45.90625 32.71875 
Q 45.90625 40.484375 42.875 44.328125 
Q 39.84375 48.1875 33.796875 48.1875 
Q 26.515625 48.1875 22.3125 43.546875 
Q 18.109375 38.921875 18.109375 30.90625 
L 18.109375 0 
L 9.078125 0 
L 9.078125 75.984375 
L 18.109375 75.984375 
L 18.109375 46.1875 
Q 21.34375 51.125 25.703125 53.5625 
Q 30.078125 56 35.796875 56 
Q 45.21875 56 50.046875 50.171875 
Q 54.890625 44.34375 54.890625 33.015625 
z
" id="DejaVuSans-104"/>
     </defs>
     <g style="fill:#262626;" transform="translate(579.55 67.368281)scale(0.11 -0.11)">
      <use xlink:href="#DejaVuSans-78"/>
      <use x="74.804688" xlink:href="#DejaVuSans-105"/>
      <use x="102.587891" xlink:href="#DejaVuSans-101"/>
      <use x="164.111328" xlink:href="#DejaVuSans-100"/>
      <use x="227.587891" xlink:href="#DejaVuSans-101"/>
      <use x="289.111328" xlink:href="#DejaVuSans-114"/>
      <use x="327.974609" xlink:href="#DejaVuSans-246"/>
      <use x="389.15625" xlink:href="#DejaVuSans-115"/>
      <use x="441.255859" xlink:href="#DejaVuSans-116"/>
      <use x="480.464844" xlink:href="#DejaVuSans-101"/>
      <use x="541.988281" xlink:href="#DejaVuSans-114"/>
      <use x="581.351562" xlink:href="#DejaVuSans-114"/>
      <use x="620.214844" xlink:href="#DejaVuSans-101"/>
      <use x="681.738281" xlink:href="#DejaVuSans-105"/>
      <use x="709.521484" xlink:href="#DejaVuSans-99"/>
      <use x="764.501953" xlink:href="#DejaVuSans-104"/>
     </g>
    </g>
    <g id="line2d_43">
     <path d="M 548.75 79.664219 
L 570.75 79.664219 
" style="fill:none;stroke:#c44e52;stroke-dasharray:4.5,1.5,2.25,1.5;stroke-dashoffset:0;stroke-width:1.5;"/>
    </g>
    <g id="line2d_44">
     <defs>
      <path d="M -3 -0 
L 3 3 
L 3 -3 
z
" id="m62c6edf58d" style="stroke:#c44e52;stroke-linejoin:miter;"/>
     </defs>
     <g>
      <use style="fill:#c44e52;stroke:#c44e52;stroke-linejoin:miter;" x="559.75" xlink:href="#m62c6edf58d" y="79.664219"/>
     </g>
    </g>
    <g id="text_31">
     <!-- Oberösterreich -->
     <defs>
      <path d="M 39.40625 66.21875 
Q 28.65625 66.21875 22.328125 58.203125 
Q 16.015625 50.203125 16.015625 36.375 
Q 16.015625 22.609375 22.328125 14.59375 
Q 28.65625 6.59375 39.40625 6.59375 
Q 50.140625 6.59375 56.421875 14.59375 
Q 62.703125 22.609375 62.703125 36.375 
Q 62.703125 50.203125 56.421875 58.203125 
Q 50.140625 66.21875 39.40625 66.21875 
z
M 39.40625 74.21875 
Q 54.734375 74.21875 63.90625 63.9375 
Q 73.09375 53.65625 73.09375 36.375 
Q 73.09375 19.140625 63.90625 8.859375 
Q 54.734375 -1.421875 39.40625 -1.421875 
Q 24.03125 -1.421875 14.8125 8.828125 
Q 5.609375 19.09375 5.609375 36.375 
Q 5.609375 53.65625 14.8125 63.9375 
Q 24.03125 74.21875 39.40625 74.21875 
z
" id="DejaVuSans-79"/>
      <path d="M 48.6875 27.296875 
Q 48.6875 37.203125 44.609375 42.84375 
Q 40.53125 48.484375 33.40625 48.484375 
Q 26.265625 48.484375 22.1875 42.84375 
Q 18.109375 37.203125 18.109375 27.296875 
Q 18.109375 17.390625 22.1875 11.75 
Q 26.265625 6.109375 33.40625 6.109375 
Q 40.53125 6.109375 44.609375 11.75 
Q 48.6875 17.390625 48.6875 27.296875 
z
M 18.109375 46.390625 
Q 20.953125 51.265625 25.265625 53.625 
Q 29.59375 56 35.59375 56 
Q 45.5625 56 51.78125 48.09375 
Q 58.015625 40.1875 58.015625 27.296875 
Q 58.015625 14.40625 51.78125 6.484375 
Q 45.5625 -1.421875 35.59375 -1.421875 
Q 29.59375 -1.421875 25.265625 0.953125 
Q 20.953125 3.328125 18.109375 8.203125 
L 18.109375 0 
L 9.078125 0 
L 9.078125 75.984375 
L 18.109375 75.984375 
z
" id="DejaVuSans-98"/>
     </defs>
     <g style="fill:#262626;" transform="translate(579.55 83.514219)scale(0.11 -0.11)">
      <use xlink:href="#DejaVuSans-79"/>
      <use x="78.710938" xlink:href="#DejaVuSans-98"/>
      <use x="142.1875" xlink:href="#DejaVuSans-101"/>
      <use x="203.710938" xlink:href="#DejaVuSans-114"/>
      <use x="242.574219" xlink:href="#DejaVuSans-246"/>
      <use x="303.755859" xlink:href="#DejaVuSans-115"/>
      <use x="355.855469" xlink:href="#DejaVuSans-116"/>
      <use x="395.064453" xlink:href="#DejaVuSans-101"/>
      <use x="456.587891" xlink:href="#DejaVuSans-114"/>
      <use x="495.951172" xlink:href="#DejaVuSans-114"/>
      <use x="534.814453" xlink:href="#DejaVuSans-101"/>
      <use x="596.337891" xlink:href="#DejaVuSans-105"/>
      <use x="624.121094" xlink:href="#DejaVuSans-99"/>
      <use x="679.101562" xlink:href="#DejaVuSans-104"/>
     </g>
    </g>
    <g id="line2d_45">
     <path d="M 548.75 95.810156 
L 570.75 95.810156 
" style="fill:none;stroke:#8172b3;stroke-dasharray:7.5,1.5,1.5,1.5;stroke-dashoffset:0;stroke-width:1.5;"/>
    </g>
    <g id="line2d_46">
     <defs>
      <path d="M 3 0 
L -3 -3 
L -3 3 
z
" id="mfe5e9b2272" style="stroke:#8172b3;stroke-linejoin:miter;"/>
     </defs>
     <g>
      <use style="fill:#8172b3;stroke:#8172b3;stroke-linejoin:miter;" x="559.75" xlink:href="#mfe5e9b2272" y="95.810156"/>
     </g>
    </g>
    <g id="text_32">
     <!-- Salzburg -->
     <defs>
      <path d="M 53.515625 70.515625 
L 53.515625 60.890625 
Q 47.90625 63.578125 42.921875 64.890625 
Q 37.9375 66.21875 33.296875 66.21875 
Q 25.25 66.21875 20.875 63.09375 
Q 16.5 59.96875 16.5 54.203125 
Q 16.5 49.359375 19.40625 46.890625 
Q 22.3125 44.4375 30.421875 42.921875 
L 36.375 41.703125 
Q 47.40625 39.59375 52.65625 34.296875 
Q 57.90625 29 57.90625 20.125 
Q 57.90625 9.515625 50.796875 4.046875 
Q 43.703125 -1.421875 29.984375 -1.421875 
Q 24.8125 -1.421875 18.96875 -0.25 
Q 13.140625 0.921875 6.890625 3.21875 
L 6.890625 13.375 
Q 12.890625 10.015625 18.65625 8.296875 
Q 24.421875 6.59375 29.984375 6.59375 
Q 38.421875 6.59375 43.015625 9.90625 
Q 47.609375 13.234375 47.609375 19.390625 
Q 47.609375 24.75 44.3125 27.78125 
Q 41.015625 30.8125 33.5 32.328125 
L 27.484375 33.5 
Q 16.453125 35.6875 11.515625 40.375 
Q 6.59375 45.0625 6.59375 53.421875 
Q 6.59375 63.09375 13.40625 68.65625 
Q 20.21875 74.21875 32.171875 74.21875 
Q 37.3125 74.21875 42.625 73.28125 
Q 47.953125 72.359375 53.515625 70.515625 
z
" id="DejaVuSans-83"/>
      <path d="M 5.515625 54.6875 
L 48.1875 54.6875 
L 48.1875 46.484375 
L 14.40625 7.171875 
L 48.1875 7.171875 
L 48.1875 0 
L 4.296875 0 
L 4.296875 8.203125 
L 38.09375 47.515625 
L 5.515625 47.515625 
z
" id="DejaVuSans-122"/>
     </defs>
     <g style="fill:#262626;" transform="translate(579.55 99.660156)scale(0.11 -0.11)">
      <use xlink:href="#DejaVuSans-83"/>
      <use x="63.476562" xlink:href="#DejaVuSans-97"/>
      <use x="124.755859" xlink:href="#DejaVuSans-108"/>
      <use x="152.539062" xlink:href="#DejaVuSans-122"/>
      <use x="205.029297" xlink:href="#DejaVuSans-98"/>
      <use x="268.505859" xlink:href="#DejaVuSans-117"/>
      <use x="331.884766" xlink:href="#DejaVuSans-114"/>
      <use x="371.248047" xlink:href="#DejaVuSans-103"/>
     </g>
    </g>
    <g id="line2d_47">
     <path d="M 548.75 111.956094 
L 570.75 111.956094 
" style="fill:none;stroke:#937860;stroke-dasharray:7.5,1.5,3,1.5,3,1.5;stroke-dashoffset:0;stroke-width:1.5;"/>
    </g>
    <g id="line2d_48">
     <defs>
      <path d="M -1.14805 -2.771639 
L -2.771639 -1.14805 
L -2.771639 1.14805 
L -1.14805 2.771639 
L 1.14805 2.771639 
L 2.771639 1.14805 
L 2.771639 -1.14805 
L 1.14805 -2.771639 
z
" id="m810ae88d36" style="stroke:#937860;stroke-linejoin:miter;"/>
     </defs>
     <g>
      <use style="fill:#937860;stroke:#937860;stroke-linejoin:miter;" x="559.75" xlink:href="#m810ae88d36" y="111.956094"/>
     </g>
    </g>
    <g id="text_33">
     <!-- Steiermark -->
     <defs>
      <path d="M 9.078125 75.984375 
L 18.109375 75.984375 
L 18.109375 31.109375 
L 44.921875 54.6875 
L 56.390625 54.6875 
L 27.390625 29.109375 
L 57.625 0 
L 45.90625 0 
L 18.109375 26.703125 
L 18.109375 0 
L 9.078125 0 
z
" id="DejaVuSans-107"/>
     </defs>
     <g style="fill:#262626;" transform="translate(579.55 115.806094)scale(0.11 -0.11)">
      <use xlink:href="#DejaVuSans-83"/>
      <use x="63.476562" xlink:href="#DejaVuSans-116"/>
      <use x="102.685547" xlink:href="#DejaVuSans-101"/>
      <use x="164.208984" xlink:href="#DejaVuSans-105"/>
      <use x="191.992188" xlink:href="#DejaVuSans-101"/>
      <use x="253.515625" xlink:href="#DejaVuSans-114"/>
      <use x="292.878906" xlink:href="#DejaVuSans-109"/>
      <use x="390.291016" xlink:href="#DejaVuSans-97"/>
      <use x="451.570312" xlink:href="#DejaVuSans-114"/>
      <use x="492.683594" xlink:href="#DejaVuSans-107"/>
     </g>
    </g>
    <g id="line2d_49">
     <path d="M 548.75 128.102031 
L 570.75 128.102031 
" style="fill:none;stroke:#da8bc3;stroke-dasharray:3,3,4.5,2.25;stroke-dashoffset:0;stroke-width:1.5;"/>
    </g>
    <g id="line2d_50">
     <defs>
      <path d="M -3 3 
L 3 3 
L 3 -3 
L -3 -3 
z
" id="med43c91c30" style="stroke:#da8bc3;stroke-linejoin:miter;"/>
     </defs>
     <g>
      <use style="fill:#da8bc3;stroke:#da8bc3;stroke-linejoin:miter;" x="559.75" xlink:href="#med43c91c30" y="128.102031"/>
     </g>
    </g>
    <g id="text_34">
     <!-- Tirol -->
     <defs>
      <path d="M -0.296875 72.90625 
L 61.375 72.90625 
L 61.375 64.59375 
L 35.5 64.59375 
L 35.5 0 
L 25.59375 0 
L 25.59375 64.59375 
L -0.296875 64.59375 
z
" id="DejaVuSans-84"/>
     </defs>
     <g style="fill:#262626;" transform="translate(579.55 131.952031)scale(0.11 -0.11)">
      <use xlink:href="#DejaVuSans-84"/>
      <use x="57.958984" xlink:href="#DejaVuSans-105"/>
      <use x="85.742188" xlink:href="#DejaVuSans-114"/>
      <use x="124.605469" xlink:href="#DejaVuSans-111"/>
      <use x="185.787109" xlink:href="#DejaVuSans-108"/>
     </g>
    </g>
    <g id="line2d_51">
     <path d="M 548.75 144.247969 
L 570.75 144.247969 
" style="fill:none;stroke:#8c8c8c;stroke-dasharray:1.5,3.75,4.5,1.8;stroke-dashoffset:0;stroke-width:1.5;"/>
    </g>
    <g id="line2d_52">
     <defs>
      <path d="M 0 -3 
L -2.85317 -0.927051 
L -1.763356 2.427051 
L 1.763356 2.427051 
L 2.85317 -0.927051 
z
" id="m636dec9837" style="stroke:#8c8c8c;stroke-linejoin:miter;"/>
     </defs>
     <g>
      <use style="fill:#8c8c8c;stroke:#8c8c8c;stroke-linejoin:miter;" x="559.75" xlink:href="#m636dec9837" y="144.247969"/>
     </g>
    </g>
    <g id="text_35">
     <!-- Vorarlberg -->
     <defs>
      <path d="M 28.609375 0 
L 0.78125 72.90625 
L 11.078125 72.90625 
L 34.1875 11.53125 
L 57.328125 72.90625 
L 67.578125 72.90625 
L 39.796875 0 
z
" id="DejaVuSans-86"/>
     </defs>
     <g style="fill:#262626;" transform="translate(579.55 148.097969)scale(0.11 -0.11)">
      <use xlink:href="#DejaVuSans-86"/>
      <use x="60.658203" xlink:href="#DejaVuSans-111"/>
      <use x="121.839844" xlink:href="#DejaVuSans-114"/>
      <use x="162.953125" xlink:href="#DejaVuSans-97"/>
      <use x="224.232422" xlink:href="#DejaVuSans-114"/>
      <use x="265.345703" xlink:href="#DejaVuSans-108"/>
      <use x="293.128906" xlink:href="#DejaVuSans-98"/>
      <use x="356.605469" xlink:href="#DejaVuSans-101"/>
      <use x="418.128906" xlink:href="#DejaVuSans-114"/>
      <use x="457.492188" xlink:href="#DejaVuSans-103"/>
     </g>
    </g>
    <g id="line2d_53">
     <path d="M 548.75 160.393906 
L 570.75 160.393906 
" style="fill:none;stroke:#ccb974;stroke-dasharray:3,3.75,4.5,1.8;stroke-dashoffset:0;stroke-width:1.5;"/>
    </g>
    <g id="line2d_54">
     <defs>
      <path d="M 0 -3 
L -0.673542 -0.927051 
L -2.85317 -0.927051 
L -1.089814 0.354102 
L -1.763356 2.427051 
L -0 1.145898 
L 1.763356 2.427051 
L 1.089814 0.354102 
L 2.85317 -0.927051 
L 0.673542 -0.927051 
z
" id="maf3ee179e8" style="stroke:#ccb974;stroke-linejoin:bevel;"/>
     </defs>
     <g>
      <use style="fill:#ccb974;stroke:#ccb974;stroke-linejoin:bevel;" x="559.75" xlink:href="#maf3ee179e8" y="160.393906"/>
     </g>
    </g>
    <g id="text_36">
     <!-- Wien -->
     <defs>
      <path d="M 3.328125 72.90625 
L 13.28125 72.90625 
L 28.609375 11.28125 
L 43.890625 72.90625 
L 54.984375 72.90625 
L 70.3125 11.28125 
L 85.59375 72.90625 
L 95.609375 72.90625 
L 77.296875 0 
L 64.890625 0 
L 49.515625 63.28125 
L 33.984375 0 
L 21.578125 0 
z
" id="DejaVuSans-87"/>
     </defs>
     <g style="fill:#262626;" transform="translate(579.55 164.243906)scale(0.11 -0.11)">
      <use xlink:href="#DejaVuSans-87"/>
      <use x="96.626953" xlink:href="#DejaVuSans-105"/>
      <use x="124.410156" xlink:href="#DejaVuSans-101"/>
      <use x="185.933594" xlink:href="#DejaVuSans-110"/>
     </g>
    </g>
   </g>
  </g>
 </g>
 <defs>
  <clipPath id="pb05650f517">
   <rect height="271.8" width="446.4" x="53.31" y="22.318125"/>
  </clipPath>
 </defs>
</svg>
